<svg id="Layer_1" enable-background="new 0 0 512 512" height="512" viewBox="0 0 512 512" width="512" xmlns="http://www.w3.org/2000/svg"><g><path d="m350 321h-320c-11.046 0-20-8.954-20-20v-180c0-11.046 8.954-20 20-20h320c11.046 0 20 8.954 20 20v180c0 11.046-8.954 20-20 20z" fill="#ff9eb1"/><path d="m10 151h360v70h-360z" fill="#ff7d97"/><path d="m482 411h-320c-11.046 0-20-8.954-20-20v-180c0-11.046 8.954-20 20-20h320c11.046 0 20 8.954 20 20v180c0 11.046-8.954 20-20 20z" fill="#ffbecb"/><path d="m482 181h-102v-60c0-16.542-13.458-30-30-30h-320c-16.542 0-30 13.458-30 30v180c0 16.542 13.458 30 30 30h102v60c0 16.542 13.458 30 30 30h320c16.542 0 30-13.458 30-30v-180c0-16.542-13.458-30-30-30zm-452 130c-5.514 0-10-4.486-10-10v-180c0-5.514 4.486-10 10-10h320c5.514 0 10 4.486 10 10v60h-198c-16.542 0-30 13.458-30 30v100zm462 80c0 5.514-4.486 10-10 10h-320c-5.514 0-10-4.486-10-10v-180c0-5.514 4.486-10 10-10h320c5.514 0 10 4.486 10 10z" fill="#ff5d7d"/><circle cx="392" cy="261" fill="#ffcd69" r="30"/><circle cx="432" cy="261" fill="#ffee80" r="30"/><g><path d="m228 291h-36c-5.523 0-10-4.477-10-10s4.477-10 10-10h36c5.523 0 10 4.477 10 10s-4.477 10-10 10z" fill="#ffdfe5"/></g><g><path d="m452 371h-260c-5.523 0-10-4.477-10-10s4.477-10 10-10h260c5.522 0 10 4.477 10 10s-4.478 10-10 10z" fill="#fff"/></g><g><path d="m262 251h-70c-5.523 0-10-4.477-10-10s4.477-10 10-10h70c5.522 0 10 4.477 10 10s-4.478 10-10 10z" fill="#ffdfe5"/></g></g></svg>