<svg id="Layer_1" enable-background="new 0 0 512.001 512.001" height="512" viewBox="0 0 512.001 512.001" width="512" xmlns="http://www.w3.org/2000/svg"><g><circle cx="256" cy="110.001" fill="#ffee80" r="100"/><path d="m336 386.001v116h-160v-116" fill="#e8d0c1"/><path d="m156 336.001h200v50h-200z" fill="#fff"/><path d="m256 336.001c0-44.183 35.817-80 80-80 0 44.182-35.817 80-80 80z" fill="#d0f2d2"/><path d="m256 336.001c0-44.183-35.817-80-80-80 0 44.182 35.817 80 80 80z" fill="#d0f2d2"/><g fill="#c68a65"><path d="m266 169.494v-8.99h10c5.523 0 10-4.477 10-10v-40c0-5.523-4.477-10-10-10h-30v-20h30c5.523 0 10-4.477 10-10s-4.477-10-10-10h-10v-9.997c0-5.523-4.477-10-10-10s-10 4.477-10 10v9.997h-10c-5.523 0-10 4.477-10 10v40c0 5.523 4.477 10 10 10h30v20h-30c-5.523 0-10 4.477-10 10s4.477 10 10 10h10v8.99c0 5.523 4.477 10 10 10s10-4.477 10-10z"/><path d="m356 326.001h-43.501c20.419-16.513 33.501-41.755 33.501-70 0-5.523-4.477-10-10-10-28.245 0-53.487 13.082-70 33.501v-59.958c56.845-5.15 101.035-53.591 99.982-111.542-1.102-60.644-51.328-109.093-111.98-107.983-60.644 1.102-109.085 51.337-107.983 111.98 1.029 56.597 44.844 102.552 99.982 107.544v59.959c-16.513-20.419-41.755-33.501-70-33.501-5.523 0-10 4.477-10 10 0 28.245 13.082 53.487 33.501 70h-43.502c-5.523 0-10 4.477-10 10v50c0 5.523 4.477 10 10 10h10v106c0 5.523 4.477 10 10 10h160c5.523 0 10-4.477 10-10v-106h10c5.523 0 10-4.477 10-10v-50c0-5.523-4.477-10-10-10zm-30.838-59.163c-4.672 29.939-28.385 53.652-58.324 58.324 4.672-29.938 28.385-53.652 58.324-58.324zm-159.147-155.202c-.902-49.618 38.732-90.718 88.35-91.62.554-.01 1.107-.015 1.659-.015 48.872 0 89.069 39.301 89.961 88.365.902 49.618-38.732 90.718-88.35 91.62-.483.009-.964.007-1.446.008-.064-.001-.125-.01-.189-.01-.08 0-.157.01-.237.012-48.796-.107-88.857-39.368-89.748-88.36zm20.823 155.202c29.939 4.672 53.652 28.385 58.324 58.324-29.939-4.671-53.652-28.385-58.324-58.324zm139.162 225.163h-140v-96h140zm20-116h-180v-30h180z"/></g></g></svg>