<svg id="Layer_1" enable-background="new 0 0 512 512" height="512" viewBox="0 0 512 512" width="512" xmlns="http://www.w3.org/2000/svg"><g><path d="m56 116h400v240h-400z" fill="#d0f2d2"/><circle cx="256" cy="236" fill="#fff" r="50"/><circle cx="157" cy="236" fill="#fff" r="15"/><circle cx="357" cy="235" fill="#fff" r="15"/><g fill="#ffee80"><path d="m402 276h100v40h-100z"/><path d="m402 316h100v40h-100z"/><path d="m402 356h100v40h-100z"/><path d="m302 356h100v40h-100z"/><path d="m302 316h100v40h-100z"/><path d="m10 316h100v40h-100z" transform="matrix(-1 0 0 -1 120 672)"/><path d="m10 356h100v40h-100z" transform="matrix(-1 0 0 -1 120 752)"/><path d="m110 356h100v40h-100z" transform="matrix(-1 0 0 -1 320 752)"/></g><g fill="#5cd0b3"><path d="m256 176c-33.084 0-60 26.916-60 60s26.916 60 60 60 60-26.916 60-60-26.916-60-60-60zm0 100c-22.056 0-40-17.944-40-40s17.944-40 40-40 40 17.944 40 40-17.944 40-40 40z"/><path d="m502 266h-36v-150c0-5.523-4.478-10-10-10h-400c-5.523 0-10 4.477-10 10v190h-36c-5.523 0-10 4.477-10 10v80c0 5.523 4.477 10 10 10h200c5.523 0 10-4.477 10-10v-30h72v30c0 5.523 4.478 10 10 10h200c5.522 0 10-4.477 10-10v-120c0-5.523-4.478-10-10-10zm-381.857 40-14.143-14.142v-111.716l14.143-14.142h271.715l14.142 14.142v85.858h-4c-5.522 0-10 4.477-10 10v30zm271.857 20v20h-80v-20zm20 0h80v20h-80zm80-20h-80v-20h80zm-426-180h380v140h-20v-90c0-2.652-1.054-5.196-2.929-7.071l-20-20c-1.876-1.875-4.419-2.929-7.071-2.929h-280c-2.652 0-5.196 1.054-7.071 2.929l-20.001 20c-1.874 1.875-2.928 4.419-2.928 7.071v120c0 2.652 1.054 5.196 2.929 7.071l2.928 2.929h-25.857zm34 200v20h-80v-20zm-80 40h80v20h-80zm180 20h-80v-20h80zm-80-40v-20h172v20zm192 40v-20h80v20zm100 0v-20h80v20z"/></g></g></svg>