<svg id="Layer_1" enable-background="new 0 0 512 512" height="512" viewBox="0 0 512 512" width="512" xmlns="http://www.w3.org/2000/svg"><g><path d="m10 46h280v360h-280z" fill="#e2e9ee"/><path d="m270 106h-200v360h280v-280z" fill="#fff"/><g><g><path d="m156 206h-36c-5.522 0-10-4.477-10-10s4.478-10 10-10h36c5.523 0 10 4.477 10 10s-4.477 10-10 10z" fill="#a7bdcd"/></g><g><path d="m190 166h-70c-5.522 0-10-4.477-10-10s4.478-10 10-10h70c5.523 0 10 4.477 10 10s-4.477 10-10 10z" fill="#a7bdcd"/></g></g><path d="m270 106v80h80" fill="#e2e9ee"/><g fill="#d0f2d2"><path d="m156 306h60v40h-60z"/><path d="m442 226h60v40h-60z"/><path d="m442 306h60v40h-60z"/><path d="m442 386h60v40h-60z"/></g><g fill="#6d92ac"><path d="m216 296h-60c-5.523 0-10 4.477-10 10v40c0 5.523 4.477 10 10 10h60c5.523 0 10-4.477 10-10v-40c0-5.523-4.477-10-10-10zm-10 40h-40v-20h40z"/><path d="m502 216h-60c-5.522 0-10 4.477-10 10v40c0 5.523 4.478 10 10 10h60c5.522 0 10-4.477 10-10v-40c0-5.523-4.478-10-10-10zm-10 40h-40v-20h40z"/><path d="m502 296h-60c-5.522 0-10 4.477-10 10v40c0 5.523 4.478 10 10 10h60c5.522 0 10-4.477 10-10v-40c0-5.523-4.478-10-10-10zm-10 40h-40v-20h40z"/><path d="m502 376h-60c-5.522 0-10 4.477-10 10v40c0 5.523 4.478 10 10 10h60c5.522 0 10-4.477 10-10v-40c0-5.523-4.478-10-10-10zm-10 40h-40v-20h40z"/><path d="m402 256c5.522 0 10-4.477 10-10s-4.478-10-10-10h-42v-50c0-2.652-1.054-5.196-2.929-7.071l-57.071-57.072v-75.857c0-5.523-4.478-10-10-10h-280c-5.523 0-10 4.477-10 10v360c0 5.523 4.477 10 10 10h50v50c0 5.523 4.478 10 10 10h280c5.522 0 10-4.477 10-10v-50h42c5.522 0 10-4.477 10-10s-4.478-10-10-10h-42v-60h42c5.522 0 10-4.477 10-10s-4.478-10-10-10h-42v-60zm-122-125.857 45.858 45.857h-45.858zm-260 265.857v-340h260v45.857l-2.929-2.929c-1.876-1.874-4.419-2.928-7.071-2.928h-200c-5.522 0-10 4.477-10 10v290zm320 60h-260v-340h180v70c0 5.523 4.478 10 10 10h70v40h-38c-5.522 0-10 4.477-10 10v70h-36c-5.523 0-10 4.477-10 10s4.477 10 10 10h36v70c0 5.523 4.478 10 10 10h38zm0-60h-28v-60h28zm0-80h-28v-60h28z"/></g></g></svg>