<svg id="Layer_1" enable-background="new 0 0 512 512" height="512" viewBox="0 0 512 512" width="512" xmlns="http://www.w3.org/2000/svg"><g><path d="m110 276c-11.046 0-20-8.954-20-20 0-11.046 8.954-20 20-20h20v-40h-40v-19.521c0-10.845-8.433-20.081-19.271-20.466-11.378-.405-20.729 8.699-20.729 19.987v20h-40v100c0 11.046 8.954 20 20 20h100v-40z" fill="#ff9eb1"/><path d="m50 176c0-11.288 9.351-20.392 20.729-19.987 10.838.385 19.271 9.622 19.271 20.466v19.521h40v-40h20c11.046 0 20-8.954 20-20 0-11.046-8.954-20-20-20h-20v-40h-100c-11.046 0-20 8.954-20 20v100h40z" fill="#d0f2d2"/><path d="m210 196v19.521c0 10.845-8.433 20.081-19.271 20.466-11.378.405-20.729-8.699-20.729-19.987v-20h-40v40h-19.521c-10.845 0-20.081 8.433-20.466 19.271-.405 11.378 8.699 20.729 19.987 20.729h20v40h100c11.046 0 20-8.954 20-20v-100z" fill="#ffee80"/><g><path d="" style="fill:none;stroke:#8481e2;stroke-width:20;stroke-linecap:round;stroke-linejoin:round;stroke-miterlimit:10"/></g><path d="m230.284 276c-5.304 0-10.391 2.107-14.142 5.858l-54.142 54.142c-11.046 11.046-11.046 28.954 0 40h-40c-33.137 0-60 26.863-60 60h183.432c10.609 0 20.783-4.214 28.284-11.716l48.284-48.284h30v-100z" fill="#ffdcd5"/><path d="m352 256h150v140h-150z" fill="#b5b3ee"/><path d="m352 256h50v140h-50z" fill="#fff"/><path d="m502 246h-150c-5.522 0-10 4.477-10 10v10h-82v-70c0-5.523-4.477-10-10-10h-40c-5.523 0-10 4.477-10 10v20c0 5.514-4.486 10-10 10s-10-4.486-10-10v-20c0-5.523-4.477-10-10-10h-30v-20h10c16.542 0 30-13.458 30-30s-13.458-30-30-30h-10v-30c0-5.523-4.477-10-10-10h-100c-16.542 0-30 13.458-30 30v200c0 16.542 13.458 30 30 30h127.857l-2.929 2.929c-10.026 10.026-13.307 24.272-9.865 37.071h-23.063c-38.598 0-70 31.402-70 70 0 5.523 4.478 10 10 10h183.432c13.355 0 25.911-5.201 35.356-14.645l45.355-45.355h15.857v10c0 5.523 4.478 10 10 10h150c5.522 0 10-4.477 10-10v-140c0-5.523-4.478-10-10-10zm-472-160h90v30c0 5.523 4.478 10 10 10h20c5.514 0 10 4.486 10 10s-4.486 10-10 10h-20c-5.522 0-10 4.477-10 10v30h-20v-10c0-16.542-13.458-30-30-30s-30 13.458-30 30v10h-20v-90c0-5.514 4.486-10 10-10zm90 220h-90c-5.514 0-10-4.486-10-10v-90h30c5.522 0 10-4.477 10-10v-20c0-5.514 4.486-10 10-10s10 4.486 10 10v20c0 5.523 4.478 10 10 10h30v20h-10c-16.542 0-30 13.458-30 30s13.458 30 30 30h10zm20 0v-30c0-5.523-4.477-10-10-10h-20c-5.514 0-10-4.486-10-10s4.486-10 10-10h20c5.523 0 10-4.477 10-10v-30h20v10c0 16.542 13.458 30 30 30s30-13.458 30-30v-10h20v60h-9.716c-8.015 0-15.548 3.121-21.213 8.787l-31.213 31.213zm182 60c-2.652 0-5.195 1.054-7.071 2.929l-48.284 48.284c-5.666 5.667-13.2 8.787-21.213 8.787h-172.427c4.646-22.794 24.85-40 48.995-40h36.227c6.938 5.505 15.353 8.266 23.773 8.266 9.804 0 19.607-3.731 27.071-11.195l40-40c3.905-3.905 3.905-10.237 0-14.143-3.906-3.904-10.236-3.904-14.143 0l-40 40c-3.453 3.454-8.045 5.355-12.929 5.355s-9.476-1.902-12.929-5.355c-3.454-3.453-5.355-8.045-5.355-12.929s1.901-9.476 5.355-12.929l54.143-54.143c1.888-1.888 4.398-2.928 7.069-2.928h111.718v80h-20zm40-100h30v120h-30zm130 120h-80v-120h80z" fill="#8481e2"/></g></svg>