<svg id="Layer_1" enable-background="new 0 0 512 512" height="512" viewBox="0 0 512 512" width="512" xmlns="http://www.w3.org/2000/svg"><g><circle cx="271" cy="402" fill="#ffee80" r="100"/><path d="m71 10h400v240h-400z" fill="#d0f2d2"/><g fill="#fff"><circle cx="271" cy="130" r="50"/><circle cx="172" cy="130" r="15"/><circle cx="372" cy="129" r="15"/></g><g fill="#5cd0b3"><path d="m403.929 403.07 30 30c1.953 1.953 4.512 2.929 7.071 2.929s5.119-.976 7.071-2.929c3.905-3.905 3.905-10.237 0-14.143l-12.929-12.927h35.858c5.523 0 10-4.477 10-10v-100c0-5.523-4.477-10-10-10s-10 4.477-10 10v90h-25.858l12.929-12.929c3.905-3.905 3.905-10.237 0-14.143-3.905-3.905-10.237-3.905-14.143 0l-30 30c-4.928 5.263-5.104 8.881.001 14.142z"/><path d="m291 372.503c5.523 0 10-4.477 10-10s-4.477-10-10-10h-10v-9.997c0-5.523-4.477-10-10-10s-10 4.477-10 10v9.997h-10c-5.523 0-10 4.477-10 10v40c0 5.523 4.477 10 10 10h30v20h-30c-5.523 0-10 4.477-10 10s4.477 10 10 10h10v8.99c0 5.523 4.477 10 10 10s10-4.477 10-10v-8.99h10c5.523 0 10-4.477 10-10v-40c0-5.523-4.477-10-10-10h-30v-20z"/><path d="m269.001 292.018c-60.644 1.103-109.086 51.337-107.983 111.98 1.09 59.971 50.216 108.002 109.953 108.002.671 0 1.354-.006 2.028-.018 60.644-1.103 109.085-51.337 107.983-111.98-1.103-60.645-51.35-109.078-111.981-107.984zm3.634 199.967c-49.653.92-90.718-38.732-91.62-88.35s38.732-90.718 88.35-91.62c.554-.01 1.108-.015 1.659-.015 48.872 0 89.069 39.301 89.961 88.365.902 49.617-38.732 90.718-88.35 91.62z"/><path d="m123.929 217.071c1.876 1.875 4.419 2.929 7.071 2.929h280c2.652 0 5.196-1.054 7.071-2.929l20-20c1.875-1.876 2.929-4.419 2.929-7.071v-120c0-2.652-1.054-5.196-2.929-7.071l-20.001-20c-1.875-1.875-4.418-2.929-7.071-2.929h-279.999c-2.652 0-5.196 1.054-7.071 2.929l-20 20c-1.875 1.875-2.929 4.419-2.929 7.071v120c0 2.652 1.054 5.196 2.929 7.071zm-2.929-142.929 14.143-14.142h271.715l14.142 14.142v111.716l-14.142 14.142h-271.716l-14.142-14.142z"/><path d="m471 0h-400c-5.523 0-10 4.477-10 10v240c0 5.523 4.477 10 10 10h400c5.523 0 10-4.477 10-10v-240c0-5.523-4.477-10-10-10zm-10 240h-380v-220h380z"/><path d="m63.928 288.929-30 30c-3.905 3.905-3.905 10.237 0 14.143 3.905 3.905 10.237 3.905 14.143 0l12.929-12.93v75.858c0 5.523 4.477 10 10 10h60c5.523 0 10-4.477 10-10s-4.477-10-10-10h-50v-65.858l12.929 12.929c1.952 1.953 4.512 2.929 7.071 2.929s5.119-.976 7.071-2.929c3.905-3.905 3.905-10.237 0-14.143l-30-30c-4.831-4.728-9.547-4.806-14.143.001z"/></g></g></svg>