<svg id="Layer_1" enable-background="new 0 0 512 512" height="512" viewBox="0 0 512 512" width="512" xmlns="http://www.w3.org/2000/svg"><g><path d="m216 436h80v66h-80z" fill="#a0c8ff"/><path d="m436 116h-360c-11.046 0-20 8.954-20 20v280c0 11.046 8.954 20 20 20h360c11.046 0 20-8.954 20-20v-280c0-11.046-8.954-20-20-20z" fill="#fff"/><path d="m456 136v220h-400v-220c0-11.05 8.95-20 20-20h360c11.05 0 20 8.95 20 20z" fill="#ccf5fc"/><g><path d="m274 406h-36c-5.523 0-10-4.477-10-10s4.477-10 10-10h36c5.522 0 10 4.477 10 10s-4.478 10-10 10z" fill="#bfdbff"/></g><path d="m116 156 140-100 140 100" fill="#fff"/><path d="m116 156h280v160h-280z" fill="#fff"/><path d="m396 156-140 100-140-100" fill="#ccf5fc"/><circle cx="337" cy="35" fill="#ff9eb1" r="25"/><g fill="#60a4ff"><path d="m436 106h-92c-.251 0-.497.02-.743.038l-81.445-58.175c-3.477-2.483-8.148-2.483-11.625 0l-81.445 58.175c-.245-.018-.491-.038-.742-.038h-92c-16.542 0-30 13.458-30 30v280c0 16.542 13.458 30 30 30h130v46h-30c-5.523 0-10 4.477-10 10s4.477 10 10 10h160c5.522 0 10-4.477 10-10s-4.478-10-10-10h-30v-46h130c16.542 0 30-13.458 30-30v-280c0-16.542-13.458-30-30-30zm-180-37.711 108.796 77.711h-217.592zm130 228.278-84.795-60.566 84.795-60.568zm-130-52.857-108.79-77.71h217.58zm-45.205-7.709-84.795 60.566v-121.134zm17.206 12.29 22.189 15.849c1.74 1.24 3.77 1.86 5.81 1.86s4.07-.62 5.81-1.86l22.189-15.849 80.791 57.709h-217.58zm-152.001-122.291h64.795l-30.608 21.863c-2.627 1.877-4.187 4.907-4.187 8.137v160c0 5.523 4.477 10 10 10h280c5.522 0 10-4.477 10-10v-160c0-3.23-1.56-6.26-4.188-8.137l-30.607-21.863h64.795c5.514 0 10 4.486 10 10v210h-380v-210c0-5.514 4.486-10 10-10zm210 366h-60v-46h60zm150-66h-360c-5.514 0-10-4.486-10-10v-50h380v50c0 5.514-4.486 10-10 10z"/><path d="m337 70c19.299 0 35-15.701 35-35s-15.701-35-35-35-35 15.701-35 35 15.701 35 35 35zm0-50c8.272 0 15 6.729 15 15s-6.728 15-15 15-15-6.729-15-15 6.728-15 15-15z"/></g></g></svg>