<svg id="Layer_1" enable-background="new 0 0 512 512" height="512" viewBox="0 0 512 512" width="512" xmlns="http://www.w3.org/2000/svg"><g><path d="m10 76h400v340h-400z" fill="#fff"/><path d="m10 76h400v80h-400z" fill="#ff9eb1"/><g><path d="m330 126h-240c-5.522 0-10-4.477-10-10s4.478-10 10-10h240c5.522 0 10 4.477 10 10s-4.478 10-10 10z" fill="#fff"/></g><path d="m330 196v120h-80v60h-160v-120h80v-60z" fill="#ff9eb1"/><circle cx="402" cy="376" fill="#ffee80" r="100"/><g fill="#ff5d7d"><path d="m422.5 346.849c.059.001.116.002.174.002 5.443-.001 9.902-4.366 9.995-9.83.095-5.522-4.306-10.075-9.827-10.169l-9.998-.171.171-9.995c.094-5.522-4.306-10.075-9.828-10.169-.059-.001-.116-.001-.174-.001-5.443 0-9.902 4.365-9.996 9.829l-.171 9.996-9.998-.171c-.059-.001-.116-.001-.174-.001-5.443 0-9.902 4.366-9.996 9.829l-.683 39.994c-.094 5.522 4.307 10.075 9.828 10.169l29.996.512-.342 19.996-29.995-.512c-.059-.001-.116-.001-.174-.001-5.443 0-9.902 4.366-9.995 9.829-.095 5.522 4.306 10.075 9.827 10.169l9.999.171-.154 8.989c-.094 5.522 4.306 10.075 9.828 10.169.059.001.116.001.174.001 5.443 0 9.902-4.365 9.995-9.829l.154-8.989 9.998.171c.059.001.116.001.174.001 5.443 0 9.902-4.366 9.996-9.829l.683-39.994c.094-5.522-4.307-10.075-9.828-10.169l-29.996-.512.342-19.997z"/><path d="m420 267.481v-191.48c0-5.523-4.478-10-10-10h-30v-30c0-5.523-4.478-10-10-10s-10 4.477-10 10v30h-60v-30c0-5.523-4.478-10-10-10s-10 4.477-10 10v30h-60v-30c0-5.523-4.477-10-10-10s-10 4.477-10 10v30h-60v-30c0-5.523-4.477-10-10-10-5.522 0-10 4.477-10 10v30h-60v-30c0-5.523-4.478-10-10-10s-10 4.477-10 10v30h-30c-5.523 0-10 4.477-10 10v340c0 5.523 4.477 10 10 10h292c.664 0 1.312-.068 1.94-.192 18.205 35.695 55.33 60.191 98.058 60.191h.123c60.654-.067 109.945-49.467 109.879-110.121-.06-54.484-39.928-99.789-92-108.398zm-20-181.48v60h-380v-60zm-380 320v-240h380v100.026c-22.221.399-42.851 7.415-60 19.16v-89.186c0-5.523-4.478-10-10-10h-160c-5.523 0-10 4.477-10 10v50h-70c-5.522 0-10 4.477-10 10v120c0 5.523 4.478 10 10 10h160c5.523 0 10-4.477 10-10v-50h44.036c-7.71 15.045-12.055 32.085-12.036 50.122.012 10.354 1.463 20.376 4.16 29.879h-276.16zm80-40.001v-40h60v40zm0-60v-40h60v40zm80 20h60v40h-60zm0-20v-40h60v40zm140-99.999v40h-60v-40zm-140 40v-40h60v40zm80 20h60v34c0 .835.114 1.642.307 2.418-1.056 1.172-2.089 2.365-3.095 3.582h-57.212zm142.1 199.999c-.037 0-.065 0-.102 0-49.575 0-89.942-40.311-89.998-89.9-.055-49.626 40.274-90.044 89.9-90.099h.102c49.575 0 89.942 40.31 89.998 89.9.055 49.626-40.274 90.044-89.9 90.099z"/></g></g></svg>