<svg id="Layer_1" enable-background="new 0 0 512 512" height="512" viewBox="0 0 512 512" width="512" xmlns="http://www.w3.org/2000/svg"><g><g><circle cx="196" cy="130" fill="#fff" r="50"/><circle cx="196" cy="130" fill="#ffee80" r="20"/><circle cx="336" cy="60" fill="#ffee80" r="30"/><circle cx="326" cy="190" fill="#fff" r="20"/></g><g fill="#ffee80"><path d="m256 422h100v40h-100z" transform="matrix(-1 0 0 -1 612 884)"/><path d="m256 462h100v40h-100z" transform="matrix(-1 0 0 -1 612 964)"/><path d="m356 462h100v40h-100z" transform="matrix(-1 0 0 -1 812 964)"/><path d="m156 302h100v80h-100z"/><path d="m156 382h100v40h-100z"/><path d="m256 382h100v40h-100z"/><path d="m156 422h100v40h-100z"/><path d="m156 462h100v40h-100z"/><path d="m56 462h100v40h-100z"/><path d="m56 422h100v40h-100z"/></g><g fill="#ffc144"><path d="m76 301.493c-5.523 0-10 4.478-10 10s4.477 10 10 10h10v10c0 5.522 4.477 10 10 10s10-4.478 10-10v-10h10c5.523 0 10-4.478 10-10v-40c0-5.522-4.477-10-10-10h-30v-20h30c5.523 0 10-4.478 10-10s-4.477-10-10-10h-10v-9.493c0-5.523-4.477-10-10-10s-10 4.477-10 10v9.493h-10c-5.523 0-10 4.478-10 10v40c0 5.522 4.477 10 10 10h30v20z"/><path d="m286 70h11.266c.947 3.664 2.408 7.121 4.289 10.302l-7.982 7.982c-3.905 3.905-3.905 10.237.001 14.143 1.953 1.952 4.512 2.929 7.071 2.929s5.119-.977 7.071-2.929l7.982-7.982c3.181 1.882 6.638 3.343 10.302 4.289v11.266c0 5.522 4.477 10 10 10s10-4.478 10-10v-11.266c3.664-.947 7.122-2.408 10.302-4.289l7.982 7.982c1.953 1.952 4.512 2.929 7.071 2.929s5.119-.977 7.071-2.929c3.905-3.905 3.906-10.237 0-14.143l-7.982-7.982c1.882-3.181 3.343-6.638 4.289-10.302h11.267c5.523 0 10-4.478 10-10s-4.477-10-10-10h-11.266c-.947-3.664-2.408-7.121-4.289-10.302l7.982-7.982c3.905-3.905 3.905-10.237 0-14.143-3.905-3.904-10.237-3.904-14.142 0l-7.982 7.982c-3.18-1.882-6.638-3.343-10.302-4.29v-11.265c0-5.523-4.477-10-10-10s-10 4.477-10 10v11.266c-3.664.947-7.122 2.408-10.302 4.29l-7.982-7.982c-3.905-3.903-10.237-3.904-14.142 0-3.905 3.905-3.906 10.237-.001 14.143l7.982 7.982c-1.882 3.181-3.343 6.638-4.289 10.302h-11.267c-5.523 0-10 4.478-10 10s4.477 9.999 10 9.999zm50-30c11.028 0 20 8.972 20 20s-8.972 20-20 20-20-8.972-20-20 8.972-20 20-20z"/><path d="m369.301 165c-2.762-4.782-8.878-6.423-13.66-3.66l-10.166 5.869c-2.77-2.371-5.973-4.247-9.475-5.489v-11.72c0-5.523-4.477-10-10-10s-10 4.477-10 10v11.72c-3.503 1.242-6.705 3.118-9.475 5.489l-10.166-5.869c-4.784-2.761-10.898-1.122-13.66 3.66-2.762 4.783-1.122 10.898 3.66 13.66l10.152 5.861c-.33 1.778-.51 3.607-.51 5.479s.181 3.701.51 5.479l-10.152 5.861c-4.783 2.762-6.422 8.877-3.66 13.66 1.852 3.208 5.213 5.002 8.669 5.002 1.696 0 3.416-.433 4.991-1.342l10.166-5.869c2.77 2.371 5.973 4.247 9.475 5.489v11.72c0 5.523 4.477 10 10 10s10-4.477 10-10v-11.72c3.503-1.242 6.705-3.118 9.475-5.489l10.166 5.869c1.575.909 3.294 1.342 4.991 1.342 3.456 0 6.817-1.794 8.669-5.002 2.762-4.783 1.122-10.898-3.66-13.66l-10.151-5.861c.33-1.778.51-3.607.51-5.479s-.181-3.701-.51-5.479l10.151-5.861c4.783-2.762 6.422-8.877 3.66-13.66zm-53.301 25c0-5.514 4.486-10 10-10s10 4.486 10 10-4.486 10-10 10-10-4.486-10-10z"/><path d="m126 140h10.849c1.534 9.101 5.123 17.508 10.274 24.735l-7.691 7.691c-3.905 3.905-3.906 10.237 0 14.143 1.953 1.952 4.512 2.929 7.071 2.929s5.119-.977 7.071-2.929l7.692-7.692c7.227 5.151 15.634 8.74 24.735 10.274v10.849c0 5.523 4.477 10 10 10s10-4.477 10-10v-10.849c9.101-1.534 17.508-5.123 24.735-10.274l7.692 7.692c1.953 1.952 4.512 2.929 7.071 2.929s5.119-.977 7.071-2.929c3.905-3.905 3.905-10.237 0-14.143l-7.691-7.691c5.151-7.227 8.74-15.633 10.274-24.735h10.847c5.523 0 10-4.477 10-10 0-5.522-4.477-10-10-10h-10.849c-1.534-9.101-5.123-17.508-10.274-24.735l7.691-7.691c3.905-3.905 3.906-10.237 0-14.143-3.905-3.903-10.237-3.904-14.142 0l-7.692 7.692c-7.227-5.151-15.634-8.74-24.735-10.274v-10.849c0-5.522-4.477-10-10-10s-10 4.478-10 10v10.849c-9.101 1.534-17.508 5.123-24.735 10.274l-7.692-7.692c-3.905-3.904-10.237-3.904-14.142 0-3.905 3.905-3.905 10.237 0 14.143l7.691 7.691c-5.151 7.227-8.74 15.633-10.274 24.735h-10.847c-5.523 0-10 4.478-10 10 0 5.523 4.477 10 10 10zm70-50c22.056 0 40 17.944 40 40s-17.944 40-40 40-40-17.944-40-40 17.944-40 40-40z"/><path d="m456 452h-90v-70c0-5.522-4.477-10-10-10h-90v-70c0-5.522-4.477-10-10-10h-100c-5.523 0-10 4.478-10 10v110h-90c-5.523 0-10 4.478-10 10v80c0 5.522 4.477 10 10 10h400c5.523 0 10-4.478 10-10v-40c0-5.522-4.477-10-10-10zm-210 20v20h-80v-20zm-80-20v-20h80v20zm100 20h80v20h-80zm0-20v-20h80v20zm80-60v20h-80v-20zm-180-40h80v20h-80zm80-40v20h-80v-20zm-80 80h80v20h-80zm-100 40h80v20h-80zm0 40h80v20h-80zm380 20h-80v-20h80z"/></g></g></svg>