<svg id="Layer_1" enable-background="new 0 0 512 512" height="512" viewBox="0 0 512 512" width="512" xmlns="http://www.w3.org/2000/svg"><g><path d="m282 231h200v50h-200z" fill="#ffee80"/><path d="m332 231h50v50h-50z" fill="#fff"/><path d="m432 231h50v50h-50z" fill="#fff"/><path d="m252 281h200v50h-200z" fill="#ffee80"/><path d="m302 281h50v50h-50z" fill="#fff"/><path d="m402 281h50v50h-50z" fill="#fff"/><path d="m302 331h200v50h-200z" fill="#ffee80"/><path d="m352 331h50v50h-50z" fill="#fff"/><path d="m452 331h50v50h-50z" fill="#fff"/><path d="m282 381h200v50h-200z" fill="#ffee80"/><path d="m332 381h50v50h-50z" fill="#fff"/><path d="m432 381h50v50h-50z" fill="#fff"/><path d="m302 431h200v50h-200z" fill="#ffee80"/><path d="m302 431h50v50h-50z" fill="#fff"/><path d="m402 431h50v50h-50z" fill="#fff"/><circle cx="110" cy="381" fill="#ffee80" r="100"/><circle cx="382" cy="131" fill="#ffee80" r="100"/><circle cx="382" cy="131" fill="#fff" r="50"/><g fill="#ffc144"><path d="m502 391c5.522 0 10-4.477 10-10v-50c0-5.523-4.478-10-10-10h-40v-30h20c5.522 0 10-4.477 10-10v-50c0-5.523-4.478-10-10-10h-36.828c28.3-19.923 46.828-52.837 46.828-90 0-60.654-49.346-110-110-110s-110 49.346-110 110c0 37.163 18.528 70.077 46.828 90h-36.828c-5.522 0-10 4.477-10 10v40h-20c-5.523 0-10 4.477-10 10v50c0 5.523 4.477 10 10 10h40v30h-10c-5.522 0-10 4.477-10 10v50c0 5.523 4.478 10 10 10h10v40c0 5.523 4.478 10 10 10h200c5.522 0 10-4.477 10-10v-50c0-5.523-4.478-10-10-10h-10v-30zm-10-20h-30v-30h30zm-180-80h30v30h-30zm80-20v-30h30v30zm0 50h-30v-30h30zm-20-80v30h-30v-30zm-10 100h30v30h-30zm10 50v30h-30v-30zm20 50v30h-30v-30zm20 0h30v30h-30zm-20-20v-30h30v30zm20-50v-30h30v30zm30-50h-30v-30h30zm30-50h-30v-30h30zm-180-140c0-49.626 40.374-90 90-90s90 40.374 90 90-40.374 90-90 90-90-40.374-90-90zm0 110h30v30h-30zm-30 50h30v30h-30zm50 50h30v30h-30zm-20 80v-30h30v30zm20 20h30v30h-30zm180 30h-30v-30h30zm-20-50h-30v-30h30z"/><path d="m110 271c-60.654 0-110 49.346-110 110s49.346 110 110 110 110-49.346 110-110-49.346-110-110-110zm0 200c-49.626 0-90-40.374-90-90s40.374-90 90-90 90 40.374 90 90-40.374 90-90 90z"/><path d="m130 351.503c5.523 0 10-4.477 10-10s-4.477-10-10-10h-10v-9.997c0-5.523-4.477-10-10-10s-10 4.477-10 10v9.997h-10c-5.523 0-10 4.477-10 10v40c0 5.523 4.477 10 10 10h30v20h-30c-5.523 0-10 4.477-10 10s4.477 10 10 10h10v8.99c0 5.523 4.477 10 10 10s10-4.477 10-10v-8.99h10c5.523 0 10-4.477 10-10v-40c0-5.523-4.477-10-10-10h-30v-20z"/></g></g></svg>