<svg id="Layer_1" enable-background="new 0 0 512 512" height="512" viewBox="0 0 512 512" width="512" xmlns="http://www.w3.org/2000/svg"><g><path d="m356 476h-200c-11.046 0-20-8.954-20-20v-400c0-11.046 8.954-20 20-20h200c11.046 0 20 8.954 20 20v400c0 11.046-8.954 20-20 20z" fill="#ccf5fc"/><circle cx="110" cy="196" fill="#ffee80" r="100"/><g fill="#ff9eb1"><path d="m196 36h120v40h-120z"/><path d="m316 36v40h-120v-40"/><path d="m216 436h80"/></g><path d="m196 36h120v40h-120z" fill="#fff"/><g><path d="m296 446h-80c-5.523 0-10-4.478-10-10s4.477-10 10-10h80c5.522 0 10 4.478 10 10s-4.478 10-10 10z" fill="#fff"/></g><path d="m362 236h140v160h-140z" fill="#ff9eb1" transform="matrix(-1 0 0 -1 864 632)"/><path d="m262 276h120v120h-120z" fill="#7dd9c2" transform="matrix(-1 0 0 -1 644 672)"/><g fill="#60a4ff"><path d="m130 166.503c5.523 0 10-4.477 10-10 0-5.522-4.477-10-10-10h-10v-9.996c0-5.522-4.478-10-10-10s-10 4.478-10 10v9.996h-10c-5.522 0-10 4.478-10 10v40c0 5.523 4.478 10 10 10h30v20h-30c-5.522 0-10 4.478-10 10 0 5.523 4.478 10 10 10h10v8.99c0 5.522 4.478 10 10 10s10-4.478 10-10v-8.99h10c5.523 0 10-4.477 10-10v-40c0-5.522-4.477-10-10-10h-30v-20z"/><path d="m502 226h-40v-30c0-5.523-4.478-10-10-10h-40c-5.522 0-10 4.477-10 10v30h-16v-170c0-16.542-13.458-30-30-30h-200c-16.542 0-30 13.458-30 30v31.168c-5.225-.765-10.566-1.168-16-1.168-60.654 0-110 49.346-110 110s49.346 110 110 110c5.434 0 10.775-.403 16-1.168v151.168c0 16.542 13.458 30 30 30h200c16.542 0 30-13.458 30-30v-50h116c5.522 0 10-4.478 10-10v-160c0-5.523-4.478-10-10-10zm-80-20h20v20h-20zm-50 180h-100v-100h20v30c0 5.522 4.478 10 10 10h40c5.522 0 10-4.478 10-10v-30h20zm-40-100v20h-20v-20zm-126-240h100v20h-100zm-186 150c0-49.626 40.374-90 90-90s90 40.374 90 90-40.374 90-90 90-90-40.374-90-90zm346 260c0 5.514-4.486 10-10 10h-200c-5.514 0-10-4.486-10-10v-156.057c43.027-14.944 74-55.892 74-103.943s-30.973-88.999-74-103.944v-36.056c0-5.514 4.486-10 10-10h30v30c0 5.522 4.477 10 10 10h120c5.522 0 10-4.478 10-10v-30h30c5.514 0 10 4.486 10 10v170h-4c-5.522 0-10 4.477-10 10v30h-90c-5.522 0-10 4.478-10 10v120c0 5.522 4.478 10 10 10h104zm126-70h-100v-110c0-5.522-4.478-10-10-10h-10v-20h120z"/></g></g></svg>