<svg id="Layer_1" enable-background="new 0 0 512 512" height="512" viewBox="0 0 512 512" width="512" xmlns="http://www.w3.org/2000/svg"><g><path d="m436 222h-370c-16.569 0-30-13.431-30-30 0-16.569 13.431-30 30-30h340c16.568 0 30 13.432 30 30z" fill="#ddb9a3"/><path d="m406 502h-340c-16.569 0-30-13.431-30-30v-250h400v250c0 16.569-13.432 30-30 30z" fill="#f4e8e0"/><path d="m456 402h-120v-80h120c11.046 0 20 8.954 20 20v40c0 11.046-8.954 20-20 20z" fill="#ddb9a3"/><circle cx="376" cy="362" fill="#e8d0c1" r="10"/><circle cx="236" cy="110" fill="#ffee80" r="100"/><g fill="#c68a65"><path d="m456 312h-10v-120c0-22.056-17.944-40-40-40h-68.341c5.369-12.948 8.34-27.133 8.34-42 0-60.654-49.345-110-109.999-110s-110 49.346-110 110c0 14.867 2.971 29.052 8.34 42h-68.34c-22.056 0-40 17.944-40 40v280c0 22.056 17.944 40 40 40h340c22.056 0 40-17.944 40-40v-60h10c16.542 0 30-13.458 30-30v-40c0-16.542-13.458-30-30-30zm-50-140c11.028 0 20 8.972 20 20v20h-148.832c20.221-8.191 37.471-22.225 49.645-40zm-170-152c49.626 0 89.999 40.374 89.999 90s-40.373 90-89.999 90-89.999-40.374-89.999-90 40.373-90 89.999-90zm-170 152h79.187c12.174 17.775 29.424 31.809 49.645 40h-128.832c-11.028 0-20-8.972-20-20s8.972-20 20-20zm360 300c0 11.028-8.972 20-20 20h-340c-11.028 0-20-8.972-20-20v-245.381c5.888 3.415 12.717 5.381 20 5.381h360v80h-90c-5.523 0-10 4.478-10 10v80c0 5.522 4.477 10 10 10h90zm40-90c0 5.514-4.486 10-10 10h-110v-60h110c5.514 0 10 4.486 10 10z"/><path d="m216 140.503c-5.523 0-10 4.478-10 10 0 5.523 4.477 10 10 10h10v8.99c0 5.522 4.477 10 10 10s10-4.478 10-10v-8.99h10c5.523 0 10-4.477 10-10v-40c0-5.522-4.477-10-10-10h-30v-20h30c5.523 0 10-4.478 10-10s-4.477-10-10-10h-10v-9.996c0-5.522-4.477-10-10-10s-10 4.478-10 10v9.996h-10c-5.523 0-10 4.478-10 10v40c0 5.522 4.477 10 10 10h30v20z"/></g><g><path d="m76 472c-5.523 0-10-4.478-10-10v-200c0-5.522 4.477-10 10-10s10 4.478 10 10v200c0 5.522-4.477 10-10 10z" fill="#e8d0c1"/></g></g></svg>