<svg id="Layer_1" enable-background="new 0 0 512 512" height="512" viewBox="0 0 512 512" width="512" xmlns="http://www.w3.org/2000/svg"><g><path d="m406 250h-200v60l-60-60h-40v-240h300z" fill="#ffee80"/><g><circle cx="216" cy="120" fill="#fff" r="50"/><circle cx="216" cy="120" fill="#ffee80" r="20"/></g><circle cx="326" cy="170" fill="#fff" r="20"/><g><ellipse cx="306" cy="402" fill="#ffee80" rx="100" ry="100" transform="matrix(.707 -.707 .707 .707 -194.632 334.118)"/><g fill="#ffc144"><path d="m406 0h-300c-5.523 0-10 4.477-10 10v240c0 5.523 4.477 10 10 10h35.858l57.071 57.071c1.914 1.913 4.471 2.929 7.074 2.929 1.288 0 2.587-.249 3.824-.761 3.737-1.548 6.173-5.194 6.173-9.239v-50h190c5.523 0 10-4.477 10-10v-240c0-5.523-4.477-10-10-10zm-10 240h-190c-5.523 0-10 4.477-10 10v35.857l-42.929-42.929c-1.875-1.874-4.419-2.928-7.071-2.928h-30v-220h280z"/><path d="m146 130h10.849c1.534 9.101 5.123 17.508 10.274 24.734l-7.691 7.691c-3.905 3.905-3.906 10.237 0 14.143 1.953 1.952 4.512 2.929 7.071 2.929s5.119-.977 7.071-2.929l7.692-7.691c7.227 5.15 15.634 8.74 24.735 10.274v10.849c0 5.523 4.477 10 10 10s10-4.477 10-10v-10.849c9.101-1.534 17.508-5.124 24.735-10.274l7.692 7.691c1.953 1.952 4.512 2.929 7.071 2.929s5.119-.977 7.071-2.929c3.905-3.905 3.905-10.237 0-14.143l-7.691-7.691c5.151-7.227 8.74-15.633 10.274-24.734h10.847c5.523 0 10-4.478 10-10s-4.477-10-10-10h-10.849c-1.534-9.101-5.123-17.508-10.274-24.734l7.691-7.691c3.905-3.905 3.906-10.237 0-14.143-3.905-3.903-10.237-3.904-14.142 0l-7.692 7.691c-7.227-5.15-15.634-8.74-24.735-10.274v-10.849c0-5.522-4.477-10-10-10s-10 4.478-10 10v10.849c-9.101 1.534-17.508 5.124-24.735 10.274l-7.692-7.691c-3.905-3.904-10.237-3.904-14.142 0-3.905 3.905-3.905 10.237 0 14.143l7.691 7.691c-5.151 7.227-8.74 15.633-10.274 24.734h-10.847c-5.523 0-10 4.478-10 10s4.477 10 10 10zm70-50c22.056 0 40 17.944 40 40s-17.944 40-40 40-40-17.944-40-40 17.944-40 40-40z"/><path d="m296.359 141.34c-4.782-2.761-10.898-1.122-13.66 3.66-2.762 4.783-1.122 10.898 3.66 13.66l10.152 5.861c-.33 1.778-.51 3.607-.51 5.479s.181 3.701.51 5.479l-10.152 5.861c-4.783 2.762-6.422 8.877-3.66 13.66 1.852 3.208 5.213 5.002 8.669 5.002 1.696 0 3.416-.433 4.991-1.342l10.166-5.869c2.77 2.371 5.973 4.247 9.475 5.489v11.72c0 5.523 4.477 10 10 10s10-4.477 10-10v-11.72c3.503-1.242 6.705-3.118 9.475-5.489l10.166 5.869c1.575.909 3.294 1.342 4.991 1.342 3.456 0 6.817-1.794 8.669-5.002 2.762-4.783 1.122-10.898-3.66-13.66l-10.151-5.861c.33-1.778.51-3.607.51-5.479s-.181-3.701-.51-5.479l10.151-5.861c4.783-2.762 6.422-8.877 3.66-13.66-2.761-4.783-8.878-6.423-13.66-3.66l-10.166 5.869c-2.77-2.371-5.973-4.247-9.475-5.489v-11.72c0-5.522-4.477-10-10-10s-10 4.478-10 10v11.72c-3.503 1.242-6.705 3.118-9.475 5.489zm39.641 28.66c0 5.514-4.486 10-10 10s-10-4.486-10-10 4.486-10 10-10 10 4.486 10 10z"/><path d="m305.999 292.001c-60.653 0-109.999 49.346-109.999 109.999 0 60.654 49.346 110 109.999 110 60.654 0 110-49.346 110-110 0-60.653-49.345-109.999-110-109.999zm0 199.999c-49.625 0-89.999-40.374-89.999-90s40.374-89.999 89.999-89.999 90 40.373 90 89.999-40.374 90-90 90z"/><path d="m325.999 372.504c5.523 0 10-4.478 10-10s-4.477-10-10-10h-10v-9.997c0-5.522-4.477-10-10-10s-10 4.478-10 10v9.997h-10c-5.523 0-10 4.478-10 10v40c0 5.522 4.477 10 10 10h30v20h-30c-5.523 0-10 4.478-10 10s4.477 10 10 10h10v8.99c0 5.522 4.477 10 10 10s10-4.478 10-10v-8.99h10c5.523 0 10-4.478 10-10v-40c0-5.522-4.477-10-10-10h-30v-20z"/></g></g></g></svg>