<svg id="Layer_1" enable-background="new 0 0 512 512" height="512" viewBox="0 0 512 512" width="512" xmlns="http://www.w3.org/2000/svg"><g><circle cx="256" cy="256" fill="#fff" r="150"/><g><circle cx="70" cy="70" fill="#ffbecb" r="60"/><g fill="#fff"><circle cx="70" cy="70" r="20"/><path d="m70 90c-17.411 0-32.216 11.127-37.711 26.656 10.305 8.34 23.421 13.344 37.711 13.344s27.406-5.004 37.711-13.344c-5.495-15.529-20.3-26.656-37.711-26.656z"/></g></g><g><circle cx="442" cy="70" fill="#fff" r="60"/><g fill="#ffbecb"><circle cx="442" cy="70" r="20"/><path d="m442 90c-17.411 0-32.216 11.127-37.711 26.656 10.305 8.34 23.421 13.344 37.711 13.344s27.406-5.004 37.711-13.344c-5.495-15.529-20.3-26.656-37.711-26.656z"/></g></g><g><circle cx="70" cy="442" fill="#fff" r="60"/><g fill="#ffbecb"><circle cx="70" cy="442" r="20"/><path d="m70 462c17.411 0 32.216 11.127 37.711 26.656-10.305 8.34-23.421 13.344-37.711 13.344s-27.406-5.004-37.711-13.344c5.495-15.529 20.3-26.656 37.711-26.656z"/></g></g><circle cx="256" cy="256" fill="#ffee80" r="100"/><g><circle cx="442" cy="442" fill="#ffbecb" r="60"/><circle cx="442" cy="442" fill="#fff" r="20"/><path d="m442 462c17.411 0 32.216 11.127 37.711 26.656-10.305 8.34-23.421 13.344-37.711 13.344s-27.406-5.004-37.711-13.344c5.495-15.529 20.3-26.656 37.711-26.656z" fill="#fff"/><g fill="#ff5d7d"><path d="m246 196.507v9.996h-10c-5.523 0-10 4.478-10 10v40c0 5.522 4.477 10 10 10h30v20h-30c-5.523 0-10 4.478-10 10s4.477 10 10 10h10v8.99c0 5.522 4.477 10 10 10s10-4.478 10-10v-8.99h10c5.523 0 10-4.478 10-10v-40c0-5.522-4.477-10-10-10h-30v-20h30c5.523 0 10-4.477 10-10 0-5.522-4.477-10-10-10h-10v-9.996c0-5.522-4.477-10-10-10s-10 4.477-10 10z"/><path d="m442 372c-15.7 0-30.209 5.197-41.899 13.959l-24.173-24.173c24.923-28.221 40.072-65.264 40.072-105.786s-15.149-77.565-40.072-105.786l24.173-24.173c11.69 8.762 26.199 13.959 41.899 13.959 38.598 0 70-31.402 70-70s-31.402-70-70-70-70 31.402-70 70c0 15.7 5.197 30.209 13.959 41.898l-24.173 24.173c-28.221-24.922-65.265-40.071-105.786-40.071s-77.565 15.149-105.786 40.071l-24.173-24.173c8.762-11.689 13.959-26.198 13.959-41.898 0-38.598-31.402-70-70-70s-70 31.402-70 70 31.402 70 70 70c15.7 0 30.209-5.197 41.899-13.959l24.173 24.173c-24.923 28.221-40.072 65.265-40.072 105.786s15.149 77.565 40.071 105.786l-24.173 24.173c-11.689-8.762-26.198-13.959-41.898-13.959-38.598 0-70 31.402-70 70s31.402 70 70 70 70-31.402 70-70c0-15.7-5.197-30.209-13.959-41.898l24.173-24.173c28.221 24.922 65.265 40.071 105.786 40.071s77.565-15.149 105.786-40.071l24.173 24.173c-8.762 11.689-13.959 26.198-13.959 41.898 0 38.598 31.402 70 70 70s70-31.402 70-70-31.402-70-70-70zm0-252c-9.072 0-17.579-2.44-24.921-6.681 5.507-8.22 14.798-13.319 24.921-13.319 10.122 0 19.413 5.099 24.921 13.319-7.343 4.241-15.85 6.681-24.921 6.681zm-10-50c0-5.514 4.486-10 10-10s10 4.486 10 10-4.486 10-10 10-10-4.486-10-10zm10-50c27.57 0 50 22.43 50 50 0 11.239-3.729 21.623-10.013 29.982-4.092-5.449-9.229-9.964-15.056-13.316 3.199-4.77 5.069-10.503 5.069-16.666 0-16.542-13.458-30-30-30s-30 13.458-30 30c0 6.162 1.87 11.895 5.069 16.665-5.827 3.352-10.964 7.867-15.056 13.316-6.284-8.359-10.013-18.742-10.013-29.981 0-27.57 22.43-50 50-50zm-372 100c-9.072 0-17.579-2.44-24.921-6.681 5.507-8.22 14.798-13.319 24.921-13.319 10.122 0 19.413 5.099 24.921 13.319-7.343 4.241-15.85 6.681-24.921 6.681zm-10-50c0-5.514 4.486-10 10-10s10 4.486 10 10-4.486 10-10 10-10-4.486-10-10zm49.987 29.982c-4.092-5.449-9.229-9.964-15.056-13.316 3.199-4.77 5.069-10.503 5.069-16.666 0-16.542-13.458-30-30-30s-30 13.458-30 30c0 6.162 1.87 11.895 5.068 16.665-5.827 3.352-10.964 7.867-15.056 13.316-6.283-8.359-10.012-18.742-10.012-29.981 0-27.57 22.43-50 50-50s50 22.43 50 50c0 11.239-3.729 21.623-10.013 29.982zm-39.987 392.018c-9.071 0-17.578-2.44-24.921-6.681 5.508-8.22 14.799-13.319 24.921-13.319s19.414 5.099 24.921 13.319c-7.343 4.241-15.85 6.681-24.921 6.681zm-10-50c0-5.514 4.486-10 10-10s10 4.486 10 10-4.486 10-10 10-10-4.486-10-10zm49.987 29.981c-4.092-5.449-9.229-9.964-15.056-13.316 3.199-4.77 5.069-10.503 5.069-16.665 0-16.542-13.458-30-30-30s-30 13.458-30 30c0 6.163 1.87 11.896 5.069 16.665-5.827 3.352-10.964 7.868-15.056 13.316-6.284-8.358-10.013-18.742-10.013-29.981 0-27.57 22.43-50 50-50s50 22.43 50 50c0 11.239-3.729 21.622-10.013 29.981zm146.013-355.981c35.007 0 67.053 12.915 91.626 34.231l-21.275 21.275c-19.083-15.916-43.617-25.506-70.351-25.506s-51.268 9.59-70.351 25.506l-21.275-21.275c24.573-21.316 56.619-34.231 91.626-34.231zm90 140c0 49.626-40.374 90-90 90s-90-40.374-90-90 40.374-90 90-90 90 40.374 90 90zm-230 0c0-35.007 12.916-67.053 34.231-91.626l21.275 21.275c-15.915 19.083-25.506 43.617-25.506 70.351s9.59 51.268 25.506 70.351l-21.275 21.275c-21.315-24.573-34.231-56.619-34.231-91.626zm140 140c-35.007 0-67.053-12.915-91.626-34.231l21.275-21.275c19.083 15.916 43.617 25.506 70.351 25.506s51.268-9.59 70.351-25.506l21.275 21.275c-24.573 21.316-56.619 34.231-91.626 34.231zm105.769-48.374-21.275-21.275c15.915-19.083 25.506-43.617 25.506-70.351s-9.59-51.268-25.506-70.351l21.275-21.275c21.315 24.573 34.231 56.619 34.231 91.626s-12.916 67.053-34.231 91.626zm80.231 144.374c-9.071 0-17.578-2.44-24.921-6.681 5.508-8.22 14.799-13.319 24.921-13.319 10.123 0 19.414 5.099 24.921 13.319-7.342 4.241-15.849 6.681-24.921 6.681zm-10-50c0-5.514 4.486-10 10-10s10 4.486 10 10-4.486 10-10 10-10-4.486-10-10zm49.988 29.981c-4.092-5.449-9.229-9.964-15.056-13.316 3.198-4.77 5.068-10.503 5.068-16.665 0-16.542-13.458-30-30-30s-30 13.458-30 30c0 6.163 1.87 11.896 5.069 16.665-5.827 3.352-10.964 7.868-15.056 13.316-6.284-8.358-10.013-18.742-10.013-29.981 0-27.57 22.43-50 50-50s50 22.43 50 50c0 11.239-3.729 21.622-10.012 29.981z"/></g></g></g></svg>