<svg id="Layer_1" enable-background="new 0 0 512 512" height="512" viewBox="0 0 512 512" width="512" xmlns="http://www.w3.org/2000/svg"><g><path d="m10 66h492v80h-492z" fill="#cecdf3"/><path d="m10 146h492v300h-492z" fill="#fff"/><g><path d="m446 206h-230c-5.523 0-10-4.477-10-10s4.477-10 10-10h230c5.522 0 10 4.477 10 10s-4.478 10-10 10z" fill="#e6e6f9"/></g><g><path d="m446 246h-230c-5.523 0-10-4.477-10-10s4.477-10 10-10h230c5.522 0 10 4.477 10 10s-4.478 10-10 10z" fill="#e6e6f9"/></g><g><path d="m366 286h-150c-5.523 0-10-4.478-10-10s4.477-10 10-10h150c5.522 0 10 4.478 10 10s-4.478 10-10 10z" fill="#e6e6f9"/></g><g><path d="m366 326h-180c-5.523 0-10-4.478-10-10s4.477-10 10-10h180c5.522 0 10 4.478 10 10s-4.478 10-10 10z" fill="#e6e6f9"/></g><g><path d="m366 366h-300c-5.522 0-10-4.478-10-10s4.478-10 10-10h300c5.522 0 10 4.478 10 10s-4.478 10-10 10z" fill="#e6e6f9"/></g><g><path d="m366 406h-300c-5.522 0-10-4.478-10-10s4.478-10 10-10h300c5.522 0 10 4.478 10 10s-4.478 10-10 10z" fill="#e6e6f9"/></g><g><path d="m446 116h-180c-5.522 0-10-4.478-10-10s4.478-10 10-10h180c5.522 0 10 4.478 10 10s-4.478 10-10 10z" fill="#fff"/></g><g><circle cx="116" cy="256" fill="#ffee80" r="60"/><circle cx="116" cy="256" fill="#fff" r="25"/><g fill="#8481e2"><path d="m446 307.01c5.522 0 10-4.478 10-10s-4.478-10-10-10h-10v-9.997c0-5.522-4.478-10-10-10s-10 4.478-10 10v9.997h-10c-5.522 0-10 4.478-10 10v40c0 5.522 4.478 10 10 10h30v20h-30c-5.522 0-10 4.478-10 10s4.478 10 10 10h10v8.99c0 5.522 4.478 10 10 10s10-4.478 10-10v-8.99h10c5.522 0 10-4.478 10-10v-40c0-5.522-4.478-10-10-10h-30v-20z"/><path d="m502 56h-492c-5.523 0-10 4.478-10 10v380c0 5.522 4.477 10 10 10h492c5.522 0 10-4.478 10-10v-380c0-5.522-4.478-10-10-10zm-10 20v60h-472v-60zm-472 360v-280h472v280z"/><path d="m116 186c-38.598 0-70 31.402-70 70s31.402 70 70 70 70-31.402 70-70-31.402-70-70-70zm0 120c-27.57 0-50-22.43-50-50s22.43-50 50-50 50 22.43 50 50-22.43 50-50 50z"/></g></g><g><circle cx="60" cy="106" fill="#ff7d97" r="10"/><circle cx="100" cy="106" fill="#ffee80" r="10"/><circle cx="140" cy="106" fill="#7dd9c2" r="10"/></g></g></svg>