<svg id="Layer_1" enable-background="new 0 0 512 512" height="512" viewBox="0 0 512 512" width="512" xmlns="http://www.w3.org/2000/svg"><g><path d="m276 352h-40c0 55.228-44.771 100-100 100h240c-55.228 0-100-44.772-100-100z" fill="#ffee80"/><path d="m376 60v132c0 66.274-53.726 120-120 120-66.274 0-120-53.726-120-120v-132" fill="#ffee80"/><g fill="#fff"><path d="m216 60v60l-20-20-20 20v-60"/><path d="m136 452h240v50h-240z"/><path d="m106 10h300v50h-300z"/><path d="m296 352h-80c-11.046 0-20-8.954-20-20 0-11.046 8.954-20 20-20h80c11.046 0 20 8.954 20 20 0 11.046-8.954 20-20 20z"/></g><g fill="#ffc144"><path d="m446 96h-60v-26h20c5.522 0 10-4.478 10-10v-50c0-5.523-4.478-10-10-10h-300c-5.522 0-10 4.477-10 10v50c0 5.522 4.478 10 10 10h20v26h-60c-5.522 0-10 4.478-10 10v80c0 27.57 22.43 50 50 50h27.671c11.349 31.457 34.504 57.314 64.092 72.203-7.145 5.488-11.763 14.112-11.763 23.797 0 16.542 13.458 30 30 30h9.441c-4.991 44.936-43.196 80-89.441 80-5.523 0-10 4.478-10 10v50c0 5.522 4.477 10 10 10h240c5.522 0 10-4.478 10-10v-50c0-5.522-4.478-10-10-10-46.246 0-84.451-35.064-89.441-80h9.441c16.542 0 30-13.458 30-30 0-9.685-4.618-18.309-11.763-23.797 29.588-14.889 52.743-40.746 64.092-72.203h27.671c27.57 0 50-22.43 50-50v-80c0-5.522-4.478-10-10-10zm-330-76h280v30h-280zm-10 196c-16.542 0-30-13.458-30-30v-70h50v76c0 8.198.771 16.219 2.23 24zm260 276h-220v-30h220zm-53.172-50h-113.656c25.733-18.116 43.378-46.974 46.369-80h20.919c2.99 33.026 20.635 61.884 46.368 80zm-16.828-120c5.514 0 10 4.486 10 10s-4.486 10-10 10h-80c-5.514 0-10-4.486-10-10s4.486-10 10-10zm70-252v122c0 60.654-49.346 110-110 110s-110-49.346-110-110v-122zm70 116c0 16.542-13.458 30-30 30h-22.229c1.458-7.781 2.229-15.802 2.229-24v-76h50z"/><path d="m276 156.503c5.522 0 10-4.477 10-10 0-5.522-4.478-10-10-10h-10v-9.996c0-5.522-4.478-10-10-10-5.523 0-10 4.478-10 10v9.996h-10c-5.523 0-10 4.478-10 10v40c0 5.523 4.477 10 10 10h30v20h-30c-5.523 0-10 4.478-10 10 0 5.523 4.477 10 10 10h10v8.99c0 5.522 4.477 10 10 10 5.522 0 10-4.478 10-10v-8.99h10c5.522 0 10-4.477 10-10v-40c0-5.522-4.478-10-10-10h-30v-20z"/></g></g></svg>