<svg id="Layer_1" enable-background="new 0 0 512 512" height="512" viewBox="0 0 512 512" width="512" xmlns="http://www.w3.org/2000/svg"><g><g fill="#d0f2d2"><path d="m136 176-86-86-40 40v-120h120l-40 40 86 86"/><path d="m376 176 86-86 40 40v-120h-120l40 40-86 86"/><path d="m376 336 86 86 40-40v120h-120l40-40-86-86"/><path d="m136 336-86 86-40-40v120h120l-40-40 86-86"/></g><circle cx="256" cy="256" fill="#fff" r="140"/><circle cx="256" cy="256" fill="#ffee80" r="100"/><g fill="#5cd0b3"><path d="m494.929 137.071c2.86 2.86 7.16 3.713 10.898 2.168 3.736-1.548 6.173-5.194 6.173-9.239v-120c0-5.523-4.478-10-10-10h-120c-4.045 0-7.691 2.437-9.239 6.173-1.547 3.737-.691 8.038 2.168 10.898l32.928 32.929-76.404 76.404c-22.179-12.963-47.962-20.404-75.453-20.404s-53.274 7.441-75.453 20.404l-76.404-76.404 32.929-32.929c2.859-2.86 3.715-7.161 2.168-10.898-1.549-3.736-5.195-6.173-9.24-6.173h-120c-5.523 0-10 4.477-10 10v120c0 4.045 2.437 7.691 6.173 9.239 3.737 1.545 8.038.692 10.898-2.168l32.929-32.928 76.404 76.404c-12.963 22.179-20.404 47.962-20.404 75.453s7.441 53.274 20.404 75.453l-76.404 76.404-32.929-32.929c-2.86-2.86-7.161-3.714-10.898-2.168-3.736 1.549-6.173 5.195-6.173 9.24v120c0 5.522 4.477 10 10 10h120c4.045 0 7.691-2.436 9.239-6.173 1.547-3.737.691-8.038-2.168-10.898l-32.928-32.929 76.404-76.404c22.179 12.963 47.962 20.404 75.453 20.404s53.274-7.441 75.453-20.404l76.404 76.404-32.929 32.929c-2.859 2.86-3.715 7.161-2.168 10.898 1.548 3.736 5.194 6.173 9.239 6.173h120c5.522 0 10-4.478 10-10v-120c0-4.045-2.436-7.691-6.173-9.239-3.738-1.546-8.038-.692-10.898 2.168l-32.928 32.928-76.404-76.404c12.963-22.179 20.404-47.962 20.404-75.453s-7.441-53.274-20.404-75.453l76.404-76.404zm-109.31 108.929h-20.079c-2.067-22.833-11.138-43.674-25.047-60.351l14.184-14.184c17.479 20.372 28.776 46.195 30.942 74.535zm-30.941 94.535-14.184-14.184c13.909-16.677 22.979-37.518 25.047-60.351h20.079c-2.167 28.34-13.464 54.163-30.942 74.535zm-228.297-74.535h20.079c2.067 22.833 11.138 43.674 25.047 60.351l-14.184 14.184c-17.479-20.372-28.776-46.195-30.942-74.535zm30.941-94.535 14.184 14.184c-13.909 16.677-22.979 37.518-25.047 60.351h-20.079c2.167-28.34 13.464-54.163 30.942-74.535zm183.213-14.143-14.184 14.184c-16.677-13.909-37.518-22.979-60.351-25.047v-20.079c28.34 2.167 54.163 13.464 74.535 30.942zm-84.535 188.678c-49.626 0-90-40.374-90-90s40.374-90 90-90 90 40.374 90 90-40.374 90-90 90zm-10-199.54c-22.833 2.067-43.674 11.138-60.351 25.047l-14.184-14.184c20.373-17.479 46.196-28.775 74.535-30.941zm-74.535 208.218 14.184-14.184c16.677 13.909 37.518 22.979 60.351 25.047v20.079c-28.34-2.167-54.163-13.464-74.535-30.942zm94.535 10.862c22.833-2.067 43.674-11.138 60.351-25.047l14.184 14.184c-20.373 17.479-46.196 28.775-74.535 30.941zm-208.929-282.611c-3.906-3.904-10.236-3.904-14.143 0l-22.928 22.928v-85.857h85.857l-22.928 22.929c-3.905 3.905-3.905 10.237 0 14.143l80.77 80.77c-4.488 3.514-8.767 7.281-12.825 11.273-.325.253-.642.521-.94.819-.299.299-.567.616-.821.942-3.991 4.058-7.758 8.336-11.271 12.823zm25.858 372c-3.905 3.905-3.905 10.237 0 14.143l22.928 22.928h-85.857v-85.857l22.929 22.929c3.906 3.904 10.236 3.904 14.143 0l80.77-80.77c3.513 4.487 7.28 8.766 11.271 12.823.253.326.521.643.821.942.299.299.616.566.941.819 4.058 3.992 8.337 7.759 12.825 11.273zm372-25.858c3.906 3.904 10.236 3.904 14.143 0l22.928-22.928v85.857h-85.857l22.929-22.929c3.905-3.905 3.905-10.237 0-14.143l-80.77-80.77c4.488-3.514 8.767-7.281 12.825-11.273.325-.253.642-.521.941-.819.299-.299.567-.616.821-.942 3.991-4.058 7.758-8.336 11.271-12.823zm-80.771-265.372c-3.513-4.487-7.28-8.766-11.271-12.823-.253-.326-.521-.643-.821-.942-.299-.298-.616-.566-.94-.819-4.058-3.992-8.337-7.759-12.825-11.273l80.77-80.77c3.905-3.905 3.905-10.237 0-14.143l-22.928-22.929h85.857v85.857l-22.929-22.929c-3.906-3.904-10.236-3.904-14.143 0z"/><path d="m276 226.503c5.522 0 10-4.477 10-10 0-5.522-4.478-10-10-10h-10v-9.996c0-5.522-4.478-10-10-10-5.523 0-10 4.478-10 10v9.996h-10c-5.523 0-10 4.478-10 10v40c0 5.522 4.477 10 10 10h30v20h-30c-5.523 0-10 4.478-10 10s4.477 10 10 10h10v8.99c0 5.522 4.477 10 10 10 5.522 0 10-4.478 10-10v-8.99h10c5.522 0 10-4.478 10-10v-40c0-5.522-4.478-10-10-10h-30v-20z"/></g></g></svg>