<svg id="Layer_1" enable-background="new 0 0 512 512" height="512" viewBox="0 0 512 512" width="512" xmlns="http://www.w3.org/2000/svg"><g><path d="m46 10h280v360h-280z" fill="#e2e9ee"/><path d="m306 70h-200v360h280v-280z" fill="#fff"/><g><g><path d="m192 170h-36c-5.523 0-10-4.477-10-10s4.477-10 10-10h36c5.523 0 10 4.477 10 10s-4.477 10-10 10z" fill="#a7bdcd"/></g><g><path d="m296 230h-140c-5.523 0-10-4.477-10-10s4.477-10 10-10h140c5.522 0 10 4.477 10 10s-4.478 10-10 10z" fill="#c5d3de"/></g><g><path d="m276 270h-120c-5.523 0-10-4.477-10-10s4.477-10 10-10h120c5.522 0 10 4.477 10 10s-4.478 10-10 10z" fill="#c5d3de"/></g><g><path d="m256 310h-100c-5.523 0-10-4.477-10-10s4.477-10 10-10h100c5.522 0 10 4.477 10 10s-4.478 10-10 10z" fill="#c5d3de"/></g><g><path d="m256 350h-100c-5.523 0-10-4.477-10-10s4.477-10 10-10h100c5.522 0 10 4.477 10 10s-4.478 10-10 10z" fill="#c5d3de"/></g><g><path d="m226 130h-70c-5.523 0-10-4.477-10-10s4.477-10 10-10h70c5.523 0 10 4.477 10 10s-4.477 10-10 10z" fill="#a7bdcd"/></g></g><path d="m306 70v80h80" fill="#e2e9ee"/><g><path d="m386 502c-11.046 0-20-8.954-20-20v-80h40v80c0 11.046-8.954 20-20 20z" fill="#66e0f7"/><circle cx="386" cy="322" fill="#ccf5fc" r="80"/><path d="m476 322c0-46.246-35.063-84.451-80-89.441v-82.559c0-2.652-1.054-5.196-2.929-7.071l-57.071-57.072v-75.857c0-5.523-4.478-10-10-10h-280c-5.522 0-10 4.477-10 10v360c0 5.523 4.478 10 10 10h50v50c0 5.523 4.478 10 10 10h250v42c0 16.542 13.458 30 30 30s30-13.458 30-30v-75.148c34.92-12.383 60-45.741 60-84.852zm-160-227.857 45.858 45.857h-45.858zm-260 265.857v-340h260v45.857l-2.929-2.929c-1.876-1.874-4.419-2.928-7.071-2.928h-200c-5.522 0-10 4.477-10 10v290zm60 60v-340h180v70c0 5.523 4.478 10 10 10h70v72.559c-44.937 4.991-80 43.196-80 89.441 0 39.111 25.08 72.469 60 84.852v13.148zm280 62c0 5.514-4.486 10-10 10s-10-4.486-10-10v-70.559c3.284.365 6.62.559 10 .559s6.716-.194 10-.559zm-10-90c-38.598 0-70-31.402-70-70s31.402-70 70-70 70 31.402 70 70-31.402 70-70 70z" fill="#6d92ac"/><circle cx="386" cy="323" fill="#fff" r="37.5"/></g></g></svg>