<svg id="Layer_1" enable-background="new 0 0 512 512" height="512" viewBox="0 0 512 512" width="512" xmlns="http://www.w3.org/2000/svg"><g><path d="m346 242h80v180h-80z" fill="#d0f2d2"/><path d="m86 242h80v180h-80z" fill="#d0f2d2"/><path d="m476 162-220-152-220 152v40h440z" fill="#d0f2d2"/><circle cx="256" cy="96" fill="#fff" r="30"/><path d="m36 162h440v40h-440z" fill="#d0f2d2"/><g fill="#fff"><path d="m66 202h120v40h-120z"/><path d="m326 202h120v40h-120z"/><path d="m36 422h440v40h-440z"/><path d="m10 462h492v40h-492z"/></g><g fill="#5cd0b3"><path d="m502 452h-16v-30c0-5.523-4.478-10-10-10h-40v-160h10c5.522 0 10-4.477 10-10v-30h20c5.522 0 10-4.477 10-10v-40c0-3.285-1.613-6.36-4.315-8.227l-220-152c-3.422-2.363-7.947-2.363-11.369 0l-220 152c-2.703 1.867-4.316 4.942-4.316 8.227v40c0 5.523 4.478 10 10 10h20v30c0 5.523 4.478 10 10 10h10v160h-40c-5.522 0-10 4.477-10 10v30h-16c-5.523 0-10 4.477-10 10v40c0 5.522 4.477 10 10 10h492c5.522 0 10-4.478 10-10v-40c0-5.523-4.478-10-10-10zm-86-40h-20v-160h20zm-60 0v-160h20v160zm-180 0v-160h10c5.523 0 10-4.477 10-10v-30h120v30c0 5.523 4.478 10 10 10h10v160zm-40 0v-160h20v160zm300-180h-100v-20h100zm-180-209.846 187.935 129.846h-375.87zm-210 149.846h420v20h-420zm130 40v20h-100v-20zm-80 40h20v160h-20zm-50 180h420v20h-420zm446 60h-472v-20h472z"/><path d="m276 287.01c5.522 0 10-4.478 10-10 0-5.523-4.478-10-10-10h-10v-9.997c0-5.523-4.478-10-10-10-5.523 0-10 4.478-10 10v9.997h-10c-5.523 0-10 4.477-10 10v40c0 5.522 4.477 10 10 10h30v20h-30c-5.523 0-10 4.477-10 10 0 5.522 4.477 10 10 10h10v8.99c0 5.522 4.477 10 10 10 5.522 0 10-4.478 10-10v-8.99h10c5.522 0 10-4.478 10-10v-40c0-5.523-4.478-10-10-10h-30v-20z"/></g></g></svg>