<svg id="Layer_1" enable-background="new 0 0 512 512" height="512" viewBox="0 0 512 512" width="512" xmlns="http://www.w3.org/2000/svg"><g><path d="m10 126h280v160h-280z" fill="#fff"/><path d="m290 126-140 100-140-100" fill="#fff"/><path d="m261.595 134h-223.19l111.595 79.711z" fill="none"/><g><path d="m230.284 226c-5.304 0-10.391 2.107-14.142 5.858l-54.142 54.142c-11.046 11.046-11.046 28.954 0 40h-40c-33.137 0-60 26.863-60 60h183.432c10.609 0 20.783-4.214 28.284-11.716l48.284-48.284h30v-100z" fill="#ffdcd5"/><path d="m352 206h150v140h-150z" fill="#b5b3ee"/><path d="m352 206h50v140h-50z" fill="#fff"/><path d="m502 196h-150c-5.523 0-10 4.477-10 10v10h-42v-90c0-5.523-4.477-10-10-10h-280c-5.523 0-10 4.477-10 10v160c0 5.523 4.477 10 10 10h135.064c-1.759 6.542-1.759 13.458 0 20h-23.064c-38.598 0-70 31.402-70 70 0 5.523 4.477 10 10 10h183.432c13.356 0 25.912-5.201 35.356-14.645l45.354-45.355h15.858v10c0 5.523 4.477 10 10 10h150c5.523 0 10-4.477 10-10v-140c0-5.523-4.477-10-10-10zm-271.716 20c-5.454 0-10.685 1.449-15.257 4.159l-19.822-14.159 84.795-60.568v70.568zm-72.582 60.155c-.554-.095-1.121-.155-1.702-.155h-114.79l80.792-57.71 22.186 15.847c1.739 1.242 3.775 1.863 5.813 1.863 2.037 0 4.074-.621 5.812-1.863l22.187-15.848 21.915 15.653zm-7.702-62.444-108.795-77.711h217.591zm-45.204-7.711-84.796 60.567v-121.135zm217.204 110c-2.652 0-5.196 1.054-7.071 2.929l-48.284 48.284c-5.666 5.667-13.2 8.787-21.213 8.787h-172.428c4.646-22.794 24.85-40 48.996-40h36.227c6.938 5.505 15.353 8.266 23.773 8.266 9.804 0 19.607-3.731 27.071-11.195l40-40c3.905-3.905 3.905-10.237 0-14.143-3.905-3.904-10.237-3.904-14.143 0l-40 40c-3.453 3.454-8.045 5.355-12.929 5.355s-9.476-1.902-12.929-5.355c-7.129-7.129-7.129-18.729 0-25.857l54.142-54.142c1.889-1.889 4.4-2.929 7.071-2.929h111.717v80zm40-100h30v120h-30zm130 120h-80v-120h80z" fill="#8481e2"/></g></g></svg>