<svg id="Layer_1" enable-background="new 0 0 512 512" height="512" viewBox="0 0 512 512" width="512" xmlns="http://www.w3.org/2000/svg"><g><circle cx="110" cy="226" fill="#ffee80" r="100"/><circle cx="110" cy="226" fill="#fff" r="50"/><g><path d="m230.284 226c-5.304 0-10.391 2.107-14.142 5.858l-54.142 54.142c-11.046 11.046-11.046 28.954 0 40h-40c-33.137 0-60 26.863-60 60h183.432c10.609 0 20.783-4.214 28.284-11.716l48.284-48.284h30v-100z" fill="#ffdcd5"/><path d="m352 206h150v140h-150z" fill="#d0f2d2"/><path d="m352 206h50v140h-50z" fill="#fff"/><path d="m502 196h-150c-5.522 0-10 4.477-10 10v10h-111.716c-3.674 0-7.244.663-10.582 1.92-4.151-56.896-51.765-101.92-109.702-101.92-60.654 0-110 49.346-110 110 0 49.65 33.068 91.716 78.335 105.347-16.036 12.839-26.335 32.561-26.335 54.653 0 5.523 4.477 10 10 10h183.432c13.355 0 25.911-5.201 35.356-14.645l45.355-45.355h15.857v10c0 5.523 4.478 10 10 10h150c5.522 0 10-4.477 10-10v-140c0-5.523-4.478-10-10-10zm-392 120c-49.626 0-90-40.374-90-90s40.374-90 90-90 90 40.374 90 90c0 2.752-.141 5.518-.388 8.245l-44.683 44.683c-10.026 10.026-13.307 24.272-9.865 37.071h-23.064c-2.954 0-5.859.205-8.718.562-1.03-.357-2.131-.561-3.282-.561zm212 0c-2.652 0-5.195 1.054-7.071 2.929l-48.284 48.284c-5.666 5.667-13.2 8.787-21.213 8.787h-172.428c4.646-22.794 24.85-40 48.996-40h36.227c6.938 5.505 15.353 8.266 23.773 8.266 9.804 0 19.607-3.731 27.071-11.195l40-40c3.905-3.905 3.905-10.237 0-14.143-3.905-3.904-10.237-3.904-14.143 0l-40 40c-3.453 3.454-8.045 5.355-12.929 5.355s-9.476-1.902-12.929-5.355c-7.129-7.129-7.129-18.729 0-25.857l54.142-54.142c1.889-1.889 4.4-2.929 7.071-2.929h111.717v80zm40-100h30v120h-30zm130 120h-80v-120h80z" fill="#5cd0b3"/></g></g></svg>