<svg id="Capa_1" enable-background="new 0 0 511.029 511.029" height="512" viewBox="0 0 511.029 511.029" width="512" xmlns="http://www.w3.org/2000/svg"><g><path d="m81.428 0c-16.542 0-30 13.458-30 30v32.58l10.001 140.889-10.001 141.227v136.333l59.778 15 .222-466.029c0-16.542-13.458-30-30-30z" fill="#ffdf8e"/><g><path d="m394.181 481.029h-138.666l-10.667 19.333 10.667 10.667h138.666z" fill="#0ed678"/><path d="m51.428 481.029h204.087v30h-204.087z" fill="#04eb84"/></g><g><g><path d="m255.515 233.696 184.853 111h19.233v-23.235l-161.42-117.823 161.42-118.161v-22.897h-19.736l-184.35 107.116-10.667 29.787z" fill="#fdae02"/><path d="m255.515 169.696-184.426-107.116h-19.661v22.947l161.42 118.111-161.42 118.423v22.635h20.128l183.959-111z" fill="#fdcb02"/></g><path d="m459.601 321.461v-235.984l-177.045 118.161z" fill="#28485e"/><g><path d="m439.865 62.58h-184.35l-21.334 53.782 21.334 69.248z" fill="#0cba68"/><path d="m255.515 185.61v-123.03h-184.426z" fill="#0ed678"/></g><path d="m51.428 85.527v236.534l177.045-118.423z" fill="#36607d"/><g><path d="m255.515 221.666-21.334 65.363 21.334 57.667h184.853z" fill="#0cba68"/><path d="m255.515 221.666-183.959 123.03h183.959z" fill="#0ed678"/></g></g></g></svg>