<svg id="Capa_1" enable-background="new 0 0 512 512" height="512" viewBox="0 0 512 512" width="512" xmlns="http://www.w3.org/2000/svg"><g><g><g><path d="m256 0-10.667 234.666 10.667 258.305h24.797c6.281-8.242 14.846-19.279 24.636-31.894 43.679-56.283 109.688-141.338 124.987-173.867 14.892-31.657 22.13-61.312 22.13-90.659.001-108.377-88.171-196.55-196.55-196.551z" fill="#efe2dd"/><path d="m59.449 196.552c0 29.347 7.238 59.001 22.13 90.658 15.3 32.53 81.309 117.585 124.987 173.867 9.79 12.615 18.356 23.652 24.636 31.894h24.798v-492.971c-108.379.001-196.551 88.174-196.551 196.552z" fill="#faeee5"/></g><g><g><path d="m309.333 196.437 63.296-47.736c-3.791-9.242-8.699-18.022-14.648-26.181l-101.981 26.813-10.667 42.667 10.667 53.333 102.101 25.086c5.935-8.167 10.828-16.956 14.604-26.205z" fill="#fdae02"/><path d="m154.017 122.52c-5.949 8.158-10.857 16.939-14.648 26.18l63.298 47.737-63.373 47.779c3.776 9.249 8.669 18.037 14.604 26.205l102.102-25.088v-96z" fill="#fdcb02"/></g><g><path d="m357.982 122.521c-3.864-5.299-8.161-10.339-12.887-15.065-23.798-23.798-55.439-36.905-89.095-36.905l-10.667 57.449 10.667 51.271z" fill="#0cba68"/><path d="m358.101 270.419-102.101-56.816-10.667 63.73 10.667 45.22c33.656 0 65.297-13.107 89.095-36.905 4.775-4.774 9.111-9.869 13.006-15.229z" fill="#0cba68"/><g fill="#0ed678"><path d="m166.903 107.456c-4.726 4.726-9.023 9.765-12.886 15.064l101.983 56.751v-108.72h-.001c-33.656 0-65.298 13.107-89.096 36.905z"/><path d="m153.898 270.42c3.894 5.359 8.23 10.454 13.005 15.228 23.799 23.798 55.44 36.905 89.096 36.905h.001v-108.95z"/></g></g><path d="m372.705 244.215c6.096-14.93 9.295-31.05 9.295-47.663 0-16.682-3.224-32.868-9.371-47.851l-85.782 47.736z" fill="#28485e"/><path d="m139.369 148.701c-6.146 14.983-9.371 31.169-9.371 47.852 0 16.613 3.199 32.733 9.296 47.664l85.859-47.779z" fill="#36607d"/></g></g><g><path d="m385.704 482h-129.704l-10.667 19.333 10.667 10.667h129.704z" fill="#0ed678"/><path d="m126.296 482h129.704v30h-129.704z" fill="#04eb84"/></g></g></svg>