<svg id="Capa_1" enable-background="new 0 0 512 512" height="512" viewBox="0 0 512 512" width="512" xmlns="http://www.w3.org/2000/svg"><g><g><path d="m345.157 366.481-75.246-75.246 82.138-82.138 75.246 75.246z" fill="#ebe1dc"/><path d="m381.042 167.707h30v145.286h-30z" fill="#c8beb9" transform="matrix(.707 -.707 .707 .707 -53.955 350.441)"/></g><g><path d="m216.458 352 158.681-15.5c-4.084-18.601-11.419-36.387-21.793-52.576-14.56-22.722-34.446-41.398-57.888-54.456v-.301l-79-15.833-10.667 74.666z" fill="#fdae02"/><path d="m137.458 229.167v.301c-23.442 13.058-43.328 31.734-57.888 54.456-10.373 16.189-17.708 33.975-21.792 52.576l158.68 15.5v-138.667z" fill="#fdcb02"/></g><g><path d="m375.138 336.5h-158.68l-10.667 79.5 10.667 96h81.685l3.625-2.241c23.132-14.298 42.474-34.335 55.932-57.945 13.889-24.364 21.23-52.146 21.23-80.342 0-11.845-1.286-23.561-3.792-34.972z" fill="#dc4b4b"/><path d="m57.777 336.5c-2.506 11.411-3.792 23.127-3.792 34.973 0 28.196 7.341 55.978 21.23 80.342 13.458 23.609 32.8 43.646 55.932 57.945l3.625 2.241h81.686v-175.501z" fill="#e07037"/></g><g><path d="m295.458 121.833v-111.166h-79l-10.667 54.999 10.667 73.001z" fill="#c8beb9"/><path d="m137.458 121.833 79 16.834v-128h-79z" fill="#dcd2cd"/></g><g><path d="m216.458 229.167h79v-107.334h-79l-10.667 59.5z" fill="#0cba68"/><path d="m137.458 121.833h79v107.333h-79z" fill="#0ed678"/></g><g><path d="m312.458 0h-96l-10.001 15 10.001 15h96z" fill="#dcd2cd"/><path d="m120.458 0h96v30h-96z" fill="#ebe1dc"/></g></g></svg>