<svg id="Capa_1" enable-background="new 0 0 512 512" height="512" viewBox="0 0 512 512" width="512" xmlns="http://www.w3.org/2000/svg"><g><g><path d="m366.843 501.333 16.106-60.223-27.168-17.289c-29.871-19.009-64.374-29.056-99.78-29.056l-10.667 42.567 10.666 64.001z" fill="#fdc673"/><path d="m129.052 441.11 16.106 60.223h110.842v-106.568c-35.406 0-69.91 10.047-99.78 29.056z" fill="#ffdf8e"/></g><g><path d="m256 313.667c108.118 0 196.078-87.96 196.078-196.078v-.255h-196.078l-10.667 91.053z" fill="#f90"/><path d="m59.922 117.333v.255c0 108.118 87.96 196.078 196.078 196.078v-196.333z" fill="#fdae02"/></g><g><path d="m256 0-10.666 45.833 10.666 60.834 206.731-15.001v-91.666z" fill="#fdc673"/><path d="m49.269 91.666 206.731 15.001v-106.667h-206.731z" fill="#ffdf8e"/></g><g><path d="m256 91.666-10.667 15.001 10.667 14.999h63.193c-.732 116.368-10.003 227.338-28.28 338.723l-3.545 21.611h-31.368l-10.667 19.333 10.667 10.667h118.323l17.476-44.637c49.056-125.295 70.932-236.538 70.932-360.697v-15zm107.864 364.761-10.012 25.573h-36.082l2.749-16.753c18.543-113.008 27.938-225.564 28.67-343.581h83.431c-1.708 114.276-23.117 218.191-68.756 334.761z" fill="#c57a44"/><path d="m224.632 482-3.545-21.61c-18.276-111.383-27.547-222.353-28.279-338.724h63.193v-30h-206.731v15c0 124.159 21.876 235.402 70.932 360.697l17.476 44.637h118.322v-30zm-66.483 0-10.013-25.573c-45.64-116.57-67.048-220.484-68.756-334.76h83.432c.732 118.019 10.127 230.575 28.67 343.581l2.749 16.752z" fill="#d88a55"/></g></g></svg>