<svg id="Capa_1" enable-background="new 0 0 512 512" height="512" viewBox="0 0 512 512" width="512" xmlns="http://www.w3.org/2000/svg"><g><g><g><g><path d="m426 235.271-170-27.415-10.667 64.683 10.667 89.983 170-30.742z" fill="#1b303e"/><path d="m76 178.828v216.245l180-32.551v-154.666z" fill="#28485e"/></g><g><path d="m426 222.3-170-35.79-10.667 11.363 10.667 19.295 170 35.79z" fill="#36607d"/><path d="m426 321.387-170 35.79-10.667 11.362 10.667 19.295 170-35.789z" fill="#36607d"/><g fill="#44799b"><path d="m76 148.616v30.657l180 37.895v-30.658z"/><path d="m76 395.072v30.657l180-37.895v-30.657z"/></g></g></g><path d="m0 98.771h101.621v376.802h-101.621z" fill="#0ed678"/><path d="m136.793 124.933h101.621v324.479h-101.621z" fill="#fdcb02"/><path d="m273.586 151.094h101.621v272.157h-101.621z" fill="#dc4b4b"/><path d="m410.379 180.608h101.621v213.128h-101.621z" fill="#0cba68"/><path d="m35.811 128.771h30v30h-30z" fill="#f7f0eb"/><path d="m172.604 154.933h30v30h-30z" fill="#f7f0eb"/><g fill="#ebe1dc"><path d="m309.397 180.608h30v30h-30z"/><path d="m446.19 210.608h30v30h-30z"/><path d="m446.19 333.736h30v30h-30z"/><path d="m309.397 363.736h30v30h-30z"/></g><path d="m172.604 389.412h30v30h-30z" fill="#f7f0eb"/><path d="m35.811 415.573h30v30h-30z" fill="#f7f0eb"/></g><g><g><path d="m480 58.839h-224l-10.667 11.034 10.667 18.966h224z" fill="#fdae02"/><path d="m134.333 58.839h121.667v30h-121.667z" fill="#fdcb02"/></g><ellipse cx="474.588" cy="73.839" fill="#8d562f" rx="37.412" ry="37.412" transform="matrix(.987 -.16 .16 .987 -5.7 76.974)"/></g></g></svg>