<svg id="Capa_1" enable-background="new 0 0 512 512" height="512" viewBox="0 0 512 512" width="512" xmlns="http://www.w3.org/2000/svg"><g><g><g><path d="m256 341.333 256-27v-116.666l-256-27-10.667 85.333z" fill="#fdae02"/><path d="m0 314.333 256 27v-170.666l-256 27z" fill="#fdcb02"/></g><g><path d="m256 81-10.667 57.667 10.667 59h256v-116.667z" fill="#0cba68"/><path d="m0 81h256v116.666h-256z" fill="#0ed678"/></g><g><path d="m256 431h256v-116.667h-256l-10.667 59z" fill="#dc4b4b"/><path d="m0 314.333h256v116.666h-256z" fill="#e07037"/></g></g><g><path d="m367.765 281.544c-1.451-1.562-10.426-10.757-26.331-17.451 20.756-29.166 19.978-57.894 19.926-59.297l-.778-16.56-16.547-.757s-.422-.019-1.227-.019c-4.499 0-21.853.697-42.075 10.474-6.541-42.008-31.281-65.448-32.487-66.567l-12.246-11.366-10.667 136 10.667 114.332h15v-46.075c9.27 3.662 20.727 6.409 34.29 6.409 38.511 0 60.142-22.106 62.481-24.626l11.372-12.25z" fill="#f7f0eb"/><path d="m256 120-12.245 11.366c-1.206 1.12-25.946 24.559-32.487 66.567-20.222-9.777-37.576-10.474-42.075-10.474-.807 0-1.228.019-1.228.019l-16.708.765-.616 16.552c-.052 1.403-.83 30.132 19.926 59.297-15.905 6.694-24.88 15.889-26.331 17.451l-11.378 12.245 11.372 12.25c2.34 2.521 23.97 24.626 62.481 24.626 13.563 0 25.02-2.747 34.29-6.409v46.075h15z" fill="#fffbf5"/></g></g></svg>