<svg id="Capa_1" enable-background="new 0 0 512 512" height="512" viewBox="0 0 512 512" width="512" xmlns="http://www.w3.org/2000/svg"><g><path d="m0 145v126h68.333l-8.039-126z" fill="#28485e"/><path d="m512 145v126h-68.333l8.039-126z" fill="#1b303e"/><g><path d="m256 145-10.667 111 10.667 111h82.167l13.833-111-13.833-111z" fill="#fdae02"/><path d="m60.294 145v140.619c0 44.874 36.507 81.381 81.381 81.381h32.158l7.5-111-7.5-111z" fill="#0ed678"/><path d="m173.834 145h82.166v222h-82.166z" fill="#fdcb02"/><path d="m338.167 145v222h32.159c44.874 0 81.381-36.507 81.381-81.381v-140.619z" fill="#dc4b4b"/></g><path d="m198.097 214v47.452c0 6.368-5.181 11.548-11.548 11.548-6.368 0-11.549-5.181-11.549-11.548v-47.452h-30v47.452c0 22.91 18.639 41.548 41.549 41.548s41.548-18.639 41.548-41.548v-47.452z" fill="#fffbf5"/><g><path d="m394.667 198.334h-138.667l-10.667 15 10.667 15h138.667z" fill="#36607d"/><path d="m117.334 198.334h138.667v30h-138.667z" fill="#44799b"/></g></g></svg>