<svg id="Capa_1" enable-background="new 0 0 509.594 509.594" height="512" viewBox="0 0 509.594 509.594" width="512" xmlns="http://www.w3.org/2000/svg"><g><g><path d="m509.593 142.833c0-38.152-14.857-74.02-41.835-100.998l-119.759 90.92-82.237 111.077c26.978 26.978 62.846 41.835 100.998 41.835s74.021-14.857 100.998-41.835c26.979-26.977 41.835-62.846 41.835-100.999z" fill="#28485e"/><path d="m467.758 41.835c-26.977-26.978-62.846-41.835-100.998-41.835s-74.021 14.857-100.998 41.835c-26.978 26.977-41.835 62.846-41.835 100.998s14.857 74.021 41.835 100.999z" fill="#36607d"/></g><g><path d="m491.521 255.698-118.813-118.813-15.148.064-6.064 21.149 118.812 118.813z" fill="#36607d"/><path d="m287.696 4.072h30v168.026h-30z" fill="#44799b" transform="matrix(.707 -.707 .707 .707 26.372 239.837)"/></g><g><path d="m21.213 509.594 52.548-52.549-10.606-10.606-37.464 22.379-15.085 30.169z" fill="#36607d"/><path d="m-5.58 459.91h74.314v15h-74.314z" fill="#44799b" transform="matrix(.707 -.707 .707 .707 -321.258 159.228)"/></g><g><g><path d="m116.201 393.392 154.573-9.414 121.495-100.799-45.44-45.439-64.694-10.282-98.051 67.882z" fill="#fdae02"/><path d="m282.135 227.458-155.623 10.282-87.285 105.206c-9.676 11.662-15.211 26.032-15.91 41.032l92.884 9.414z" fill="#fdcb02"/></g><g><path d="m271.854 237.739 74.975.001-37.487-37.488-19.665 4.579z" fill="#0cba68"/><path d="m309.342 200.252-82.928-82.928-99.902 120.416 145.342-.001z" fill="#0ed678"/></g><g><path d="m58.424 451.169 14.861 14.861c12.252 12.253 28.532 19.443 45.841 20.247 1.084.05 2.166.075 3.245.075 16.163 0 31.776-5.614 44.277-15.985l104.126-86.389h-145.159l-47.126 32.042z" fill="#dc4b4b"/><path d="m23.317 390.467c.804 17.309 7.994 33.589 20.247 45.841l14.861 14.861 67.191-67.191h-102.299c-.1 2.152-.101 4.317 0 6.489z" fill="#e07037"/></g></g><g><path d="m250.459 299.216-20.041-20.041-45.501 16.999-17.866 46.368 20.041 20.041z" fill="#f7f0eb"/><path d="m143.907 286.668h89.614v28.342h-89.614z" fill="#fffbf5" transform="matrix(.707 -.707 .707 .707 -157.451 221.551)"/></g></g></svg>