<svg id="Capa_1" enable-background="new 0 0 512 512" height="512" viewBox="0 0 512 512" width="512" xmlns="http://www.w3.org/2000/svg"><g><g><path d="m298.667 186.75h-42.667l-10.667 55.416 10.667 67.009h42.667z" fill="#f90"/><path d="m213.333 186.75h42.667v122.425h-42.667z" fill="#fdae02"/></g><g><path d="m28.5 344.25h30v38h-30z" fill="#e0d3ce"/><path d="m180.5 344.25h30v38h-30z" fill="#e0d3ce"/><path d="m28.5 352.083h182l12.247-50.73c7.554-27.698 12.489-56.029 14.774-84.603l-118.021-10.001-118.021 10.001c2.285 28.574 7.221 56.905 14.774 84.603z" fill="#e07037"/><path d="m104.5 201.75h30v41.833h-30z" fill="#fffbf5"/><path d="m239 179.988v-50.238h-239v50.238c0 2.254.023 4.508.056 6.762l119.444 10.001 119.444-10.001c.033-2.253.056-4.507.056-6.762z" fill="#ffdf8e"/><path d="m.056 186.75c.147 10.019.624 20.024 1.422 30h236.043c.798-9.976 1.275-19.981 1.422-30z" fill="#8d562f"/></g><g><path d="m453.5 344.25h30v38h-30z" fill="#dcd2cd"/><path d="m301.5 344.25h30v38h-30z" fill="#dcd2cd"/><path d="m483.5 352.083h-182l-12.247-50.73c-7.554-27.698-12.489-56.029-14.774-84.603l118.021-10.001 118.022 10.001c-2.285 28.574-7.221 56.905-14.774 84.603z" fill="#dc4b4b"/><path d="m377.5 201.75h30v41.833h-30z" fill="#f7f0eb"/><path d="m273 179.988v-50.238h239v50.238c0 2.254-.023 4.508-.056 6.762l-119.444 10.001-119.444-10.001c-.033-2.253-.056-4.507-.056-6.762z" fill="#fdc673"/><path d="m511.944 186.75c-.147 10.019-.624 20.024-1.422 30h-236.044c-.798-9.976-1.275-19.981-1.422-30z" fill="#744727"/></g></g></svg>