<svg id="Capa_1" enable-background="new 0 0 512 512" height="512" viewBox="0 0 512 512" width="512" xmlns="http://www.w3.org/2000/svg"><g><g><path d="m497 135.773c-21.931 0-39.772-17.842-39.772-39.773v-15h-249.227l-16 175 16 175h249.227v-15c0-21.931 17.842-39.773 39.772-39.773h15v-240.454z" fill="#fdae02"/><path d="m54.773 81v15c0 21.931-17.843 39.773-39.773 39.773h-15l.001 240.455h15c21.931 0 39.772 17.842 39.772 39.773v15h153.227v-350.001z" fill="#fdcb02"/></g><g fill="#fd8c02"><path d="m369 117.333h30v69.334h-30z"/><path d="m369 325.333h30v69.334h-30z"/><path d="m369 221.333h30v69.333h-30z"/></g><g><path d="m313.667 256c0-58.265-47.402-105.667-105.666-105.667l-5.334 105.667 5.333 105.667c58.265 0 105.667-47.402 105.667-105.667zm-90.667 74.168v-45.02l36.588 26.134c-10.04 9.377-22.618 16.065-36.588 18.886zm0-81.887v-66.449c34.561 6.979 60.667 37.58 60.667 74.168 0 11-2.379 21.448-6.618 30.887z" fill="#f7f0eb"/><path d="m208 150.333c-58.265 0-105.666 47.402-105.666 105.667s47.401 105.667 105.666 105.667h.001zm-15 179.835c-13.97-2.821-26.547-9.51-36.588-18.886l36.588-26.134zm0-81.887-54.048 38.606c-4.239-9.439-6.618-19.887-6.618-30.887 0-36.588 26.105-67.189 60.666-74.168z" fill="#fffbf5"/></g></g></svg>