<svg id="Capa_1" enable-background="new 0 0 512 512" height="512" viewBox="0 0 512 512" width="512" xmlns="http://www.w3.org/2000/svg"><g><path d="m512 256c0-68.38-26.629-132.668-74.98-181.02-16.62-16.619-35.121-30.672-55.025-41.959l-19.327 30.978 19.327 55.319c5.418 4.994 10.567 10.317 15.397 15.965 28.765 33.637 44.608 76.509 44.608 120.717 0 32.476-8.534 64.467-24.682 92.516l-3.255 5.654-32.069-32.069-8.66 19.232 8.66 51.478-8.66 44.522 8.66 41.645c19.904-11.287 38.406-25.34 55.025-41.96 48.352-48.351 74.981-112.638 74.981-181.018z" fill="#dc4b4b"/><path d="m97.937 354.171-3.255-5.655c-16.148-28.048-24.682-60.04-24.682-92.516 0-44.207 15.843-87.079 44.609-120.718 4.83-5.648 9.979-10.971 15.397-15.965l8.661-44.651-8.661-41.646c-19.903 11.288-38.406 25.341-55.026 41.96-48.351 48.352-74.98 112.64-74.98 181.02s26.629 132.667 74.98 181.019c16.62 16.62 35.122 30.673 55.026 41.96l8.661-41.646-8.661-44.521 8.661-51.478-8.661-19.233z" fill="#0ed678"/><g><path d="m377.951 396.33c-25.918 22.552-57.429 37.456-91.125 43.101l-5.826.976v-148.589l100.994 100.994v-70.711l-100.994-100.993v-149.516l5.826.976c35.578 5.96 68.675 22.332 95.168 46.75v-86.297c-38.003-21.552-81.117-33.021-125.994-33.021l-10.667 266 10.667 246c44.877 0 87.99-11.469 125.994-33.021v-86.167z" fill="#fdae02"/><path d="m256 512v-512c-44.876 0-87.99 11.469-125.994 33.021v86.297c26.492-24.417 59.59-40.789 95.167-46.749l5.827-.976v149.515l-100.994 100.993v156.878c38.004 21.552 81.118 33.021 125.994 33.021zm-25-71.592-5.826-.976c-33.696-5.646-65.206-20.55-91.124-43.102l-4.043-3.518 100.993-100.994z" fill="#fdcb02"/></g></g></svg>