<svg id="Capa_1" enable-background="new 0 0 512 512" height="512" viewBox="0 0 512 512" width="512" xmlns="http://www.w3.org/2000/svg"><g><g><path d="m256 0-10.667 245.334 10.667 266.666c141.385 0 256-114.615 256-256s-114.615-256-256-256z" fill="#ebe1dc"/><path d="m0 256c0 141.385 114.615 256 256 256v-512c-141.385 0-256 114.615-256 256z" fill="#f5f0eb"/></g><g><g><path d="m256 394.667 165.086-21.044c24.408-34.104 37.58-74.849 37.58-117.623s-13.173-83.519-37.58-117.622l-165.086-21.044-21.333 138.666z" fill="#fdae02"/><path d="m256 117.334-165.087 21.044c-24.407 34.103-37.58 74.848-37.58 117.622s13.173 83.519 37.58 117.623l165.087 21.044z" fill="#fdcb02"/></g><g><path d="m256 458.667c54.134 0 105.028-21.081 143.307-59.359 8.033-8.033 15.297-16.627 21.779-25.685h-165.086l-21.333 53.044z" fill="#dc4b4b"/><path d="m90.913 373.623c6.482 9.057 13.747 17.652 21.779 25.685 38.279 38.278 89.173 59.359 143.307 59.359v-85.044z" fill="#e07037"/></g><g><path d="m256 53.333-10.667 42.667 10.667 42.378h165.087c-6.482-9.058-13.747-17.652-21.78-25.685-38.279-38.278-89.173-59.36-143.307-59.36z" fill="#0cba68"/><path d="m256 53.333c-54.134 0-105.028 21.081-143.307 59.359-8.033 8.033-15.298 16.627-21.78 25.685h165.087z" fill="#0ed678"/></g></g><g><path d="m383.192 287.839c-1.472-1.584-9.477-9.803-23.497-17.108 6.275-10.149 11.093-21.084 14.258-32.47 4.405-15.846 4.226-27.441 4.146-29.605l-.914-24.578-24.841-1.169s-.551-.026-1.603-.026c-4.419 0-16.335.508-31.494 5.211-3.087.958-6.125 2.028-9.107 3.208-3.125-14.242-8.3-27.895-15.392-40.448-9.298-16.458-18.742-25.621-20.541-27.29l-18.207-16.896-10.667 149.333 10.667 138.666h15v-48.301c10.638 4.06 23.601 7.044 38.794 7.044 45.047 0 70.637-26.167 73.406-29.151l16.907-18.214z" fill="#28485e"/><path d="m256 106.667-18.205 16.899c-1.799 1.669-11.242 10.832-20.54 27.29-7.092 12.553-12.267 26.206-15.392 40.448-2.983-1.18-6.018-2.25-9.105-3.208-15.159-4.704-27.076-5.212-31.495-5.212-1.058 0-1.608.026-1.608.026l-24.559 1.165-1.193 24.581c-.081 2.164-.259 13.759 4.146 29.605 3.165 11.385 7.983 22.32 14.258 32.47-14.02 7.306-22.025 15.524-23.498 17.108l-16.916 18.206 16.907 18.214c2.77 2.984 28.36 29.151 73.406 29.151 15.193 0 28.157-2.984 38.794-7.043v48.301h15z" fill="#36607d"/></g></g></svg>