<svg id="Capa_1" enable-background="new 0 0 512 512" height="512" viewBox="0 0 512 512" width="512" xmlns="http://www.w3.org/2000/svg"><g><g><path d="m0 202.75v96.917l10.001 15.001-10.001 14.999v126.916h153.667l27.666-126.999-27.666-141.653z" fill="#36607d"/><path d="m256 456.583h256v-126.916l-10.001-14.999 10.001-15.001v-96.917l-256-22.5-10.667 149.333z" fill="#efe2dd"/><path d="m256 180.25-102.333 7.681v268.652h102.333z" fill="#faeee5"/></g><g><path d="m70.334 198.417h30v73.583h-30z" fill="#fffbf5"/><path d="m206.867 198.417h30v73.583h-30z" fill="#28485e"/><g fill="#1b303e"><path d="m275.133 198.417h30v73.583h-30z"/><path d="m343.4 198.417h30v73.583h-30z"/><path d="m411.667 198.417h30v73.583h-30z"/></g><path d="m70.334 325.333h30v73.584h-30z" fill="#fffbf5"/><path d="m206.867 325.333h30v73.584h-30z" fill="#28485e"/><path d="m275.133 325.333h30v73.584h-30z" fill="#1b303e"/><path d="m343.4 325.333h30v73.584h-30z" fill="#1b303e"/><path d="m411.667 325.333h30v73.584h-30z" fill="#1b303e"/></g><g><path d="m147.331 55.417-83.331 60.833-64 86.498v.002h102.454l110.879-86.5 36.454-60.833z" fill="#fdcb02"/><path d="m447 55.417h-94.76l-96.24 82.166-10.667 42.666 10.667 22.501h256v-82.333c0-35.842-29.159-65-65-65z" fill="#28485e"/><path d="m65 55.417c-35.841 0-65 29.159-65 65v82.331l147.331-147.331z" fill="#0ed678"/><g><path d="m249.784 55.417-147.33 147.331v.002l147.333-147.333z" fill="#fdcb02"/><path d="m204.907 202.75h51.093v-65.167z" fill="#36607d"/><g><path d="m256 151.657 96.24-96.24h-96.24l-10.667 50.166z" fill="#dc4b4b"/><path d="m256 55.417h-6.213l-147.333 147.333h102.453l51.093-51.093z" fill="#e07037"/></g></g></g><g><path d="m256 329.667h-102.38l-5-15 5-15h102.38l6 15z" fill="#36607d"/><g fill="#28485e"><path d="m0 299.667h153.667v30h-153.667z"/><path d="m512 329.667h-255.876l-.124-30h256z"/></g></g></g></svg>