<svg id="Capa_1" enable-background="new 0 0 512 512" height="512" viewBox="0 0 512 512" width="512" xmlns="http://www.w3.org/2000/svg"><g><path d="m465 299.809h-30c0-20.495 6.778-31.51 12.226-40.36 4.514-7.335 7.774-12.634 7.774-24.637 0-12.004-3.261-17.303-7.774-24.638-5.447-8.851-12.226-19.866-12.226-40.361 0-20.496 6.778-31.511 12.225-40.362 4.515-7.335 7.775-12.635 7.775-24.64s-3.261-17.305-7.775-24.64c-5.446-8.851-12.225-19.866-12.225-40.362h30c0 12.005 3.261 17.305 7.775 24.64 5.447 8.851 12.225 19.866 12.225 40.362s-6.778 31.511-12.225 40.362c-4.515 7.335-7.775 12.635-7.775 24.64 0 12.004 3.261 17.304 7.774 24.638 5.447 8.851 12.226 19.865 12.226 40.361 0 20.495-6.778 31.51-12.226 40.36-4.513 7.334-7.774 12.633-7.774 24.637z" fill="#e8dbd7"/><path d="m419 241.478h-30c0-12.004-3.261-17.303-7.774-24.638-5.447-8.85-12.226-19.865-12.226-40.361s6.778-31.512 12.225-40.362c4.515-7.335 7.775-12.634 7.775-24.639h30c0 20.496-6.778 31.511-12.225 40.362-4.514 7.335-7.775 12.635-7.775 24.64 0 12.004 3.261 17.303 7.774 24.638 5.448 8.85 12.226 19.865 12.226 40.36z" fill="#e8dbd7"/><g><path d="m512 347.231-100.333-17.763-17 57.684 17 66.997 100.333-17.763z" fill="#0cba68"/><g><path d="m256 472.191 96-74.372 48.67-70.298-36.045-6.381-108.625 87.346-9.147 45.663z" fill="#b4aaaa"/><path d="m214.959 470.806c13.671.921 27.356 1.385 41.041 1.385v-63.706z" fill="#c8beb9"/></g><path d="m189.358 315.074-82.691 58.401-48.856 73.146 36.045 6.381 87.478-65.85 53.736-75.364c-15.253.524-30.497 1.618-45.712 3.286z" fill="#c8beb9"/><path d="m400.67 327.521-144.67 144.67c35.754 0 71.508-3.143 107.012-9.428l48.654-8.614v-124.681z" fill="#e8dbd7"/><path d="m148.989 320.854-148.989 26.377v89.155l57.811 10.235 131.547-131.547c-13.483 1.478-26.944 3.403-40.369 5.78z" fill="#faeee5"/><path d="m256 472.192v-.001z"/><g><path d="m364.625 321.14-1.613-.286c-35.504-6.286-71.258-9.428-107.012-9.428l-21.333 54.882 21.333 63.457z" fill="#e0d3ce"/><path d="m93.856 453.003 55.134 9.761c21.914 3.88 43.924 6.558 65.97 8.043l41.04-41.042v-118.339c-6.978 0-13.955.124-20.931.363z" fill="#e8dbd7"/></g></g></g></svg>