<svg id="Capa_1" enable-background="new 0 0 512 512" height="512" viewBox="0 0 512 512" width="512" xmlns="http://www.w3.org/2000/svg"><g><g><path d="m373.333 70.334h-117.333l-21.333 180.5 21.333 180.5h117.333l21.334-180.5z" fill="#fdae02"/><path d="m138.667 70.334-10.667 180.5 10.667 180.5h117.333v-361z" fill="#fdcb02"/><path d="m512 70.334h-138.667v361.332l70.629 10.001h68.038z" fill="#dc4b4b"/><path d="m0 70.334v371.333h68.039l70.628-10.001v-361.332z" fill="#0dca71"/></g><g><path d="m443.961 441.667-7.155-50.092c-2.164-15.145-9.721-29.007-21.278-39.031-11.558-10.023-26.349-15.544-41.648-15.544h-117.88l-10.667 57.667 10.667 47z" fill="#28485e"/><path d="m96.472 352.545c-11.558 10.024-19.114 23.885-21.278 39.031l-7.156 50.092h187.962v-104.668h-117.88c-15.299 0-30.09 5.521-41.648 15.545z" fill="#36607d"/></g><g><g><path d="m377.667 277.001v-115.334h-121.666l-21.334 57.667 21.334 57.667z" fill="#28485e"/><path d="m134.333 161.667h121.667v115.333h-121.667z" fill="#36607d"/></g><g><ellipse cx="138.667" cy="219.334" fill="#36607d" rx="53.333" ry="53.333" transform="matrix(.23 -.973 .973 .23 -106.659 303.899)"/><path d="m138.667 287.667c-37.679 0-68.334-30.654-68.334-68.333s30.654-68.333 68.334-68.333 68.333 30.654 68.333 68.333-30.654 68.333-68.333 68.333zm0-106.666c-21.137 0-38.334 17.196-38.334 38.333s17.196 38.333 38.334 38.333c21.137 0 38.333-17.196 38.333-38.333s-17.196-38.333-38.333-38.333z" fill="#fffbf5"/></g><g><ellipse cx="373.333" cy="219.334" fill="#28485e" rx="53.333" ry="53.333" transform="matrix(.987 -.16 .16 .987 -30.313 62.634)"/><path d="m373.333 287.667c-37.679 0-68.333-30.654-68.333-68.333s30.654-68.333 68.333-68.333 68.333 30.654 68.333 68.333-30.654 68.333-68.333 68.333zm0-106.666c-21.137 0-38.333 17.196-38.333 38.333s17.196 38.333 38.333 38.333 38.333-17.196 38.333-38.333c.001-21.137-17.196-38.333-38.333-38.333z" fill="#f7f0eb"/></g></g></g></svg>