<svg id="Capa_1" enable-background="new 0 0 512 512" height="512" viewBox="0 0 512 512" width="512" xmlns="http://www.w3.org/2000/svg"><g><path d="m182.972 379.5-33.421 54.667h35.163l33.421-54.667z" fill="#6aa7fb"/><path d="m49 51.167h30v384h-30z" fill="#ffdf8e"/><path d="m0 78.834h128v30h-128z" fill="#fdcb02"/><path d="m207 340.831h-207v-168.667h207z" fill="#7fc0fd"/><path d="m433 51.167h30v384h-30z" fill="#fdc673"/><path d="m384 78.834h128v30h-128z" fill="#fdae02"/><path d="m512 340.831h-207v-168.667h207z" fill="#6aa7fb"/><path d="m329.027 379.5h-35.162l33.421 54.667h35.163z" fill="#5698e0"/><g><path d="m512 430.833h-256l-10.667 15 10.667 15h256z" fill="#c57a44"/><path d="m0 430.833h256v30h-256z" fill="#d88a55"/></g><g><g><path d="m256 128.498-10.667 125.336 10.667 130.664c19.035 0 37.097-4.161 53.333-11.614l21.333-119.05-21.333-113.723c-16.236-7.452-34.298-11.613-53.333-11.613z" fill="#fdae02"/><path d="m128 256.498c0 51.657 30.604 96.161 74.667 116.386l10.667-119.05-10.667-113.723c-44.063 20.225-74.667 64.729-74.667 116.387z" fill="#0dca71"/><path d="m384 256.498c0-51.657-30.604-96.161-74.667-116.386v232.772c44.063-20.225 74.667-64.729 74.667-116.386z" fill="#dc4b4b"/><path d="m202.667 372.884c16.237 7.453 34.298 11.614 53.333 11.614v-256c-19.035 0-37.097 4.161-53.333 11.614z" fill="#fdcb02"/></g><g><path d="m256 113.498-10.667 12.336 10.667 17.664c62.309 0 113 50.692 113 113s-50.691 113-113 113l-10.667 12.336 10.667 17.664c78.851 0 143-64.149 143-143s-64.149-143-143-143z" fill="#efe2dd"/><path d="m143 256.498c0-62.309 50.691-113 113-113v-30c-78.851 0-143 64.15-143 143s64.149 143 143 143v-30c-62.309 0-113-50.692-113-113z" fill="#faeee5"/></g></g></g></svg>