<svg id="Capa_1" enable-background="new 0 0 512 512" height="512" viewBox="0 0 512 512" width="512" xmlns="http://www.w3.org/2000/svg"><g><g><g><path d="m329.412 340.199-73.412-94.865-10.667 42.666 10.667 42.667 34.787 13.333-34.787 18.667-10.667 42.667 10.667 32 73.937-54.184c.168-14.325-.012-28.646-.525-42.951z" fill="#ea9b58"/><g fill="#eab065"><path d="m186.393 481.162-3.552 13.211 73.16-57.04v-74.667l-59.18 75.301c-3.115 14.49-6.584 28.898-10.428 43.195z"/><path d="m216.218 269.431 39.782 61.236v-85.333l-40.1-18.646c.454 14.245.561 28.5.318 42.743z"/></g></g><g><path d="m290.787 344-34.787-34.787-10.667 32.121 10.667 37.453z" fill="#fdc673"/><path d="m215.318 296.925c-2.312 47.368-8.526 94.634-18.498 141.043l59.18-59.18v-69.574l-39.782-39.782c-.157 9.17-.453 18.337-.9 27.493z" fill="#ffdf8e"/></g><g><path d="m256 421.213-10.667 37.454 10.667 36.667h68.701l3.995-74.276c.679-12.633 1.092-25.272 1.24-37.908l-17.936-17.937z" fill="#fdc673"/><path d="m182.84 494.373-.258.961h73.418v-74.121z" fill="#ffdf8e"/></g><g><path d="m329.412 340.199c-1.939-54.07-8.727-107.911-20.32-160.866l-53.091-30-10.667 74.667 10.666 42.788z" fill="#fdc673"/><path d="m215.9 226.688 40.1 40.1v-117.454l-42.883 30c1.357 15.754 2.28 31.549 2.783 47.354z" fill="#ffdf8e"/></g></g><path d="m154.667 0h-38.334c-64.146 0-116.333 52.187-116.333 116.334v15h271v-15c0-64.147-52.186-116.334-116.333-116.334z" fill="#0ed678"/><path d="m395.668 0h-38.334c-64.146 0-116.333 52.187-116.333 116.333v15h271v-15c-.001-64.146-52.187-116.333-116.333-116.333z" fill="#0cba68"/><g><path d="m484.474 199.577c-4.857-30.691-21.376-57.655-46.513-75.923l-31.01-22.536c-25.137-18.268-55.887-25.654-86.575-20.796-24.753 3.918-47.078 15.426-64.376 32.918l-10.667 25.426 10.667 15.103 100.341 72.921 21.119-3.343 3.343 21.121 74.056 53.818 8.818-12.134c18.269-25.137 25.655-55.883 20.797-86.575z" fill="#0ed678"/><path d="m27.526 199.577c4.857-30.691 21.376-57.655 46.513-75.923l31.01-22.536c25.137-18.268 55.887-25.654 86.575-20.796 24.754 3.918 47.079 15.426 64.376 32.918v40.528l-100.341 72.922-21.119-3.343-3.343 21.121-74.056 53.818-8.818-12.134c-18.268-25.137-25.654-55.883-20.797-86.575z" fill="#04eb84"/></g><circle cx="213.334" cy="152.334" fill="#ae6834" r="42.667"/><circle cx="298.667" cy="152.334" fill="#9e5e2f" r="42.667"/><g><path d="m426.667 482h-170.667l-10.666 19.334 10.666 10.666h170.667z" fill="#0cba68"/><path d="m85.334 482h170.667v30h-170.667z" fill="#0ed678"/></g></g></svg>