<svg id="Capa_1" enable-background="new 0 0 512 512" height="512" viewBox="0 0 512 512" width="512" xmlns="http://www.w3.org/2000/svg"><g><g><g><path d="m256 341.333 192.045-227.868c-20.918-48.886-62.124-87.096-112.974-103.992l-79.071 43.86-10.667 149.334z" fill="#fdae02"/><path d="m66.751 277.793c3.615 8.95 7.758 17.696 12.43 26.175l63.363 114.997 113.456-77.632v-288z" fill="#fdcb02"/></g><g><path d="m335.071 9.473c-18.473-6.139-38.215-9.473-58.723-9.473h-20.348l-10.667 42.666 10.667 45.878z" fill="#0cba68"/><path d="m49 186.652c0 31.233 6.089 62.262 17.752 91.141l81.511-81.511 41.571-52.615 66.166-55.123v-88.544h-20.348c-102.92 0-186.652 83.732-186.652 186.652z" fill="#0ed678"/></g><g><path d="m448.045 113.465-83.484 83.64-30.822 42.88-77.739 65.524-10.667 99.824 10.667 106.667c38.363 0 73.695-20.873 92.209-54.473l84.609-153.559c19.746-35.835 30.182-76.402 30.182-117.316 0-25.963-5.334-50.702-14.955-73.187z" fill="#dc4b4b"/><path d="m142.544 418.965 21.247 38.562c18.513 33.6 53.846 54.473 92.209 54.473v-206.491z" fill="#e07037"/></g></g><g><path d="m256 88.544-10.959 114.041 10.959 103.082c59.861 0 108.561-48.701 108.561-108.562s-48.7-108.561-108.561-108.561zm15.411 184.761v-46.253l37.59 26.85c-10.315 9.633-23.237 16.505-37.59 19.403zm55.529-44.467-55.529-39.664v-68.269c35.508 7.17 62.328 38.609 62.328 76.199 0 11.302-2.444 22.036-6.799 31.734z" fill="#f7f0eb"/><path d="m147.439 197.105c0 59.861 48.7 108.562 108.561 108.562v-217.123c-59.861 0-108.561 48.7-108.561 108.561zm93.15 76.2c-14.353-2.898-27.275-9.77-37.591-19.403l37.591-26.851zm-55.529-44.467c-4.355-9.698-6.799-20.432-6.799-31.733 0-37.59 26.82-69.029 62.329-76.199v68.269z" fill="#fffbf5"/></g></g></svg>