<svg id="Capa_1" enable-background="new 0 0 512 512" height="512" viewBox="0 0 512 512" width="512" xmlns="http://www.w3.org/2000/svg"><g><g><g><g><path d="m256 15-10.667 49.001 10.667 57.666c29.455 0 53.333-23.878 53.333-53.333 0-29.456-23.878-53.334-53.333-53.334z" fill="#f90"/><path d="m202.667 68.333c0 29.455 23.878 53.333 53.333 53.333v-106.666c-29.455 0-53.333 23.878-53.333 53.333z" fill="#fdae02"/></g><g><path d="m256 0-10.667 10.667 10.667 19.333c21.137 0 38.333 17.196 38.333 38.334 0 21.137-17.196 38.333-38.333 38.333l-10.667 10.667 10.667 19.333c37.679 0 68.333-30.654 68.333-68.333s-30.654-68.334-68.333-68.334z" fill="#fdae02"/><path d="m217.667 68.334c0-21.138 17.196-38.334 38.333-38.334v-30c-37.679 0-68.333 30.654-68.333 68.334s30.654 68.333 68.333 68.333v-30c-21.137-.001-38.333-17.197-38.333-38.333z" fill="#fdcb02"/></g></g><g><g><path d="m256 497-10.667-49 10.667-57.667c29.455 0 53.333 23.878 53.333 53.333 0 29.456-23.878 53.334-53.333 53.334z" fill="#f90"/><path d="m202.667 443.667c0-29.455 23.878-53.333 53.333-53.333v106.666c-29.455 0-53.333-23.878-53.333-53.333z" fill="#fdae02"/></g><g><path d="m256 512-10.667-10.667 10.667-19.333c21.137 0 38.333-17.196 38.333-38.333s-17.196-38.333-38.333-38.333l-10.667-10.667 10.667-19.334c37.679 0 68.333 30.654 68.333 68.333s-30.654 68.334-68.333 68.334z" fill="#fdae02"/><path d="m217.667 443.667c0 21.137 17.196 38.333 38.333 38.333v30c-37.679 0-68.333-30.654-68.333-68.333s30.654-68.333 68.333-68.333v30c-21.137-.001-38.333 17.196-38.333 38.333z" fill="#fdcb02"/></g></g><g><ellipse cx="93.476" cy="162.167" fill="#fdae02" rx="53.333" ry="53.333" transform="matrix(.835 -.55 .55 .835 -73.743 78.062)"/><path d="m93.365 230.529c-11.842 0-23.526-3.105-34.056-9.185-15.807-9.126-27.114-23.862-31.838-41.492-4.725-17.63-2.3-36.045 6.826-51.852s23.861-27.114 41.492-31.838c17.63-4.725 36.046-2.301 51.853 6.827 32.631 18.839 43.851 60.714 25.012 93.345-9.126 15.807-23.861 27.114-41.492 31.838-5.887 1.577-11.862 2.357-17.797 2.357zm.173-106.712c-3.329 0-6.681.438-9.983 1.323-9.891 2.65-18.156 8.993-23.276 17.86-5.119 8.867-6.479 19.198-3.829 29.088s8.993 18.157 17.86 23.276c8.867 5.12 19.197 6.479 29.088 3.829s18.156-8.993 23.276-17.86c10.568-18.305 4.274-41.796-14.031-52.365-5.907-3.409-12.462-5.151-19.105-5.151z" fill="#fdcb02"/></g><g><ellipse cx="93.476" cy="349.833" fill="#fdae02" rx="53.333" ry="53.333" transform="matrix(.814 -.581 .581 .814 -185.814 119.359)"/><path d="m93.587 418.196c-5.936 0-11.909-.781-17.797-2.358-17.631-4.724-32.366-16.031-41.492-31.838s-11.551-34.222-6.826-51.853c4.724-17.63 16.031-32.366 31.838-41.492 15.806-9.126 34.219-11.551 51.853-6.827 17.631 4.724 32.366 16.031 41.492 31.838 18.84 32.631 7.619 74.506-25.012 93.345-10.529 6.08-22.215 9.185-34.056 9.185zm-.173-106.713c-6.643 0-13.197 1.742-19.104 5.152-8.867 5.12-15.21 13.386-17.86 23.276s-1.29 20.221 3.829 29.088c5.12 8.867 13.386 15.21 23.276 17.86 9.892 2.65 20.221 1.29 29.088-3.829 18.306-10.569 24.6-34.06 14.031-52.365-5.12-8.867-13.386-15.21-23.276-17.86-3.302-.884-6.655-1.322-9.984-1.322z" fill="#fdcb02"/></g><g><ellipse cx="418.524" cy="349.833" fill="#f90" rx="53.333" ry="53.333" transform="matrix(.835 -.55 .55 .835 -123.391 287.591)"/><path d="m418.413 418.196c-11.842 0-23.526-3.105-34.056-9.185-32.631-18.839-43.852-60.714-25.012-93.345 9.126-15.807 23.861-27.114 41.492-31.838 17.633-4.725 36.047-2.299 51.853 6.827 15.807 9.126 27.114 23.862 31.838 41.492 4.725 17.63 2.3 36.045-6.826 51.853-9.126 15.807-23.861 27.114-41.492 31.838-5.886 1.577-11.862 2.358-17.797 2.358zm.173-106.713c-3.33 0-6.681.438-9.983 1.323-9.891 2.65-18.156 8.993-23.276 17.86-10.568 18.305-4.274 41.796 14.031 52.365 8.866 5.119 19.194 6.48 29.088 3.829 9.891-2.65 18.156-8.993 23.276-17.86 5.119-8.867 6.479-19.198 3.829-29.088s-8.993-18.157-17.86-23.276c-5.907-3.41-12.463-5.153-19.105-5.153z" fill="#fdae02"/></g><g><ellipse cx="418.524" cy="162.167" fill="#f90" rx="53.333" ry="53.333" transform="matrix(.814 -.581 .581 .814 -16.354 273.258)"/><path d="m418.635 230.529c-5.936 0-11.909-.78-17.797-2.357-17.631-4.724-32.366-16.031-41.492-31.838-18.84-32.631-7.619-74.506 25.012-93.345 15.806-9.126 34.219-11.549 51.853-6.827 17.631 4.724 32.366 16.031 41.492 31.838s11.551 34.222 6.826 51.852c-4.724 17.63-16.031 32.366-31.838 41.492-10.529 6.08-22.215 9.185-34.056 9.185zm-.173-106.712c-6.644 0-13.197 1.742-19.105 5.152-18.306 10.569-24.6 34.06-14.031 52.365 5.12 8.867 13.386 15.21 23.276 17.86s20.22 1.29 29.088-3.829c8.867-5.12 15.21-13.386 17.86-23.276s1.29-20.221-3.829-29.088c-5.12-8.867-13.386-15.21-23.276-17.86-3.301-.886-6.654-1.324-9.983-1.324z" fill="#fdae02"/></g></g><g><path d="m256 70.333-10.087 185.667 10.087 185.667c102.377 0 185.666-83.29 185.666-185.667s-83.289-185.667-185.666-185.667z" fill="#744727"/><path d="m70.334 256c0 102.377 83.289 185.667 185.666 185.667v-371.334c-102.377 0-185.666 83.29-185.666 185.667z" fill="#8d562f"/></g><g><g><path d="m349.787 228.374c-4.453-15.211-12.664-29.546-24.639-41.521s-26.31-20.187-41.521-24.64l-27.627 8.454-9.878 85.333 9.878 85.333z" fill="#fdae02"/><path d="m186.853 325.147c11.975 11.975 26.31 20.187 41.521 24.64l27.626-8.454v-170.666l-93.787 112.959c4.453 15.211 12.664 29.546 24.64 41.521z" fill="#fdcb02"/></g><g><path d="m349.787 228.374-93.787 93.787-9.878 22.742 9.878 8.826c25.042.001 50.083-9.518 69.147-28.582 26.153-26.153 34.364-63.554 24.64-96.773z" fill="#dc4b4b"/><path d="m228.374 349.787c9.004 2.636 18.315 3.942 27.626 3.943v-31.569z" fill="#e07037"/></g><g><path d="m283.626 162.213c-9.004-2.636-18.315-3.942-27.626-3.943l-9.878 8.826 9.878 22.743z" fill="#0cba68"/><path d="m186.853 186.853c-26.153 26.153-34.365 63.554-24.64 96.773l93.787-93.787v-31.569c-25.041 0-50.083 9.519-69.147 28.583z" fill="#0dca71"/></g></g><g><path d="m256 129-10.001 14.5 10.001 15.5c53.486 0 97 43.514 97 97s-43.514 97-97 97l-10.001 16.281 10.001 13.719c70.028 0 127-56.972 127-127s-56.972-127-127-127z" fill="#f7f0eb"/><path d="m159 256c0-53.486 43.514-97 97-97v-30c-70.028 0-127 56.972-127 127s56.972 127 127 127v-30c-53.486 0-97-43.514-97-97z" fill="#fffbf5"/></g></g></svg>