<svg id="Capa_1" enable-background="new 0 0 512 512" height="512" viewBox="0 0 512 512" width="512" xmlns="http://www.w3.org/2000/svg"><g><g><path d="m256 170.667-10.667 32 10.667 42.666 81.77 42.667 81.781-42.667 92.001 23.882c.297-3.196.448-6.421.448-9.666 0-28.371-11.78-55.867-32.319-75.438l-21.469-20.457z" fill="#0cba68"/><path d="m53.789 163.654-21.469 20.457c-20.54 19.571-32.32 47.067-32.32 75.438 0 3.245.151 6.47.448 9.666l92.001-23.882 81.781 42.667 81.77-42.667v-74.667z" fill="#0ed678"/></g><g><path d="m337.77 288-81.77-42.667-10.667 85.334 10.667 39h175.298l35.24-24.05c17.107-11.676 30.064-27.958 37.687-46.571l-84.674-53.712z" fill="#dc4b4b"/><path d="m174.23 288-81.781-42.667-84.674 53.712c7.623 18.613 20.579 34.895 37.687 46.571l35.24 24.05h175.298v-124.333z" fill="#e07037"/></g><g><path d="m256 78.334-10.667 70.999 10.667 38.215c56.51 0 113.021-5.718 169.135-17.153l33.077-6.741-7.974-7.598c-52.601-50.12-121.583-77.722-194.238-77.722z" fill="#28485e"/><path d="m256 187.548v-109.214c-72.655 0-141.637 27.602-194.237 77.723l-7.974 7.598 33.077 6.741c56.113 11.435 112.624 17.152 169.134 17.152z" fill="#36607d"/></g><g><path d="m436.333 366.25h-180.333l-10.667 28.417 10.667 39h180.333z" fill="#28485e"/><path d="m75.667 366.25h180.333v67.416h-180.333z" fill="#36607d"/></g><g><path d="m419.551 223.596-81.781 39.727-81.77-39.723-10.667 21.733 10.667 11.62 81.77 39.724 81.781-39.728 84.674 42.097c3.867-9.442 6.366-19.482 7.327-29.83z" fill="#fdae02"/><path d="m92.449 223.596-92.001 45.619c.961 10.348 3.46 20.388 7.327 29.83l84.674-42.097 81.781 39.728 81.77-39.723v-33.353l-81.77 39.724z" fill="#fdcb02"/></g></g></svg>