<svg id="Capa_1" enable-background="new 0 0 512 512" height="512" viewBox="0 0 512 512" width="512" xmlns="http://www.w3.org/2000/svg"><g><g><path d="m460.922 425.823h-66.204l-51.077-42.564v-106.289l51.077-42.564h66.204l51.078 42.564v106.29z" fill="#fdae02"/><path d="m480.748 251.004h-105.854v-71.733h105.854z" fill="#dc4b4b"/><path d="m427.821 203.595c-43.07 0-78.11-35.04-78.11-78.11v-39.308h156.221v39.308c0 43.07-35.041 78.11-78.111 78.11z" fill="#ebe1dc"/></g><path d="m14.937 280.525h118.831v99.179h-118.831z" fill="#e8dbd7"/><path d="m0 260.936h30v138.358h-30z" fill="#faeee5"/><path d="m353.042 268.995h-97.042l-21.333 60.319 21.333 61.92h97.042z" fill="#0cba68"/><path d="m148.673 268.995c-33.755 0-61.119 27.364-61.119 61.119 0 33.755 27.364 61.119 61.119 61.119h107.327v-122.238z" fill="#0dca71"/></g></svg>