<svg id="Capa_1" enable-background="new 0 0 512 512" height="512" viewBox="0 0 512 512" width="512" xmlns="http://www.w3.org/2000/svg"><g><g><path d="m341.333 181.333h-85.333l-10.667-96 10.667-85.333h79z" fill="#c8beb9"/><path d="m170.667 181.333h85.333v-181.333h-79z" fill="#dcd2cd"/></g><g><g><path d="m256 512h185.666v-162l-185.666-8.667-21.333 96.001z" fill="#efe2dd"/><path d="m70.334 350v162h185.666v-170.667z" fill="#f7f0eb"/></g><g><path d="m433.374 178.584c-21.202-10.602-34.374-31.914-34.374-55.62v-122.964h-64v85.334c0 43.56-35.439 79-79 79l-21.333 38.333 21.333 53.333 185.666-10.667v-62.603z" fill="#efe2dd"/><path d="m177 85.334v-85.334h-64v122.964c0 23.706-13.171 45.018-34.374 55.62l-8.292 4.146v62.604l185.666 10.666v-91.667c-43.56 0-79-35.439-79-78.999z" fill="#f7f0eb"/></g><g><g><path d="m256 330.667 185.666-10.667v-44.667l-185.666-8.666z" fill="#fdae02"/><path d="m70.334 320 185.666 10.667v-64l-185.666 8.666z" fill="#fdcb02"/></g><g><path d="m256 320h185.666v30h-185.666z" fill="#dc4b4b"/><path d="m70.334 320h185.666v30h-185.666z" fill="#e07037"/></g><g><path d="m256 245.333h185.666v30h-185.666z" fill="#0cba68"/><path d="m70.334 245.333h185.666v30h-185.666z" fill="#0ed678"/></g></g></g><g><path d="m338.558 309.444c-.943-1.016-6.01-6.218-14.872-10.918 11.993-19.571 11.783-37.554 11.691-40.014l-.787-16.291-16.277-.763s-.361-.018-1.049-.018c-2.962 0-13.277.396-25.944 5.324-6.202-27.427-22.415-42.784-23.261-43.569l-12.059-11.195-11.111 91.598 11.111 100.002h15.626v-33.631c5.615 1.563 12.006 2.586 19.161 2.586 29.308 0 45.974-17.042 47.777-18.985l11.199-12.065z" fill="#1b303e"/><path d="m256 192-12.06 11.194c-.845.785-17.057 16.142-23.26 43.569-12.667-4.928-22.982-5.324-25.944-5.324-.69 0-1.051.018-1.051.018l-16.457.775-.606 16.28c-.091 2.46-.302 20.442 11.691 40.014-8.863 4.701-13.928 9.902-14.872 10.918l-11.206 12.06 11.2 12.065c1.804 1.943 18.469 18.985 47.777 18.985 7.155 0 13.546-1.022 19.161-2.586v33.632h15.627z" fill="#28485e"/></g></g></svg>