<svg id="Capa_1" enable-background="new 0 0 512.03 512.03" height="512" viewBox="0 0 512.03 512.03" width="512" xmlns="http://www.w3.org/2000/svg"><g><g><g><path d="m198.339 405.19c28.915-36.116 53.032-74.395 71.773-113.895l43.329 19.695-32.253 91.456-58.745 103.716c-.012-.005-.024-.01-.035-.015-15.554-7.07-27.523-19.612-33.857-35.56-6.663-16.772-6.22-35.055 1.246-51.48 2.267-4.987 5.141-9.669 8.542-13.917z" fill="#8d562f"/><path d="m352.985 328.965c-17.871 41-30.831 84.213-38.548 128.585-1.09 6.261-3.09 12.347-5.947 18.089-15.242 30.635-51.992 44.494-83.663 31.551-.804-.328-1.597-.671-2.382-1.028l89.105-196.032z" fill="#744727"/></g><g><g><path d="m390.175 137.163-113.21-59.697c7.798-8.014 16.272-15.204 25.316-21.446l105.549 42.3.783 23.79z" fill="#fffbf5"/><path d="m407.83 98.32 101.267 51.706c1.243 10.919 1.399 22.031.488 33.176l-119.411-46.039z" fill="#f7f0eb"/></g><g><path d="m323.966 282.821-98.652-57.474c-1.244-10.919-1.399-22.031-.488-33.176l121.21 42.097.784 23.79z" fill="#fffbf5"/><path d="m432.13 319.354-108.163-36.533 22.069-48.553 111.41 63.64c-7.798 8.014-16.272 15.203-25.316 21.446z" fill="#f7f0eb"/></g><g><path d="m302.282 56.019c7.005-4.835 14.346-9.109 21.979-12.756 36.816-17.591 75.9-18.731 110.05-3.208.001 0 .002.001.004.002l-3.63 33.5-24.991 29.467z" fill="#fdcb02"/><path d="m504.256 125.079c2.271 8.149 3.878 16.49 4.841 24.947l-103.405-47.002 28.621-62.967c34.15 15.524 58.989 45.718 69.943 85.022z" fill="#fdae02"/></g><g><path d="m300.104 335.319c-.001 0-.002-.001-.003-.002-34.15-15.523-58.99-45.718-69.945-85.023-2.271-8.149-3.878-16.49-4.841-24.947l103.411 47.005-3.975 34.259z" fill="#fdcb02"/><path d="m432.13 319.354c-7.005 4.835-14.346 9.109-21.979 12.756-36.815 17.591-75.897 18.73-110.047 3.209l28.621-62.967z" fill="#fdae02"/></g><g><path d="m254.846 105.199 19.141-9.132 42.538 54.486 73.649-13.391-8.044 43.211-22.853 24.763-69.094 3.744-.017-.046-.049.015-38.199-64.23-14.089-6.735c1.021-2.525 2.1-5.038 3.235-7.536 4.009-8.818 8.626-17.222 13.782-25.149z" fill="#fdcb02"/><path d="m401.955 259.685-.021-.047-.046.017-42.611-54.519 30.897-67.974 38.337 64.294 69.022-3.777 5.701 20.419c-2.582 9.099-5.878 18.105-9.888 26.926-1.135 2.497-2.318 4.96-3.549 7.389l-14.334-6.18z" fill="#fdae02"/></g><g><path d="m382.633 153.755-72.11 10.006-39.663-60.812-16.013 2.25c6.544-10.059 13.96-19.349 22.119-27.734l116.313 52.87 2.094 20.908z" fill="#0ed678"/><path d="m509.585 183.202c-.953 11.659-3.076 23.353-6.351 34.896l-8.829-13.537-71.897 10.103-39.876-60.909 10.646-23.42z" fill="#0cba68"/></g><g><path d="m256.15 135.311 39.716 60.893.049-.015.017.046 71.991-10.117-7.862 42.81-18.922 16.115-116.313-52.87c1.491-18.247 5.843-36.579 13.003-54.286z" fill="#0ed678"/><path d="m407.683 246.992.021.047 71.992-10.116 10.102 15.49c-8.632 17.039-19.584 32.373-32.352 45.496l-116.307-52.867 26.784-58.924 39.714 60.892z" fill="#0cba68"/></g></g></g><g><g><path d="m204.151 430.052c-11.378-44.844-17.494-89.671-18.21-133.386h-47.596l-8.483 96.604 10.562 118.73c.013 0 .026.001.039.001 17.086 0 33.171-6.465 45.537-18.362 13.006-12.512 20.168-29.339 20.168-47.382 0-5.479-.679-10.931-2.017-16.205z" fill="#9e5e2f"/><path d="m94.909 296.667c-.697 44.721-6.781 89.423-18.116 133.011-1.599 6.151-2.296 12.52-2.071 18.929 1.199 34.197 28.92 62.021 63.108 63.343.868.034 1.731.05 2.594.05v-215.333z" fill="#ae6834"/></g><g><g><path d="m140.421 106.667 127.765-7.5c-3.783-10.523-8.522-20.574-14.173-30l-113.592-5.167-10.558 21.334z" fill="#f7f0eb"/><path d="m140.421 64-113.586 5.167c-5.65 9.426-10.39 19.477-14.173 30l127.759 7.5z" fill="#fffbf5"/></g><g><path d="m140.421 266.667 113.592-11.5c5.651-9.426 10.39-19.477 14.173-30l-127.765-11.833-10.558 21.333z" fill="#f7f0eb"/><path d="m26.835 255.167 113.586 11.5v-53.333l-127.759 11.833c3.783 10.522 8.523 20.574 14.173 30z" fill="#fffbf5"/></g><g><path d="m254.013 69.167c-4.376-7.3-9.291-14.229-14.73-20.708-26.237-31.249-61.346-48.459-98.858-48.459-.001 0-.003 0-.004 0l-10.558 32 10.558 37.167z" fill="#fdae02"/><path d="m41.565 48.459c-5.439 6.479-10.354 13.408-14.73 20.708h113.586v-69.167c-37.512.001-72.619 17.211-98.856 48.459z" fill="#fdcb02"/></g><g><path d="m140.421 324.333h.004c37.513 0 72.621-17.21 98.858-48.459 5.439-6.479 10.354-13.408 14.73-20.708h-113.592l-10.558 32.834z" fill="#fdae02"/><path d="m26.835 255.167c4.376 7.3 9.291 14.229 14.73 20.708 26.236 31.248 61.343 48.458 98.855 48.459v-69.167z" fill="#fdcb02"/></g><g><path d="m276.846 133.567-13.647-16.234-61.272 32-61.506-42.667-10.558 42.666 10.558 32 61.352 32 .035-.035.038.034 61.354-42.666 15.613-.301c.115-2.721.173-5.455.173-8.199-.001-9.686-.726-19.248-2.14-28.598z" fill="#fdae02"/><path d="m78.996 213.333.038-.034.035.035 61.352-32v-74.667l-61.506 42.667-61.272-32-13.639 16.23c-1.415 9.352-2.14 18.914-2.14 28.604 0 2.742.058 5.475.173 8.195l15.606.305z" fill="#fdcb02"/></g><g><path d="m140.421 124.893 61.506 38.948 61.272-38.948 13.647 8.675c-1.795-11.865-4.702-23.391-8.659-34.401h-127.766l-10.558 18.167z" fill="#0cba68"/><path d="m12.662 99.167c-3.957 11.008-6.864 22.532-8.659 34.396l13.639-8.67 61.272 38.948 61.506-38.948v-25.726z" fill="#0ed678"/></g><g><path d="m263.199 160.441-61.354 39-.038-.034-.035.035-61.352-39-10.558 42.226 10.558 22.5h127.765c6.193-17.229 9.817-35.718 10.626-54.801z" fill="#0cba68"/><path d="m79.035 199.406-.038.034-61.354-39-15.606 9.921c.808 19.084 4.432 37.575 10.626 54.805h127.759v-64.726l-61.352 39z" fill="#0ed678"/></g></g></g></g></svg>