<svg id="Capa_1" enable-background="new 0 0 512 512" height="512" viewBox="0 0 512 512" width="512" xmlns="http://www.w3.org/2000/svg"><g><g><path d="m369.786 512h49.167l12.667-87.982-12.667-128.702h-49.167l-12.833 128.702z" fill="#5c371e"/><path d="m320.62 295.316h49.167v216.684h-49.167z" fill="#8d562f" transform="matrix(-1 0 0 -1 690.406 807.316)"/></g><g><path d="m173.454 512h-49.167l-12.667-53.333 12.667-78.017h49.167l12.833 78.017z" fill="#5c371e"/><g fill="#8d562f"><path d="m75.12 380.65h49.167v131.35h-49.167z"/><path d="m173.454 380.65h49.167v131.35h-49.167z"/></g></g><path d="m105.62 213.162h-6.748c-30.65 0-55.586 24.936-55.586 55.585 0 30.65 24.936 55.586 55.586 55.586h6.748z" fill="#b36d3c"/><ellipse cx="106.287" cy="357.333" fill="#0cba68" rx="58.667" ry="58.667" transform="matrix(.707 -.707 .707 .707 -221.542 179.817)"/><path d="m106.287 431c-40.62 0-73.667-33.047-73.667-73.667s33.047-73.667 73.667-73.667 73.667 33.047 73.667 73.667-33.047 73.667-73.667 73.667zm0-117.333c-24.078 0-43.667 19.589-43.667 43.667s19.589 43.667 43.667 43.667 43.667-19.589 43.667-43.667c0-24.079-19.589-43.667-43.667-43.667z" fill="#fdcb02"/><g><path d="m271.62 170.667-10.667 128 10.667 149.181c97.787 0 177.343-79.556 177.343-177.342v-99.839z" fill="#b27a49"/><path d="m94.278 170.667v99.839c0 97.787 79.556 177.342 177.343 177.342v-277.181z" fill="#c48958"/></g><g><path d="m299.43 321.62c-6.659 8.807-16.795 13.858-27.81 13.858l-10.666 16.522 10.667 13.479c20.5 0 39.359-9.391 51.739-25.766z" fill="#f7f0eb"/><path d="m243.81 321.62-23.93 18.094c12.381 16.374 31.239 25.765 51.74 25.765v-30c-11.014-.001-21.15-5.052-27.81-13.859z" fill="#fffbf5"/></g><path d="m185.629 269.122h30v30h-30z" fill="#593d25"/><path d="m327.612 269.122h30v30h-30z" fill="#402922"/><path d="m419.348 167v345h48.605v-269.331c0-26.51-6.048-52.314-17.444-75.669z" fill="#8d562f"/><g><g><path d="m452.609 50.014c-45.188-36.915-125.74-50.014-180.989-50.014l-10.667 85.333 10.667 94.001h134.88c40.186 0 72.879-32.694 72.879-72.88.001-21.969-9.757-42.54-26.77-56.44z" fill="#dc4b4b"/><path d="m90.632 50.014c-17.013 13.899-26.771 34.471-26.771 56.44 0 40.186 32.693 72.879 72.879 72.879h134.88v-179.333c-55.249 0-135.8 13.099-180.988 50.014z" fill="#e07037"/></g><g><path d="m271.62 159.333-11.312 29.178 11.312 61.156c57.595 0 104.99-9.161 140.872-27.228 25.861-13.023 42.476-36.897 44.281-63.105h-185.153z" fill="#fdae02"/><path d="m86.467 159.333c1.805 26.208 18.42 50.082 44.281 63.105 35.881 18.067 83.277 27.228 140.872 27.228v-90.333z" fill="#fdcb02"/></g></g></g></svg>