<svg id="Capa_1" enable-background="new 0 0 512 512" height="512" viewBox="0 0 512 512" width="512" xmlns="http://www.w3.org/2000/svg"><g><g><g><path d="m256 138.819-10.667 127.848 10.667 128 77.422 50.518c59.099-28.799 99.92-89.483 99.92-159.527v-146.839z" fill="#b27a49"/><path d="m78.657 138.819v146.839c0 70.044 40.822 130.728 99.92 159.526l77.423-50.517v-255.848z" fill="#c48958"/></g><g><path d="m276.239 370.795-20.239-9.568-10.667 54.773 10.667 47c27.743 0 54.015-6.409 77.422-17.816-1.279-4.343-2.825-9.269-4.693-14.765-8.436-24.83-28.742-48.398-52.49-59.624z" fill="#744727"/><path d="m256 361.227-20.239 9.568c-23.747 11.226-44.053 34.794-52.49 59.625-1.867 5.496-3.414 10.422-4.693 14.765 23.407 11.406 49.679 17.815 77.422 17.815z" fill="#8d562f"/></g></g><g><path d="m170.008 234.667h30v30h-30z" fill="#593d25"/><path d="m311.992 234.667h30v30h-30z" fill="#402922"/></g><g><path d="m283.81 301.808c-6.66 8.807-16.796 13.858-27.81 13.858l-10.667 15 10.667 15c20.5 0 39.358-9.391 51.739-25.765z" fill="#f7f0eb"/><path d="m228.189 301.808-23.929 18.094c12.381 16.374 31.239 25.765 51.739 25.765v-30c-11.013 0-21.15-5.052-27.81-13.859z" fill="#fffbf5"/></g><g><path d="m98.167 512h-49.167l-.395-91.667-5.938-68.333 6.333-192h57.667v192z" fill="#5c371e"/><g fill="#8d562f"><path d="m98.167 160h49.167v352h-49.167z"/><path d="m68.333 123.526-12.206 17.089c-36.719 51.406-56.127 111.97-56.127 175.143v104.576h48.605v-143c0-44.754 9.748-88.195 28.488-128z"/></g></g><g><path d="m413.833 512h49.166l.396-91.667 5.938-68.333-6.334-192h-57.666v192z" fill="#5c371e"/><g fill="#8d562f"><path d="m364.666 160h49.167v352h-49.167z" transform="matrix(-1 0 0 -1 778.499 672)"/><path d="m443.667 123.526 12.206 17.089c36.719 51.406 56.127 111.97 56.127 175.143v104.576h-48.605v-143c0-44.754-9.748-88.195-28.487-128z"/></g></g><g><path d="m75.011 50.014c-17.013 13.899-26.771 34.471-26.771 56.44 0 40.186 32.693 72.879 72.879 72.879h60.881l10-83.333-10-89.12c-39.654 7.291-79.747 20.88-106.989 43.134z" fill="#0ed678"/><path d="m256 .389-21.333 89.47 21.686 89.86 74.314-.292 21.333-83.427-21.333-88.848c-26.34-4.806-52.521-6.828-74.667-6.763z" fill="#fdae02"/><path d="m256 89.859-.351-89.472c.116 0 .236.002.351.001v-.388c-21.942 0-47.876 2.076-74 6.88v172.454h74z" fill="#fdcb02"/><path d="m436.832 49.691c-27.101-21.963-66.807-35.358-106.165-42.539v172.276l60.565-.238c40.186-.158 72.75-32.98 72.593-73.166-.087-21.968-9.925-42.501-26.993-56.333z" fill="#dc4b4b"/></g></g></svg>