<svg id="Capa_1" enable-background="new 0 0 512 512" height="512" viewBox="0 0 512 512" width="512" xmlns="http://www.w3.org/2000/svg"><g><g fill="#04eb84"><path d="m359.5 0h74.667v30h-74.667z"/><path d="m365.834 48.225h30v75.963h-30z" transform="matrix(.539 -.843 .843 .539 103.057 360.625)"/></g><g><g><path d="m279.922 86.207v-86.207h-59.089l-19.229 45.347 19.229 40.86z" fill="#6aa7fb"/><path d="m161.745 0h59.089v86.207h-59.089z" fill="#7fc0fd"/></g><g><path d="m363.833 154.141-83.093-90.141h-59.907l-10.666 85.333 10.666 49.81z" fill="#efe2dd"/><path d="m77.834 154.142 142.999 45.001v-135.143h-59.907z" fill="#f7f0eb"/></g><g><path d="m363.833 154.25h-143l-21.333 128.417 21.333 229.333h143z" fill="#0cba68"/><path d="m77.834 154.25h143v357.75h-143z" fill="#0ed678"/></g><g><path d="m220.833 240.141-10.667 92.984 10.667 92.984c51.272 0 92.984-41.712 92.984-92.984s-41.712-92.984-92.984-92.984zm15 154.149v-46.017l31.287 27.51c-8.261 8.957-19.08 15.513-31.287 18.507zm46.013-45.507-46.013-40.459v-36.364c27.509 6.748 47.984 31.605 47.984 61.165.001 5.404-.685 10.65-1.971 15.658z" fill="#f7f0eb"/><path d="m127.849 333.125c0 51.272 41.712 92.984 92.984 92.984v-185.968c-51.272 0-92.984 41.712-92.984 92.984zm77.984 61.165c-12.207-2.994-23.026-9.55-31.287-18.507l31.287-27.51zm0-85.965-46.013 40.458c-1.286-5.008-1.972-10.254-1.972-15.658 0-29.56 20.475-54.417 47.984-61.165v36.365z" fill="#fffbf5"/></g></g></g></svg>