<svg id="Capa_1" enable-background="new 0 0 512 512" height="512" viewBox="0 0 512 512" width="512" xmlns="http://www.w3.org/2000/svg"><g><g><path d="m270.05 169.136 22.315-128.253c3.134-19.188-9.88-37.284-29.068-40.418-3.879-.634-7.711-.597-11.386.007l-14.077 308.74 14.076 172.788h94.077v-72.336c32.966-25.773 54.16-65.909 54.16-110.997z" fill="#b27a49"/><path d="m222.878 29.534-22.62 138.49-22.62-138.49c-3.134-19.188-21.23-32.203-40.418-29.068-19.188 3.134-32.203 21.23-29.069 40.418l21.198 131.391v80.725l-29.256 68.595c8.092 37.07 30.786 68.682 61.752 88.508v71.897h90.065v-481.527c-14.504 2.383-26.531 13.752-29.032 29.061z" fill="#c48958"/><path d="m379.628 328.09c-19.616 0-35.519-15.902-35.519-35.519l-10.001-59.488 10.001-42.785c0-19.616 15.902-35.519 35.519-35.519 19.616 0 35.519 15.902 35.519 35.519v102.273c0 19.617-15.903 35.519-35.519 35.519z" fill="#c48958"/><g><path d="m229.31 280.162c.404-23.589-19.311-42.895-42.904-42.895h-35.333c-29.911 0-54.16 24.248-54.16 54.16l-.06.016c.001 10.35 1.134 20.434 3.255 30.149h87.045c23.004-.001 41.764-18.519 42.157-41.43z" fill="#d6995c"/></g><path d="m306.971 309.333c-20.511 0-37.138-16.627-37.138-37.138v-99.035c0-20.511 16.627-37.138 37.138-37.138 20.511 0 37.138 16.627 37.138 37.138v99.035c0 20.511-16.627 37.138-37.138 37.138z" fill="#d6995c"/></g><g><g><path d="m288.269 448h-36.359l-14.077 31.511 14.077 32.489h36.359l13.564-32.251z" fill="#fdae02"/><path d="m215.551 448-9.718 31.749 9.718 32.251h36.359v-64z" fill="#fdcb02"/></g><path d="m288.269 448h72.718v64h-72.718z" fill="#dc4b4b"/><path d="m142.833 448h72.718v64h-72.718z" fill="#0ed678"/></g></g></svg>