<svg id="Capa_1" enable-background="new 0 0 512 512" height="512" viewBox="0 0 512 512" width="512" xmlns="http://www.w3.org/2000/svg"><g><g><g><path d="m256 138.667-10.667 74.667 10.667 85.333 253.804-32.667c-4.898-37.509-17.958-73.097-38.312-104.667z" fill="#fdae02"/><path d="m2.197 266 253.803 32.667v-160l-215.491 22.666c-20.355 31.57-33.415 67.158-38.312 104.667z" fill="#fdcb02"/></g><g><path d="m256 372.333h183.334c40.068 0 72.666-32.598 72.666-72.667 0-11.354-.75-22.592-2.196-33.667h-253.804l-10.667 54z" fill="#dc4b4b"/><path d="m2.197 266c-1.446 11.074-2.197 22.312-2.197 33.667 0 40.068 32.598 72.667 72.667 72.667h183.333v-106.334z" fill="#e07037"/></g><g><path d="m471.491 161.333c-9.828-15.243-21.342-29.556-34.472-42.686-48.352-48.352-112.639-74.98-181.019-74.98l-10.667 63 10.667 54.666z" fill="#0cba68"/><path d="m74.981 118.647c-13.13 13.13-24.644 27.443-34.472 42.686h215.491v-117.666c-68.38 0-132.667 26.628-181.019 74.98z" fill="#0ed678"/></g></g><g><path d="m256 342.333-10.667 63 10.667 63c59.624 0 108.663-11.115 145.756-33.037 27.291-16.129 44.244-46.003 44.244-77.963v-15z" fill="#28485e"/><path d="m66 342.333v15c0 31.961 16.953 61.835 44.244 77.964 37.093 21.921 86.132 33.036 145.756 33.036v-126z" fill="#36607d"/></g><g><path d="m338.557 224.444c-.943-1.016-6.01-6.218-14.872-10.918 11.993-19.571 11.783-37.554 11.691-40.014l-.787-16.291-16.277-.763s-.361-.018-1.049-.018c-2.962 0-13.277.396-25.944 5.324-6.202-27.427-22.415-42.784-23.261-43.569l-12.058-11.195-11.111 91.598 11.111 100.002h15.626v-33.631c5.615 1.564 12.006 2.586 19.161 2.586 29.308 0 45.974-17.042 47.777-18.985l11.199-12.065z" fill="#f7f0eb"/><path d="m256 107-12.06 11.194c-.845.785-17.057 16.142-23.259 43.569-12.667-4.928-22.982-5.324-25.944-5.324-.69 0-1.051.018-1.051.018l-16.457.775-.606 16.28c-.091 2.46-.302 20.442 11.691 40.014-8.863 4.701-13.928 9.902-14.872 10.918l-11.205 12.059 11.2 12.065c1.804 1.943 18.469 18.985 47.777 18.985 7.155 0 13.546-1.022 19.161-2.586v33.633h15.625z" fill="#fffbf5"/></g></g></svg>