<svg id="Capa_1" enable-background="new 0 0 512 512" height="512" viewBox="0 0 512 512" width="512" xmlns="http://www.w3.org/2000/svg"><g><g><g><path d="m447.458 33.684c0-18.603-15.081-33.684-33.684-33.684-18.603 0-33.684 15.081-33.684 33.684v132.166l-84.209 29.271-18.548 141.879 18.548 145h95.437v-82.486c34.171-26.715 56.139-68.319 56.139-115.056v-85.438l-.013-.002c.003-.171.013-.34.013-.511v-164.823z" fill="#b27a49"/><path d="m189.245 232.187-52.496-46.188c-16.518-16.518-43.3-16.518-59.818 0-16.518 16.519-16.518 43.3 0 59.819l57.338 57.338c5.603 43.816 30.629 81.56 66.176 104.318v74.526h95.437v-286.879z" fill="#c48958"/></g><g><g><path d="m359.148 276.577c-19.616 0-35.519-15.902-35.519-35.519l-10.001-59.488 10.001-42.785c0-19.616 15.902-35.519 35.519-35.519 19.616 0 35.519 15.902 35.519 35.519v102.273c0 19.617-15.903 35.519-35.519 35.519z" fill="#c48958"/><path d="m213.835 276.577c19.617 0 35.519-15.902 35.519-35.519l10.001-59.488-10.001-42.785c0-19.616-15.902-35.519-35.519-35.519-19.616 0-35.519 15.902-35.519 35.519v102.273c0 19.617 15.902 35.519 35.519 35.519z" fill="#e3a76f"/></g><g><path d="m295.881 85.71-7.881 109.411 7.881 102.346c15.964-4.16 27.748-18.672 27.748-35.938v-139.881c0-17.267-11.784-31.778-27.748-35.938z" fill="#c48958"/><path d="m286.491 84.51c-20.511 0-37.138 16.627-37.138 37.138v139.881c0 20.511 16.627 37.138 37.138 37.138 3.244 0 6.39-.419 9.39-1.2v-211.757c-2.999-.782-6.145-1.2-9.39-1.2z" fill="#d6995c"/></g></g></g><g><g><path d="m332.24 448h-36.359l-14.076 31.511 14.076 32.489h36.359l13.565-32.251z" fill="#fdae02"/><path d="m259.522 448-9.717 31.749 9.717 32.251h36.359v-64z" fill="#fdcb02"/></g><path d="m332.24 448h72.718v64h-72.718z" fill="#dc4b4b"/><path d="m186.804 448h72.718v64h-72.718z" fill="#0ed678"/></g></g></svg>