<svg id="Capa_1" enable-background="new 0 0 510.039 510.039" height="512" viewBox="0 0 510.039 510.039" width="512" xmlns="http://www.w3.org/2000/svg"><g><g><path d="m242.79 459.066 32.488-77.235 92.8-51.361c20.399-11.29 29.853-35.538 22.481-57.657-7.703-23.11-31.521-36.934-55.413-32.157l-53.742 10.748-12.429-12.43-136.059 120.974-64.913 79.998 44.638 44.638c15.577 15.576 36.038 23.365 56.499 23.365s40.922-7.788 56.499-23.365c7.35-7.351 13.121-15.936 17.151-25.518z" fill="#dc4b4b"/><path d="m256.545 226.545 10.748-53.742c4.778-23.887-9.046-47.71-32.157-55.413-22.119-7.373-46.368 2.081-57.657 22.481l-51.361 92.8-77.234 32.488c-9.582 4.03-18.167 9.801-25.519 17.152-31.153 31.153-31.153 81.844 0 112.997l44.638 44.638 200.971-200.971z" fill="#e07037"/></g><path d="m283.249 270.964 144.721-144.72-23.11-23.11-60.539 47.522-84.182 97.199z" fill="#28485e"/><path d="m218.612 147.598h204.666v32.682h-204.666z" fill="#36607d" transform="matrix(.707 -.707 .707 .707 -21.92 274.959)"/><g><path d="m159.052 398.844 21.213-21.213-24.973-24.974-14.834-.251-6.379 21.464z" fill="#efe2dd"/><path d="m117.199 333.118h30v35.318h-30z" fill="#faeee5" transform="matrix(.707 -.707 .707 .707 -209.317 196.219)"/></g><g><path d="m209 348.897 21.213-21.214-24.974-24.973-19.526 4.441-1.687 16.772z" fill="#efe2dd"/><path d="m167.146 283.171h30v35.318h-30z" fill="#faeee5" transform="matrix(.707 -.707 .707 .707 -159.369 216.908)"/></g><g><path d="m423.301 131.03 48.753-16.251 12.755-38.265 15.037-15.037c6.573-6.573 10.193-15.312 10.193-24.607s-3.62-18.035-10.193-24.607c-.691-.691-1.408-1.345-2.146-1.968l-67.421 54.404-30.146 43.163z" fill="#6aa7fb"/><path d="m460.555 5.319-67.624 31.472-15.967 47.902 23.168 23.168 97.568-97.567c-10.261-8.661-24.828-10.707-37.145-4.975z" fill="#7fc0fd"/></g></g></svg>