<svg id="Capa_1" enable-background="new 0 0 512 512" height="512" viewBox="0 0 512 512" width="512" xmlns="http://www.w3.org/2000/svg"><g><g><path d="m409.727 417v-350.546c0-28.417-23.037-51.454-51.454-51.454h-102.273l-32 251.667 32 150.333z" fill="#f5f0eb"/><path d="m256 417v-402h-102.273c-28.417 0-51.454 23.037-51.454 51.454v350.546z" fill="#fffbf5"/></g><g><path d="m117.273 401v-334.546c0-20.101 16.354-36.454 36.454-36.454h16.939l10.667-19.333-10.666-10.667h-16.939c-36.643 0-66.454 29.811-66.454 66.454v379.092c0 36.643 29.812 66.454 66.454 66.454h16.939l10.667-64-10.667-47z" fill="#0ed678"/><path d="m358.273 0h-16.94l-10.667 10.667 10.667 19.333h16.94c20.101 0 36.454 16.353 36.454 36.454v334.546h-53.394l-10.667 47 10.667 64h16.94c36.643 0 66.454-29.811 66.454-66.454v-379.092c0-36.643-29.811-66.454-66.454-66.454z" fill="#dc4b4b"/><path d="m256 401-10.667 57.667 10.667 53.333h85.333v-111z" fill="#fdae02"/><path d="m245.333 21.333 10.667 8.667h85.333v-30h-85.333z" fill="#fdae02"/><g fill="#fdcb02"><path d="m170.667 0h85.333v30h-85.333z"/><path d="m170.667 401h85.333v111h-85.333z"/></g></g><path d="m160 310h29.667v30h-29.667z" fill="#dc4b4b"/><g><path d="m352 310h-96l-10.667 20.667 10.667 9.333h96z" fill="#28485e"/><path d="m219.667 310h36.333v30h-36.333z" fill="#36607d"/></g><g><g><path d="m256 92.666-10.667 14.001 10.667 15.999h69.455v117.024h30v-147.024z" fill="#acd6fd"/><path d="m211.478 92.666v147.024h30v-117.024h14.522v-30z" fill="#c4e2fe"/></g><circle cx="196.011" cy="239.69" fill="#7fc0fd" r="45.467"/><circle cx="309.988" cy="239.69" fill="#6aa7fb" r="45.467"/></g><g><path d="m293.333 456.5c0-20.619-16.715-37.333-37.333-37.333l-10.667 37.333 10.667 37.333c20.618 0 37.333-16.715 37.333-37.333z" fill="#f5f0eb"/><path d="m218.666 456.5c0 20.618 16.715 37.333 37.333 37.333v-74.667c-20.618.001-37.333 16.715-37.333 37.334z" fill="#fffbf5"/></g><g><path d="m311.5 456.5c0-30.603-24.897-55.5-55.5-55.5l-10.667 15 10.667 15c14.06 0 25.5 11.44 25.5 25.5s-11.44 25.5-25.5 25.5l-10.667 19.333 10.667 10.667c30.602 0 55.5-24.897 55.5-55.5z" fill="#fdcb02"/><path d="m256 482c-14.061 0-25.5-11.44-25.5-25.5s11.439-25.5 25.5-25.5v-30c-30.603 0-55.5 24.897-55.5 55.5s24.897 55.5 55.5 55.5z" fill="#fde023"/></g></g></svg>