<svg id="Capa_1" enable-background="new 0 0 512 512" height="512" viewBox="0 0 512 512" width="512" xmlns="http://www.w3.org/2000/svg"><g><g><g><path d="m469.441 283.933c27.445-27.997 42.559-65.01 42.559-104.221 0-3.936-.157-7.835-.458-11.694l-255.542-21.333-10.667 106.667 10.667 96 166.471-20.962c22.474-20.873 40.288-37.641 46.97-44.457z" fill="#fdae02"/><path d="m256 146.685-255.542 21.333c-.302 3.859-.458 7.759-.458 11.694 0 39.21 15.114 76.223 42.559 104.22 6.682 6.816 24.497 23.585 46.97 44.457l166.471 20.962z" fill="#fdcb02"/></g><g><path d="m256 481.177 10.105-9.212c5.293-4.825 97.057-88.494 156.365-143.575h-166.47l-10.667 63.629z" fill="#dc4b4b"/><path d="m89.529 328.389c59.309 55.081 151.073 138.75 156.365 143.575l10.106 9.213v-152.788z" fill="#e07037"/></g><g><path d="m511.542 168.018c-5.984-76.653-70.269-137.195-148.431-137.195-23.812 0-46.571 5.458-67.644 16.223-14.616 7.466-28.018 17.43-39.467 29.27l-10.667 48.353 10.667 43.349z" fill="#0cba68"/><path d="m256 76.316c-11.449-11.84-24.851-21.804-39.467-29.27-21.073-10.765-43.831-16.223-67.644-16.223-78.162 0-142.447 60.542-148.431 137.195h255.542z" fill="#0ed678"/></g></g><g><path d="m338.558 269.434c-.943-1.016-6.009-6.218-14.872-10.918 11.993-19.571 11.783-37.554 11.691-40.014l-.787-16.291-16.277-.763s-.361-.018-1.049-.018c-2.962 0-13.277.396-25.944 5.324-6.202-27.427-22.415-42.784-23.261-43.569l-12.059-11.195-11.111 91.598 11.111 100.002h15.625v-33.631c5.615 1.564 12.006 2.586 19.161 2.586 29.308 0 45.973-17.042 47.777-18.985l11.199-12.065z" fill="#f7f0eb"/><path d="m256 151.99-12.06 11.194c-.845.785-17.057 16.142-23.26 43.569-12.667-4.928-22.982-5.324-25.944-5.324-.69 0-1.051.018-1.051.018l-16.457.775-.606 16.28c-.091 2.46-.302 20.442 11.691 40.014-8.863 4.701-13.928 9.902-14.872 10.918l-11.206 12.059 11.2 12.065c1.804 1.943 18.469 18.985 47.777 18.985 7.154 0 13.546-1.022 19.161-2.586v33.631h15.627z" fill="#fffbf5"/></g></g></svg>