<svg id="Capa_1" enable-background="new 0 0 512 512" height="512" viewBox="0 0 512 512" width="512" xmlns="http://www.w3.org/2000/svg"><g><g><path d="m305.793 185.554c-11.125-16.686-29.739-26.648-49.793-26.648l-10.667 11.262 10.667 18.737c10.001 0 19.284 4.968 24.832 13.289z" fill="#fdae02"/><path d="m206.206 185.554 24.961 16.641c5.548-8.322 14.831-13.29 24.833-13.29v-30c-20.055 0-38.669 9.962-49.794 26.649z" fill="#fdcb02"/></g><path d="m480 226.905h32v30h-32z" fill="#fdae02"/><path d="m495 381.095h-30c0-22.348-10.673-43.694-28.552-57.103l18.001-24c25.391 19.044 40.551 49.362 40.551 81.103z" fill="#9e5e2f"/><path d="m0 226.905h32v30h-32z" fill="#fdcb02"/><path d="m47 381.095h-30c0-31.74 15.16-62.059 40.552-81.103l18 24c-17.879 13.408-28.552 34.755-28.552 57.103z" fill="#ae6834"/><g><g><path d="m168.252 153.69-72.252 48.477-53.882 77.657c9.697 22.528 27.768 40.6 50.296 50.296l67.586-42.62 58.548-83.513c-9.697-22.529-27.768-40.6-50.296-50.297z" fill="#fdcb02"/><path d="m92.415 330.12c11.633 5.007 24.45 7.785 37.919 7.785 53.019 0 96-42.98 96-96 0-13.468-2.778-26.286-7.785-37.919z" fill="#e07037"/><path d="m130.333 145.905c-53.019 0-96 42.98-96 96 0 13.468 2.778 26.286 7.785 37.918l126.134-126.133c-11.633-5.006-24.451-7.785-37.919-7.785z" fill="#0ed678"/></g><path d="m130.333 352.905c-61.206 0-111-49.794-111-111s49.794-111 111-111 111 49.794 111 111-49.794 111-111 111zm0-192c-44.664 0-81 36.336-81 81 0 44.663 36.336 81 81 81s81-36.337 81-81-36.336-81-81-81z" fill="#efe2dd"/></g><g><g><path d="m419.585 153.69-72.252 48.476-53.882 77.657c9.697 22.528 27.768 40.6 50.296 50.296l67.586-42.62 58.548-83.513c-9.696-22.528-27.767-40.599-50.296-50.296z" fill="#fdae02"/><path d="m343.748 330.12c11.633 5.007 24.45 7.785 37.919 7.785 53.019 0 96-42.98 96-96 0-13.468-2.778-26.286-7.785-37.919z" fill="#dc4b4b"/><path d="m381.667 145.905c-53.019 0-96 42.98-96 96 0 13.468 2.778 26.286 7.785 37.918l126.133-126.133c-11.632-5.006-24.45-7.785-37.918-7.785z" fill="#0cba68"/></g><path d="m381.667 352.905c-61.206 0-111-49.794-111-111s49.794-111 111-111 111 49.794 111 111-49.795 111-111 111zm0-192c-44.664 0-81 36.336-81 81 0 44.663 36.336 81 81 81s81-36.337 81-81-36.337-81-81-81z" fill="#dcd2cd"/></g></g></svg>