<svg id="Capa_1" enable-background="new 0 0 512 512" height="512" viewBox="0 0 512 512" width="512" xmlns="http://www.w3.org/2000/svg"><g><g><path d="m344.848 21.597-35.515 42.403-8.126 53.907c20.369 12.174 35.458 32.305 40.933 56.072l52.526-13.979 41.657-37.275c-17.296-43.707-50.047-79.671-91.475-101.128z" fill="#dc4b4b"/><path d="m210.793 117.907-8.126-64.574-35.515-31.737c-41.428 21.457-74.179 57.421-91.475 101.128l41.657 37.276 52.526 13.979c5.475-23.767 20.564-43.898 40.933-56.072z" fill="#0cba68"/><path d="m301.208 117.907 43.641-96.311c-26.632-13.793-56.845-21.596-88.849-21.596l-10.667 53.334 10.667 52.108c16.509 0 31.972 4.555 45.208 12.465z" fill="#fdae02"/><path d="m62.168 193.833c0 30.717 7.371 61.301 21.317 88.448 13.486 26.251 33.159 49.463 56.892 67.125l5.364 3.992 69.102-13.924-6.552-70.922-5.316-3.993c-22.475-16.881-35.365-42.66-35.365-70.726 0-6.824.778-13.47 2.249-19.854l-94.182-51.254c-8.716 22.026-13.509 46.018-13.509 71.108z" fill="#28485e"/><path d="m342.141 173.979c1.471 6.384 2.249 13.029 2.249 19.854 0 28.066-12.89 53.845-35.365 70.726l-5.316 3.993-6.552 70.922 69.102 13.924 5.364-3.992c23.733-17.663 43.406-40.874 56.892-67.125 13.946-27.146 21.317-57.731 21.317-88.448 0-25.09-4.793-49.081-13.509-71.107z" fill="#1b303e"/><path d="m167.152 21.597 43.641 96.311c13.236-7.911 28.699-12.465 45.207-12.465v-105.443c-32.004 0-62.217 7.803-88.848 21.597z" fill="#fdcb02"/></g><path d="m241.666 512h-30v-104.615c0-22.67-7.34-44.898-20.53-63.135l22.273-20.315c18.127 23.815 28.257 53.327 28.257 83.45z" fill="#ffdf8e"/><path d="m270.334 512h30v-104.615c0-22.67 7.34-44.898 20.53-63.135l-22.273-20.315c-18.127 23.815-28.257 53.327-28.257 83.45z" fill="#fdc673"/><g><path d="m256 358.333c-.447 0-.889.023-1.333.034l-9.334 57.633 9.333 57.633c.445.01.886.034 1.333.034 31.797 0 57.667-25.869 57.667-57.667.001-31.797-25.868-57.667-57.666-57.667z" fill="#fdae02"/><path d="m198.333 416c0 31.351 25.151 56.919 56.334 57.633v-115.266c-31.183.714-56.334 26.283-56.334 57.633z" fill="#fdcb02"/></g></g></svg>