<svg id="Capa_1" enable-background="new 0 0 512.031 512.031" height="512" viewBox="0 0 512.031 512.031" width="512" xmlns="http://www.w3.org/2000/svg"><g><g><g><path d="m291.124 395.385-35.108 35.108-10.667 25.023 10.667 42.666h14.999v-40.263l41.322-41.32z" fill="#f90"/><path d="m256.015 430.493-35.107-35.108-21.213 21.213 41.32 41.321v40.263h15.001v-67.689z" fill="#fdae02"/></g><g><path d="m373.704 498.182-102.689-164.301v-66.032h49v-30h-49v-76.667h38.334v-30h-53.333l-10.667 121.667 10.667 113.635 82.311 131.698z" fill="#fdae02"/><path d="m202.682 131.182v30h38.333v76.667h-49v30h49v66.032l-102.687 164.301h35.376l82.311-131.698h.001v-235.302z" fill="#fdcb02"/></g></g><g><path d="m31.096 318.188 21.122 56.327h108.969l21.122-56.327c25.054-66.81 35.051-137.726 29.692-208.206l-105.319-6.467-105.278 6.467c-5.358 70.48 4.639 141.395 29.692 208.206z" fill="#e07037"/><path d="m58.636 106.005h30v33.067h-30z" fill="#fffbf5"/><path d="m124.77 106.005h30v33.067h-30z" fill="#fffbf5"/><path d="m202.554 44.509-6.568-30.66h-178.564l-6.57 30.659c-2.525 11.779-4.599 23.612-6.243 35.474l102.073 12.867 102.114-12.867c-1.643-11.862-3.718-23.694-6.242-35.473z" fill="#ffdf8e"/><path d="m4.609 79.982c-1.383 9.982-2.444 19.987-3.205 30h210.598c-.761-10.013-1.822-20.018-3.205-30z" fill="#8d562f"/></g><g><path d="m480.935 318.188-21.122 56.327h-108.969l-21.122-56.327c-25.054-66.81-35.051-137.726-29.692-208.206l105.319-6.467 105.278 6.467c5.359 70.48-4.638 141.395-29.692 208.206z" fill="#dc4b4b"/><path d="m423.395 106.005h30v33.067h-30z" fill="#f7f0eb"/><path d="m357.261 106.005h30v33.067h-30z" fill="#f7f0eb"/><path d="m309.477 44.509 6.568-30.66h178.565l6.57 30.659c2.524 11.779 4.599 23.611 6.242 35.474l-102.073 12.867-102.114-12.867c1.643-11.862 3.718-23.694 6.242-35.473z" fill="#fdc673"/><path d="m507.422 79.982c1.383 9.982 2.444 19.987 3.205 30h-210.597c.761-10.013 1.823-20.018 3.205-30z" fill="#744727"/></g></g></svg>