<svg id="Capa_1" enable-background="new 0 0 512 512" height="512" viewBox="0 0 512 512" width="512" xmlns="http://www.w3.org/2000/svg"><g><g><path d="m27.456 184.363 32.985 126.482 59.349 18.644 61.586-18.644 32.985-126.482-94.571-18.643z" fill="#fdcb02"/><path d="m100.1 462.917h41.617l39.659-152.072h-120.935z" fill="#dc4b4b"/><path d="m241.817 79.083-122.984-15.166-118.833 15.166 27.456 105.28h186.905z" fill="#0ed678"/></g><g><path d="m484.544 184.363-32.985 126.482-59.349 18.644-61.585-18.644-32.986-126.482 94.572-18.643z" fill="#fdcb02"/><path d="m411.901 462.917h-41.618l-39.658-152.072h120.934z" fill="#dc4b4b"/><path d="m270.184 79.083 122.983-15.166 118.833 15.166-27.456 105.28h-186.905z" fill="#0ed678"/></g><g><path d="m512 49.083h-256l-10.667 15 10.667 15h256z" fill="#28485e"/><path d="m0 49.083h256v30h-256z" fill="#36607d"/></g></g></svg>