<svg id="Capa_1" enable-background="new 0 0 512 512" height="512" viewBox="0 0 512 512" width="512" xmlns="http://www.w3.org/2000/svg"><g><g><path d="m350.421 111.336c-45.814 15.272-76.597 57.979-76.597 106.272v129.091c0 9.902-7.965 17.965-17.823 18.152l-17 66.483 17 80.107c4.073.365 8.184.559 12.327.559 74.442 0 135.006-60.563 135.006-135.005v-107.869c0-12.582 8.51-23.564 20.693-26.707z" fill="#fdae02"/><path d="m255.654 364.868c-10.018 0-18.17-8.151-18.17-18.169v-270.888c0-41.802-34.009-75.811-75.811-75.811-41.803 0-75.812 34.009-75.812 75.811l54.879 20.529-7.37 277.065c-.977 36.728 12.602 71.452 38.233 97.775 22.742 23.355 52.349 37.39 84.398 40.261v-146.59c-.117.002-.23.017-.347.017z" fill="#fdcb02"/></g><g><path d="m371.111 68.186h30v211.259h-30z" fill="#fdcb02" transform="matrix(.844 -.536 .536 .844 -33.035 233.896)"/></g><path d="m56.635 66.34h84.074v30h-84.074z" fill="#e07037"/><g fill="#f90"><path d="m100.861 210.076h70.75v30h-70.75z"/><path d="m100.861 276.416h70.75v30h-70.75z"/><path d="m100.861 342.756h70.75v30h-70.75z"/></g><g><circle cx="300" cy="373.333" fill="#e07037" r="32"/><path d="m300.001 420.333c-25.916 0-47-21.084-47-47s21.084-47 47-47 47 21.084 47 47-21.084 47-47 47zm0-64c-9.374 0-17 7.626-17 17s7.626 17 17 17 17-7.626 17-17-7.626-17-17-17z" fill="#fdcb02"/></g><g><circle cx="300" cy="266.667" fill="#e07037" r="32"/><path d="m300.001 313.667c-25.916 0-47-21.084-47-47s21.084-47 47-47 47 21.084 47 47-21.084 47-47 47zm0-64c-9.374 0-17 7.626-17 17s7.626 17 17 17 17-7.626 17-17-7.626-17-17-17z" fill="#fdcb02"/></g></g></svg>