<svg id="Capa_1" enable-background="new 0 0 512 512" height="512" viewBox="0 0 512 512" width="512" xmlns="http://www.w3.org/2000/svg"><g><g><path d="m384.137 75.738v360.524c74.384-26.129 127.863-97.062 127.863-180.262s-53.479-154.133-127.863-180.262z" fill="#28485e"/><path d="m384.137 107.904v296.192c57.483-24.599 97.863-81.719 97.863-148.096s-40.38-123.497-97.863-148.096z" fill="#36607d"/></g><g><g><path d="m199.5 56.5-18.167 205.234 18.167 193.766 109.833-82.167 89.667-117.333v-199.5z" fill="#fdae02"/><path d="m399 455.5v-199.5l-199.5 199.5z" fill="#dc4b4b"/><path d="m199.5 56.5-124.833 92.833-74.667 107.963v198.204h199.5z" fill="#fdcb02"/><path d="m0 257.296 199.5-200.796h-199.5z" fill="#0ed678"/></g><g><path d="m229.5 301.534h-30v-145.867h60.719v30h-30.719z" fill="#c4e2fe"/><g><path d="m229.5 301.534c0-21.293-12.216-39.775-30-48.843l-7.5 50.976 7.5 46.709c17.784-9.067 30-27.549 30-48.842z" fill="#f7f0eb"/><path d="m174.7 246.734c-30.217 0-54.8 24.583-54.8 54.8s24.583 54.8 54.8 54.8c8.923 0 17.347-2.158 24.8-5.957v-97.686c-7.453-3.799-15.877-5.957-24.8-5.957z" fill="#fffbf5"/></g></g></g></g></svg>