<svg id="Capa_1" enable-background="new 0 0 512.133 512.133" height="512" viewBox="0 0 512.133 512.133" width="512" xmlns="http://www.w3.org/2000/svg"><g><path d="m250.272 374.87c-17.209-2.153-54.658-2.727-88.549 24.594-44.855 36.157-43.29 88.776-43.201 90.999l.443 11.127 10.78 2.795c.903.234 10.433 2.609 24.506 2.609 19.446 0 47.566-4.533 73.588-25.51 9.354-7.54 16.682-15.796 22.433-24.161z" fill="#e07037"/><path d="m250.272 286.658c-10.176-21.682-25.298-45.153-47.776-67.631-70.846-70.845-151.58-68.687-154.977-68.561l-13.914.518-.518 13.914c-.127 3.402-2.287 84.131 68.56 154.977 60.319 60.319 127.801 67.717 148.625 68.505z" fill="#0dca71"/><path d="m261.861 374.87c17.21-2.153 54.658-2.727 88.549 24.594 44.855 36.157 43.29 88.776 43.201 90.999l-.443 11.127-10.78 2.795c-.903.234-10.433 2.609-24.506 2.609-19.446 0-47.566-4.533-73.588-25.51-9.354-7.54-16.682-15.796-22.433-24.161z" fill="#dc4b4b"/><path d="m261.861 286.658c10.177-21.682 25.298-45.153 47.776-67.631 70.846-70.845 151.58-68.687 154.977-68.561l13.914.518.518 13.914c.127 3.402 2.287 84.131-68.56 154.977-60.319 60.319-127.801 67.717-148.625 68.505z" fill="#0cba68"/><g><path d="m502.461 365.519c-1.739-2.03-43.442-49.72-118.395-49.72-60.541 0-99.382 31.109-113 44.143v-.094c16.248-16.518 67.386-76.214 67.386-173.116 0-112.751-69.234-175.13-72.182-177.73l-10.204-9.003-10.666 202.801 10.667 309.333h15v-120.628c13.617 13.035 52.459 44.144 113 44.144 74.953 0 116.656-47.69 118.395-49.72l8.739-10.205z" fill="#fdae02"/><path d="m256.066 0-10.206 9.003c-2.947 2.6-72.181 64.979-72.181 177.73 0 96.906 51.142 156.602 67.387 173.118v.092c-13.617-13.035-52.459-44.143-113-44.143-74.953 0-116.656 47.689-118.395 49.72l-8.739 10.205 8.739 10.205c1.739 2.03 43.442 49.72 118.395 49.72 60.541 0 99.382-31.109 113-44.144v120.628h15v-512.133z" fill="#fdcb02"/></g></g></svg>