<svg id="Capa_1" enable-background="new 0 0 512 512" height="512" viewBox="0 0 512 512" width="512" xmlns="http://www.w3.org/2000/svg"><g><path d="m400.991 270.678c27.149-16.476 45.288-46.317 45.288-80.394 0-51.9-42.074-93.974-93.974-93.974h-2.331v-2.331c0-51.9-42.074-93.974-93.974-93.974-51.9 0-93.974 42.073-93.974 93.974v2.331h-2.331c-51.9 0-93.974 42.074-93.974 93.974 0 34.077 18.139 63.918 45.288 80.394-45.357 6.676-80.174 45.751-80.174 92.963 0 51.9 42.074 93.974 93.974 93.974h262.382c51.9 0 93.974-42.074 93.974-93.974 0-47.212-34.817-86.288-80.174-92.963z" fill="#9bd069"/><path d="m256.006 0c-12.548 0-23.9 10.518-32.121 27.526-8.221 16.998-13.31 40.496-13.31 66.446v2.328h-1.123c-25.095 0-45.431 42.083-45.431 93.983 0 17.039 2.194 33.017 6.026 46.801 3.832 13.773 9.302 25.353 15.865 33.594-21.932 6.675-38.755 45.75-38.755 92.963 0 25.95 5.089 49.438 13.299 66.446 8.221 17.008 19.584 27.526 32.121 27.526h-67.765c-25.95 0-49.438-10.518-66.446-27.526s-27.526-40.496-27.526-66.446c0-47.213 34.82-86.287 80.168-92.963-13.567-8.241-24.899-19.821-32.821-33.594-7.932-13.784-12.465-29.762-12.465-46.801 0-51.9 42.072-93.983 93.972-93.983h2.339v-2.328c0-25.95 10.518-49.448 27.526-66.446 16.999-17.008 40.497-27.526 66.447-27.526z" fill="#7dbe3b"/><path d="m340.233 287.698-13.192-13.192-43.63 33.197-15.166-92.101h-24.49l-48.807 296.398h122.104l-20.709-125.76z" fill="#c17d4f"/><path d="m254.06 215.599-4.883 296.401h-54.229l48.81-296.401z" fill="#985e33"/></g></svg>