<svg id="Capa_1" enable-background="new 0 0 512 512" height="512" viewBox="0 0 512 512" width="512" xmlns="http://www.w3.org/2000/svg"><g><g><path d="m201.216 339.848c-13.25 12.965-19.873 30.098-19.873 47.237 0 16.911 6.448 33.818 19.35 46.72l-43.879 16.711c-25.538-25.538-38.304-59.01-38.304-92.481 0-33.16 12.53-66.32 37.594-91.766 50.868-51.642 135.242-51.146 186.499.111l39.67 39.67c16.908 16.908 16.908 44.32 0 61.228-16.908 16.908-44.32 16.908-61.228 0l-26.316-26.316c-25.699-25.701-67.537-26.532-93.513-1.114z" fill="#80b4fb"/><path d="m204.446 290.067c-17.78 17.398-26.666 40.388-26.666 63.385 0 22.693 8.653 45.379 25.965 62.691l49.993 49.993-108.872-27.569c-34.268-34.268-51.399-79.182-51.399-124.096 0-44.496 16.813-88.992 50.446-123.136 68.258-69.296 181.475-68.631 250.254.148l53.231 53.231c22.687 22.687 22.687 59.471 0 82.158-22.687 22.687-59.471 22.687-82.158 0l-35.312-35.312c-34.485-34.484-90.626-35.6-125.482-1.493z" fill="#5986cb"/><path d="m485.745 136.468-68.951-68.951c-89.092-89.092-235.744-89.954-324.16-.193-43.565 44.228-65.344 101.864-65.343 159.501v239.31h145.143l110.205 4.891-112.502-112.502c-22.425-22.425-33.634-51.811-33.633-81.205 0-29.789 11.511-59.568 34.541-82.104 45.15-44.18 117.87-42.734 162.538 1.934l45.74 45.74c29.387 29.387 77.034 29.387 106.421 0 29.388-29.387 29.388-77.034.001-106.421z" fill="#80b4fb"/><path d="m287.029 2.72c-47.182 6.789-92.5 28.278-128.278 64.603-43.566 44.226-65.344 101.864-65.344 159.503v239.311h-66.118v-239.311c0-57.639 21.778-115.277 65.344-159.503 52.385-53.178 125.209-74.554 194.396-64.603z" fill="#5986cb"/></g><path d="m512 441.227v70.423h-512v-91.027c51.2 0 51.2 20.604 102.4 20.604 51.21 0 51.21-20.604 102.41-20.604s51.2 20.604 102.4 20.604c51.19 0 51.19-20.604 102.39-20.604s51.2 20.604 102.4 20.604z" fill="#5986cb"/><path d="m512 471.051v40.599h-512v-61.203c51.2 0 51.2 20.604 102.4 20.604 51.21 0 51.21-20.604 102.41-20.604s51.2 20.604 102.4 20.604c51.19 0 51.19-20.604 102.39-20.604s51.2 20.604 102.4 20.604z" fill="#80b4fb"/></g></svg>