<svg id="Capa_1" enable-background="new 0 0 512 512" height="512" viewBox="0 0 512 512" width="512" xmlns="http://www.w3.org/2000/svg"><g><g><path d="m314.042 406.193c0 58.689-47.973 106.158-106.837 105.346-56.869-.782-103.227-47.284-103.865-104.143-.123-11.744 1.666-23.056 5.08-33.628 9.852-30.46 15.724-62.021 18.14-93.9.864-11.435 1.285-22.912 1.285-34.399v-17.667h161.69v12.978c0 13.05.504 26.09 1.553 39.088 2.571 32.126 8.443 63.934 18.12 94.713 3.138 9.975 4.834 20.598 4.834 31.612z" fill="#f9f6f9"/><path d="m168.025 407.396c-.051-11.744.638-23.056 1.964-33.628 2.697-21.627 4.617-43.806 5.837-66.26.842-15.501 13.652-27.641 29.177-27.641h86.087c-1.049-12.998-1.553-26.038-1.553-39.088v-12.978h-112.062-49.629-.01v17.667c0 43.5-6.036 86.907-19.416 128.299-3.424 10.572-5.214 21.884-5.08 33.628.627 56.858 46.996 103.361 103.855 104.143.494.01.997.01 1.491.01-.195 0-.38 0-.576-.01-21.945-.781-39.839-47.284-40.085-104.142z" fill="#dfdde2"/><path d="m257.474.451h-97.569c-88.313 0-159.905 71.592-159.905 159.905 0 44.091 35.743 79.834 79.834 79.834h257.711c44.091 0 79.834-35.743 79.834-79.834.001-88.313-71.591-159.905-159.905-159.905z" fill="#c17d4f"/><path d="m149.987 216.809c14.448 14.448 34.409 23.385 56.447 23.385h-126.602c-22.048 0-42.009-8.937-56.457-23.385-14.438-14.449-23.375-34.409-23.375-56.457 0-88.306 71.585-159.901 159.901-159.901h97.571c4.895 0 9.739.216 14.521.658-81.508 7.322-145.39 75.832-145.39 159.242-.001 22.049 8.936 42.009 23.384 56.458z" fill="#985e33"/></g><g><path d="m434.66 432.698c0 43.924-35.904 79.451-79.959 78.843-42.562-.585-77.257-35.388-77.735-77.942-.092-8.789 1.247-17.256 3.802-25.168 7.373-22.797 11.768-46.418 13.577-70.277.646-8.559.962-17.148.962-25.745v-13.223h121.013v9.713c0 9.767.377 19.526 1.162 29.254 1.924 24.044 6.319 47.849 13.561 70.885 2.347 7.467 3.617 15.417 3.617 23.66z" fill="#f9f6f9"/><path d="m325.378 433.599c-.038-8.789.477-17.256 1.47-25.168 2.019-16.186 3.456-32.785 4.368-49.59.63-11.601 10.218-20.687 21.836-20.687h64.429c-.785-9.728-1.162-19.488-1.162-29.254v-9.713h-83.869-37.143-.007v13.223c0 32.556-4.518 65.043-14.531 96.022-2.563 7.912-3.902 16.378-3.802 25.168.469 42.554 35.173 77.358 77.727 77.942.369.008.747.008 1.116.008-.146 0-.285 0-.431-.008-16.425-.586-29.817-35.389-30.001-77.943z" fill="#dfdde2"/><path d="m392.324 129.033h-73.023c-66.095 0-119.676 53.581-119.676 119.676 0 32.999 26.751 59.75 59.75 59.75h192.875c32.999 0 59.75-26.751 59.75-59.75 0-66.095-53.581-119.676-119.676-119.676z" fill="#e4936b"/><path d="m311.878 290.96c10.814 10.814 25.752 17.502 42.246 17.502h-94.752c-16.501 0-31.44-6.688-42.254-17.502-10.806-10.814-17.494-25.753-17.494-42.254 0-66.09 53.575-119.673 119.673-119.673h73.024c3.664 0 7.289.162 10.867.493-61.003 5.48-108.813 56.754-108.813 119.18.001 16.501 6.689 31.44 17.503 42.254z" fill="#dd6938"/></g></g></svg>