<svg id="Capa_1" enable-background="new 0 0 512 512" height="512" viewBox="0 0 512 512" width="512" xmlns="http://www.w3.org/2000/svg"><g><path d="m507.368 352.002-4.477-1.854c-17.22-28.32-26.333-60.813-26.333-94.148 0-17.294 2.433-34.409 7.231-50.875 4.411-15.162 10.848-29.7 19.1-43.272l4.479-1.855c3.827-1.585 5.645-5.973 4.059-9.799-1.585-3.827-5.972-5.644-9.799-4.059l-4.482 1.857c-32.202-7.851-61.618-24.384-85.184-47.959-23.575-23.566-40.108-52.982-47.959-85.183l1.856-4.482c1.586-3.827-.231-8.214-4.059-9.799-3.825-1.583-8.214.232-9.799 4.059l-1.854 4.477c-28.32 17.22-60.813 26.333-94.148 26.333-17.297 0-34.412-2.433-50.875-7.231-15.16-4.41-29.698-10.846-43.272-19.099l-1.855-4.479c-1.585-3.827-5.973-5.643-9.799-4.059-3.827 1.585-5.644 5.972-4.059 9.799l1.857 4.483c-7.851 32.202-24.384 61.618-47.958 85.183-12.254 12.254-26.073 22.639-41.073 30.867-13.869 7.608-28.701 13.336-44.108 17.092l-4.484-1.857c-3.827-1.584-8.214.232-9.799 4.059s.232 8.214 4.059 9.799l4.477 1.855c17.218 28.317 26.332 60.808 26.332 94.145 0 17.297-2.433 34.412-7.231 50.875-4.41 15.161-10.847 29.699-19.1 43.273l-4.478 1.855c-3.827 1.585-5.644 5.973-4.059 9.799 1.196 2.888 3.989 4.632 6.932 4.632.957 0 1.929-.184 2.867-.573l4.483-1.857c32.202 7.85 61.618 24.384 85.183 47.958 12.254 12.254 22.639 26.074 30.867 41.073 7.608 13.869 13.336 28.701 17.092 44.108l-1.857 4.484c-1.585 3.827.232 8.214 4.059 9.799.938.389 1.911.573 2.867.573 2.943 0 5.736-1.744 6.932-4.632l1.854-4.477c28.319-17.219 60.811-26.333 94.148-26.333 17.297 0 34.412 2.433 50.875 7.231 15.16 4.41 29.699 10.846 43.273 19.1l1.855 4.478c1.196 2.888 3.988 4.632 6.932 4.632.956 0 1.929-.184 2.867-.573 3.827-1.585 5.644-5.973 4.059-9.799l-1.856-4.482c7.85-32.201 24.384-61.617 47.96-85.184 12.254-12.254 26.073-22.639 41.072-30.867 13.871-7.608 28.704-13.336 44.11-17.092l4.484 1.857c.938.389 1.91.573 2.867.573 2.942 0 5.735-1.744 6.932-4.632 1.582-3.824-.236-8.212-4.063-9.797zm-37.98-151.071c-5.195 17.826-7.83 36.354-7.83 55.068 0 29.615 6.641 58.627 19.327 85.032l-53.307-22.08c-10.085-19.305-15.419-41.007-15.419-62.951 0-21.945 5.334-43.647 15.419-62.953l53.294-22.075c-4.646 9.663-8.493 19.679-11.484 29.959zm-172.579-23.857c4.701 7.689 10.316 14.823 16.805 21.312s13.621 12.104 21.31 16.805l-65.067 26.952zm-40.809 59.328-26.952-65.068c8.761 2.113 17.776 3.186 26.952 3.186s18.19-1.073 26.951-3.186zm-13.858 5.74-65.067-26.951c7.689-4.701 14.822-10.316 21.311-16.805 6.488-6.488 12.103-13.621 16.805-21.31zm-5.741 13.858-65.067 26.952c2.113-8.761 3.186-17.776 3.186-26.952s-1.073-18.19-3.186-26.951zm5.741 13.858-26.951 65.067c-4.701-7.689-10.316-14.822-16.805-21.311-6.488-6.488-13.621-12.103-21.31-16.805zm13.858 5.74 26.952 65.068c-8.761-2.113-17.775-3.186-26.952-3.186-9.176 0-18.19 1.073-26.951 3.186zm13.857-5.74 65.067 26.952c-7.689 4.701-14.822 10.316-21.311 16.805s-12.104 13.621-16.805 21.31zm5.741-13.858 65.067-26.952c-2.113 8.761-3.186 17.775-3.186 26.952s1.073 18.191 3.185 26.951zm77.253-48.235c-10.609-4.895-20.237-11.593-28.629-19.986-8.394-8.393-15.092-18.022-19.987-28.632l20.194-48.754c7.514 16.975 18.16 32.566 31.385 45.792 13.226 13.226 28.816 23.871 45.791 31.385zm-62.474-54.357c-10.964 4.04-22.508 6.112-34.376 6.112-11.869 0-23.414-2.072-34.378-6.113l-20.195-48.754c17.317 6.69 35.868 10.188 54.573 10.188 18.704 0 37.254-3.497 54.571-10.187zm-82.612 5.741c-4.895 10.61-11.593 20.238-19.986 28.63-8.393 8.393-18.021 15.09-28.631 19.986l-48.755-20.195c16.975-7.514 32.566-18.159 45.792-31.385s23.871-28.816 31.384-45.791zm-54.357 62.474c4.04 10.964 6.112 22.508 6.112 34.376 0 11.869-2.072 23.413-6.113 34.378l-48.754 20.195c6.69-17.317 10.187-35.868 10.187-54.572s-3.497-37.255-10.187-54.571zm5.741 82.612c10.61 4.895 20.238 11.593 28.63 19.986 8.393 8.393 15.09 18.021 19.986 28.631l-20.195 48.755c-7.514-16.975-18.159-32.566-31.385-45.792s-28.816-23.87-45.791-31.384zm62.474 54.357c10.964-4.041 22.508-6.113 34.377-6.113s23.413 2.072 34.378 6.113l20.195 48.754c-17.317-6.69-35.868-10.187-54.572-10.187s-37.255 3.497-54.571 10.187zm82.611-5.741c4.895-10.609 11.593-20.237 19.986-28.63 8.393-8.392 18.022-15.09 28.631-19.986l48.754 20.195c-16.975 7.514-32.566 18.159-45.792 31.385-13.225 13.225-23.87 28.816-31.384 45.792zm54.356-62.475c-4.04-10.963-6.111-22.506-6.111-34.376s2.071-23.414 6.111-34.377l48.755-20.195c-6.69 17.316-10.187 35.867-10.187 54.572s3.497 37.255 10.186 54.571zm42.764-179.733c20.938 20.945 46.143 36.765 73.785 46.468l-53.301 22.078c-20.783-6.52-39.901-18.093-55.416-33.61-15.517-15.516-27.092-34.634-33.612-55.418l22.078-53.302c9.703 27.642 25.522 52.847 46.466 73.784zm-200.422-68.031c17.823 5.195 36.35 7.83 55.068 7.83 29.617 0 58.626-6.64 85.032-19.325l-22.08 53.306c-19.307 10.084-41.01 15.418-62.952 15.418-21.944 0-43.646-5.334-62.953-15.42l-22.075-53.294c9.663 4.647 19.68 8.495 29.96 11.485zm-134.754 101.444c16.246-8.912 31.207-20.153 44.465-33.411 20.946-20.938 36.765-46.142 46.468-73.785l22.078 53.302c-6.52 20.783-18.094 39.9-33.61 55.417-15.517 15.517-34.635 27.091-55.418 33.611l-53.291-22.075c10.107-3.544 19.911-7.904 29.308-13.059zm-23.566 167.012c5.195-17.823 7.83-36.351 7.83-55.068 0-29.617-6.641-58.627-19.326-85.032l53.306 22.08c10.085 19.306 15.419 41.008 15.419 62.952s-5.333 43.646-15.419 62.953l-53.295 22.075c4.647-9.663 8.495-19.68 11.485-29.96zm101.444 134.754c-8.912-16.246-20.153-31.207-33.411-44.465-20.937-20.946-46.142-36.765-73.784-46.468l53.302-22.078c20.783 6.52 39.899 18.094 55.417 33.61 15.517 15.517 27.091 34.635 33.611 55.418l-22.074 53.291c-3.546-10.107-7.906-19.911-13.061-29.308zm167.012 23.566c-17.822-5.195-36.35-7.83-55.068-7.83-29.617 0-58.627 6.641-85.032 19.326l22.08-53.306c19.306-10.085 41.008-15.419 62.952-15.419s43.646 5.334 62.953 15.419l22.075 53.294c-9.664-4.646-19.681-8.494-29.96-11.484zm134.753-101.445c-16.246 8.912-31.206 20.153-44.465 33.411-20.946 20.939-36.766 46.144-46.468 73.786l-22.078-53.302c6.521-20.784 18.095-39.902 33.611-55.418 15.516-15.517 34.634-27.091 55.417-33.611l53.292 22.074c-10.107 3.545-19.912 7.906-29.309 13.06z" fill="#f1f4f6"/><g><g fill="#454045"><g><path d="m246.515 136.851c-3.329 0-6.369-2.232-7.25-5.603l-5.155-19.696c-1.049-4.007 1.349-8.106 5.356-9.155 4.004-1.049 8.105 1.349 9.154 5.356l5.155 19.696c1.049 4.007-1.349 8.106-5.356 9.155-.636.167-1.276.247-1.904.247z"/><path d="m265.484 136.851c-.629 0-1.268-.08-1.904-.246-4.007-1.049-6.405-5.147-5.356-9.155l5.155-19.696c1.049-4.007 5.146-6.406 9.155-5.356 4.007 1.049 6.405 5.147 5.356 9.155l-5.155 19.696c-.883 3.37-3.923 5.602-7.251 5.602z"/></g><path d="m404.06 136.713c-5.104-6.145-14.22-6.989-20.363-1.887l-37.558 31.187-41.173-12.959 34.173-13.313c3.919-1.527 6.98-4.685 8.383-8.651 1.404-3.966 1.01-8.346-1.077-11.998l-22.613-39.572c-3.963-6.935-12.797-9.342-19.73-5.381-6.934 3.962-9.343 12.796-5.38 19.73l14.293 25.012-34.901 13.596c-5.747 2.239-9.237 7.751-9.199 13.572-3.34 1.7-6.022 4.684-7.236 8.54-2.398 7.618 1.834 15.737 9.452 18.135l73.843 23.242c1.423.448 2.886.667 4.34.667 3.33 0 6.608-1.151 9.239-3.336l43.621-36.222c6.144-5.101 6.988-14.218 1.886-20.362z"/><path d="m371.444 233.482-82.138-29.523c-7.515-2.702-15.797 1.201-18.499 8.717-2.701 7.515 1.201 15.798 8.717 18.499l66.864 24.033-29.85 60.208c-3.548 7.155-.623 15.832 6.532 19.379 2.065 1.023 4.254 1.508 6.412 1.508 5.322 0 10.442-2.95 12.966-8.04l37.061-74.749c1.833-3.696 2-7.997.459-11.824s-4.641-6.813-8.524-8.208z"/><path d="m107.94 136.713c5.104-6.145 14.22-6.989 20.363-1.887l37.558 31.187 41.173-12.959-34.173-13.313c-3.919-1.527-6.98-4.685-8.383-8.651-1.404-3.966-1.01-8.346 1.077-11.998l22.613-39.573c3.963-6.935 12.797-9.342 19.73-5.381 6.934 3.962 9.343 12.796 5.38 19.73l-14.293 25.012 34.901 13.596c5.747 2.239 9.237 7.751 9.199 13.572 3.34 1.7 6.022 4.684 7.236 8.54 2.398 7.618-1.834 15.737-9.452 18.135l-73.843 23.242c-1.423.448-2.886.667-4.34.667-3.33 0-6.608-1.151-9.239-3.336l-43.621-36.222c-6.144-5.1-6.988-14.217-1.886-20.361z"/><path d="m140.556 233.482 82.138-29.523c7.515-2.702 15.797 1.201 18.499 8.717 2.701 7.515-1.201 15.798-8.717 18.499l-66.864 24.033 29.85 60.208c3.548 7.155.623 15.832-6.532 19.379-2.065 1.023-4.254 1.508-6.412 1.508-5.322 0-10.442-2.95-12.966-8.04l-37.061-74.749c-1.833-3.696-2-7.997-.459-11.824s4.641-6.813 8.524-8.208z"/></g><path d="m256 276.395c-25.884 0-46.866-20.983-46.866-46.866v-10.868c0-25.884 20.983-46.866 46.866-46.866 25.884 0 46.866 20.983 46.866 46.866v10.868c0 25.883-20.982 46.866-46.866 46.866z" fill="#665e66"/><path d="m266.713 275.158c-3.44.8-7.02 1.23-10.71 1.23h-.01c-25.88 0-46.86-20.98-46.86-46.86v-10.87c0-25.88 20.98-46.87 46.86-46.87h.01c3.69 0 7.27.43 10.71 1.23-20.74 4.84-36.17 23.44-36.17 45.64v10.87c.001 22.2 15.43 40.79 36.17 45.63z" fill="#454045"/><path d="m256 179.66c-15.113 0-27.364-12.251-27.364-27.364v-6.345c0-15.113 12.251-27.364 27.364-27.364 15.113 0 27.364 12.251 27.364 27.364v6.345c0 15.113-12.252 27.364-27.364 27.364z" fill="#665e66"/><path d="m263.036 178.736c-2.24.6-4.6.92-7.04.92-15.11 0-27.36-12.25-27.36-27.36v-6.35c0-15.11 12.25-27.36 27.36-27.36 2.44 0 4.8.32 7.04.92-11.7 3.1-20.32 13.76-20.32 26.44v6.35c0 12.68 8.62 23.34 20.32 26.44z" fill="#454045"/></g></g></svg>