<svg id="Capa_1" enable-background="new 0 0 512 512" height="512" viewBox="0 0 512 512" width="512" xmlns="http://www.w3.org/2000/svg"><g><path d="m370.606 288.049v223.951h-41.207v-223.951c0-11.383 9.22-20.604 20.604-20.604 11.373 0 20.603 9.22 20.603 20.604z" fill="#9bd069"/><path d="m358.077 269.094c-7.355 3.142-12.517 10.446-12.517 18.955v223.951h-16.163v-223.951c0-11.383 9.22-20.604 20.604-20.604 2.863 0 5.593.587 8.076 1.649z" fill="#7dbe3b"/><path d="m170.225 244.668v267.332h-41.207v-267.332c0-13.588 9.23-24.601 20.604-24.601 11.383 0 20.603 11.013 20.603 24.601z" fill="#9bd069"/><path d="m157.703 222.039c-7.355 3.751-12.517 12.47-12.517 22.627v267.334h-16.163v-267.333c0-13.589 9.22-24.595 20.604-24.595 2.863 0 5.593.701 8.076 1.967z" fill="#7dbe3b"/><g><path d="m260.318 147.873c24.241-16.056 32.105-48.414 17.369-73.936-14.735-25.522-46.689-34.891-72.715-21.926-1.784-29.022-25.875-52.011-55.346-52.011-29.471 0-53.561 22.989-55.346 52.01-26.026-12.965-57.98-3.596-72.715 21.926-14.735 25.522-6.872 57.88 17.369 73.936-24.241 16.056-32.105 48.414-17.369 73.936 14.735 25.523 46.689 34.892 72.715 21.927 1.785 29.022 25.875 52.01 55.346 52.01 29.471 0 53.561-22.989 55.346-52.01 26.026 12.965 57.98 3.597 72.715-21.926 14.736-25.523 6.872-57.88-17.369-73.936z" fill="#d0e2e7"/><circle cx="149.626" cy="147.873" fill="#f6e738" r="72.726"/><g fill="#ecc32e"><path d="m158.37 220.071c-2.865.35-5.786.53-8.753.53-40.165 0-72.717-32.563-72.717-72.729s32.552-72.729 72.717-72.729c2.966 0 5.888.181 8.753.53-36.037 4.309-63.976 35-63.976 72.199s27.939 67.89 63.976 72.199z"/><path d="m134.54 101.699c-7.103 0-10.41-9.235-4.871-13.713 5.452-4.408 13.784.472 12.46 7.42-.686 3.601-3.914 6.293-7.589 6.293z"/><path d="m154.711 112.351c-3.446 0-6.516-2.348-7.446-5.661-.905-3.224.46-6.768 3.278-8.565 5.815-3.707 13.468 1.85 11.609 8.55-.918 3.31-3.999 5.676-7.441 5.676z"/><path d="m134.54 122.509c-3.236 0-6.175-2.088-7.267-5.123-1.114-3.096-.083-6.674 2.519-8.69 5.385-4.171 13.378.441 12.392 7.218-.544 3.74-3.869 6.595-7.644 6.595z"/><path d="m134.54 199.701c-7 0-10.382-9.069-4.994-13.614 5.325-4.492 13.635.11 12.638 7.024-.54 3.74-3.872 6.59-7.644 6.59z"/></g></g><g><path d="m350 288.048c16.056 24.241 48.414 32.105 73.936 17.369 25.522-14.735 34.891-46.689 21.926-72.715 29.022-1.785 52.01-25.875 52.01-55.346 0-29.471-22.989-53.561-52.01-55.346 12.965-26.026 3.596-57.98-21.926-72.715-25.522-14.735-57.88-6.872-73.936 17.369-16.056-24.241-48.414-32.105-73.936-17.369-25.522 14.735-34.891 46.689-21.926 72.715-29.022 1.785-52.01 25.875-52.01 55.346 0 29.471 22.989 53.561 52.01 55.346-12.965 26.026-3.597 57.98 21.926 72.715 25.523 14.736 57.88 6.873 73.936-17.369z" fill="#f1f4f6"/><circle cx="350" cy="177.356" fill="#f6e738" r="72.726"/><g fill="#ecc32e"><path d="m358.744 249.555c-2.865.35-5.786.53-8.753.53-40.165 0-72.717-32.563-72.717-72.729s32.552-72.729 72.717-72.729c2.966 0 5.888.181 8.753.53-36.037 4.309-63.976 35-63.976 72.199s27.939 67.89 63.976 72.199z"/><path d="m382.844 151.375c-7.193 0-10.421-9.421-4.749-13.82 5.558-4.31 13.772.78 12.308 7.679-.748 3.528-3.946 6.141-7.559 6.141z"/><path d="m395.01 170.165c-6.585 0-10.13-8.109-5.682-12.955 2.265-2.467 5.961-3.164 8.985-1.75 2.912 1.363 4.71 4.534 4.386 7.736-.396 3.904-3.753 6.969-7.689 6.969z"/><path d="m374.871 170.165c-7.153 0-10.436-9.363-4.778-13.791 2.509-1.963 6.015-2.172 8.75-.552 2.899 1.717 4.345 5.259 3.514 8.518-.862 3.384-3.989 5.825-7.486 5.825z"/><path d="m319.663 216.482c-7.077 0-10.407-9.199-4.895-13.695 2.466-2.012 5.974-2.292 8.736-.726 2.979 1.689 4.491 5.281 3.646 8.596-.863 3.384-3.99 5.825-7.487 5.825z"/><path d="m335.044 233.264c-3.172 0-6.061-1.995-7.208-4.946-1.214-3.124-.2-6.769 2.42-8.847 5.492-4.357 13.772.697 12.36 7.581-.731 3.564-3.919 6.212-7.572 6.212z"/></g></g><path d="m160.038 512h-53.734c-.556-12.465-1.587-24.9-3.06-37.282-3.07-25.878-8.108-51.468-15.391-76.491-5.326-18.306-12.135-36.335-20.604-53.425-2.905-5.872-5.944-11.682-9.282-17.338-1.216-2.04-2.462-4.069-3.636-6.14-2.277-4.007-1.051-9.22 2.977-11.61 3.75-2.215 8.262-1.113 11.013 2.091 1.576 1.823 3.142 3.667 4.708 5.501 4.584 5.367 8.849 10.992 13.021 16.689 11.033 15.051 20.521 31.163 29.061 47.739 11.672 22.674 21.191 46.502 29.061 70.742 6.348 19.501 11.766 39.394 15.866 59.524z" fill="#7dbe3b"/><path d="m170.225 387.389v116.441c-.319 2.72-.608 5.439-.876 8.169h-40.332v-31.111c.175-.556.361-1.102.536-1.659 7.881-24.24 17.389-48.068 29.072-70.742 3.668-7.128 7.521-14.175 11.6-21.098z" fill="#7dbe3b"/><path d="m234.026 348.078c-1.175 2.071-2.421 4.09-3.637 6.14-3.338 5.645-6.377 11.456-9.292 17.338-8.458 17.091-15.267 35.109-20.593 53.425-7.283 25.023-12.331 50.613-15.391 76.491-.412 3.503-.804 7.015-1.144 10.528h-49.428c2.885-11.023 6.119-21.953 9.632-32.77 7.881-24.24 17.389-48.068 29.072-70.742 8.54-16.576 18.028-32.698 29.061-47.749 4.172-5.687 8.437-11.311 13.021-16.679 1.566-1.844 3.132-3.678 4.708-5.511 2.751-3.194 7.253-4.306 11.013-2.081 4.029 2.379 5.255 7.592 2.978 11.61z" fill="#9bd069"/><path d="m362.808 512h-43.394c-.449-10.066-1.281-20.108-2.471-30.108-2.479-20.898-6.547-41.564-12.429-61.771-4.301-14.784-9.8-29.342-16.639-43.144-2.346-4.742-4.8-9.434-7.496-14.001-.982-1.647-1.988-3.286-2.937-4.958-1.839-3.236-.849-7.446 2.404-9.376 3.028-1.789 6.672-.898 8.893 1.689 1.273 1.473 2.537 2.962 3.802 4.443 3.702 4.334 7.146 8.877 10.516 13.477 8.91 12.155 16.572 25.166 23.469 38.552 9.426 18.311 17.113 37.553 23.469 57.129 5.126 15.747 9.502 31.812 12.813 48.068z" fill="#7dbe3b"/><path d="m370.606 416.286v95.714h-37.787c2.328-8.901 4.945-17.729 7.778-26.465 6.367-19.573 14.041-38.817 23.478-57.124 2.101-4.08 4.275-8.128 6.531-12.125z" fill="#7dbe3b"/><path d="m422.558 379.623c-.949 1.672-1.955 3.303-2.937 4.958-2.695 4.559-5.15 9.251-7.504 14.001-6.83 13.802-12.329 28.352-16.63 43.144-5.882 20.208-9.958 40.873-12.429 61.771-.333 2.828-.649 5.665-.924 8.502h-39.916c2.329-8.902 4.942-17.729 7.779-26.464 6.364-19.575 14.043-38.818 23.477-57.129 6.897-13.386 14.559-26.406 23.469-38.56 3.369-4.592 6.814-9.135 10.516-13.469 1.265-1.489 2.529-2.97 3.802-4.451 2.221-2.579 5.857-3.478 8.893-1.681 3.252 1.923 4.242 6.133 2.404 9.378z" fill="#9bd069"/></g></svg>