<svg id="Capa_1" enable-background="new 0 0 512 512" height="512" viewBox="0 0 512 512" width="512" xmlns="http://www.w3.org/2000/svg"><g><path d="m163.267 90.551s-31.954-65.898-115.763-90.551c0 0-95.324 144.64 23.982 216.123" fill="#985e33"/><path d="m71.485 216.123 41.305-56.502-1.1-4.491c0-60.983-64.188-155.128-64.188-155.128s-95.316 144.64 23.983 216.121z" fill="#e4936b"/><path d="m78.039 129.064c-2.196 0-4.378-.931-5.906-2.74l-25.124-29.739c-2.754-3.26-2.344-8.135.916-10.889 3.26-2.755 8.135-2.344 10.889.916l25.124 29.739c2.754 3.26 2.344 8.135-.916 10.889-1.451 1.226-3.222 1.824-4.983 1.824z" fill="#dd6938"/><path d="m62.116 153.396h-20.547c-4.267 0-7.727-3.459-7.727-7.727 0-4.267 3.459-7.727 7.727-7.727h20.547c4.267 0 7.727 3.459 7.727 7.727s-3.46 7.727-7.727 7.727z" fill="#dd6938"/><path d="m348.733 90.551s31.954-65.898 115.763-90.551c0 0 95.324 144.64-23.982 216.123" fill="#985e33"/><path d="m440.515 216.123-41.305-56.502 1.1-4.491c0-60.983 64.188-155.128 64.188-155.128s95.316 144.64-23.983 216.121z" fill="#e4936b"/><path d="m458.332 240.654c-8.424-13.834-14.128-29.103-17.818-44.874-16.711-71.426-92.964-125.377-184.516-125.377-91.553 0-167.806 53.951-184.517 125.377-3.69 15.772-9.394 31.04-17.818 44.875-15.295 25.119-23.906 53.479-23.906 83.497 0 102.967 101.291 186.439 226.241 186.439 124.949 0 226.241-83.472 226.241-186.439 0-30.019-8.611-58.379-23.907-83.498z" fill="#c17d4f"/><path d="m254.404 510.579c-124.216-.705-224.648-83.897-224.648-186.423 0-30.019 8.61-58.379 23.91-83.502 8.423-13.838 14.128-29.107 17.81-44.874 16.712-71.429 92.974-125.379 184.526-125.379-49.894 0-91.459 53.95-100.566 125.378-2.002 15.767-5.114 31.036-9.709 44.874-8.33 25.123-13.029 53.483-13.029 83.502 0 102.154 54.344 185.127 121.706 186.424z" fill="#985e33"/><g fill="#f9f6f9"><path d="m157.813 399.852c-37.322 52.431-105.394 49.403-138.587 19.696 1.826 12.076 5.72 24.048 11.86 35.411 28.535 52.808 94.477 72.485 147.285 43.95s72.485-94.476 43.95-147.285c-6.14-11.363-14.02-21.182-23.121-29.327 6.66 44.046-14.068 39.177-41.387 77.555z"/><path d="m354.183 399.852c37.322 52.431 105.394 49.403 138.587 19.696-1.826 12.076-5.72 24.048-11.86 35.411-28.535 52.808-94.477 72.485-147.285 43.95s-72.485-94.476-43.95-147.285c6.14-11.363 14.02-21.182 23.121-29.327-6.659 44.046 14.069 39.177 41.387 77.555z"/></g><g><path d="m178.369 498.912c-52.809 28.536-118.75 8.859-147.286-43.95-6.141-11.358-10.031-23.339-11.856-35.413 8.029 7.178 18.09 12.8 29.262 16.462 32.395 39.127 88.927 51.274 135.315 26.202 25.434-13.744 43.193-36.181 51.574-61.636.955 39.562-19.801 78.232-57.009 98.335z" fill="#dfdde2"/></g><g><path d="m333.622 498.912c52.809 28.536 118.75 8.859 147.286-43.95 6.141-11.358 10.031-23.339 11.856-35.413-8.029 7.178-18.09 12.8-29.262 16.462-32.395 39.127-88.927 51.274-135.315 26.202-25.434-13.744-43.193-36.181-51.574-61.636-.955 39.562 19.801 78.232 57.009 98.335z" fill="#dfdde2"/></g><ellipse cx="255.998" cy="359.274" fill="#e4936b" rx="112.868" ry="93.011"/><g fill="#384649"><circle cx="193.073" cy="357.832" r="22.617"/><circle cx="318.923" cy="357.832" r="22.617"/></g><g fill="#282528"><path d="m132.932 206.828c-12.997 0-23.57 15.803-23.57 35.227s10.574 35.227 23.57 35.227 23.57-15.803 23.57-35.227-10.573-35.227-23.57-35.227z"/><path d="m376.996 206.828c-12.997 0-23.57 15.803-23.57 35.227s10.574 35.227 23.57 35.227 23.57-15.803 23.57-35.227-10.573-35.227-23.57-35.227z"/></g><g fill="#dd6938"><path d="m433.961 129.064c-1.761 0-3.531-.599-4.983-1.824-3.26-2.754-3.67-7.628-.916-10.889l25.124-29.739c2.754-3.26 7.628-3.67 10.889-.916 3.26 2.754 3.67 7.628.916 10.889l-25.124 29.739c-1.528 1.809-3.71 2.74-5.906 2.74z"/><path d="m470.431 153.396h-20.547c-4.267 0-7.727-3.459-7.727-7.727 0-4.267 3.459-7.727 7.727-7.727h20.547c4.267 0 7.727 3.459 7.727 7.727s-3.46 7.727-7.727 7.727z"/></g></g></svg>