<svg id="Capa_1" enable-background="new 0 0 512 512" height="512" viewBox="0 0 512 512" width="512" xmlns="http://www.w3.org/2000/svg"><g><ellipse cx="98.813" cy="93.739" fill="#665e66" rx="78.709" ry="106.661" transform="matrix(.707 -.707 .707 .707 -37.342 97.327)"/><path d="m14.295 30.07c32.364-19.148 82.502-7.961 119.33 28.867 36.818 36.828 48.005 86.966 28.867 119.33 4.246-2.508 8.19-5.547 11.749-9.106 30.73-30.741 21.885-89.422-19.772-131.079-41.646-41.645-100.338-50.501-131.068-19.761-3.559 3.56-6.598 7.504-9.106 11.749z" fill="#454045"/><ellipse cx="91.69" cy="111.104" fill="#454045" rx="42.136" ry="57.099" transform="matrix(.707 -.707 .707 .707 -51.707 97.376)"/><g fill="#665e66"><path d="m106.135 109.899c-1.466 0-2.95-.417-4.264-1.288l-19.663-13.032c-3.558-2.358-4.531-7.155-2.173-10.714 2.359-3.558 7.156-4.531 10.714-2.173l19.664 13.033c3.558 2.358 4.531 7.155 2.173 10.714-1.488 2.244-3.945 3.46-6.451 3.46z"/><path d="m91.117 127.78c-.299 0-.601-.017-.905-.053l-13.782-1.608c-4.24-.495-7.277-4.333-6.782-8.573s4.336-7.275 8.573-6.782l13.782 1.608c4.24.495 7.277 4.333 6.782 8.573-.459 3.937-3.8 6.835-7.668 6.835z"/><ellipse cx="413.187" cy="93.739" rx="106.661" ry="78.709" transform="matrix(.707 -.707 .707 .707 54.736 319.623)"/></g><path d="m497.705 30.07c-32.364-19.148-82.502-7.961-119.33 28.867-36.818 36.828-48.005 86.966-28.867 119.33-4.246-2.508-8.19-5.547-11.749-9.106-30.73-30.741-21.885-89.422 19.772-131.079 41.646-41.646 100.339-50.502 131.069-19.762 3.558 3.561 6.597 7.505 9.105 11.75z" fill="#454045"/><ellipse cx="420.31" cy="111.104" fill="#454045" rx="57.099" ry="42.136" transform="matrix(.707 -.707 .707 .707 44.544 329.746)"/><path d="m458.986 241.194c-8.451-13.879-14.173-29.197-17.875-45.019-16.765-71.657-93.263-125.782-185.111-125.782s-168.347 54.125-185.111 125.781c-3.702 15.822-9.424 31.14-17.875 45.019-15.344 25.2-23.983 53.651-23.983 83.766-.001 103.3 101.617 187.041 226.969 187.041s226.97-83.741 226.97-187.04c0-30.115-8.639-58.567-23.984-83.766z" fill="#665e66"/><path d="m254.401 511.988c-124.617-.708-225.372-84.167-225.372-187.024 0-30.116 8.637-58.567 23.987-83.772 8.45-13.882 14.173-29.2 17.868-45.018 16.765-71.658 93.273-125.782 185.12-125.782-50.055 0-91.753 54.124-100.89 125.782-2.009 15.818-5.131 31.136-9.741 45.018-8.356 25.204-13.071 53.655-13.071 83.772 0 102.482 54.52 185.723 122.099 187.024z" fill="#454045"/><g fill="#282528"><path d="m132.537 207.259c-13.039 0-23.646 15.854-23.646 35.34s10.608 35.34 23.646 35.34 23.646-15.854 23.646-35.34-10.607-35.34-23.646-35.34z"/><path d="m377.388 207.259c-13.039 0-23.646 15.854-23.646 35.34s10.608 35.34 23.646 35.34 23.646-15.854 23.646-35.34-10.608-35.34-23.646-35.34z"/></g><path d="m365.847 390.047c0 51.965-25.055 79.133-61.468 90.429-14.594 4.524-31.012 6.503-48.379 6.503-17.985 0-34.96-2.123-49.935-6.998-35.568-11.585-59.912-38.711-59.912-89.935 0-72.816 49.183-131.841 109.847-131.841s109.847 59.026 109.847 131.842z" fill="#f1d0a5"/><path d="m246.056 291.19h18.156v177.02h-18.156z" fill="#f1b986"/><path d="m256.004 486.98c-60.669 0-109.85-24.122-109.85-96.936 0-72.429 48.66-131.214 108.893-131.828-40.335.916-72.886 59.587-72.886 131.828-.001 72.814 33.06 96.936 73.843 96.936z" fill="#f1b986"/><path d="m304.379 480.476c-14.594 4.524-31.012 6.503-48.379 6.503-17.985 0-34.96-2.123-49.935-6.998l6.05-6.05c15.367-15.377 26.972-33.816 34.197-53.882 1.319-3.669 4.772-6.132 8.668-6.132 1.948 0 3.782.618 5.298 1.69 1.515 1.072 2.711 2.608 3.37 4.442 7.225 20.067 18.82 38.505 34.176 53.882z" fill="#f1b986"/><path d="m295.453 482.888c-12.244 2.824-25.54 4.091-39.453 4.091-14.573 0-28.477-1.381-41.185-4.514l14.244-14.254c9.314-9.323 16.35-20.5 20.728-32.665.8-2.223 2.891-3.717 5.254-3.717 2.363 0 4.455 1.493 5.255 3.717 4.377 12.165 11.404 23.342 20.718 32.665l14.264 14.254z" fill="#da4a54"/><path d="m276.276 245.592h-42.283c-20.971 0-37.971 17-37.971 37.971 0 20.971 17 37.971 37.971 37.971h42.283c20.971 0 37.971-17 37.971-37.971 0-20.97-17-37.971-37.971-37.971z" fill="#454045"/><g fill="#f1b986"><g><path d="m309.326 371.309c-3.363 0-6.421-2.284-7.393-5.492-.979-3.228.305-6.801 3.106-8.669 5.752-3.838 13.498 1.602 11.777 8.327-.865 3.377-3.996 5.834-7.49 5.834z"/><path d="m332.474 394.354c-6.925 0-10.316-8.819-5.19-13.451 2.552-2.306 6.414-2.634 9.32-.801 2.618 1.651 4.014 4.802 3.48 7.85-.642 3.656-3.887 6.402-7.61 6.402z"/><path d="m309.326 404.775c-3.509 0-6.636-2.45-7.495-5.846-.762-3.013.428-6.317 2.956-8.133 5.588-4.012 13.456 1.002 12.114 7.764-.709 3.571-3.934 6.215-7.575 6.215z"/></g><g><path d="m202.674 371.309c-7.007 0-10.352-9.023-5.046-13.585 2.712-2.332 6.768-2.481 9.646-.358 2.398 1.769 3.581 4.884 2.962 7.799-.748 3.523-3.946 6.144-7.562 6.144z"/><path d="m179.525 394.354c-3.08 0-5.977-1.914-7.143-4.772-1.322-3.24-.281-7.058 2.527-9.148 5.576-4.151 13.623.962 12.178 7.782-.748 3.532-3.946 6.138-7.562 6.138z"/><path d="m202.674 404.775c-3.378 0-6.401-2.264-7.392-5.482-.954-3.099.221-6.606 2.854-8.497 5.86-4.208 14.022 1.512 11.943 8.459-.969 3.235-4.023 5.52-7.405 5.52z"/></g></g><path d="m405.865 109.899c-2.505 0-4.963-1.216-6.45-3.46-2.359-3.558-1.386-8.355 2.173-10.714l19.664-13.033c3.559-2.359 8.355-1.386 10.714 2.173 2.359 3.558 1.386 8.355-2.173 10.714l-19.664 13.033c-1.315.87-2.798 1.287-4.264 1.287z" fill="#665e66"/><path d="m420.883 127.78c-3.869 0-7.209-2.898-7.668-6.835-.495-4.24 2.541-8.079 6.782-8.573l13.782-1.608c4.234-.498 8.079 2.541 8.573 6.782.495 4.24-2.541 8.079-6.782 8.573l-13.782 1.608c-.304.036-.606.053-.905.053z" fill="#665e66"/></g></svg>