<svg id="Capa_1" enable-background="new 0 0 512 512" height="512" viewBox="0 0 512 512" width="512" xmlns="http://www.w3.org/2000/svg"><g><path d="m431.336 270.678c27.149-16.476 45.288-46.317 45.288-80.394 0-51.9-42.074-93.974-93.974-93.974h-2.331v-2.331c0-51.9-42.074-93.974-93.974-93.974-51.9 0-93.974 42.073-93.974 93.974v2.331h-2.331c-51.9 0-93.974 42.074-93.974 93.974 0 34.077 18.139 63.918 45.288 80.394-45.357 6.676-80.174 45.751-80.174 92.963 0 51.9 42.074 93.974 93.974 93.974h262.382c51.9 0 93.974-42.074 93.974-93.974 0-47.212-34.817-86.288-80.174-92.963z" fill="#9bd069"/><path d="m286.351 0c-12.547 0-23.9 10.518-32.121 27.526-8.221 16.998-13.31 40.496-13.31 66.446v2.328h-1.123c-25.095 0-45.431 42.083-45.431 93.983 0 17.039 2.194 33.017 6.026 46.801 3.832 13.773 9.302 25.353 15.865 33.594-21.932 6.675-38.755 45.75-38.755 92.963 0 25.95 5.089 49.438 13.299 66.446 8.221 17.008 19.584 27.526 32.121 27.526h-67.765c-25.95 0-49.438-10.518-66.446-27.526s-27.526-40.496-27.526-66.446c0-47.213 34.82-86.287 80.168-92.963-13.567-8.241-24.899-19.821-32.821-33.594-7.932-13.784-12.465-29.762-12.465-46.801 0-51.9 42.072-93.983 93.972-93.983h2.339v-2.328c0-25.95 10.518-49.448 27.526-66.446 16.999-17.008 40.497-27.526 66.447-27.526z" fill="#7dbe3b"/><path d="m326.684 386.237 20.716 125.763h-122.106l14.505-88.069 58.133-14.505-51.344-26.754 27.516-167.073h24.487l15.164 92.108 43.628-33.203 13.196 13.197z" fill="#c17d4f"/><path d="m239.799 423.931 41.341-10.312-1.618 98.381h-54.228z" fill="#985e33"/><path d="m284.405 215.599-3.049 185.184-34.768-18.111 27.516-167.073z" fill="#985e33"/><g><path d="m111.319 293.18-26.154-26.154c-6.571-6.571-6.571-17.226 0-23.797l11.786-11.786c6.571-6.571 17.226-6.571 23.797 0l26.154 26.154z" fill="#f1f4f6"/><path d="m74.927 355.227c9.73-1.138 18.791-5.525 25.717-12.452l22.77-22.77-9.248-23.977-23.976-9.248-85.564 85.564c-5.512 5.512-5.512 14.447 0 19.959 5.512 5.512 14.447 5.512 19.959 0l24.625-24.625c6.926-6.926 15.987-11.313 25.717-12.451z" fill="#c17d4f"/><path d="m11.531 396.091c-2.535-.554-4.939-1.821-6.906-3.788-5.514-5.514-5.514-14.445 0-19.959l85.563-85.563 23.98 9.251 2.979 7.714-16.266-6.272-85.563 85.563c-3.539 3.541-4.799 8.502-3.787 13.054z" fill="#985e33"/><path d="m141.77 381.485-18.355-61.48 14.713-28.004 35.598-22.308 61.48 18.356z" fill="#f1f4f6"/><path d="m108.465 242.661h46.987v71.152h-46.987z" fill="#d0e2e7" transform="matrix(.707 .707 -.707 .707 235.393 -11.815)"/></g><g fill="#c17d4f"><path d="m167.271 416.483c-3.084 0-5.997-1.859-7.193-4.902-1.561-3.972.393-8.456 4.365-10.017l32.22-12.663c3.969-1.561 8.456.393 10.017 4.365s-.393 8.456-4.365 10.017l-32.22 12.663c-.928.364-1.884.537-2.824.537z"/><path d="m199.482 443.332c-1.232 0-2.48-.295-3.642-.917-3.762-2.015-5.177-6.698-3.162-10.459l10.068-18.795c2.016-3.762 6.699-5.177 10.459-3.162 3.762 2.015 5.177 6.698 3.162 10.459l-10.068 18.795c-1.393 2.6-4.061 4.079-6.817 4.079z"/></g></g></svg>