<svg id="Capa_1" enable-background="new 0 0 512 512" height="512" viewBox="0 0 512 512" width="512" xmlns="http://www.w3.org/2000/svg"><g><path d="m470.482 316.683h-428.964c-22.93 0-41.518-18.589-41.518-41.519v-41.824c0-22.93 18.588-41.518 41.518-41.518h428.963c22.93 0 41.518 18.588 41.518 41.518v41.824c.001 22.93-18.587 41.519-41.517 41.519z" fill="#dfdde2"/><path d="m312.97 483.791c-37.98 1.29-75.96 1.29-113.94 0-83.076-2.821-149.847-69.659-152.766-152.731-1.758-50.04-1.758-100.08 0-150.12 2.918-83.072 69.69-149.91 152.766-152.731 37.98-1.29 75.96-1.29 113.94 0 83.076 2.821 149.848 69.658 152.766 152.731 1.758 50.04 1.758 100.08 0 150.12-2.919 83.072-69.69 149.91-152.766 152.731z" fill="#665e66"/><path d="m299.715 483.794c2.215.072 4.419.144 6.634.206-35.778 1.082-71.546 1.01-107.314-.206-83.084-2.823-149.85-69.661-152.776-152.735-1.751-50.036-1.751-100.082 0-150.118 2.926-83.074 69.692-149.912 152.776-152.735 35.768-1.216 71.536-1.288 107.314-.206-2.215.062-4.419.134-6.634.206-83.074 2.823-149.85 69.661-152.766 152.735-1.751 50.036-1.751 100.082 0 150.118 2.915 83.074 69.692 149.912 152.766 152.735z" fill="#454045"/><path d="m425.547 215.967c0 50.736-41.135 91.872-91.872 91.872-32.688 0-61.388-17.07-77.676-42.794-16.287 25.724-44.988 42.794-77.676 42.794-11.332 0-22.18-2.05-32.203-5.81-34.851-13.042-59.668-46.657-59.668-86.061 0-44.02 30.967-80.807 72.298-89.78 6.305-1.37 12.857-2.091 19.573-2.091 32.688 0 61.388 17.07 77.676 42.794 16.287-25.724 44.988-42.794 77.676-42.794 50.737-.001 91.872 41.134 91.872 91.87z" fill="#f1f1f4"/><path d="m146.945 180.941c-1.411 40.363-1.69 80.725-.824 121.087-34.851-13.042-59.668-46.657-59.668-86.061 0-44.02 30.967-80.807 72.298-89.78-6.985 16.967-11.126 35.428-11.806 54.754z" fill="#f9f6f9"/><g fill="#282528"><path d="m156.437 165.529c-12.908 0-23.409 15.694-23.409 34.985s10.501 34.985 23.409 34.985c12.907 0 23.408-15.694 23.408-34.985s-10.501-34.985-23.408-34.985z"/><path d="m357.619 165.529c-12.908 0-23.409 15.694-23.409 34.985s10.501 34.985 23.409 34.985c12.907 0 23.408-15.694 23.408-34.985s-10.501-34.985-23.408-34.985z"/></g><path d="m386.895 336.952v18.193c0 2.143-.072 4.265-.227 6.366-3.266 47.615-42.928 85.217-91.367 85.217h-78.603c-48.439 0-88.101-37.602-91.367-85.217-.154-2.102-.227-4.224-.227-6.366v-18.193c0-33.357 17.832-62.553 44.493-78.562 3.719-22.561 23.344-39.817 46.935-39.817 16.411 0 30.916 8.355 39.466 21.047 8.551-12.692 23.055-21.047 39.466-21.047 23.591 0 43.216 17.256 46.935 39.817 26.663 16.009 44.496 45.204 44.496 78.562z" fill="#f9f6f9"/><path d="m206.891 414.786c-4.675-17.247 9.364-44.108 33.959-44.108 0 0-48.912 1.34-31.808-31.808 0 0-11.631-11.969-10.338-28.581 3.007-21.908 9.619-40.34 18.306-51.898 1.308-17.565 6.964-31.915 14.433-37.416-4.687-1.556-9.704-2.4-14.907-2.4-23.591 0-43.216 17.256-46.935 39.817-26.651 16.009-44.493 45.204-44.493 78.561v18.193c0 50.582 41.012 91.583 91.594 91.583h21.562c-12.549-.001-23.791-12.389-31.373-31.943z" fill="#dfdde2"/><g fill="#454045"><circle cx="216.529" cy="266.149" r="20.792"/><circle cx="295.471" cy="266.149" r="20.792"/></g><path d="m386.895 345.585v9.56c0 2.143-.072 4.265-.227 6.366-85.701-23.076-175.636-23.076-261.337 0-.154-2.102-.227-4.224-.227-6.366v-9.56c85.929-22.448 175.863-22.448 261.791 0z" fill="#c6c1c8"/><path d="m310.466 381.332c-.301.001-.603-.017-.908-.053-35.537-4.159-71.577-4.159-107.115 0-4.242.495-8.075-2.537-8.572-6.776-.496-4.238 2.537-8.076 6.776-8.572 36.73-4.299 73.978-4.299 110.708 0 4.238.496 7.272 4.334 6.776 8.572-.462 3.934-3.8 6.829-7.665 6.829z" fill="#dfdde2"/></g></svg>