<svg id="Capa_1" enable-background="new 0 0 512 512" height="512" viewBox="0 0 512 512" width="512" xmlns="http://www.w3.org/2000/svg"><g><path d="m512 111.97c0 5.378-.958 10.539-2.709 15.308-2.235 6.078-5.769 11.528-10.261 16.019-8.025 8.025-19.089 12.98-31.328 12.98h-423.404c-19.089 0-35.356-12.073-41.588-28.999-1.752-4.769-2.71-9.93-2.71-15.308 0-12.239 4.955-23.303 12.97-31.328 8.025-8.015 19.089-12.97 31.328-12.97h423.404c24.467 0 44.298 19.831 44.298 44.298z" fill="#dd6938"/><path d="m509.291 127.278c-2.235 6.078-5.769 11.528-10.261 16.019-8.025 8.025-19.089 12.98-31.328 12.98h-423.404c-19.089 0-35.356-12.073-41.588-28.999 2.235-6.078 5.769-11.538 10.261-16.03 8.025-8.015 19.089-12.97 31.328-12.97h423.404c19.089.001 35.355 12.075 41.588 29z" fill="#e4936b"/><path d="m468.695 327.208c-.992-50.163-3.112-100.326-6.359-150.488-5.323-82.225-70.065-148.034-152.149-155.205-36.082-3.152-72.163-3.152-108.245 0-82.085 7.17-146.827 72.979-152.15 155.205-3.394 52.43-5.556 104.86-6.486 157.289" fill="#f1d0a5"/><path d="m256.003 19.151c-7.397 0-14.793.783-22.19 2.359-33.677 7.18-60.245 72.988-62.429 155.207-1.37 51.767-2.256 103.523-2.637 155.279l-125.445 2.009c.927-52.426 3.091-104.852 6.49-157.288 5.316-82.219 70.063-148.027 152.147-155.207 18.018-1.576 36.046-2.359 54.064-2.359z" fill="#f1b986"/><g fill="#282528"><path d="m134.805 157.598c-12.908 0-23.409 15.694-23.409 34.985s10.501 34.985 23.409 34.985c12.907 0 23.408-15.694 23.408-34.985s-10.501-34.985-23.408-34.985z"/><path d="m377.195 157.598c-12.908 0-23.409 15.694-23.409 34.985s10.501 34.985 23.409 34.985c12.907 0 23.408-15.694 23.408-34.985s-10.501-34.985-23.408-34.985z"/></g><path d="m492.004 391.84c-.731 8.365-2.431 16.452-4.965 24.127-.814 2.462-1.71 4.873-2.689 7.253-.989 2.4-2.071 4.759-3.235 7.067-1.978 3.946-4.193 7.747-6.634 11.384-17.781 26.548-47.193 44.545-80.972 46.729-91.676 5.934-183.341 5.934-275.017 0-33.78-2.184-63.191-20.181-80.972-46.729-2.442-3.637-4.656-7.438-6.634-11.384-1.164-2.308-2.246-4.667-3.235-7.067-.979-2.38-1.875-4.79-2.689-7.253-2.534-7.675-4.234-15.762-4.965-24.127-1.999-22.901-1.999-45.792 0-68.692 4.553-52.096 46.317-93.18 98.496-96.559 14.35-.927 28.701-1.7 43.041-2.339 8.736-10.734 22.036-17.616 36.932-17.616 13.949 0 26.517 6.037 35.232 15.638 14.866-.155 29.741-.155 44.607 0 8.715-9.601 21.284-15.638 35.232-15.638 14.896 0 28.196 6.882 36.932 17.616 14.34.639 28.691 1.411 43.041 2.339 52.179 3.379 93.942 44.463 98.496 96.559 1.997 22.9 1.997 45.791-.002 68.692z" fill="#e4936b"/><path d="m484.35 423.218c-2.689 6.511-6.006 12.682-9.869 18.451-140.28-44.308-143.679-5.821-218.481-5.821s-78.201-38.488-218.481 5.821c-3.863-5.769-7.18-11.94-9.869-18.451 150.025-49.284 151.838-9.004 228.35-9.004s78.325-40.279 228.35 9.004z" fill="#dd6938"/><path d="m198.467 206.632c6.573 0 12.836 1.35 18.543 3.76-58.796 0-80.066 62.676-82.414 116.4-1.03 23.612-1.03 47.234 0 70.846 1.896 43.433 16.308 79.458 35.943 93.489-17.348-.7-34.697-1.607-52.045-2.73-52.179-3.379-93.942-44.463-98.496-96.559-1.999-22.901-1.999-45.791 0-68.693 4.553-52.096 46.317-93.18 98.496-96.559 14.35-.927 28.701-1.7 43.041-2.339 8.736-10.733 22.035-17.615 36.932-17.615z" fill="#dd6938"/><g fill="#f9f6f9"><path d="m166.745 403.368v29.504c0 13.516-10.961 24.477-24.487 24.477h-19.306c-13.526 0-24.477-10.961-24.477-24.477v-21.984l19.275-10.127z"/><path d="m413.525 410.898v21.974c0 13.516-10.951 24.477-24.477 24.477h-19.306c-13.526 0-24.487-10.961-24.487-24.477v-29.504z"/></g><g fill="#dfdde2"><path d="m117.75 400.762 48.995 2.606v12.074c-17.183-2.143-37.89-1.947-68.27 4.141v-8.695z"/><path d="m413.525 410.898v8.685c-30.38-6.089-51.087-6.284-68.27-4.141v-12.074z"/><g><path d="m142.227 457.348h-19.275c-13.526 0-24.477-10.961-24.477-24.477v-21.984l19.275-10.125v32.109c0 13.516 10.951 24.477 24.477 24.477z"/><path d="m364.53 403.367v29.505c0 13.516 10.961 24.477 24.487 24.477h-19.275c-13.526 0-24.487-10.961-24.487-24.477v-29.505z"/></g></g><g fill="#454045"><circle cx="198.462" cy="254.206" r="20.792"/><circle cx="313.538" cy="254.206" r="20.792"/></g><path d="m487.039 415.967c-.814 2.462-1.71 4.873-2.689 7.253-.989 2.4-2.071 4.759-3.235 7.067-99.649-32.636-131.822-24.838-165.869-16.586-16.73 4.049-34.027 8.241-59.246 8.241s-42.516-4.193-59.246-8.241c-34.058-8.252-66.22-16.05-165.869 16.586-1.164-2.308-2.246-4.667-3.235-7.067-.979-2.38-1.875-4.79-2.689-7.253l.278-.093c104.481-34.315 138.807-26.002 175.151-17.194 15.854 3.843 32.234 7.809 55.609 7.809s39.755-3.966 55.609-7.809c36.345-8.808 70.67-17.122 175.151 17.194z" fill="#dd542e"/></g></svg>