<svg id="Capa_1" enable-background="new 0 0 512 512" height="512" viewBox="0 0 512 512" width="512" xmlns="http://www.w3.org/2000/svg"><g><path d="m60.715 200.2c8.131-15.488 13.636-32.582 17.197-50.238 16.128-79.963 89.725-140.363 178.088-140.363 88.364 0 161.96 60.4 178.089 140.363 3.561 17.657 9.066 34.75 17.197 50.238 14.762 28.121 23.073 59.871 23.073 93.477 0 115.275-97.763 208.724-218.359 208.724s-218.359-93.449-218.359-208.724c0-33.606 8.311-65.356 23.074-93.477z" fill="#665e66"/><path d="m255.984 502.4c-120.59-.01-218.343-93.458-218.343-208.722 0-33.609 8.31-65.356 23.077-93.478 8.129-15.488 13.636-32.578 17.19-50.238 16.058-79.623 89.093-139.843 176.955-140.353-47.645.931-87.201 61.011-95.921 140.353-1.942 17.66-4.946 34.75-9.371 50.238-8.049 28.123-12.575 59.869-12.575 93.478 0 115.263 53.272 208.712 118.988 208.722z" fill="#454045"/><g fill="#f9f6f9"><path d="m195.815 371.335c-1.639 39.629 19.792 74.125 11.264 85.917-4.311 5.205-19.471 3.025-34.81-11.864-15.118-14.369-30.414-41.447-29.893-74.053-.521-32.605 14.775-59.684 29.893-74.053 15.339-14.889 30.499-17.068 34.81-11.864 8.528 11.792-12.903 46.288-11.264 85.917z"/><path d="m316.185 371.335c1.639 39.629-19.792 74.125-11.264 85.917 4.311 5.205 19.471 3.025 34.81-11.864 15.118-14.369 30.414-41.447 29.893-74.053.521-32.605-14.775-59.684-29.893-74.053-15.339-14.889-30.499-17.068-34.81-11.864-8.528 11.792 12.903 46.288 11.264 85.917z"/></g><g fill="#dfdde2"><path d="m194.411 445.384c4.655 4.515 9.281 7.869 13.606 10.192-.25.601-.571 1.161-.941 1.672-4.305 5.196-19.473 3.024-34.81-11.864-15.117-14.377-30.405-41.448-29.885-74.056-.521-32.608 14.767-59.689 29.885-74.056 15.338-14.887 30.505-17.07 34.81-11.864.37.511.691 1.071.941 1.672-4.325 2.323-8.95 5.677-13.606 10.192-15.118 14.367-30.415 41.448-29.895 74.056-.52 32.608 14.778 59.679 29.895 74.056z"/><path d="m326.124 455.576c-9.931 5.336-18.201 5.296-21.205 1.672-8.53-11.794 12.905-46.294 11.263-85.92 1.642-39.626-19.793-74.126-11.263-85.92 3.003-3.624 11.273-3.664 21.205 1.672-5.767 13.145 13.766 46.354 12.204 84.248 1.562 37.894-17.971 71.102-12.204 84.248z"/></g><circle cx="256" cy="341.764" fill="#454045" r="43.146"/><path d="m303.035 218.721c4.355-.591 8.82-.891 13.366-.891 47.045 0 85.189 32.538 85.189 72.684s-38.144 72.684-85.189 72.684c-23.607 0-44.972-8.2-60.4-21.435-15.428 13.235-36.793 21.435-60.41 21.435-47.045 0-85.179-32.538-85.179-72.684s38.134-72.684 85.179-72.684c4.545 0 9.01.3 13.365.891" fill="#e4936b"/><path d="m182.144 290.514c0 34.35 14.157 63.133 33.199 70.722-6.337 1.282-12.955 1.962-19.753 1.962-47.045 0-85.179-32.538-85.179-72.684s38.134-72.684 85.179-72.684c4.545 0 9.01.3 13.365.891h9.641c-20.653 5.457-36.452 35.511-36.452 71.793z" fill="#dd6938"/><g fill="#282528"><path d="m137.221 144.146c-12.544 0-22.749 15.252-22.749 34s10.205 34 22.749 34 22.749-15.252 22.749-34-10.205-34-22.749-34z"/><path d="m372.783 144.146c-12.544 0-22.749 15.252-22.749 34s10.205 34 22.749 34c12.543 0 22.749-15.252 22.749-34s-10.206-34-22.749-34z"/></g><ellipse cx="256" cy="232.396" fill="#454045" rx="51.302" ry="34.239"/><g fill="#f9f6f9"><path d="m504.5 274.137c-.756 0-1.525-.115-2.285-.358-76.44-24.422-159.02-.209-159.845.039-3.966 1.188-8.147-1.06-9.339-5.026-1.191-3.966 1.055-8.145 5.02-9.339 3.545-1.067 87.753-25.833 168.73.038 3.945 1.26 6.122 5.481 4.861 9.427-1.018 3.186-3.967 5.219-7.142 5.219z"/><path d="m455.021 306.119c-1.004 0-2.023-.203-3.002-.631-39.135-17.122-87.677-7.717-88.162-7.619-4.059.809-8.012-1.824-8.824-5.886-.811-4.062 1.824-8.012 5.886-8.824 2.172-.433 53.7-10.406 97.113 8.587 3.794 1.66 5.525 6.082 3.865 9.877-1.233 2.817-3.987 4.496-6.876 4.496z"/><path d="m498.121 390.492c-2.441 0-4.834-1.19-6.275-3.383-38.852-59.137-150.787-63.985-151.913-64.027-4.139-.154-7.37-3.635-7.215-7.774.154-4.139 3.647-7.386 7.774-7.215 1.223.045 30.34 1.223 65.034 10.296 47.366 12.387 80.625 32.737 98.855 60.484 2.274 3.462 1.312 8.112-2.15 10.386-1.268.834-2.697 1.233-4.11 1.233z"/><g><path d="m7.5 274.137c-3.175 0-6.124-2.033-7.142-5.219-1.261-3.946.916-8.166 4.861-9.427 80.977-25.87 165.185-1.104 168.73-.038 3.966 1.193 6.214 5.376 5.02 9.343-1.193 3.966-5.375 6.21-9.339 5.021-.825-.248-83.406-24.46-159.845-.039-.76.243-1.529.359-2.285.359z"/><path d="m56.979 306.119c-2.889 0-5.643-1.679-6.875-4.496-1.66-3.795.07-8.217 3.865-9.877 43.412-18.993 94.94-9.02 97.113-8.587 4.062.812 6.697 4.762 5.886 8.824-.811 4.061-4.758 6.696-8.821 5.887-.662-.13-49.223-9.418-88.165 7.619-.979.428-1.999.63-3.003.63z"/><path d="m13.879 390.492c-1.413 0-2.842-.399-4.111-1.233-3.462-2.274-4.424-6.924-2.15-10.386 18.23-27.748 51.489-48.098 98.855-60.484 34.694-9.073 63.812-10.25 65.034-10.296 4.155-.174 7.62 3.076 7.774 7.215.155 4.138-3.074 7.618-7.212 7.774-1.126.043-113.12 4.977-151.916 64.027-1.439 2.193-3.833 3.383-6.274 3.383z"/></g></g></g></svg>