<svg id="Capa_1" enable-background="new 0 0 512 512" height="512" viewBox="0 0 512 512" width="512" xmlns="http://www.w3.org/2000/svg"><g><path d="m467.562 400.172v-85.322s-40.837 134.287-110.036 176.216l8.334-67.808s-22.376 77.801-109.861 88.742c-87.485-10.941-109.861-88.742-109.861-88.742l8.334 67.808c-69.197-41.929-110.034-176.216-110.034-176.216v85.321c-28.042-41.063-44.433-90.698-44.433-144.166 0-141.385 114.61-256.005 255.995-256.005s255.995 114.62 255.995 256.005c0 53.468-16.391 103.103-44.433 144.167z" fill="#c17d4f"/><path d="m256 512c-87.485-10.941-109.861-88.742-109.861-88.742l8.334 67.808c-69.198-41.929-110.035-176.216-110.035-176.216v85.321c-28.042-41.063-44.433-90.698-44.433-144.166 0-141.385 114.61-256.005 255.995-256.005-86.032 0-217.383 179.863-127.539 372.212l7.881-27.754s44.659 140.427 119.658 167.542z" fill="#985e33"/><path d="m327.922 138.696c-17.519.035-33.951 4.701-48.137 12.839-14.68 8.422-32.891 8.422-47.571 0-14.186-8.139-30.619-12.805-48.139-12.84-52.098-.103-95.429 41.431-97.405 93.492-2.105 55.453 42.225 101.069 97.209 101.069 28.602 0 54.321-12.346 72.12-31.997 17.8 19.651 43.518 31.997 72.12 31.997 54.985 0 99.315-45.618 97.209-101.071-1.976-52.059-45.308-93.593-97.406-93.489z" fill="#f1d0a5"/><path d="m168.969 332.117c-47.853-7.356-84.198-49.594-82.293-99.93 1.793-47.008 37.293-85.435 82.519-92.368-26.713 21.82-44.299 54.508-45.7 91.317-1.545 40.703 16.504 77.265 45.474 100.981z" fill="#f1b986"/><g fill="#282528"><path d="m171.884 207.9c-12.908 0-23.409 15.695-23.409 34.986s10.501 34.986 23.409 34.986c12.907 0 23.409-15.695 23.409-34.986 0-19.292-10.501-34.986-23.409-34.986z"/><path d="m340.116 207.9c-12.908 0-23.409 15.695-23.409 34.986s10.501 34.986 23.409 34.986c12.907 0 23.409-15.695 23.409-34.986 0-19.292-10.502-34.986-23.409-34.986z"/></g><path d="m338.653 340.394v8.128c0 15.226-6.634 28.908-17.173 38.313-4.378 3.915-9.426 7.078-14.959 9.303-5.934 2.411-12.424 3.729-19.213 3.729h-62.616c-6.789 0-13.279-1.318-19.213-3.729-5.532-2.225-10.58-5.388-14.959-9.303-10.539-9.406-17.173-23.087-17.173-38.313v-8.128c0-28.351 22.994-51.335 51.345-51.335h62.616c28.351 0 51.345 22.984 51.345 51.335z" fill="#f9f6f9"/><path d="m271.208 399.861h-46.514c-28.351 0-51.345-22.984-51.345-51.345v-8.118c0-28.361 22.994-51.345 51.345-51.345h46.514c-28.351 0-51.345 22.984-51.345 51.345v8.118c0 28.361 22.994 51.345 51.345 51.345z" fill="#dfdde2"/><path d="m321.48 386.836c-4.378 3.915-9.426 7.078-14.959 9.303l-30.309-17.05c-8.489-4.78-15.391-11.641-20.213-19.739-4.821 8.097-11.724 14.958-20.213 19.739l-30.309 17.05c-5.532-2.225-10.58-5.388-14.959-9.303l37.695-21.212c12.373-6.964 20.058-20.109 20.058-34.306v-19.254c0-4.265 3.461-7.727 7.727-7.727 4.265 0 7.727 3.462 7.727 7.727v19.254c0 14.196 7.685 27.342 20.058 34.306z" fill="#c6c1c8"/><g><path d="m438.081 21.192c-30.121 0-54.54 24.418-54.54 54.54v42.993h66.087c23.744 0 42.992-19.248 42.992-42.992 0-30.123-24.418-54.541-54.539-54.541z" fill="#f1d0a5"/><path d="m73.919 21.192c30.121 0 54.54 24.418 54.54 54.54v42.993h-66.087c-23.744 0-42.992-19.248-42.992-42.992 0-30.123 24.418-54.541 54.539-54.541z" fill="#f1d0a5"/><path d="m91.648 118.722h-29.278c-23.746 0-42.99-19.244-42.99-42.99 0-15.062 6.099-28.702 15.968-38.571s23.509-15.968 38.571-15.968c5.069 0 9.983.69 14.639 1.988-9.179 2.545-17.379 7.428-23.932 13.98-9.869 9.869-15.968 23.509-15.968 38.57 0 23.747 19.244 42.991 42.99 42.991z" fill="#f1b986"/></g><g><path d="m451.287 22.809c-23.746 5.893-41.352 27.352-41.352 52.922v42.99h-26.394v-42.991c0-30.123 24.416-54.539 54.539-54.539 4.554 0 8.983.557 13.207 1.618z" fill="#f1b986"/></g><path d="m272.966 312.071h-33.931c-12.712 0-23.017-10.305-23.017-23.017 0-12.712 10.305-23.017 23.017-23.017h33.931c12.712 0 23.017 10.305 23.017 23.017 0 12.712-10.305 23.017-23.017 23.017z" fill="#665e66"/><path d="m259.76 312.069h-20.728c-12.713 0-23.015-10.302-23.015-23.015 0-6.357 2.576-12.115 6.738-16.277 4.172-4.162 9.921-6.738 16.277-6.738h20.728c-6.356 0-12.105 2.576-16.277 6.738-4.162 4.162-6.737 9.921-6.737 16.277-.001 12.713 10.301 23.015 23.014 23.015z" fill="#454045"/></g></svg>