<svg id="Capa_1" enable-background="new 0 0 512 512" height="512" viewBox="0 0 512 512" width="512" xmlns="http://www.w3.org/2000/svg"><g><path d="m393.014 152.591c118.82 0 87.668-151.555 87.668-151.555-71.986-11.923-121.157 82.994-121.157 82.994h-207.05s-49.17-94.917-121.156-82.994c0 0-31.152 151.555 87.668 151.555" fill="#c17d4f"/><path d="m382.802 104.576s27.89-43.087 64.299-43.087c0 0 19.457 65.246-68.979 79.311" fill="#985e33"/><path d="m129.198 104.576s-27.89-43.087-64.299-43.087c0 0-19.457 65.246 68.979 79.311" fill="#985e33"/><path d="m192.96 475.367c12.482 21.883 36.035 36.633 63.04 36.633 26.995 0 50.548-14.75 63.041-36.633l-63.694-33.262z" fill="#c17d4f"/><path d="m374.203 399.235h-236.406c0-35.958-47.927-81.487-31.993-153.196 5.014-22.557 7.775-46.941 10.37-69.788 5.668-49.785 10.557-92.221 36.301-92.221 37.557 0 69.384 17.46 103.525 17.46s65.968-17.46 103.525-17.46 30.726 90.3 46.671 162.01c15.935 71.707-31.993 117.236-31.993 153.195z" fill="#c17d4f"/><path d="m221.308 324.328-75.519 74.906h-7.993c0-35.958-47.927-81.487-31.993-153.196 5.014-22.557 7.775-46.941 10.37-69.788.001 0 105.135-44.533 105.135 148.078z" fill="#985e33"/><path d="m290.692 324.328 75.519 74.906h7.993c0-35.958 47.927-81.487 31.993-153.196-5.014-22.557-7.775-46.941-10.37-69.788-.001 0-105.135-44.533-105.135 148.078z" fill="#ce9875"/><g fill="#282528"><path d="m133.879 197.635c-13.006 0-23.588 15.814-23.588 35.252s10.582 35.252 23.588 35.252 23.587-15.814 23.587-35.252-10.581-35.252-23.587-35.252z"/><path d="m378.121 197.635c-13.006 0-23.588 15.814-23.588 35.252s10.581 35.252 23.588 35.252c13.006 0 23.587-15.814 23.587-35.252.001-19.438-10.581-35.252-23.587-35.252z"/></g><path d="m307.296 321.923c-12.676 0-24.525 4.076-34.626 11.154-10.038 7.034-23.304 7.034-33.341 0-10.1-7.078-21.95-11.154-34.625-11.154-36.953 0-66.909 34.616-66.909 77.316s29.956 77.316 66.909 77.316c2.207 0 4.39-.124 6.542-.365 29.776-3.342 59.732-3.342 89.508 0 2.153.242 4.335.365 6.543.365 36.953 0 66.908-34.616 66.908-77.316s-29.956-77.316-66.909-77.316z" fill="#f1d0a5"/><path d="m224.255 474.945c-4.339.342-8.678.758-13.017 1.246-2.149.249-4.329.374-6.54.374-36.955 0-66.903-34.619-66.903-77.325 0-42.695 29.948-77.314 66.903-77.314 5.73 0 11.294.83 16.609 2.408-28.92 8.533-50.294 38.844-50.294 74.906 0 37.286 22.848 68.417 53.242 75.705z" fill="#f1b986"/><g fill="#454045"><circle cx="198.023" cy="399.239" r="20.95"/><circle cx="313.977" cy="399.239" r="20.95"/></g><path d="m313.986 88.482c.446.602 20.211 27.405 5.055 71.532l-26.014-18.809s-10.329 55.37-37.028 67.069c-2.087-.914-4.069-2.097-5.958-3.498-22.287-16.516-31.069-63.571-31.069-63.571l-26.014 18.809c-15.156-44.128 4.609-70.93 5.055-71.532l-25.671 13.993c0-34.796 15.83-64.224 36.965-82.276 14.233-12.156 30.873-19.153 46.693-19.153 23.958 0 49.785 16.038 66.301 41.751 10.588 16.474 17.356 36.934 17.356 59.678z" fill="#665e66"/><path d="m322.301 42.797c-16.516-25.713-42.343-41.751-66.301-41.751-.375 0-.748.022-1.121.043.373-.028.747-.043 1.121-.043-39.311 0-83.657 43.194-83.657 101.428l25.671-13.993c-.446.602-20.211 27.405-5.055 71.532l26.014-18.809s8.782 47.055 31.069 63.571c-10.391-44.751-7.848-100.204-7.848-100.204l-23.221 6.488c-1.781-14.236-1.713-28.49-.233-41.797 5.237-39.108 64.198-42.166 103.561-26.465z" fill="#454045"/></g></svg>