<svg id="Capa_1" enable-background="new 0 0 512 512" height="512" viewBox="0 0 512 512" width="512" xmlns="http://www.w3.org/2000/svg"><g><path d="m157.243 386.64c0 18.8 6.879 42.126 18.569 63.531 18.128 33.22 47.85 61.829 81.438 61.829 34.669 0 65.222-30.489 83.16-65.064 10.639-20.501 16.846-42.431 16.846-60.296" fill="#dd542e"/><path d="m406.688 196.383c120.217 0 88.699-153.338 88.699-153.338-72.832-12.063-122.581 83.97-122.581 83.97" fill="#e4936b"/><path d="m396.356 147.802s28.218-43.594 65.055-43.594c0 0 19.686 66.013-69.791 80.244" fill="#dd6938"/><path d="m139.194 127.015s-49.749-96.033-122.581-83.97c0 0-31.518 153.338 88.699 153.338" fill="#e4936b"/><path d="m115.644 147.802s-28.218-43.594-65.055-43.594c0 0-19.686 66.013 69.791 80.244" fill="#dd6938"/><path d="m152.349 119.19 94.471.578v358.005c-26.005-1.975-50.234-12.225-71.009-27.601-49.562-36.665-79.526-102.454-67.238-154.484 18.044-76.396-34.501-103.504 18.044-156.059 8.119-8.12 16.826-14.862 25.732-20.439z" fill="#f1b986"/><path d="m403.426 295.687c11.942 50.528-15.996 114.049-63.016 151.249-20.491 16.216-44.605 27.433-70.63 30.395v-357.427l91.867.567c8.213 5.314 16.227 11.648 23.736 19.157 52.544 52.555 0 79.663 18.043 156.059z" fill="#f1d0a5"/><path d="m368.022 45.681-21.499 66.156c4.401 2.195 8.78 4.642 13.128 7.352.042.032.084.063.126.084.62.399 1.25.798 1.869 1.197l-49.667 126.2c-10.996 27.926-4.138 60.002 17.96 80.303 16.93 15.555 27.317 36.56 27.317 59.666 0 17.865-6.207 39.795-16.846 60.296-1.386 1.103-2.794 2.185-4.222 3.235-23.2 17.172-50.707 27.958-80.188 27.958s-56.977-10.786-80.188-27.958c0 0 0-.01-.011-.01-11.679-21.405-18.558-44.72-18.558-63.52 0-23.106 10.387-44.111 27.328-59.666 22.087-20.302 28.945-52.377 17.959-80.303l-50.181-127.481c4.337-2.72 8.728-5.167 13.128-7.362l-21.489-66.146c-1.166-3.581-1.722-7.215-1.722-10.786 0-14.714 9.379-28.389 24.125-33.178 18.327-5.955 38.009 4.075 43.964 22.402l22.445 69.086c14.095-1.292 23.2-.641 23.2-.641s8.927-.641 22.77.598c.137.011.284.032.431.042l22.455-69.087c5.954-18.326 25.636-28.356 43.964-22.401 18.327 5.955 28.357 25.637 22.402 43.964z" fill="#e4936b"/><path d="m345.62 1.717c-20.393-7.001-34.981 53.174-40.924 83.198-1.469 7.422-9.014 11.954-16.253 9.755-2.858-.868-6.001-1.464-9.242-1.464l22.455-69.087c5.954-18.327 25.636-28.357 43.964-22.402z" fill="#dd6938"/><path d="m256 478.129c-29.481 0-56.977-10.786-80.188-27.958 0 0 0-.01-.011-.01-11.679-21.405-18.558-44.72-18.558-63.52 0-23.106 10.387-44.111 27.328-59.666 22.087-20.302 28.945-52.377 17.959-80.303l-50.181-127.482c4.337-2.72 8.728-5.167 13.128-7.362l-21.489-66.146c-1.166-3.581-1.722-7.215-1.722-10.786 0-14.714 9.379-28.389 24.125-33.178-18.318 6.229 9.392 62.519 23.602 88.929 3.935 7.313 4.625 15.943 1.881 23.782-2.541 7.257-4.06 18.38.501 33.37 8.843 29.072 65.904 106.571 43.145 160.46s-26.225 153.601 20.48 169.87z" fill="#dd6938"/><g fill="#454045"><circle cx="212.756" cy="383.342" r="21.197"/><circle cx="301.744" cy="383.342" r="21.197"/></g><g fill="#282528"><path d="m132.445 197.132c-13.159 0-23.865 16-23.865 35.667s10.706 35.667 23.865 35.667 23.865-16 23.865-35.667-10.706-35.667-23.865-35.667z"/><path d="m379.561 197.132c-13.159 0-23.865 16-23.865 35.667s10.706 35.667 23.865 35.667 23.865-16 23.865-35.667-10.706-35.667-23.865-35.667z"/></g></g></svg>