<svg id="Capa_1" enable-background="new 0 0 512 512" height="512" viewBox="0 0 512 512" width="512" xmlns="http://www.w3.org/2000/svg"><g><path d="m256.001 10.525c80.087 0 147.826 59.236 158.505 138.607l20.566 152.852c9.635 71.612 35.988 139.951 76.928 199.492l-118.724-42.54-68.638 42.54-68.638-42.54-68.638 42.54-68.638-42.54-118.722 42.539c40.939-59.541 67.292-127.88 76.928-199.492l20.566-152.852c10.679-79.371 78.418-138.606 158.505-138.606z" fill="#f9f6f9"/><path d="m255.103 10.529c-32.451 1.071-59.771 59.956-64.118 138.6l-8.427 152.858c-1.978 35.809-5.666 70.793-10.961 104.274-4.162 26.331-9.323 51.736-15.432 75.873l-37.436-23.2-118.729 42.537c20.469-29.772 37.292-61.738 50.2-95.209 12.918-33.481 21.912-68.466 26.733-104.274l20.562-152.858c10.643-79.067 77.913-138.158 157.608-138.601z" fill="#dfdde2"/><g fill="#282528"><path d="m167.364 135.171c-12.908 0-23.409 15.694-23.409 34.985 0 19.29 10.501 34.985 23.409 34.985 12.907 0 23.408-15.694 23.408-34.985s-10.501-34.985-23.408-34.985z"/><path d="m343.608 135.172c-12.908 0-23.409 15.694-23.409 34.985s10.501 34.985 23.409 34.985c12.907 0 23.408-15.694 23.408-34.985.001-19.291-10.501-34.985-23.408-34.985z"/></g><path d="m301.823 203.42c0 17.863 10.085 31.307 17.925 48.12 8.283 17.76-4.708 38.127-24.312 38.127h-22.375-34.119-22.375c-19.604 0-32.595-20.367-24.312-38.127 7.84-16.812 17.925-30.256 17.925-48.12" fill="#ecc32e"/><path d="m210.181 203.422c0 41.541 17.636 78.958 45.821 105.192 28.185-26.234 45.82-63.65 45.82-105.192 0-4.825-.238-9.595-.703-14.297-5.414-54.778-84.822-54.778-90.236 0-.465 4.702-.702 9.472-.702 14.297z" fill="#f6e738"/><path d="m245.926 203.42c0 41.547 3.873 78.963 10.075 105.191-28.186-26.229-45.822-63.644-45.822-105.191 0-4.821.237-9.591.7-14.299 2.709-27.382 23.921-41.084 45.122-41.084-4.667 0-9.333 13.701-9.921 41.084-.103 4.708-.154 9.478-.154 14.299z" fill="#ecc32e"/><g fill="#c6c1c8"><path d="m188.827 143.153c-78.603 0-109.906-48.229-111.201-50.283-2.276-3.61-1.194-8.381 2.416-10.656 3.602-2.271 8.36-1.198 10.641 2.392.135.208 7.192 10.988 22.663 21.593 20.814 14.267 46.209 21.501 75.48 21.501 4.267 0 7.726 3.459 7.726 7.726s-3.457 7.727-7.725 7.727z"/><path d="m323.175 143.153c-4.267 0-7.726-3.459-7.726-7.726s3.459-7.726 7.726-7.726c70.169 0 97.857-42.639 98.128-43.069 2.275-3.609 7.047-4.691 10.656-2.416 3.61 2.275 4.692 7.046 2.417 10.656-1.295 2.052-32.598 50.281-111.201 50.281z"/></g></g></svg>