<svg id="Capa_1" enable-background="new 0 0 512 512" height="512" viewBox="0 0 512 512" width="512" xmlns="http://www.w3.org/2000/svg"><g><path d="m366.884 94.612c-73.922-3.047-147.845-3.047-221.767 0-74.249 3.06-133.656 62.525-136.899 136.766-.946 21.652-1.377 43.305-1.294 64.957.403 104.783 84.092 190.476 188.849 192.821 40.151.899 80.302.899 120.453 0 104.757-2.345 188.446-88.039 188.849-192.821.083-21.652-.348-43.305-1.294-64.957-3.242-74.241-62.649-133.706-136.897-136.766z" fill="#c17d4f"/><path d="m248.007 489.82c-17.41-.052-34.82-.278-52.23-.659-104.759-2.349-188.451-88.04-188.853-192.83-.082-21.644.35-43.299 1.298-64.953 3.235-74.245 62.645-133.707 136.891-136.767 21.15-.876 42.299-1.494 63.459-1.855-56.454 20.006-97.311 72.731-100.061 135.479-.989 22.787-1.442 45.586-1.36 68.373.339 90.112 59.204 166.798 140.856 193.212z" fill="#985e33"/><path d="m333.027 181.95v139.682s-14.227 72.545-77.027 85.969c-.979-.206-1.947-.433-2.905-.669-60.338-15-74.121-85.299-74.121-85.299l-14.814-128.392 88.935 6.47 2.905.206z" fill="#f6e738"/><path d="m253.095 199.711v207.221c-60.338-15-74.121-85.299-74.121-85.299l-14.814-128.392z" fill="#ecc32e"/><circle cx="141.01" cy="251.79" fill="#f1d0a5" r="79.478"/><circle cx="370.99" cy="251.79" fill="#f1d0a5" r="79.478"/><path d="m141.011 338.995c-48.085 0-87.205-39.12-87.205-87.205s39.12-87.205 87.205-87.205 87.204 39.12 87.204 87.205-39.12 87.205-87.204 87.205zm0-158.957c-39.564 0-71.752 32.188-71.752 71.752s32.188 71.752 71.752 71.752 71.752-32.188 71.752-71.752-32.189-71.752-71.752-71.752z" fill="#985e33"/><path d="m370.99 338.995c-48.086 0-87.205-39.12-87.205-87.205s39.12-87.205 87.205-87.205 87.204 39.12 87.204 87.205-39.12 87.205-87.204 87.205zm0-158.957c-39.564 0-71.753 32.188-71.753 71.752s32.188 71.752 71.753 71.752 71.752-32.188 71.752-71.752-32.188-71.752-71.752-71.752z" fill="#985e33"/><g fill="#282528"><path d="m141.011 216.428c-12.908 0-23.41 15.863-23.41 35.362 0 19.498 10.502 35.361 23.41 35.361s23.41-15.863 23.41-35.361-10.502-35.362-23.41-35.362z"/><path d="m370.99 216.428c-12.908 0-23.41 15.863-23.41 35.362 0 19.498 10.502 35.361 23.41 35.361s23.409-15.863 23.409-35.361-10.501-35.362-23.409-35.362z"/></g><path d="m512 22.17v45.688c0 48.439-30.72 91.563-76.512 107.376l-179.488 62.006-179.488-62.006c-45.792-15.813-76.512-58.937-76.512-107.376v-45.688l127.392 88.451 128.608 89.296z" fill="#665e66"/><path d="m127.392 110.621s-62.594-5.316-50.881 64.613c-45.791-15.813-76.511-58.937-76.511-107.376v-45.688z" fill="#454045"/></g></svg>