<svg id="Capa_1" enable-background="new 0 0 512 512" height="512" viewBox="0 0 512 512" width="512" xmlns="http://www.w3.org/2000/svg"><g><ellipse cx="98.813" cy="93.739" fill="#665e66" rx="78.709" ry="106.661" transform="matrix(.707 -.707 .707 .707 -37.342 97.327)"/><path d="m14.295 30.07c32.364-19.148 82.502-7.961 119.33 28.867 36.818 36.828 48.005 86.966 28.867 119.33 4.246-2.508 8.19-5.547 11.749-9.106 30.73-30.741 21.885-89.422-19.772-131.079-41.646-41.645-100.338-50.501-131.068-19.761-3.559 3.56-6.598 7.504-9.106 11.749z" fill="#454045"/><ellipse cx="91.69" cy="111.104" fill="#454045" rx="42.136" ry="57.099" transform="matrix(.707 -.707 .707 .707 -51.707 97.376)"/><g fill="#665e66"><path d="m106.136 109.895c-1.466 0-2.948-.416-4.262-1.287l-19.664-13.033c-3.556-2.357-4.529-7.152-2.172-10.709 2.358-3.556 7.152-4.53 10.709-2.172l19.664 13.033c3.556 2.357 4.529 7.152 2.172 10.709-1.486 2.244-3.943 3.459-6.447 3.459z"/><path d="m91.118 127.777c-.3 0-.602-.017-.905-.053l-13.783-1.608c-4.238-.494-7.274-4.331-6.779-8.569.494-4.239 4.343-7.267 8.569-6.779l13.783 1.609c4.238.494 7.274 4.331 6.779 8.569-.459 3.933-3.798 6.831-7.664 6.831z"/><ellipse cx="413.187" cy="93.739" rx="106.661" ry="78.709" transform="matrix(.707 -.707 .707 .707 54.736 319.623)"/></g><path d="m497.705 30.07c-32.364-19.148-82.502-7.961-119.33 28.867-36.818 36.828-48.005 86.966-28.867 119.33-4.246-2.508-8.19-5.547-11.749-9.106-30.73-30.741-21.885-89.422 19.772-131.079 41.646-41.646 100.339-50.502 131.069-19.762 3.558 3.561 6.597 7.505 9.105 11.75z" fill="#454045"/><ellipse cx="420.31" cy="111.104" fill="#454045" rx="57.099" ry="42.136" transform="matrix(.707 -.707 .707 .707 44.544 329.746)"/><path d="m458.986 241.194c-8.451-13.879-14.173-29.197-17.875-45.019-16.765-71.657-93.263-125.782-185.111-125.782s-168.347 54.125-185.111 125.781c-3.702 15.822-9.424 31.14-17.875 45.019-15.344 25.2-23.983 53.651-23.983 83.766-.001 103.3 101.617 187.041 226.969 187.041s226.97-83.741 226.97-187.04c0-30.115-8.639-58.567-23.984-83.766z" fill="#f9f6f9"/><ellipse cx="256" cy="293.786" fill="#665e66" rx="53.326" ry="35.589"/><g fill="#c6c1c8"><path d="m225.73 411.779c-10.137 0-19.677-3.951-26.864-11.124-7.181-7.182-11.134-16.724-11.134-26.874v-9.616c0-4.267 3.459-7.726 7.726-7.726s7.726 3.459 7.726 7.726v9.616c0 6.023 2.345 11.685 6.604 15.943 4.264 4.257 9.928 6.603 15.942 6.603 12.432 0 22.546-10.114 22.546-22.546v-44.404c0-4.267 3.459-7.726 7.726-7.726s7.726 3.459 7.726 7.726v44.404c.001 20.952-17.045 37.998-37.998 37.998z"/><path d="m286.265 411.779c-20.947 0-37.988-17.046-37.988-37.999v-44.404c0-4.267 3.459-7.726 7.726-7.726s7.726 3.459 7.726 7.726v44.404c0 12.432 10.11 22.546 22.535 22.546 6.023 0 11.685-2.345 15.943-6.603 4.261-4.252 6.604-9.912 6.604-15.943v-9.616c0-4.267 3.459-7.726 7.726-7.726s7.726 3.459 7.726 7.726v9.616c0 10.163-3.954 19.707-11.134 26.874-7.171 7.173-16.714 11.125-26.864 11.125z"/></g><path d="m273.979 327.294c-5.609 1.353-11.666 2.081-17.972 2.081-29.45 0-53.333-15.932-53.333-35.59s23.883-35.59 53.333-35.59c6.306 0 12.363.729 17.972 2.081-20.615 4.912-35.361 18.055-35.361 33.509s14.746 28.597 35.361 33.509z" fill="#454045"/><path d="m254.401 511.988c-124.617-.708-225.372-84.167-225.372-187.024 0-30.116 8.637-58.567 23.987-83.772 8.45-13.882 14.173-29.2 17.868-45.018 16.765-71.658 93.273-125.782 185.12-125.782-50.055 0-91.753 54.124-100.89 125.782-2.009 15.818-5.131 31.136-9.741 45.018-8.356 25.204-13.071 53.655-13.071 83.772 0 102.482 54.52 185.723 122.099 187.024z" fill="#dfdde2"/><g fill="#665e66"><path d="m182.711 303.132c-13.768 13.768-32.166 28.066-50.034 36.464-24.434 11.489-47.849 11.957-56.996-15.037-10.719-31.667-11.166-74.437 21.427-107.03 17.774-17.774 39.419-28.024 59.254-29.825 16.546-1.509 31.823 2.851 42.573 13.601 23.642 23.633 16.379 69.223-16.224 101.827z"/><path d="m329.286 303.127c-32.599-32.599-39.862-78.188-16.224-101.827s69.228-16.375 101.827 16.224 32.15 75.366 21.427 107.03c-15.827 46.737-74.431 11.172-107.03-21.427z"/></g><path d="m156.361 187.704c-.468 2.789-.885 5.619-1.249 8.471-2.008 15.818-5.13 31.136-9.741 45.018-8.356 25.204-13.07 53.655-13.07 83.772 0 4.922.125 9.803.375 14.631-24.434 11.489-47.849 11.957-56.996-15.037-10.719-31.667-11.166-74.437 21.427-107.03 17.775-17.775 39.42-28.025 59.254-29.825z" fill="#454045"/><g fill="#282528"><path d="m153.35 217.665c-13.039 0-23.646 15.854-23.646 35.34s10.608 35.34 23.646 35.34 23.646-15.854 23.646-35.34-10.608-35.34-23.646-35.34z"/><path d="m356.575 217.665c-13.039 0-23.646 15.854-23.646 35.34s10.608 35.34 23.646 35.34 23.646-15.854 23.646-35.34-10.608-35.34-23.646-35.34z"/></g><path d="m405.864 109.895c-2.504 0-4.961-1.215-6.448-3.459-2.357-3.557-1.384-8.352 2.172-10.709l19.664-13.033c3.558-2.359 8.352-1.385 10.709 2.172s1.384 8.352-2.172 10.709l-19.664 13.033c-1.313.871-2.795 1.287-4.261 1.287z" fill="#665e66"/><path d="m420.882 127.777c-3.866 0-7.205-2.897-7.664-6.831-.495-4.238 2.54-8.075 6.779-8.569l13.783-1.609c4.229-.488 8.075 2.541 8.569 6.779.495 4.238-2.54 8.075-6.779 8.569l-13.783 1.608c-.303.036-.606.053-.905.053z" fill="#665e66"/></g></svg>