<svg id="Capa_1" enable-background="new 0 0 512 512" height="512" viewBox="0 0 512 512" width="512" xmlns="http://www.w3.org/2000/svg"><g><path d="m256 213.906-200.741-158.868 18.707-23.638c24.34-30.756 69.005-35.956 99.76-11.616l89.365 70.724c30.756 24.34 35.956 69.005 11.616 99.76z" fill="#9bd069"/><path d="m321.004 213.907-3.348 14.082-10.415 43.876-3.667 15.452-43.67 15.381-43.679-15.381-3.668-15.452-10.415-43.876-3.348-14.082 65.736-18.028z" fill="#c17d4f"/><path d="m307.241 271.865-3.667 15.452-43.67 15.381-43.679-15.381-3.668-15.452z" fill="#985e33"/><path d="m321.004 287.317-13.763 57.958-3.667 15.453-43.67 17.482-43.679-17.482-3.668-15.453-13.763-57.958z" fill="#c17d4f"/><path d="m307.241 345.275-3.667 15.453-43.67 17.482-43.679-17.482-3.668-15.453z" fill="#985e33"/><path d="m321.004 360.728-13.763 57.958-3.667 15.453-47.574 17.863-39.775-17.863-3.668-15.453-13.763-57.958z" fill="#c17d4f"/><path d="m307.241 418.686-3.667 15.453-47.574 17.863-39.775-17.863-3.668-15.453z" fill="#985e33"/><path d="m303.576 507.549h-87.349l-17.433-73.411h122.215z" fill="#c17d4f"/><g fill="#985e33"><path d="m245.183 287.317h-28.959l-17.43-73.411h40.506z"/><path d="m245.183 360.727h-28.959l-17.43-73.41h40.506z"/><path d="m245.183 434.138h-28.959l-17.43-73.411h40.506z"/><path d="m245.183 507.549h-28.959l-17.43-73.411h40.506z"/></g><path d="m256 213.906 200.741-158.868-18.707-23.638c-24.34-30.756-69.005-35.956-99.76-11.616l-89.365 70.724c-30.756 24.34-35.956 69.005-11.616 99.76z" fill="#7dbe3b"/><path d="m321.004 213.907-3.348 14.082h-115.514l-3.348-14.082 65.736-18.028z" fill="#985e33"/><path d="m512 183.763v30.143h-88.513l-15.896-55.073-17.441 55.073-20.387-55.073-15.896 55.073h-97.867v-30.143c0-39.219 31.791-71.021 71.021-71.021h113.959c39.229 0 71.02 31.802 71.02 71.021z" fill="#9bd069"/><path d="m184.982 112.743h-113.964c-39.222 0-71.018 31.796-71.018 71.018v30.145h57.181l15.898-55.071 15.898 55.071h167.023v-30.145c0-39.222-31.796-71.018-71.018-71.018z" fill="#7dbe3b"/></g></svg>