<svg id="Capa_1" enable-background="new 0 0 512 512" height="512" viewBox="0 0 512 512" width="512" xmlns="http://www.w3.org/2000/svg"><g><path d="m164.271 91.2s-31.608-65.185-114.511-89.572c0 0-94.292 143.075 23.722 213.784" fill="#665e66"/><path d="m73.482 215.417 6.772-9.255 34.086-46.635-1.088-4.443c0-30.136-15.843-68.439-31.695-99.242-15.894-30.875-31.798-54.208-31.798-54.208s-94.286 143.076 23.723 213.783z" fill="#f9f6f9"/><path d="m64.031 184.737c5.664 11.082 11.082 17.925 16.222 21.424l34.086-46.635-1.088-4.443c0-30.136-15.843-68.439-31.695-99.242-20.674 22.4-48.789 67.752-17.525 128.896z" fill="#dfdde2"/><g fill="#665e66"><path d="m72.95 121.076c-2.196 0-4.377-.931-5.905-2.74l-17.838-21.113c-2.755-3.26-2.344-8.134.916-10.888 3.258-2.754 8.134-2.344 10.887.915l17.839 21.113c2.754 3.26 2.343 8.134-.917 10.888-1.449 1.226-3.221 1.825-4.982 1.825z"/><path d="m58.39 137.709c-.606 0-1.22-.072-1.835-.221l-14.269-3.476c-4.146-1.01-6.688-5.19-5.678-9.336s5.188-6.688 9.336-5.679l14.269 3.476c4.146 1.01 6.688 5.19 5.678 9.336-.86 3.531-4.021 5.9-7.501 5.9z"/><path d="m347.734 91.2s31.608-65.185 114.511-89.572c0 0 94.292 143.075-23.722 213.784"/></g><path d="m438.523 215.417-6.772-9.255-34.086-46.635 1.088-4.443c0-30.136 15.843-68.439 31.695-99.242 15.894-30.875 31.798-54.208 31.798-54.208s94.286 143.076-23.723 213.783z" fill="#f9f6f9"/><path d="m447.973 184.737c-5.664 11.082-11.082 17.925-16.222 21.424l-34.086-46.635 1.088-4.443c0-30.136 15.843-68.439 31.695-99.242 20.675 22.4 48.79 67.752 17.525 128.896z" fill="#dfdde2"/><path d="m439.054 121.076c-1.762 0-3.531-.599-4.982-1.824-3.26-2.754-3.67-7.629-.917-10.888l17.837-21.113c2.754-3.26 7.629-3.67 10.888-.915 3.26 2.754 3.67 7.628.917 10.888l-17.837 21.113c-1.527 1.808-3.709 2.739-5.906 2.739z" fill="#665e66"/><path d="m453.615 137.709c-3.481 0-6.641-2.368-7.501-5.899-1.01-4.146 1.532-8.326 5.678-9.336l14.268-3.476c4.153-1.011 8.326 1.533 9.336 5.678 1.01 4.146-1.532 8.326-5.678 9.336l-14.268 3.476c-.615.149-1.23.221-1.835.221z" fill="#665e66"/><path d="m469.736 375.894s20.121 56.803 10.056 106.948c0 0-24.831-33.491-45.722-50.062 0 0-2.011 64.325-46.43 77.592 0 0 3.519-17.812-5.325-37.062-35.954 20.285-79.449 32.167-126.31 32.167-13.544 0-26.801-.995-39.678-2.894h-.01c-31.696-4.679-61.062-14.847-86.621-29.274-8.845 19.249-5.325 37.062-5.325 37.062-44.429-13.267-46.43-77.592-46.43-77.592-20.901 16.571-45.732 50.062-45.732 50.062-10.056-50.144 10.055-106.948 10.055-106.948l-42.264 32.733s69.835-198.955 73.487-214.552c11.923-50.944 54.454-92.9 111.206-112.334 21.958-7.531 46.05-11.687 71.312-11.687s49.354 4.155 71.312 11.687c56.752 19.434 99.283 61.39 111.206 112.334 3.653 15.597 73.477 214.552 73.477 214.552z" fill="#665e66"/><path d="m216.317 502.584c-31.696-4.679-61.062-14.847-86.621-29.274-8.845 19.249-5.325 37.062-5.325 37.062-44.429-13.267-46.43-77.592-46.43-77.592-20.901 16.571-45.732 50.062-45.732 50.062-10.056-50.144 10.055-106.948 10.055-106.948l-42.264 32.732s69.835-198.955 73.487-214.552c11.923-50.944 54.454-92.9 111.206-112.334 21.958-7.531 46.05-11.687 71.312-11.687-71.312 0-166.829 136.057-166.829 220.267s-11.235 108.723-11.235 108.723 25.159-7.962 43.29-43.259c-.77 1.714-16.674 37.914-6.895 95.538l24.39-32.67c-.001-.001 5.447 58.198 77.591 83.932z" fill="#454045"/><circle cx="256.465" cy="375.887" fill="#da4a54" r="68.093"/><g fill="#fff"><path d="m223.219 402.828c-.08 2.147-.072 4.318.016 6.512-1.314 31.705 15.837 59.309 9.012 68.738-3.444 4.165-15.58 2.427-27.852-9.492-12.096-11.495-24.328-33.163-23.911-59.245-.104-6.32.537-12.376 1.746-18.096"/><path d="m329.775 391.244c1.202 5.719 1.85 11.775 1.746 18.096.417 26.082-11.823 47.75-23.919 59.245-12.272 11.92-24.4 13.658-27.852 9.492-6.825-9.428 10.325-37.032 9.012-68.738.088-2.195.096-4.366.016-6.512"/></g><path d="m368.699 378.809c0 6.782-1.354 13.626-4.125 20.111-4.033 9.399-10.661 17.146-18.849 22.543-8.178 5.397-17.915 8.445-28.145 8.445-31.449 0-57.388-23.569-61.113-54.023h-.923c-3.725 30.454-29.664 54.023-61.113 54.023-10.23 0-19.967-3.048-28.145-8.445-8.188-5.397-14.816-13.144-18.849-22.543-2.77-6.485-4.125-13.328-4.125-20.111 0-12.765 4.771-25.344 13.852-35.01l46.255-49.251c42.274-49.385 24.492-169.589-18.726-212.807 21.958-7.531 46.05-11.687 71.312-11.687s49.354 4.155 71.312 11.687c-43.218 43.218-61 163.423-18.726 212.807l46.255 49.251c9.081 9.666 13.853 22.245 13.853 35.01z" fill="#f9f6f9"/><path d="m202.224 343.799c-4.94 9.67-7.54 22.25-7.54 35.01 0 6.78.74 13.63 2.24 20.11 2.2 9.4 5.8 17.15 10.26 22.54 1.87 2.28 3.9 4.13 6.04 5.52-5.93 1.91-12.24 2.93-18.8 2.93-10.23 0-19.96-3.05-28.14-8.45-8.19-5.39-14.82-13.14-18.85-22.54-2.77-6.48-4.12-13.33-4.12-20.11 0-12.76 4.77-25.34 13.85-35.01l46.25-49.25c42.28-49.39 24.5-169.59-18.72-212.81 12.04-4.13 24.72-7.24 37.89-9.21 19.47 53.14 25.97 176.59 4.81 222.02z" fill="#dfdde2"/><g fill="#c6c1c8"><g><path d="m327.951 367.897c-3.375 0-6.397-2.284-7.389-5.489-.964-3.115.241-6.636 2.894-8.521 5.479-3.892 13.244.892 12.114 7.556-.622 3.664-3.888 6.454-7.619 6.454z"/><path d="m336.377 400.74c-3.219 0-6.183-2.101-7.266-5.127-1.132-3.162-.031-6.81 2.67-8.81 2.508-1.858 5.975-2 8.637-.38 2.902 1.767 4.319 5.376 3.407 8.646-.924 3.309-4.007 5.671-7.448 5.671z"/><path d="m307.058 393.992c-3.303 0-6.295-2.185-7.336-5.31-.972-2.918-.049-6.266 2.286-8.268 5.231-4.487 13.59-.069 12.714 6.793-.486 3.808-3.805 6.785-7.664 6.785z"/></g><g><path d="m180.984 367.897c-3.443 0-6.528-2.374-7.444-5.678-.84-3.031.304-6.387 2.837-8.258 5.651-4.175 13.732 1.103 12.13 7.95-.808 3.447-3.972 5.986-7.523 5.986z"/><path d="m172.547 400.74c-6.873 0-10.309-8.753-5.232-13.416 2.287-2.101 5.728-2.626 8.533-1.296 3.033 1.439 4.835 4.77 4.341 8.099-.555 3.736-3.85 6.613-7.642 6.613z"/><path d="m201.876 393.982c-6.664 0-10.192-8.264-5.566-13.077 2.125-2.211 5.488-2.956 8.346-1.847 3.134 1.216 5.178 4.406 4.922 7.768-.303 3.984-3.696 7.156-7.702 7.156z"/></g></g><path d="m308.581 325.41c0-19.38-23.54-35.091-52.579-35.091s-52.579 15.711-52.579 35.091 23.54 50.482 52.579 50.482c29.039-.001 52.579-31.102 52.579-50.482z" fill="#454045"/><g fill="#282528"><path d="m154.789 215.264c-12.856 0-23.315 15.632-23.315 34.845s10.459 34.846 23.315 34.846 23.315-15.632 23.315-34.846-10.459-34.845-23.315-34.845z"/><path d="m355.17 215.264c-12.856 0-23.315 15.632-23.315 34.846s10.459 34.845 23.315 34.845 23.315-15.632 23.315-34.845c-.001-19.214-10.46-34.846-23.315-34.846z"/></g></g></svg>