<svg id="Capa_1" enable-background="new 0 0 512 512" height="512" viewBox="0 0 512 512" width="512" xmlns="http://www.w3.org/2000/svg"><g><ellipse cx="407.895" cy="79.567" fill="#c17d4f" rx="90.536" ry="66.81" transform="matrix(.707 -.707 .707 .707 63.207 311.73)"/><path d="m479.635 25.524c-27.471-16.253-70.029-6.757-101.289 24.503-31.252 31.26-40.747 73.818-24.503 101.289-3.604-2.129-6.952-4.708-9.973-7.729-26.084-26.093-18.576-75.903 16.783-111.262 35.35-35.35 85.169-42.867 111.253-16.774 3.021 3.021 5.6 6.369 7.729 9.973z" fill="#985e33"/><ellipse cx="413.941" cy="94.307" fill="#e4936b" rx="48.467" ry="35.765" transform="matrix(.707 -.707 .707 .707 54.556 320.323)"/><ellipse cx="104.106" cy="79.567" fill="#c17d4f" rx="66.81" ry="90.536" transform="matrix(.707 -.707 .707 .707 -25.771 96.919)"/><path d="m32.366 25.524c27.471-16.253 70.029-6.757 101.289 24.503 31.252 31.26 40.747 73.818 24.503 101.289 3.604-2.129 6.952-4.708 9.973-7.729 26.084-26.093 18.576-75.903-16.783-111.262-35.35-35.35-85.169-42.867-111.253-16.774-3.021 3.021-5.6 6.369-7.729 9.973z" fill="#985e33"/><ellipse cx="98.06" cy="94.307" fill="#e4936b" rx="35.765" ry="48.467" transform="matrix(.707 -.707 .707 .707 -37.964 96.961)"/><path d="m469.858 226.69c-8.904-14.622-14.932-30.76-18.832-47.43-17.663-75.494-98.258-132.518-195.025-132.518s-177.363 57.024-195.025 132.518c-3.9 16.67-9.929 32.808-18.833 47.43-16.166 26.549-25.268 56.525-25.268 88.253 0 108.832 107.06 197.057 239.126 197.057 132.065 0 239.125-88.225 239.125-197.057 0-31.728-9.102-61.704-25.268-88.253z" fill="#c17d4f"/><path d="m254.316 511.987c-131.291-.746-237.442-88.675-237.442-197.04 0-31.729 9.1-61.704 25.271-88.258 8.902-14.626 14.932-30.764 18.825-47.429 17.663-75.496 98.268-132.519 195.034-132.519-52.736 0-96.667 57.022-106.293 132.519-2.116 16.665-5.405 32.804-10.262 47.429-8.804 26.554-13.771 56.529-13.771 88.258 0 107.971 57.439 195.67 128.638 197.04z" fill="#985e33"/><g fill="#282528"><path d="m132.033 206.013c-13.092 0-23.743 15.918-23.743 35.485s10.651 35.485 23.743 35.485 23.743-15.919 23.743-35.485-10.651-35.485-23.743-35.485z"/><path d="m377.885 206.013c-13.092 0-23.743 15.918-23.743 35.485s10.651 35.485 23.743 35.485c13.091 0 23.743-15.919 23.743-35.485s-10.652-35.485-23.743-35.485z"/></g><path d="m292.7 479.612h-37.793l-15.487-39.172 15.487-87.668h56.389z" fill="#f9f6f9"/><path d="m217.114 479.612h37.793v-126.84h-56.389z" fill="#dfdde2"/><path d="m303.901 271.33h-48.91-48.91c-27.013 0-48.91 21.898-48.91 48.91v36.649c0 27.013 21.898 48.91 48.91 48.91 27.012 0 48.91-21.898 48.91-48.91 0 27.013 21.898 48.91 48.91 48.91 27.013 0 48.91-21.898 48.91-48.91v-36.649c0-27.012-21.898-48.91-48.91-48.91z" fill="#e4936b"/><path d="m222.743 402.891c-5.204 1.891-10.815 2.915-16.666 2.915-27.011 0-48.912-21.901-48.912-48.912v-36.655c0-27.01 21.901-48.911 48.912-48.911h33.343c-27.021 0-48.911 21.901-48.911 48.911v36.655c-.001 21.159 13.426 39.184 32.234 45.997z" fill="#dd6938"/><path d="m277.264 231.325h-44.547c-22.094 0-40.005 17.911-40.005 40.005 0 22.094 17.911 40.005 40.005 40.005h44.547c22.094 0 40.005-17.911 40.005-40.005 0-22.095-17.911-40.005-40.005-40.005z" fill="#665e66"/><path d="m243.5 299.619c7.242 7.242 17.235 11.723 28.289 11.723h-39.075c-11.044 0-21.047-4.481-28.289-11.723-7.232-7.242-11.713-17.235-11.713-28.289 0-22.087 17.905-40.002 40.002-40.002h39.075c-22.098 0-40.002 17.915-40.002 40.002 0 11.054 4.471 21.047 11.713 28.289z" fill="#454045"/></g></svg>