<svg id="Capa_1" enable-background="new 0 0 512 512" height="512" viewBox="0 0 512 512" width="512" xmlns="http://www.w3.org/2000/svg"><g><path d="m48.656 232.819v.01c-21.188 61.626-48.225 138.674-48.646 139.874l-.01.011.01-.01 42.254-32.721s-20.111 56.803-10.056 106.948c0 0 24.831-33.491 45.732-50.062 0 0 2.001 64.324 46.43 77.592 0 0-3.519-17.813 5.325-37.062 35.943 20.285 79.439 32.167 126.31 32.167 46.861 0 90.356-11.882 126.31-32.167 8.845 19.249 5.325 37.062 5.325 37.062 44.419-13.267 46.43-77.592 46.43-77.592 20.891 16.571 45.722 50.062 45.722 50.062 10.066-50.144-10.056-106.948-10.056-106.948l42.254 32.721.01.01-.01-.01c-.421-1.201-27.447-78.248-48.636-139.874" fill="#dfdde2"/><path d="m164.271 91.2s-31.608-65.185-114.511-89.572c0 0-94.292 143.075 23.722 213.784" fill="#dd6938"/><path d="m73.482 215.417 6.772-9.255 34.086-46.635-1.088-4.443c0-30.136-15.843-68.439-31.695-99.242-15.894-30.875-31.798-54.208-31.798-54.208s-94.286 143.076 23.723 213.783z" fill="#f9f6f9"/><path d="m64.031 184.737c5.664 11.082 11.082 17.925 16.222 21.424l34.086-46.635-1.088-4.443c0-30.136-15.843-68.439-31.695-99.242-20.674 22.4-48.789 67.752-17.525 128.896z" fill="#dfdde2"/><g fill="#dd6938"><path d="m86.249 127.899c-1.837 0-3.681-.651-5.156-1.975l-31.143-27.936c-3.177-2.85-3.442-7.734-.593-10.91 2.85-3.176 7.734-3.442 10.91-.593l31.144 27.937c3.177 2.85 3.442 7.734.593 10.91-1.526 1.701-3.636 2.567-5.755 2.567z"/><path d="m71.689 144.532c-.898 0-1.812-.157-2.702-.49l-27.574-10.299c-3.998-1.493-6.028-5.944-4.535-9.941 1.494-3.998 5.946-6.029 9.942-4.535l27.574 10.299c3.998 1.493 6.028 5.944 4.535 9.941-1.161 3.106-4.108 5.025-7.24 5.025z"/><path d="m347.734 91.2s31.608-65.185 114.511-89.572c0 0 94.292 143.075-23.722 213.784"/></g><path d="m438.523 215.417-6.772-9.255-34.086-46.635 1.088-4.443c0-30.136 15.843-68.439 31.695-99.242 15.894-30.875 31.798-54.208 31.798-54.208s94.286 143.076-23.723 213.783z" fill="#f9f6f9"/><path d="m447.973 184.737c-5.664 11.082-11.082 17.925-16.222 21.424l-34.086-46.635 1.088-4.443c0-30.136 15.843-68.439 31.695-99.242 20.675 22.4 48.79 67.752 17.525 128.896z" fill="#dfdde2"/><path d="m425.771 127.112c-2.155 0-4.298-.896-5.826-2.648-2.805-3.216-2.472-8.097.744-10.901l31.129-27.149c3.217-2.805 8.097-2.471 10.901.744 2.805 3.216 2.472 8.097-.744 10.901l-31.129 27.149c-1.465 1.277-3.274 1.904-5.075 1.904z" fill="#dd6938"/><path d="m440.33 143.744c-3.205 0-6.199-2.009-7.304-5.208-1.392-4.034.75-8.432 4.783-9.824l27.559-9.512c4.036-1.39 8.432.749 9.825 4.783 1.392 4.034-.749 8.432-4.783 9.824l-27.559 9.512c-.835.288-1.685.425-2.521.425z" fill="#dd6938"/><path d="m464.349 214.011c0 23.641-4.997 49.457-14.098 75.16-4.997 14.108-11.225 28.186-18.562 41.864-37 69.075-101.858 127.808-175.684 127.808-73.734 0-138.53-58.589-175.561-127.561-7.439-13.862-13.76-28.145-18.798-42.449-9.029-25.6-13.986-51.283-13.986-74.821 0-102.156 93.28-184.98 208.344-184.98s208.345 82.823 208.345 184.979z" fill="#e4936b"/><path d="m255.061 458.832c-73.344-.492-137.74-58.876-174.617-127.551-7.439-13.862-13.76-28.145-18.797-42.449-9.029-25.6-13.986-51.283-13.986-74.821 0-101.725 92.49-184.272 206.877-184.97-61.985 1.283-111.986 83.615-111.986 184.97 0 23.538 2.699 49.221 7.614 74.821 2.74 14.304 6.187 28.586 10.24 42.449 20.008 68.429 54.895 126.648 94.655 127.551z" fill="#dd6938"/><g fill="#454045"><path d="m450.251 289.171c-4.997 14.108-11.225 28.186-18.562 41.864-6.772.441-13.544.944-20.327 1.426-8.804.636-17.587 1.765-26.411 2.186-3.15.154-6.095.092-8.752-1.868-2.463-1.826-4.002-4.73-4.104-7.798-.103-3.407 1.59-6.721 4.381-8.66 7.316-5.017 15.094-9.091 23.117-12.836 8.065-3.756 16.633-6.392 25.129-8.958 8.301-2.514 16.941-4.135 25.529-5.356z"/><path d="m138.243 330.173c-1.919 2.894-5.161 4.546-8.609 4.556-4.033.02-8.075-.298-12.097-.677-4.505-.421-9.04-.708-13.554-1.057-7.839-.605-15.689-1.2-23.538-1.713-7.439-13.862-13.76-28.145-18.798-42.449 7.152.975 14.242 2.34 21.24 4.094 9.789 2.462 19.167 5.879 28.484 9.696 7.131 2.924 14.026 6.854 20.46 11.071 3.068 2.011 6.259 3.909 7.521 7.541 1.035 2.966.625 6.311-1.109 8.938z"/></g><path d="m332.109 414.831c0 52.766-34.07 95.541-76.098 95.541s-76.098-42.775-76.098-95.541 34.07-30.139 76.098-30.139 76.098-22.627 76.098 30.139z" fill="#dd6938"/><path d="m152.688 157.07c7.312-5.014 15.085-9.088 23.108-12.829 8.067-3.762 16.635-6.396 25.133-8.967 8.512-2.575 17.396-4.215 26.193-5.452 8.762-1.233 17.6-1.92 26.447-2.085 17.856-.332 35.78 1.587 53.108 5.941 9.794 2.461 19.167 5.879 28.486 9.698 7.134 2.923 14.028 6.854 20.463 11.075 3.06 2.007 6.252 3.902 7.518 7.534 1.034 2.968.624 6.317-1.11 8.94-1.913 2.895-5.157 4.547-8.602 4.559-4.035.014-8.083-.303-12.097-.677-4.505-.42-9.044-.715-13.558-1.061-10.291-.791-20.592-1.58-30.896-2.161-18.342-1.035-36.724-1.603-55.096-1.313-18.122.286-36.144 1.641-54.209 2.942-8.807.635-17.593 1.761-26.414 2.187-3.154.152-6.097.089-8.753-1.872-2.467-1.822-4.001-4.727-4.101-7.794-.113-3.41 1.587-6.718 4.38-8.665z" fill="#665e66"/><path d="m190.11 91.345c4.663-3.198 9.621-5.796 14.738-8.182 5.145-2.399 10.609-4.079 16.03-5.719 5.429-1.642 11.095-2.688 16.705-3.478 5.588-.786 11.225-1.225 16.868-1.33 11.388-.212 22.82 1.012 33.871 3.789 6.246 1.57 12.225 3.75 18.168 6.185 4.55 1.864 8.946 4.371 13.051 7.063 1.952 1.28 3.988 2.489 4.795 4.805.66 1.893.398 4.029-.708 5.702-1.22 1.846-3.289 2.9-5.486 2.908-2.573.009-5.155-.193-7.715-.432-2.873-.268-5.768-.456-8.647-.677-6.563-.505-13.133-1.008-19.705-1.378-11.698-.66-23.422-1.022-35.139-.837-11.558.183-23.052 1.046-34.574 1.877-5.617.405-11.221 1.123-16.847 1.395-2.012.097-3.889.057-5.583-1.194-1.574-1.162-2.552-3.014-2.615-4.971-.072-2.175 1.012-4.285 2.793-5.526z" fill="#665e66"/><path d="m308.581 345.931c0-19.38-23.54-150.241-52.579-150.241s-52.579 130.861-52.579 150.241" fill="#dd6938"/><path d="m312.146 362.684h-26.28l-29.855 33.729-29.855-33.729h-26.28c-27.406 0-49.623 22.217-49.623 49.623v11.19c0 14.597 5.926 27.83 15.487 37.392 9.58 9.561 22.795 15.487 37.392 15.487 29.193 0 52.879-23.667 52.879-52.879 0 29.212 23.686 52.879 52.879 52.879 14.597 0 27.812-5.926 37.392-15.487 9.561-9.562 15.487-22.795 15.487-37.392v-11.19c0-27.406-22.217-49.623-49.623-49.623z" fill="#f9f6f9"/><path d="m194.067 460.89c6.356 6.346 14.33 11.095 23.23 13.557-4.512 1.257-9.261 1.926-14.165 1.926-14.598 0-27.815-5.924-37.395-15.483-9.56-9.56-15.484-22.798-15.484-37.396v-11.188c0-27.403 22.221-49.624 49.624-49.624h26.28l.041.041c-26.476 1.051-47.615 22.849-47.615 49.582v11.188c.001 14.599 5.924 27.837 15.484 37.397z" fill="#dfdde2"/><path d="m308.581 345.931c0-19.38-23.54-35.091-52.579-35.091s-52.579 15.711-52.579 35.091 23.54 50.482 52.579 50.482 52.579-31.102 52.579-50.482z" fill="#454045"/><g fill="#282528"><path d="m154.79 225.525c-12.856 0-23.315 15.632-23.315 34.846s10.459 34.845 23.315 34.845 23.315-15.632 23.315-34.845c0-19.214-10.46-34.846-23.315-34.846z"/><path d="m355.17 225.525c-12.856 0-23.315 15.632-23.315 34.846s10.459 34.846 23.315 34.846 23.315-15.632 23.315-34.846c-.001-19.214-10.46-34.846-23.315-34.846z"/></g><g fill="#c6c1c8"><g><path d="m327.948 408.939c-3.027 0-5.823-1.841-7.052-4.598-1.4-3.142-.494-6.967 2.186-9.131 5.415-4.373 13.681.405 12.471 7.32-.64 3.658-3.886 6.409-7.605 6.409z"/><path d="m336.385 441.781c-7.023 0-10.365-9.028-5.023-13.6 2.598-2.224 6.464-2.45 9.308-.555 2.588 1.724 3.92 4.969 3.274 8.014-.747 3.521-3.946 6.141-7.559 6.141z"/><path d="m307.055 435.033c-6.932 0-10.347-8.913-5.113-13.52 2.29-2.016 5.656-2.499 8.415-1.191 3.031 1.437 4.844 4.788 4.338 8.116-.567 3.732-3.85 6.595-7.64 6.595z"/></g><g><path d="m180.982 408.939c-3.227 0-6.19-2.094-7.276-5.127-1.131-3.158-.031-6.814 2.67-8.81 2.707-2.001 6.498-1.997 9.205 0 2.53 1.866 3.686 5.232 2.846 8.258-.918 3.301-4.003 5.679-7.445 5.679z"/><path d="m172.545 441.781c-3.222 0-6.19-2.097-7.267-5.127-1.125-3.166-.039-6.809 2.67-8.81 2.761-2.04 6.644-1.993 9.353.117 2.343 1.825 3.441 4.944 2.767 7.835-.806 3.455-3.96 5.985-7.523 5.985z"/><path d="m201.874 435.033c-6.843 0-10.261-8.619-5.324-13.326 2.489-2.373 6.35-2.784 9.297-1.03 2.795 1.663 4.26 5.035 3.586 8.214-.747 3.524-3.942 6.142-7.559 6.142z"/></g></g></g></svg>