<svg id="Capa_1" enable-background="new 0 0 512 512" height="512" viewBox="0 0 512 512" width="512" xmlns="http://www.w3.org/2000/svg"><g><path d="m164.928 108.455s-31.734-65.446-114.969-89.93c0 0-94.67 143.647 23.817 214.64" fill="#dd6938"/><path d="m73.776 233.169 6.799-9.292 34.223-46.822-1.092-4.461c0-30.256-15.906-68.713-31.822-99.639-15.958-30.998-31.926-54.424-31.926-54.424s-94.663 143.648 23.818 214.638z" fill="#f9f6f9"/><path d="m64.288 202.367c5.687 11.126 11.126 17.997 16.287 21.51l34.223-46.822-1.092-4.461c0-30.256-15.906-68.713-31.822-99.639-20.759 22.489-48.986 68.023-17.596 129.412z" fill="#dfdde2"/><g fill="#dd6938"><path d="m73.242 138.42c-2.196 0-4.377-.931-5.906-2.74l-17.909-21.198c-2.754-3.26-2.343-8.134.917-10.888 3.258-2.754 8.133-2.343 10.888.915l17.909 21.198c2.754 3.26 2.343 8.134-.917 10.888-1.449 1.226-3.221 1.825-4.982 1.825z"/><path d="m58.624 155.119c-.606 0-1.22-.072-1.835-.221l-14.326-3.49c-4.146-1.01-6.688-5.19-5.678-9.336s5.188-6.686 9.336-5.678l14.326 3.49c4.146 1.01 6.688 5.19 5.678 9.336-.86 3.53-4.021 5.899-7.501 5.899z"/><path d="m349.126 108.455s31.734-65.446 114.969-89.93c0 0 94.67 143.647-23.817 214.64"/></g><path d="m440.279 233.169-6.799-9.292-34.223-46.822 1.092-4.461c0-30.256 15.906-68.713 31.822-99.639 15.958-30.998 31.925-54.425 31.925-54.425s94.664 143.649-23.817 214.639z" fill="#f9f6f9"/><path d="m449.767 202.367c-5.687 11.126-11.126 17.997-16.287 21.51l-34.223-46.822 1.092-4.461c0-30.256 15.906-68.713 31.822-99.639 20.758 22.489 48.985 68.023 17.596 129.412z" fill="#dfdde2"/><path d="m440.813 138.42c-1.762 0-3.531-.599-4.982-1.824-3.26-2.754-3.67-7.628-.917-10.888l17.908-21.198c2.754-3.261 7.629-3.67 10.888-.916 3.26 2.754 3.67 7.628.917 10.888l-17.908 21.198c-1.528 1.809-3.71 2.74-5.906 2.74z" fill="#dd6938"/><path d="m455.431 155.119c-3.481 0-6.641-2.368-7.501-5.899-1.01-4.146 1.532-8.326 5.678-9.336l14.326-3.49c4.154-1.009 8.327 1.533 9.336 5.678 1.01 4.146-1.532 8.326-5.678 9.336l-14.326 3.49c-.615.149-1.231.221-1.835.221z" fill="#dd6938"/><path d="m461.737 323.413c.773.803 50.263 53.054 50.263 170.062 0 0-38.91-74.802-144.339-83.517l-104.78-.082h-11.692l-104.842-.082c-25.796 1.916-47.666 7.778-65.993 15.566-57.669 24.508-80.354 68.115-80.354 68.115 0-117.008 49.49-169.259 50.263-170.062l-50.263 26.713c16.205-174.595 117.533-235.644 187.74-256.99 30.782-9.354 55.578-11.074 64.603-11.384.113 0 .216-.01.319-.01.36-.021.7-.031.999-.031h.01c.392-.01.742-.021 1.03-.021.433-.01.865-.01 1.298-.01 0 0 30.153-.381 69.867 11.95 70.135 21.779 170.053 83.229 186.134 256.496z" fill="#e4936b"/><path d="m98.166 212.669 50.221-19.697s-85.258 98.969-78.057 188.554c1.401 17.462 5.058 31.905 10.024 43.834-57.669 24.508-80.354 68.115-80.354 68.115 0-117.008 49.49-169.259 50.263-170.062l-50.263 26.713c23.303-251.138 222.746-267.353 252.343-268.373-69.98 2.771-143.133 84.063-154.177 130.916z" fill="#dd6938"/><path d="m253.661 81.712c-.33.01-.659.021-.999.031.361-.021.701-.031.999-.031z" fill="#dd6938"/><path d="m511.99 493.455c-.752-1.432-39.93-74.863-144.328-83.496l-221.314-.165c-105.903 7.849-145.575 82.208-146.338 83.661.453-2.143 30.627-139.064 180.045-158.174l154.249.299c147.378 20.253 177.232 155.753 177.686 157.875z" fill="#dfdde2"/><circle cx="257.492" cy="391.192" fill="#da4a54" r="68.366"/><path d="m370.175 394.125c0 5.305-.824 10.652-2.514 15.834-.474 1.463-1.01 2.926-1.628 4.358-4.049 9.436-10.704 17.215-18.925 22.633-8.211 5.419-17.987 8.478-28.258 8.478-24.745 0-46.101-14.536-55.97-35.551-2.73-5.79-4.584-12.074-5.388-18.688h-.927c-.804 6.614-2.658 12.898-5.378 18.688-9.88 21.016-31.235 35.551-55.98 35.551-10.271 0-20.047-3.06-28.258-8.478-8.221-5.419-14.876-13.197-18.925-22.633-.639-1.494-1.195-2.998-1.679-4.522-1.648-5.13-2.462-10.415-2.462-15.669 0-12.815 4.79-25.446 13.907-35.15l46.441-49.449c41.681-48.686 25.208-170.917-16.493-216.39 30.782-9.354 55.578-11.074 64.603-11.384.113 0 .216-.01.319-.01.36-.021.7-.031.999-.031h.01c.392-.01.742-.021 1.03-.021.433-.01.865-.01 1.298-.01 0 0 30.153-.381 69.867 11.95-41.372 45.853-57.567 167.384-16.04 215.895l46.441 49.449c9.12 9.704 13.91 22.334 13.91 35.15z" fill="#f9f6f9"/><path d="m217.677 85.812c23.468 48.017 32.276 176.048 8.2 223.714l-27.403 49.449c-5.378 9.704-8.211 22.335-8.211 35.15 0 5.254.484 10.539 1.452 15.669.288 1.525.618 3.029.989 4.522 2.39 9.436 6.315 17.215 11.167 22.633 2.411 2.699 5.048 4.811 7.85 6.253-5.254 1.452-10.796 2.225-16.514 2.225-10.271 0-20.048-3.06-28.258-8.478-8.221-5.419-14.876-13.197-18.925-22.633-.639-1.494-1.195-2.998-1.679-4.522-1.648-5.13-2.462-10.415-2.462-15.669 0-12.815 4.79-25.446 13.907-35.15l46.441-49.449c41.681-48.686 25.208-170.917-16.493-216.39 10.871-3.306 20.997-5.655 29.939-7.324z" fill="#dfdde2"/><g fill="#c6c1c8"><g><path d="m329.267 383.132c-7.065 0-10.422-9.198-4.905-13.695 5.482-4.47 13.901.502 12.477 7.483-.728 3.566-3.921 6.212-7.572 6.212z"/><path d="m337.734 416.108c-3.171 0-6.062-1.996-7.208-4.946-1.233-3.177-.172-6.88 2.541-8.939 5.453-4.14 13.49.712 12.272 7.484-.656 3.649-3.883 6.401-7.605 6.401z"/><path d="m308.282 409.33c-3.372 0-6.398-2.265-7.389-5.479-.954-3.093.222-6.606 2.853-8.493 5.707-4.095 13.768 1.235 12.033 8.129-.856 3.398-3.994 5.843-7.497 5.843z"/></g><g><path d="m181.703 383.132c-3.018 0-5.839-1.836-7.054-4.597-1.379-3.134-.51-6.925 2.156-9.098 5.479-4.466 13.798.479 12.488 7.402-.683 3.603-3.918 6.293-7.59 6.293z"/><path d="m173.245 416.108c-3.236 0-6.183-2.085-7.276-5.123-1.108-3.077-.091-6.651 2.488-8.668 5.518-4.314 13.731.657 12.359 7.579-.705 3.561-3.948 6.212-7.571 6.212z"/><path d="m202.688 409.33c-7.025 0-10.379-9.077-4.998-13.621 2.495-2.107 6.137-2.408 8.943-.74 2.759 1.639 4.239 4.917 3.643 8.069-.68 3.6-3.919 6.292-7.588 6.292z"/></g></g><path d="m309.817 340.512c0-19.458-23.635-35.231-52.79-35.231s-52.79 15.773-52.79 35.231 23.635 50.684 52.79 50.684 52.79-31.227 52.79-50.684z" fill="#454045"/><g fill="#282528"><path d="m155.409 237.137c-12.908 0-23.409 15.694-23.409 34.985s10.501 34.985 23.409 34.985c12.907 0 23.408-15.694 23.408-34.985s-10.501-34.985-23.408-34.985z"/><path d="m356.592 237.137c-12.908 0-23.409 15.694-23.409 34.985s10.501 34.985 23.409 34.985c12.907 0 23.408-15.694 23.408-34.985s-10.501-34.985-23.408-34.985z"/></g></g></svg>