<svg id="Capa_1" enable-background="new 0 0 512 512" height="512" viewBox="0 0 512 512" width="512" xmlns="http://www.w3.org/2000/svg"><g><g><ellipse cx="433.55" cy="116.08" fill="#f9f6f9" rx="89.264" ry="65.872" transform="matrix(.707 -.707 .707 .707 44.903 340.565)"/><path d="m504.283 62.796c-27.085-16.025-69.046-6.662-99.867 24.159-30.813 30.821-40.175 72.782-24.159 99.867-3.553-2.099-6.854-4.642-9.833-7.62-25.718-25.727-18.315-74.837 16.547-109.699 34.854-34.854 83.973-42.265 109.691-16.539 2.979 2.978 5.522 6.279 7.621 9.832z" fill="#e2dfe2"/><ellipse cx="439.512" cy="130.613" fill="#665e66" rx="47.786" ry="35.263" transform="matrix(.707 -.707 .707 .707 36.373 349.037)"/></g><g><ellipse cx="78.45" cy="116.08" fill="#f9f6f9" rx="65.872" ry="89.264" transform="matrix(.707 -.707 .707 .707 -59.104 89.472)"/><path d="m7.717 62.796c27.085-16.025 69.046-6.662 99.867 24.159 30.813 30.821 40.175 72.782 24.159 99.867 3.553-2.099 6.854-4.642 9.833-7.62 25.718-25.727 18.315-74.837-16.547-109.699-34.854-34.855-83.974-42.266-109.692-16.54-2.978 2.979-5.521 6.28-7.62 9.833z" fill="#e2dfe2"/><ellipse cx="72.488" cy="130.613" fill="#665e66" rx="35.263" ry="47.786" transform="matrix(.707 -.707 .707 .707 -71.126 89.513)"/></g><path d="m490.475 240.148c0-129.357-104.865-145.958-234.222-145.958s-234.223 16.6-234.223 145.958 104.865 234.222 234.222 234.222 234.223-104.865 234.223-234.222z" fill="#f9f6f9"/><path d="m256.251 474.369c-129.355 0-234.221-104.866-234.221-234.221 0-128.304 103.177-145.684 231.089-145.952-65.636.536-118.321 18.616-118.321 145.952 0 129.354 54.375 234.221 121.453 234.221z" fill="#e2dfe2"/><g fill="#282528"><path d="m135.316 198.653c-12.908 0-23.41 15.695-23.41 34.986s10.502 34.987 23.41 34.987 23.409-15.695 23.409-34.987-10.501-34.986-23.409-34.986z"/><path d="m377.715 198.653c-12.908 0-23.41 15.695-23.41 34.986s10.502 34.987 23.41 34.987 23.409-15.695 23.409-34.987-10.501-34.986-23.409-34.986z"/></g><path d="m335.638 325.629c0-43.844-35.542-125.278-79.386-125.278s-79.386 81.434-79.386 125.278 35.542 79.386 79.386 79.386 79.386-35.542 79.386-79.386z" fill="#e2dfe2"/><ellipse cx="256.252" cy="338.268" fill="#665e66" rx="52.792" ry="35.232"/><path d="m266.139 372.883c-3.204.402-6.511.618-9.89.618-29.155 0-52.789-15.773-52.789-35.234 0-19.451 23.633-35.223 52.789-35.223 3.379 0 6.686.217 9.89.618-15.422 8.025-25.343 20.543-25.343 34.605 0 14.073 9.921 26.591 25.343 34.616z" fill="#454045"/></g></svg>