<svg id="Capa_1" enable-background="new 0 0 512 512" height="512" viewBox="0 0 512 512" width="512" xmlns="http://www.w3.org/2000/svg"><g><ellipse cx="403.39" cy="107.603" fill="#f9f6f9" rx="152.117" ry="64.778" transform="matrix(.707 -.707 .707 .707 42.063 316.756)"/><ellipse cx="371.801" cy="139.935" fill="#e2dfe2" rx="106.918" ry="32.123" transform="matrix(.707 -.707 .707 .707 9.949 303.889)"/><ellipse cx="108.61" cy="107.603" fill="#f9f6f9" rx="64.778" ry="152.117" transform="matrix(.707 -.707 .707 .707 -44.276 108.315)"/><ellipse cx="140.199" cy="139.935" fill="#e2dfe2" rx="32.123" ry="106.918" transform="matrix(.707 -.707 .707 .707 -57.885 140.122)"/><path d="m403.745 268.648v-16.833c0-63.189-51.225-114.413-114.413-114.413h-66.668c-63.189 0-114.413 51.225-114.413 114.413v16.833c-42.074 21.099-70.958 64.62-70.958 114.893-.001 70.946 57.513 128.459 128.459 128.459h180.492c70.946 0 128.459-57.513 128.459-128.459 0-50.273-28.884-93.794-70.958-114.893z" fill="#f9f6f9"/><path d="m179.399 251.816c0 9.822-3.218 19.33-8.97 27.292-16.837 23.309-27.805 61.396-27.805 104.427 0 70.953 29.811 128.464 66.586 128.464h-42.139c-70.89 0-129.401-56.869-129.783-127.758-.272-50.567 28.685-94.398 70.962-115.593v-16.832c0-63.186 51.217-114.413 114.413-114.413h16.049c-32.757 0-59.313 51.227-59.313 114.413z" fill="#e2dfe2"/><g fill="#282528"><path d="m149.24 236.337c-12.907 0-23.407 15.693-23.407 34.982s10.5 34.982 23.407 34.982c12.906 0 23.406-15.693 23.406-34.982s-10.5-34.982-23.406-34.982z"/><path d="m360.707 236.337c-12.907 0-23.407 15.693-23.407 34.982s10.5 34.982 23.407 34.982c12.906 0 23.406-15.693 23.406-34.982s-10.5-34.982-23.406-34.982z"/></g><path d="m208.914 445.412c-4.267 0-7.726-3.459-7.726-7.726s3.459-7.726 7.726-7.726c21.703 0 39.36-17.656 39.36-39.36 0-4.267 3.459-7.726 7.726-7.726s7.726 3.459 7.726 7.726c0 30.223-24.589 54.812-54.812 54.812z" fill="#c6c1c8"/><path d="m303.086 445.412c-30.224 0-54.812-24.589-54.812-54.812 0-4.267 3.459-7.726 7.726-7.726s7.726 3.459 7.726 7.726c0 21.703 17.656 39.36 39.36 39.36 4.267 0 7.726 3.459 7.726 7.726s-3.459 7.726-7.726 7.726z" fill="#c6c1c8"/><path d="m303.465 345.028c0-17.495-21.251-31.678-47.465-31.678s-47.465 14.183-47.465 31.678 21.251 45.572 47.465 45.572 47.465-28.077 47.465-45.572z" fill="#e4936b"/><path d="m256.002 390.599c-26.216 0-47.467-28.08-47.467-45.572 0-17.501 21.251-31.686 47.467-31.686-12.588 0-22.786 14.184-22.786 31.686 0 17.492 10.198 45.572 22.786 45.572z" fill="#dd6938"/></g></svg>