<svg id="Capa_1" enable-background="new 0 0 497 497" height="512" viewBox="0 0 497 497" width="512" xmlns="http://www.w3.org/2000/svg"><g><path d="m194.34 380.519h108.322v116.481h-108.322z" fill="#c17d4f"/><path d="m194.34 380.519h108.322v82.824h-108.322z" fill="#985e33"/><path d="m194.34 380.519h35.386v116.481h-35.386z" fill="#985e33"/><path d="m399.735 449.25h-302.47c-24.07 0-37.25-28.03-21.91-46.57l47.39-57.26 103.85-125.48c11.37-13.74 32.44-13.74 43.81 0l103.85 125.48 47.39 57.26c15.34 18.54 2.16 46.57-21.91 46.57z" fill="#9bd069"/><path d="m248.505 209.64c-2.88 0-5.76 3.43-7.78 10.3l-53.66 182.74c-5.44 18.54-.76 46.57 7.78 46.57h-97.58c-24.06 0-37.25-28.03-21.91-46.57l151.24-182.74c5.68-6.87 13.8-10.3 21.91-10.3z" fill="#7dbe3b"/><path d="m374.255 345.42c-.82.07-1.65.1-2.49.1h-246.52c-.85 0-1.68-.03-2.5-.1l103.85-125.48c11.37-13.74 32.44-13.74 43.81 0z" fill="#7dbe3b"/><path d="m371.765 304.46h-246.52c-24.07 0-37.26-28.03-21.91-46.57l38.48-46.49 84.78-102.44c11.37-13.75 32.44-13.75 43.81 0l84.78 102.44 38.48 46.49c15.35 18.54 2.16 46.57-21.9 46.57z" fill="#9bd069"/><path d="m248.501 98.65c-2.88 0-5.76 3.43-7.78 10.31l-43.73 148.93c-5.44 18.54-.77 46.57 7.77 46.57h-79.52c-24.07 0-37.25-28.03-21.91-46.57l123.26-148.93c5.68-6.88 13.8-10.31 21.91-10.31z" fill="#7dbe3b"/><path d="m355.185 211.4c-2.92 1.02-6.1 1.58-9.51 1.58h-194.35c-3.41 0-6.59-.56-9.51-1.58l84.78-102.44c11.37-13.75 32.44-13.75 43.81 0z" fill="#7dbe3b"/><path d="m226.592 10.307-97.174 117.415c-15.344 18.54-2.158 46.57 21.908 46.57h194.349c24.066 0 37.252-28.03 21.908-46.57l-97.174-117.415c-11.373-13.743-32.444-13.743-43.817 0z" fill="#9bd069"/><path d="m248.506.001c-2.88 0-5.76 3.44-7.78 10.31l-34.47 117.41c-5.45 18.54-.77 46.57 7.77 46.57h-62.7c-24.06 0-37.25-28.03-21.91-46.57l97.18-117.41c5.68-6.87 13.8-10.31 21.91-10.31z" fill="#7dbe3b"/></g></svg>