<svg id="Capa_1" enable-background="new 0 0 512 512" height="512" viewBox="0 0 512 512" width="512" xmlns="http://www.w3.org/2000/svg"><g><path d="m468.289 136.737s17.718 34.158-18.852 51.834h-386.885c-36.559-17.676-18.841-51.834-18.841-51.834-23.17 6.04-78.571-24.18-12.09-75.777 18.068-14.028 37.023-17.522 55.05-15.162 7.39.959 14.615 2.906 21.562 5.514h.01c38.486 14.409 68.336 49.02 68.336 49.02h158.842s65.151-75.54 127.024-49.907c6.03 2.495 12.028 5.948 17.934 10.534 66.481 51.598 11.08 81.818-12.09 75.778z" fill="#e2dfe2"/><path d="m462.445 50.426c-36.982-7.998-72.438 62.791-39.868 138.146h-111.965c-21.336-10.956-36.951-20.099-36.951-20.099l23.294-68.14h38.466s65.151-75.541 127.024-49.907z" fill="#c6c1c8"/><path d="m117.19 188.571h-54.638c-36.559-17.676-18.841-51.834-18.841-51.834-23.17 6.04-78.571-24.18-12.09-75.777 18.068-14.028 37.023-17.522 55.05-15.162 7.39.959 14.615 2.906 21.562 5.514-48.639-4.175-77.488 103.256.01 132.621 3.639 1.381 6.607 2.927 8.947 4.638z" fill="#c6c1c8"/><path d="m490.332 320.856c0 129.418-104.914 146.026-234.332 146.026s-234.332-16.608-234.332-146.026 104.914-234.332 234.332-234.332 234.332 104.914 234.332 234.332z" fill="#f9f6f9"/><path d="m291.323 389.323h-.958c-14.689 0-26.638-11.95-26.638-26.638 0-4.267-3.459-7.726-7.726-7.726s-7.726 3.459-7.726 7.726c0 14.689-11.95 26.638-26.638 26.638h-.958c-4.267 0-7.726 3.459-7.726 7.726s3.459 7.726 7.726 7.726h.958c14.18 0 26.735-7.055 34.365-17.831 7.63 10.777 20.185 17.831 34.365 17.831h.958c4.267 0 7.726-3.459 7.726-7.726-.002-4.267-3.461-7.726-7.728-7.726z" fill="#c6c1c8"/><path d="m319.538 299.147c0-35.091-28.447-100.268-63.538-100.268s-63.538 65.177-63.538 100.268 28.447 63.538 63.538 63.538 63.538-28.447 63.538-63.538z" fill="#665e66"/><path d="m255.995 362.68c-35.085 0-63.533-28.448-63.533-63.533 0-34.941 28.2-99.721 63.079-100.267-19.295 1.01-34.869 65.45-34.869 100.267.001 35.085 15.822 63.533 35.323 63.533z" fill="#454045"/><path d="m255.999 86.525c-129.415 0-234.331 104.915-234.331 234.331 0 128.364 103.225 145.752 231.197 146.02-65.666-.536-118.376-18.625-118.376-146.02 0-129.415 54.401-234.331 121.51-234.331z" fill="#e2dfe2"/><g fill="#454045"><path d="m236.121 337.495c-4.267 0-7.726-3.459-7.726-7.726v-23.32c0-4.267 3.459-7.726 7.726-7.726s7.726 3.459 7.726 7.726v23.32c.001 4.267-3.459 7.726-7.726 7.726z"/><path d="m275.879 337.495c-4.267 0-7.726-3.459-7.726-7.726v-23.32c0-4.267 3.459-7.726 7.726-7.726s7.726 3.459 7.726 7.726v23.32c0 4.267-3.459 7.726-7.726 7.726z"/></g><g fill="#282528"><path d="m135.007 212.507c-12.914 0-23.421 15.703-23.421 35.003 0 19.301 10.506 35.003 23.421 35.003 12.914 0 23.42-15.702 23.42-35.003 0-19.3-10.506-35.003-23.42-35.003z"/><path d="m377.52 212.507c-12.914 0-23.421 15.703-23.421 35.003 0 19.301 10.506 35.003 23.421 35.003 12.914 0 23.42-15.702 23.42-35.003 0-19.3-10.507-35.003-23.42-35.003z"/></g></g></svg>