<svg id="Capa_1" enable-background="new 0 0 512 512" height="512" viewBox="0 0 512 512" width="512" xmlns="http://www.w3.org/2000/svg"><g><path d="m499.001 294.743-93.994 93.984c-82.288 82.298-215.725 82.298-298.013 0l-53.218-53.217-40.777-40.766c-17.332-17.333-17.332-45.441 0-62.784l65.855-65.855c-2.834-7.828-4.375-16.278-4.375-25.088 0-40.808 33.072-73.881 73.88-73.881 13.196 0 25.585 3.475 36.309 9.545 22.183-9.876 45.999-14.923 69.836-15.119.155-.011.31-.011.465-.011 24.685-.134 49.402 4.902 72.36 15.13 10.724-6.07 23.113-9.545 36.309-9.545 40.808 0 73.88 33.072 73.88 73.881 0 8.811-1.541 17.26-4.375 25.088l65.855 65.855c17.335 17.343 17.335 45.451.003 62.783z" fill="#9bd069"/><path d="m219.117 157.304s-17.922 6.101-19.401 36.868c0 0-14.768 11.748-1.479 30.776 0 0-33.476-6.019-46.475 36.826 0 0-17.301 63.59 4.002 84.925-.538-.289-17.694-9.917-24.168-29.111-6.577-19.494-15.378-82.567-67.106-61.584-27.457 11.138-21.934 47.664-10.714 79.506l-40.777-40.766c-17.332-17.333-17.332-45.441 0-62.784l65.855-65.855c-2.834-7.828-4.375-16.278-4.375-25.088 0-40.808 33.072-73.881 73.88-73.881 13.196 0 25.585 3.475 36.309 9.545 22.183-9.876 45.999-14.923 69.836-15.119-41.613.445-40.175 61.315-35.387 95.742z" fill="#7dbe3b"/><g fill="#282528"><path d="m138.229 103.361c-12.957 0-23.499 15.755-23.499 35.12s10.542 35.12 23.499 35.12 23.498-15.755 23.498-35.12c.001-19.365-10.541-35.12-23.498-35.12z"/><path d="m373.771 103.361c-12.957 0-23.499 15.755-23.499 35.12s10.542 35.12 23.499 35.12 23.499-15.755 23.499-35.12-10.542-35.12-23.499-35.12z"/></g><circle cx="198.24" cy="272.707" fill="#665e66" r="20.872"/><circle cx="313.76" cy="272.707" fill="#665e66" r="20.872"/><path d="m361.519 280.433c-4.267 0-7.726-3.459-7.726-7.726 0-22.074-17.959-40.033-40.033-40.033-19.176 0-35.712 13.658-39.319 32.476-1.698 8.856-9.453 15.283-18.441 15.283s-16.743-6.428-18.44-15.284c-3.608-18.817-20.144-32.476-39.319-32.476-22.074 0-40.033 17.959-40.033 40.033 0 4.267-3.459 7.726-7.726 7.726s-7.726-3.459-7.726-7.726c0-30.595 24.891-55.486 55.486-55.486 26.575 0 49.494 18.934 54.495 45.02.304 1.588 1.677 2.74 3.264 2.74s2.96-1.152 3.265-2.74c5-26.086 27.92-45.019 54.495-45.019 30.595 0 55.485 24.891 55.485 55.486-.001 4.267-3.46 7.726-7.727 7.726z" fill="#7dbe3b"/><path d="m255.99 404.345c43.771-1.756 42.781-30.413 90.87-30.413s30.501-49.303 74.914-65.391 33.668-46.767 33.668-46.767c-18.325-18.336-54.469-9.938-66.507 29.846-9.473 31.294-17.663 59.94-47.84 56.424-48.719-5.688-48.719 28.005-85.101 28.005s-36.382-33.693-85.101-28.005c-30.177 3.516-38.367-25.13-47.84-56.424-12.038-39.784-48.181-48.181-66.507-29.846 0 0-10.745 30.679 33.668 46.767s26.826 65.391 74.914 65.391 47.099 28.656 90.87 30.413" fill="#7dbe3b"/><g><path d="m212.229 406.101c-3.847 4.654-17.415 2.71-31.138-10.61-10.714-10.187-21.521-27.509-25.316-48.781 4.333 1.499 9.318 2.006 15.119 1.334 14.468-1.686 24.644.093 32.741 3.433 4.106 25.637 14.572 46.372 8.594 54.624z" fill="#f9f6f9"/></g><g><path d="m125.019 298.094v.011c-7.922 19.411-8.573 38.615-15.978 41.966-4.302 1.613-12.534-4.788-16.557-18.78-4.085-13.589-3.961-34.758 7.353-53.838 1.169-2.13 2.43-4.157 3.764-6.071 8.222 6.433 15.285 16.454 19.452 30.239.663 2.171 1.315 4.332 1.966 6.473z" fill="#f9f6f9"/></g><path d="m335.52 205.345c-.441 0-.888-.038-1.338-.117-51.878-9.054-104.486-9.054-156.364 0-4.207.736-8.206-2.079-8.94-6.283s2.079-8.206 6.283-8.94c53.641-9.362 108.037-9.362 161.678 0 4.204.733 7.017 4.736 6.283 8.94-.655 3.755-3.918 6.4-7.602 6.4z" fill="#7dbe3b"/><path d="m317.336 170.341c-.441 0-.888-.038-1.338-.117-39.812-6.949-80.185-6.949-119.997 0-4.208.731-8.206-2.079-8.94-6.283s2.079-8.206 6.283-8.94c41.575-7.257 83.735-7.257 125.311 0 4.204.733 7.017 4.736 6.283 8.94-.655 3.755-3.917 6.4-7.602 6.4z" fill="#7dbe3b"/><g><path d="m299.771 406.101c3.847 4.654 17.415 2.71 31.138-10.61 10.714-10.187 21.521-27.509 25.316-48.781-4.333 1.499-9.318 2.006-15.119 1.334-14.468-1.686-24.644.093-32.741 3.433-4.106 25.637-14.572 46.372-8.594 54.624z" fill="#f9f6f9"/></g><g><path d="m386.981 298.094v.011c7.922 19.411 8.573 38.615 15.978 41.966 4.302 1.613 12.534-4.788 16.557-18.78 4.085-13.589 3.961-34.758-7.353-53.838-1.169-2.13-2.43-4.157-3.764-6.071-8.222 6.433-15.285 16.454-19.452 30.239-.663 2.171-1.315 4.332-1.966 6.473z" fill="#f9f6f9"/></g><path d="m255.995 383.775c-18.767 0-29.568-8.037-39.099-15.128-11.343-8.439-21.136-15.729-45.106-12.93-16.31 1.901-29.318-4.169-38.67-18.038-7.628-11.312-12.198-26.422-17.037-42.419l-.424-1.402c-7.49-24.755-23.117-31.142-29.488-32.74-9.171-2.298-17.976-.069-24.159 6.117-3.017 3.018-7.909 3.02-10.927.003-3.018-3.016-3.02-7.908-.003-10.927 9.969-9.975 24.488-13.78 38.847-10.183 18.588 4.66 33.735 20.829 40.52 43.253l.425 1.404c10.104 33.401 16.906 52.167 39.126 49.582 30.058-3.512 43.905 6.792 56.121 15.881 9.065 6.745 16.225 12.072 29.874 12.072 13.659 0 20.823-5.33 29.894-12.079 5.709-4.247 11.613-8.64 19.527-11.908 10.468-4.318 22.432-5.614 36.585-3.966 4.494.521 8.324.207 11.699-.961 12.953-4.441 19.374-22.255 25.835-43.369.018-.065.036-.13.056-.194l1.966-6.476c4.35-14.387 11.987-26.175 22.082-34.072 18.275-14.335 42.367-13.909 57.281 1.017 3.016 3.019 3.014 7.911-.005 10.927s-7.91 3.014-10.927-.005c-9.45-9.458-24.591-9.367-36.819.225-7.582 5.932-13.397 15.057-16.825 26.395l-1.909 6.289c-.02.073-.041.145-.063.218-7.742 25.325-15.768 46.843-35.639 53.655-5.517 1.908-11.753 2.484-18.514 1.7-11.639-1.355-20.821-.434-28.906 2.9-6.13 2.532-11.021 6.171-16.198 10.022-9.537 7.097-20.343 15.137-39.12 15.137z" fill="#588721"/></g></svg>