<svg id="Capa_1" enable-background="new 0 0 511.998 511.998" height="512" viewBox="0 0 511.998 511.998" width="512" xmlns="http://www.w3.org/2000/svg"><g><path d="m505.041 287.22c-1.7 2.668-3.719 5.192-6.047 7.52l-4.481 4.481-89.511 89.501c-58.637 58.647-143.244 75.501-216.819 50.571-29.669-10.065-57.535-26.919-81.187-50.571l-53.218-53.218-37.519-37.508-3.255-3.255c-2.771-2.771-5.11-5.82-6.985-9.055-9.91-16.998-7.582-39.156 6.985-53.733l65.848-65.848c-2.833-7.829-4.368-16.277-4.368-25.095 0-40.805 33.068-73.873 73.873-73.873 13.196 0 25.589 3.472 36.313 9.54 21.994-9.787 45.595-14.835 69.237-15.102.35-.011.711-.021 1.061-.021 24.683-.134 49.407 4.903 72.359 15.123 10.724-6.068 23.117-9.54 36.313-9.54 40.805 0 73.873 33.068 73.873 73.873 0 8.818-1.535 17.266-4.368 25.095l65.848 65.848c15.01 15.019 17.029 38.095 6.048 55.267z" fill="#9bd069"/><path d="m188.185 439.289c-29.669-10.062-57.539-26.918-81.19-50.569l-53.217-53.217-40.776-40.766c-17.332-17.332-17.332-45.44 0-62.783l65.854-65.854c-2.834-7.828-4.374-16.278-4.374-25.088 0-40.808 33.072-73.879 73.879-73.879 13.196 0 25.585 3.475 36.309 9.545 21.996-9.793 45.595-14.839 69.236-15.109-63.87 2.71-139.135 247.935-65.721 377.72z" fill="#7dbe3b"/><path d="m497.858 295.875-58.832 58.832-34.023 34.013c-3.795 3.795-7.694 7.405-11.696 10.848-19.432 16.733-41.19 29.339-64.137 37.808-45.337 16.763-95.296 17.395-140.984 1.913-29.669-10.062-57.539-26.918-81.19-50.569l-53.217-53.217-40.766-40.756v-.01c33.558-51.625 85.099-26.216 145.1-3.217 30.517 11.686 63.227 22.762 96.868 22.762 99.794 0 191.326-97.426 241.968-19.545z" fill="#7dbe3b"/><path d="m188.185 439.289c-29.669-10.062-57.539-26.918-81.19-50.569l-53.217-53.217-40.766-40.756v-.01c33.558-51.625 85.099-26.216 145.1-3.217-1.634 53.259 6.66 106.383 30.073 147.769z" fill="#6ea533"/><g fill="#282528"><ellipse cx="138.229" cy="138.477" rx="23.499" ry="35.12"/><ellipse cx="373.768" cy="138.477" rx="23.499" ry="35.12"/></g><path d="m505.041 287.22c-1.7 2.668-3.719 5.192-6.047 7.52l-4.481 4.481c-.052-.062-.093-.124-.134-.186-12.949-19.923-28.711-28.257-51.158-27.042-21.386 1.154-46.625 11.012-73.348 21.448-34.778 13.577-74.182 28.968-114.905 28.968-40.712 0-80.126-15.391-114.894-28.968-26.722-10.436-51.972-20.294-73.348-21.448-22.045-1.195-37.653 6.83-50.468 26.002l-3.255-3.255c-2.771-2.771-5.11-5.82-6.985-9.055 34.922-47.542 85.854-27.649 139.68-6.634 35.139 13.722 71.463 27.907 109.27 27.907 37.817 0 74.141-14.185 109.28-27.907 54.393-21.232 105.839-41.33 140.793 8.169z" fill="#588721"/><g fill="#6ea533"><path d="m231.585 234.324c-4.268 0-7.726-3.459-7.726-7.726v-22.472c0-4.267 3.459-7.726 7.726-7.726 4.268 0 7.726 3.459 7.726 7.726v22.472c.001 4.267-3.458 7.726-7.726 7.726z"/><path d="m280.411 234.324c-4.268 0-7.726-3.459-7.726-7.726v-22.472c0-4.267 3.459-7.726 7.726-7.726 4.268 0 7.726 3.459 7.726 7.726v22.472c.001 4.267-3.458 7.726-7.726 7.726z"/></g></g></svg>