<svg id="Capa_1" enable-background="new 0 0 512 512" height="512" viewBox="0 0 512 512" width="512" xmlns="http://www.w3.org/2000/svg"><g><path d="m226.45 82.937c-4.801-15.092-15.347-26.61-30.497-33.308-7.854-3.472-21.214-6.186-59.152-1.439-1.236.097-1.5-.153-1.646-.298-2.612-2.595-4.712-11.382-3.55-19.841 1.442-10.498-5.899-20.176-16.397-21.618-10.501-1.441-20.176 5.899-21.618 16.397-1.298 9.45-.916 20.997 2.463 31.752-19.938 3.637-37.897 7.526-47.234 9.713-4.845 1.134-6.041-.082-6.552-.6-3.364-3.42-4.685-12.55-3.408-17.626 2.587-10.275-3.646-20.702-13.922-23.288s-20.701 3.646-23.288 13.92c-3.901 15.5-1.416 38.978 13.263 53.901 10.849 11.03 25.999 14.955 42.659 11.053 11.941-2.797 39.261-8.646 65.914-12.824 44.561-6.985 55.65-4.473 57.142-4.023 5.021 2.261 7.792 5.18 9.248 9.729 4.989 15.588-6.476 43.877-14.876 58.051-5.416 9.093-2.445 20.856 6.644 26.286 3.083 1.842 6.474 2.719 9.822 2.719 6.53 0 12.896-3.335 16.488-9.348 3.132-5.245 30.27-52.303 18.497-89.308z" fill="#985e33"/><path d="m285.55 82.937c4.801-15.092 15.347-26.61 30.497-33.308 7.854-3.472 21.214-6.186 59.152-1.439 1.236.097 1.5-.153 1.646-.298 2.612-2.595 4.712-11.382 3.55-19.841-1.442-10.498 5.899-20.176 16.397-21.618 10.501-1.441 20.176 5.899 21.618 16.397 1.298 9.45.916 20.997-2.463 31.752 19.938 3.637 37.897 7.526 47.234 9.713 4.845 1.134 6.041-.082 6.552-.6 3.364-3.42 4.685-12.55 3.408-17.626-2.587-10.275 3.646-20.702 13.922-23.288 10.277-2.585 20.702 3.647 23.289 13.922 3.901 15.5 1.416 38.978-13.263 53.901-10.849 11.03-25.999 14.955-42.659 11.053-11.941-2.797-39.261-8.646-65.914-12.824-44.561-6.985-55.65-4.473-57.142-4.023-5.021 2.261-7.792 5.18-9.248 9.729-4.989 15.588 6.476 43.877 14.876 58.051 5.416 9.093 2.445 20.856-6.644 26.286-3.083 1.842-6.474 2.719-9.822 2.719-6.53 0-12.896-3.335-16.488-9.348-3.133-5.247-30.271-52.305-18.498-89.31z" fill="#985e33"/><path d="m485.226 153.744s-5.099 8.612-13.949 18.966c-18.904 22.149-54.909 52.271-94.602 23.158l-54.085-14.279 23.622-14.361 22.19-13.485c33.255-18.367 87.999-18.892 116.824.001z" fill="#f1d0a5"/><path d="m485.226 153.744s-5.099 8.612-13.949 18.966l-23.303-6.12s-37.045-11.26-73.905 10.982l-27.856-10.343 22.19-13.485c33.254-18.368 87.998-18.893 116.823 0z" fill="#dd6938"/><path d="m137.377 195.873c-58.246 42.712-108.551-42.13-108.551-42.13 28.826-18.891 83.57-18.362 116.826 0l45.812 27.85z" fill="#f1d0a5"/><path d="m28.826 153.743s5.099 8.612 13.949 18.966l23.303-6.12s37.045-11.26 73.905 10.982l27.856-10.343-22.19-13.485c-33.255-18.368-87.998-18.893-116.823 0z" fill="#dd6938"/><path d="m202.151 473.859c10.866 19.049 31.369 31.889 54.877 31.889 23.5 0 44.002-12.84 54.877-31.889l-55.446-28.955z" fill="#f1b986"/><path d="m359.924 407.585h-205.793c0-31.302-41.721-70.935-27.85-133.358 4.365-19.636 6.768-40.862 9.027-60.751 4.934-43.338 9.19-80.279 31.6-80.279 32.694 0 60.399 15.199 90.119 15.199s57.426-15.199 90.12-15.199c32.693 0 26.747 78.607 40.627 141.03 13.871 62.423-27.85 102.056-27.85 133.358z" fill="#e4936b"/><path d="m226.828 342.379-65.739 65.206h-6.958c0-31.302-41.721-70.935-27.85-133.358 4.365-19.636 6.768-40.862 9.027-60.751 0-.001 91.52-38.767 91.52 128.903z" fill="#dd6938"/><path d="m287.227 342.379 65.739 65.206h6.958c0-31.302 41.721-70.935 27.85-133.358-4.365-19.636-6.768-40.862-9.027-60.751 0-.001-91.52-38.767-91.52 128.903z" fill="#e4936b"/><g fill="#282528"><path d="m161.662 257.514c-9.457 0-17.151 11.499-17.151 25.633s7.694 25.633 17.151 25.633 17.151-11.499 17.151-25.633-7.694-25.633-17.151-25.633z"/><path d="m352.393 257.514c-9.457 0-17.151 11.499-17.151 25.633s7.694 25.633 17.151 25.633 17.151-11.499 17.151-25.633-7.694-25.633-17.151-25.633z"/></g><path d="m301.681 340.285c-11.034 0-21.35 3.548-30.142 9.71-8.738 6.123-20.286 6.123-29.024 0-8.792-6.161-19.107-9.71-30.142-9.71-32.167 0-58.244 30.133-58.244 67.304s26.077 67.304 58.244 67.304c1.922 0 3.821-.108 5.695-.318 25.92-2.909 51.997-2.909 77.917 0 1.874.21 3.774.318 5.695.318 32.167 0 58.244-30.133 58.244-67.304s-26.075-67.304-58.243-67.304z" fill="#f1d0a5"/><path d="m229.393 473.491c-3.777.298-7.554.66-11.332 1.084-1.871.217-3.768.325-5.693.325-32.169 0-58.239-30.136-58.239-67.311 0-37.167 26.07-67.303 58.239-67.303 4.988 0 9.831.723 14.458 2.096-25.175 7.428-43.781 33.814-43.781 65.206.001 32.46 19.89 59.56 46.348 65.903z" fill="#f1b986"/><g fill="#454045"><circle cx="206.558" cy="407.589" r="18.237"/><circle cx="307.497" cy="407.589" r="18.237"/></g></g></svg>