<svg id="Capa_1" enable-background="new 0 0 512 512" height="512" viewBox="0 0 512 512" width="512" xmlns="http://www.w3.org/2000/svg"><g><path d="m394.269 372.986c37.109 37.119 83.382 54.437 83.382 54.437s-40.285-93.109-40.304-182.358v-63.718c0-100.156-81.192-181.347-181.347-181.347-100.154 0-181.346 81.191-181.346 181.346v64.251c-.178 89.086-40.3 181.825-40.3 181.825s46.273-17.317 83.382-54.437c0 0 6.339 62.395-14.349 118.625 0 0 57.241-10.246 81.423-49.2 0 0 6.473 53.138 71.198 69.59 64.714-16.452 71.187-69.59 71.187-69.59 24.183 38.954 81.413 49.211 81.413 49.211-20.679-56.241-14.339-118.635-14.339-118.635z" fill="#da4a54"/><path d="m127.771 53.115c32.522-32.522 77.362-52.757 126.923-53.097-27.162.629-51.736 20.802-69.59 53.097-18.142 32.821-29.357 78.155-29.357 128.232v64.25c-.103 89.092-22.276 181.834-22.276 181.834s25.574-17.318 46.087-54.437c0 0 2.072 36.841-2.154 79.413-26.78 30.759-74.022 39.212-74.022 39.212 20.688-56.231 14.349-118.625 14.349-118.625-37.109 37.119-83.382 54.437-83.382 54.437s40.119-92.742 40.304-181.834v-64.25c.001-50.077 20.297-95.411 53.118-128.232z" fill="#c32430"/><path d="m319.792 168.936c-35.231-35.231-92.352-35.231-127.583 0-29.273 29.273-34.866 74.712-13.565 110.209l41.959 69.925c16.034 26.721 54.76 26.721 70.794 0l41.959-69.925c21.301-35.497 15.708-80.936-13.564-110.209z" fill="#f6e738"/><path d="m256.001 369.11c-13.689 0-27.378-6.68-35.398-20.039l-41.954-69.93c-8.648-14.411-12.864-30.45-12.864-46.386 0-23.338 9.04-46.427 26.43-63.817 17.606-17.606 40.696-26.419 63.776-26.43-9.061.011-18.101 8.824-25.018 26.43-6.824 17.39-10.37 40.48-10.37 63.807 0 15.936 1.66 31.986 5.051 46.397l16.462 69.93c3.144 13.358 8.515 20.038 13.885 20.038z" fill="#ecc32e"/><g><ellipse cx="135.997" cy="175.278" rx="23.423" ry="35.006"/><path d="m378.533 140.271c-12.916 0-23.423 15.704-23.423 35.006s10.507 35.006 23.423 35.006c12.915 0 23.422-15.704 23.422-35.006s-10.507-35.006-23.422-35.006z"/></g><g fill="#dd6938"><path d="m228.886 318.492c-4.27 0-7.731-3.461-7.731-7.731v-20.15c0-4.27 3.461-7.731 7.731-7.731s7.731 3.461 7.731 7.731v20.15c0 4.27-3.461 7.731-7.731 7.731z"/><path d="m283.114 318.492c-4.27 0-7.731-3.461-7.731-7.731v-20.15c0-4.27 3.461-7.731 7.731-7.731s7.731 3.461 7.731 7.731v20.15c0 4.27-3.461 7.731-7.731 7.731z"/></g></g></svg>