<svg id="Capa_1" enable-background="new 0 0 512 512" height="512" viewBox="0 0 512 512" width="512" xmlns="http://www.w3.org/2000/svg"><g><path d="m160.772 385.385h-49.924c-24.312 0-47.572-9.049-65.493-25.479-17.92-16.43-28.95-38.818-31.057-63.039l-6.484-74.57c-1.995-22.946 14.988-43.164 37.934-45.159 22.954-1.996 43.165 14.988 45.16 37.934l6.484 74.57c.611 7.033 6.397 12.336 13.456 12.336h49.924c23.032 0 41.703 18.671 41.703 41.703s-18.671 41.704-41.703 41.704z" fill="#9bd069"/><path d="m134.562 385.389h-23.719c-24.303 0-47.563-9.05-65.485-25.481s-28.953-38.816-31.059-63.035l-6.485-74.576c-1.991-22.947 14.992-43.163 37.929-45.154 5.38-.469 10.603.104 15.482 1.564-18.631 5.484-31.444 23.49-29.703 43.591l6.485 74.576c2.106 24.219 13.137 46.604 31.059 63.035 17.923 16.43 41.183 25.48 65.496 25.48z" fill="#7dbe3b"/><path d="m259.089 59.041c-72.616 0-130.263 61.111-126.03 133.603l18.509 316.988h215.042l18.509-316.988c4.232-72.492-53.415-133.603-126.03-133.603z" fill="#9bd069"/><path d="m207.145 192.645 7.632 316.988h-63.202l-18.516-316.988c-4.233-72.491 53.422-133.607 126.038-133.607-29.933-.001-53.704 61.116-51.952 133.607z" fill="#7dbe3b"/><g><path d="m224.273 73.542c9.754-8.903 12.372-23.68 5.498-35.587-6.875-11.908-20.981-17.029-33.568-13.033-2.833-12.899-14.321-22.555-28.071-22.555-13.75 0-25.238 9.656-28.071 22.555-12.587-3.996-26.693 1.125-33.568 13.033-6.875 11.907-4.257 26.684 5.498 35.587-9.754 8.903-12.372 23.68-5.498 35.587 6.875 11.907 20.981 17.029 33.568 13.033 2.833 12.899 14.321 22.555 28.071 22.555 13.75 0 25.238-9.656 28.071-22.555 12.587 3.996 26.693-1.125 33.568-13.033 6.875-11.907 4.257-26.684-5.498-35.587z" fill="#da4a54"/><circle cx="168.132" cy="73.542" fill="#f1f4f6" r="30.611"/></g><path d="m511.842 169.624-2.961 34.113c-2.106 24.219-13.137 46.604-31.059 63.035s-41.182 25.481-65.495 25.481h-49.919c-23.041 0-41.703-18.673-41.703-41.703 0-12.959 5.911-24.553 15.191-32.195 7.204-5.943 16.442-9.508 26.513-9.508h49.919c7.058 0 12.845-5.307 13.46-12.334l2.961-34.113c1.991-22.947 22.218-39.931 45.165-37.94 8.82.771 16.754 4.233 23.072 9.508.01 0 .021.01.031.031h.01c10.092 8.445 16.035 21.519 14.815 35.625z" fill="#9bd069"/><path d="m497.017 133.999c-.094-.01-.188-.021-.281-.031-22.947-1.991-43.163 14.992-45.165 37.94l-2.961 34.113c-.615 7.037-6.401 12.334-13.46 12.334h-99.254c7.204-5.943 16.442-9.508 26.513-9.508h49.919c7.058 0 12.845-5.307 13.46-12.334l2.961-34.113c1.991-22.947 22.218-39.931 45.165-37.94 8.82.771 16.754 4.233 23.072 9.508.01 0 .02.01.031.031z" fill="#7dbe3b"/><g><path d="m406.89 392.899c9.754-8.903 12.372-23.68 5.498-35.587-6.875-11.908-20.981-17.029-33.568-13.033-2.833-12.899-14.321-22.555-28.071-22.555-13.75 0-25.238 9.656-28.071 22.555-12.587-3.996-26.693 1.125-33.568 13.033-6.875 11.907-4.257 26.684 5.498 35.587-9.754 8.903-12.372 23.68-5.498 35.587 6.875 11.907 20.981 17.029 33.568 13.033 2.833 12.899 14.321 22.555 28.071 22.555 13.75 0 25.238-9.656 28.071-22.555 12.587 3.996 26.693-1.125 33.568-13.033 6.875-11.907 4.256-26.684-5.498-35.587z" fill="#da4a54"/><circle cx="350.749" cy="392.899" fill="#f1f4f6" r="30.611"/></g><g fill="#f1f4f6"><path d="m317.883 81.198c-1.375 0-2.766-.37-4.021-1.147-3.595-2.225-4.705-6.943-2.48-10.538l8.978-14.505c2.225-3.594 6.941-4.706 10.537-2.48 3.595 2.225 4.705 6.943 2.48 10.538l-8.978 14.505c-1.448 2.339-3.953 3.627-6.516 3.627z"/><path d="m445.072 140.451c-1.959 0-3.918-.747-5.413-2.242l-13.441-13.441c-2.99-2.989-2.99-7.836 0-10.826 2.989-2.99 7.836-2.989 10.826 0l13.441 13.441c2.99 2.989 2.99 7.836 0 10.826-1.494 1.495-3.453 2.242-5.413 2.242z"/><path d="m497.02 141.655c-1.398 0-2.812-.382-4.082-1.185-3.574-2.258-4.64-6.986-2.382-10.56l6.128-9.698c2.259-3.574 6.987-4.641 10.56-2.382 3.574 2.258 4.64 6.986 2.382 10.56l-6.128 9.698c-1.456 2.304-3.94 3.567-6.478 3.567z"/><path d="m478.448 297.241c-1.959 0-3.918-.747-5.413-2.242l-13.108-13.108c-2.99-2.989-2.99-7.836 0-10.826 2.989-2.99 7.836-2.989 10.826 0l13.108 13.108c2.99 2.989 2.99 7.836 0 10.826-1.495 1.495-3.454 2.242-5.413 2.242z"/><path d="m133.598 178.984c-1.153 0-2.324-.262-3.425-.814l-16.649-8.348c-3.779-1.895-5.307-6.495-3.412-10.274s6.494-5.307 10.274-3.412l16.649 8.348c3.779 1.895 5.307 6.495 3.412 10.274-1.343 2.679-4.044 4.226-6.849 4.226z"/><path d="m71.103 190.755c-1.172 0-2.36-.27-3.476-.839-3.765-1.923-5.259-6.534-3.336-10.299l8.142-15.945c1.924-3.765 6.533-5.258 10.299-3.336 3.765 1.923 5.259 6.534 3.336 10.299l-8.143 15.945c-1.352 2.65-4.037 4.175-6.822 4.175z"/><path d="m17.463 199.486c-2.486 0-4.924-1.209-6.396-3.439l-9.8-14.848c-2.329-3.528-1.357-8.277 2.172-10.605 3.527-2.328 8.276-1.357 10.605 2.172l9.8 14.848c2.329 3.528 1.357 8.277-2.172 10.605-1.298.857-2.761 1.267-4.209 1.267z"/><path d="m17.508 369.943c-1.959 0-3.918-.747-5.413-2.242-2.99-2.989-2.99-7.836 0-10.826l15.889-15.889c2.989-2.99 7.836-2.99 10.826 0 2.99 2.989 2.99 7.836 0 10.826l-15.889 15.889c-1.495 1.494-3.454 2.242-5.413 2.242z"/><path d="m137.521 271.515h-20.566c-4.228 0-7.655-3.427-7.655-7.655s3.427-7.655 7.655-7.655h20.566c4.228 0 7.655 3.427 7.655 7.655s-3.427 7.655-7.655 7.655z"/><path d="m277.234 170.636c-3.022 0-5.885-1.801-7.094-4.773l-7.426-18.263c-1.593-3.916.291-8.382 4.207-9.975 3.914-1.592 8.381.291 9.975 4.207l7.426 18.263c1.593 3.916-.291 8.382-4.207 9.975-.944.384-1.921.566-2.881.566z"/><path d="m295.272 184.634c-1.371 0-2.758-.368-4.011-1.141-3.599-2.219-4.717-6.936-2.497-10.534l14.266-23.13c2.219-3.598 6.934-4.717 10.533-2.497 3.599 2.219 4.717 6.936 2.497 10.534l-14.266 23.13c-1.446 2.346-3.954 3.638-6.522 3.638z"/><path d="m188.286 335.714c-3.075 0-5.976-1.867-7.146-4.909l-10.19-26.494c-1.518-3.946.451-8.375 4.397-9.893 3.946-1.517 8.375.451 9.893 4.397l10.19 26.494c1.518 3.946-.451 8.375-4.397 9.893-.904.347-1.833.512-2.747.512z"/><path d="m213.757 329.381c-.956 0-1.927-.18-2.867-.56-3.919-1.585-5.812-6.047-4.227-9.966l8.152-20.162c1.585-3.92 6.048-5.812 9.966-4.227 3.919 1.585 5.812 6.047 4.227 9.966l-8.152 20.162c-1.204 2.979-4.072 4.787-7.099 4.787z"/><path d="m227.011 471.73c-2.944 0-5.752-1.709-7.012-4.577l-9.171-20.87c-1.701-3.871.058-8.387 3.929-10.088 3.87-1.7 8.387.058 10.087 3.928l9.171 20.87c1.701 3.871-.058 8.387-3.929 10.088-1.002.441-2.047.649-3.075.649z"/><path d="m247.379 461.295c-1.229 0-2.476-.297-3.634-.923-3.719-2.011-5.104-6.655-3.093-10.374l11.702-21.644c2.01-3.719 6.653-5.105 10.374-3.093 3.719 2.011 5.104 6.655 3.093 10.374l-11.702 21.644c-1.384 2.561-4.019 4.016-6.74 4.016z"/></g></g></svg>