<svg id="Capa_1" enable-background="new 0 0 512 512" height="512" viewBox="0 0 512 512" width="512" xmlns="http://www.w3.org/2000/svg"><g><g fill="#e4936b"><path d="m466.297 327.128h-420.594c-25.241 0-45.703-20.462-45.703-45.703 0-25.241 20.462-45.703 45.703-45.703h420.595c25.241 0 45.703 20.462 45.703 45.703-.001 25.241-20.463 45.703-45.704 45.703z"/><path d="m414.046 235.723-158.047 28.374-158.045-28.374c-25.241 0-45.703-20.462-45.703-45.703 0-25.241 20.462-45.703 45.703-45.703h316.092c25.241 0 45.703 20.462 45.703 45.703 0 25.241-20.462 45.703-45.703 45.703z"/><path d="m325.366 144.317-59.582 20.154-79.149-20.154c-25.241 0-45.703-20.462-45.703-45.703 0-25.241 20.462-45.703 45.703-45.703h138.731c25.241 0 45.703 20.462 45.703 45.703-.001 25.241-20.462 45.703-45.703 45.703z"/><path d="m97.954 327.128 158.045-24.301 158.047 24.301c25.241 0 45.703 20.462 45.703 45.703 0 25.241-20.462 45.703-45.703 45.703h-316.092c-25.241 0-45.703-20.462-45.703-45.703 0-25.241 20.462-45.703 45.703-45.703z"/><path d="m186.634 418.534 85.358-21.051 53.373 21.051c25.241 0 45.703 20.462 45.703 45.703 0 25.241-20.462 45.703-45.703 45.703h-138.731c-25.241 0-45.703-20.462-45.703-45.703.001-25.241 20.462-45.703 45.703-45.703z"/><path d="m256 2.06c-26.424 0-47.845 21.421-47.845 47.845v3.007h95.69v-3.007c0-26.424-21.421-47.845-47.845-47.845z"/></g><path d="m249.983 52.911h-15.494v-29.339c0-11.878 9.632-21.51 21.51-21.51-26.424 0-47.841 21.417-47.841 47.841v3.008h-21.52c-12.62 0-24.044 5.11-32.317 13.382-8.272 8.272-13.392 19.707-13.392 32.327 0 25.239 20.47 45.699 45.709 45.699h-88.689c-12.62 0-24.044 5.12-32.317 13.382-8.272 8.272-13.382 19.697-13.382 32.317 0 25.239 20.459 45.709 45.699 45.709h-52.25c-12.62 0-24.044 5.11-32.317 13.382-8.272 8.272-13.382 19.697-13.382 32.316 0 25.239 20.459 45.709 45.699 45.709h52.251c-12.62 0-24.044 5.12-32.317 13.382-8.272 8.272-13.382 19.697-13.382 32.317 0 25.239 20.459 45.699 45.699 45.699h88.688c-12.62 0-24.044 5.12-32.317 13.392-8.272 8.272-13.392 19.697-13.392 32.317 0 25.239 20.47 45.699 45.709 45.699h63.346c-25.239 0-45.709-20.459-45.709-45.699 0-12.62 5.12-24.044 13.392-32.317 8.272-8.272 19.697-13.392 32.317-13.392h-39.858c-25.25 0-45.709-20.459-45.709-45.699 0-12.62 5.11-24.044 13.382-32.317 8.272-8.262 19.707-13.382 32.327-13.382h-23.488c-25.239 0-45.709-20.47-45.709-45.709 0-12.62 5.12-24.044 13.392-32.317 8.272-8.272 19.697-13.382 32.317-13.382h23.488c-25.25 0-45.709-20.47-45.709-45.709 0-12.62 5.11-24.044 13.382-32.317 8.272-8.262 19.707-13.382 32.327-13.382h39.858c-25.239 0-45.709-20.459-45.709-45.699 0-12.62 5.12-24.055 13.392-32.327 8.272-8.271 19.696-13.381 32.316-13.381z" fill="#dd6938"/><g><path d="m39.663 72.975c-1.142 0-2.302-.254-3.396-.791l-20.979-10.288c-3.832-1.879-5.414-6.508-3.535-10.339 1.879-3.832 6.508-5.414 10.339-3.535l20.979 10.288c3.832 1.879 5.414 6.508 3.535 10.339-1.342 2.736-4.088 4.326-6.943 4.326z" fill="#f1f4f6"/><g fill="#665e66"><path d="m185.572 125.891c-2.914 0-4.947-.339-5.473-.437-4.195-.781-6.963-4.816-6.181-9.011.777-4.176 4.779-6.937 8.953-6.191.288.045 8.076 1.213 13.968-3.343 4.414-3.414 7.032-9.465 7.782-17.984.375-4.251 4.119-7.391 8.374-7.019 4.251.374 7.393 4.124 7.019 8.374-1.154 13.109-5.843 22.872-13.937 29.018-7.252 5.505-15.289 6.593-20.505 6.593z"/><path d="m164.636 194.561c-2.078 0-4.15-.833-5.673-2.478-2.898-3.132-2.709-8.02.423-10.919 6.276-5.809 9.457-11.584 9.454-17.165-.004-7.55-5.855-13.041-5.915-13.095-3.186-2.838-3.444-7.7-.605-10.886 2.838-3.186 7.747-3.446 10.933-.608 1.116.994 10.903 10.119 11.038 24.308.097 10.163-4.752 19.848-14.41 28.786-1.485 1.376-3.367 2.057-5.245 2.057z"/></g><path d="m39.67 65.245c11.916-24.298 41.273-34.336 65.571-22.42l48.761 23.912c24.298 11.916 34.336 41.273 22.42 65.571-11.916 24.298-41.273 34.336-65.571 22.42l-48.761-23.913c-24.298-11.915-34.336-41.272-22.42-65.57z" fill="#f6e738"/><path d="m39.668 65.249c11.915-24.299 41.278-34.339 65.577-22.423l48.754 23.909c24.298 11.916 34.338 41.279 22.422 65.577 3.96-8.075-12.535-24.276-36.833-36.191l-48.754-23.909c-24.298-11.916-47.206-15.038-51.166-6.963z" fill="#ecc32e"/><g><g><path d="m132.846 49.568-23.809 48.551 1.401.687c26.814 13.149 59.21 2.072 72.36-24.742 6.764-13.794 1.066-30.46-12.728-37.224-13.794-6.764-30.459-1.065-37.224 12.728z" fill="#f1f4f6"/><path d="m127.175 61.132-18.138 36.987-1.068-.523c-20.427-10.018-28.866-34.698-18.848-55.125 5.153-10.508 17.85-14.85 28.358-9.696 10.508 5.153 14.85 17.849 9.696 28.357z" fill="#d0e2e7"/></g><g><path d="m84.325 148.512 23.809-48.551 1.401.687c26.814 13.149 37.891 45.546 24.742 72.36-6.764 13.794-23.43 19.492-37.224 12.728-13.794-6.764-19.493-23.43-12.728-37.224z" fill="#f1f4f6"/><path d="m89.995 136.948 18.138-36.987-1.068-.523c-20.427-10.017-45.108-1.579-55.125 18.849-5.153 10.508-.812 23.205 9.696 28.358 10.51 5.153 23.206.812 28.359-9.697z" fill="#d0e2e7"/></g></g></g><g><path d="m464.383 457.683c-2.913 0-5.702-1.655-7.011-4.471l-9.852-21.187c-1.799-3.869-.121-8.465 3.749-10.264 3.869-1.799 8.465-.121 10.264 3.749l9.852 21.187c1.799 3.869.121 8.465-3.749 10.264-1.055.49-2.163.722-3.253.722z" fill="#f1f4f6"/><path d="m454.524 428.768c-24.54 11.41-53.682.766-65.092-23.773l-22.898-49.246c-11.41-24.54-.766-53.682 23.773-65.092 24.54-11.41 53.682-.766 65.092 23.773l22.898 49.246c11.41 24.539.767 53.682-23.773 65.092z" fill="#f6e738"/><path d="m454.528 428.766c-24.54 11.41-53.689.764-65.099-23.775l-22.894-49.238c-11.41-24.54-.764-53.689 23.775-65.099-8.155 3.792-5.508 26.76 5.902 51.3l22.894 49.238c11.411 24.54 27.267 41.366 35.422 37.574z" fill="#ecc32e"/><g><g><path d="m372.199 382.399 49.033-22.799-.658-1.415c-12.591-27.08-44.752-38.826-71.832-26.235-13.931 6.477-19.973 23.022-13.496 36.953 6.478 13.931 23.022 19.973 36.953 13.496z" fill="#f1f4f6"/><path d="m383.877 376.969 37.355-17.369.501 1.078c9.592 20.63.644 45.131-19.986 54.723-10.613 4.935-23.217.331-28.151-10.281-4.935-10.613-.331-23.217 10.281-28.151z" fill="#d0e2e7"/></g><g><path d="m472.126 335.936-49.033 22.799-.658-1.415c-12.591-27.08-.846-59.241 26.235-71.832 13.931-6.477 30.475-.435 36.953 13.496 6.476 13.931.434 30.475-13.497 36.952z" fill="#f1f4f6"/><path d="m460.447 341.366-37.355 17.369.501 1.078c9.592 20.63 34.093 29.578 54.723 19.986 10.613-4.935 15.216-17.538 10.281-28.151-4.933-10.613-17.537-15.216-28.15-10.282z" fill="#d0e2e7"/></g></g><g fill="#665e66"><path d="m335.547 309.039c-1.931 0-3.864-.719-5.363-2.166-3.071-2.963-3.159-7.854-.196-10.925 9.137-9.471 18.926-14.118 29.078-13.81 14.184.429 23.105 10.403 24.075 11.539 2.772 3.244 2.389 8.122-.856 10.893-3.229 2.759-8.075 2.393-10.854-.81-.18-.199-5.509-6.021-12.966-6.18-5.54-.116-11.418 2.942-17.357 9.097-1.516 1.572-3.538 2.362-5.561 2.362z"/><path d="m404.865 293.625c-3.719 0-7.005-2.714-7.63-6.502-.243-1.474-2.121-14.723 6.693-25.845 6.312-7.965 16.17-12.451 29.3-13.333 4.253-.286 7.941 2.934 8.227 7.191.286 4.258-2.933 7.941-7.191 8.227-8.533.573-14.637 3.066-18.141 7.408-4.742 5.875-3.642 13.823-3.63 13.903.694 4.211-2.161 8.154-6.371 8.848-.423.069-.843.103-1.257.103z"/></g></g></g></svg>