<svg id="Capa_1" enable-background="new 0 0 512 512" height="512" viewBox="0 0 512 512" width="512" xmlns="http://www.w3.org/2000/svg"><g><path d="m504.271 195.41c0 18.904-15.329 34.233-34.233 34.233h-109.405c-23.952 0-43.371-19.419-43.371-43.371 0-23.962 19.419-43.381 43.371-43.381h.051c1.123-29.7 25.548-53.446 55.516-53.446 2.658 0 5.264.185 7.819.546.319.041.628.093.948.144 26.527 4.203 46.811 27.176 46.811 54.888 0 5.625-.845 11.054-2.4 16.174.216-.01.443-.021.659-.021 18.905.001 34.234 15.33 34.234 34.234z" fill="#f9f6f9"/><path d="m424.02 89.992c-26.146-3.307-38.405 46.914-22.489 69.558 0 0-29.535 7.469-29.535 32.976s14.773 37.117 32.894 37.117h-44.257c-23.952 0-43.371-19.419-43.371-43.371 0-23.962 19.419-43.381 43.371-43.381h.051c1.123-29.7 25.548-53.446 55.516-53.446 2.658.001 5.265.186 7.82.547z" fill="#dfdde2"/><path d="m512 510.017h-396.877l132.966-258.411 39.095-75.966c5.172-10.075 14.68-15.412 24.436-16.03 11.054-.711 22.448 4.636 28.309 16.03l46.873 91.078z" fill="#665e66"/><path d="m311.619 159.611-34.161 350.406h-162.335l132.966-258.411 39.095-75.966c5.171-10.074 14.68-15.411 24.435-16.029z" fill="#454045"/><path d="m386.802 266.719-10.601 36.108-51.221-36.108-42.691 19.089-34.202-34.202 39.092-75.969c11.04-21.454 41.712-21.455 52.752 0z" fill="#f1f4f6"/><path d="m311.597 159.61c-9.755.631-19.24 5.973-24.413 16.027l-39.092 75.969 34.202 34.202 17.803-7.96 11.527-118.237c-.01.001-.019-.002-.027-.001z" fill="#d0e2e7"/><path d="m340.949 510.017h-340.949l92.078-169.609 52.323-96.394c4.543-8.355 12.105-13.341 20.243-14.938 11.981-2.359 25.219 2.627 31.905 14.938l42.917 79.066v.01z" fill="#665e66"/><path d="m164.644 229.076-49.521 280.941h-115.123l92.078-169.609 52.323-96.394c4.543-8.355 12.104-13.341 20.243-14.938z" fill="#454045"/><path d="m239.466 323.08v.01l-64.932 29.916-29.916-29.916-52.539 17.317 52.327-96.39c11.227-20.681 40.912-20.681 52.139 0z" fill="#f1f4f6"/><path d="m144.405 244.018-52.327 96.39 52.539-17.317 2.937 2.937 17.089-96.951c-8.137 1.599-15.697 6.577-20.238 14.941z" fill="#d0e2e7"/><path d="m188.286 107.947c0 18.904-15.329 34.233-34.233 34.233h-109.405c-23.952 0-43.371-19.419-43.371-43.371 0-23.962 19.419-43.381 43.371-43.381h.052c1.123-29.7 25.548-53.446 55.516-53.446 2.658 0 5.264.185 7.819.546.319.041.628.093.948.144 26.527 4.203 46.811 27.176 46.811 54.888 0 5.625-.845 11.054-2.4 16.174.216-.01.443-.021.659-.021 18.904.002 34.233 15.331 34.233 34.234z" fill="#f9f6f9"/><path d="m108.035 2.529c-26.146-3.307-38.405 46.915-22.489 69.558 0 0-29.535 7.469-29.535 32.976s14.773 37.117 32.894 37.117h-44.257c-23.952 0-43.371-19.419-43.371-43.371 0-23.962 19.419-43.381 43.371-43.381h.052c1.123-29.7 25.548-53.446 55.516-53.446 2.658.001 5.264.187 7.819.547z" fill="#dfdde2"/></g></svg>