<svg id="Capa_1" enable-background="new 0 0 497 497" height="512" viewBox="0 0 497 497" width="512" xmlns="http://www.w3.org/2000/svg"><g><path d="m53.363 222.871c-24.712-50.763 16.446-72.685 16.446-119.389 0 0 54.624 17.497 37.031 88.998 0 0 52.834 0 52.834-58.966 0 0 36.526 24.134 27.031 64.594 0 0 44.055-24.311 44.055-71.093s20.731-64.14 46.143-72.076c0 0-16.726 53.767 26.793 62.04s71.506 39.81 71.506 75.011c0 0 40.488-31.877 40.488-64.975 0 0 65.668 35.197 27.947 95.855l-142.96 142.96-167.774-12.974" fill="#da4a54"/><path d="m0 300.302c0-45.748 37.086-82.833 82.833-82.833s82.833 37.086 82.833 82.833c0-45.748 37.086-82.833 82.833-82.833s82.833 37.086 82.833 82.833c0-45.748 37.086-82.833 82.833-82.833s82.835 37.086 82.835 82.833v122.706h-497" fill="#454045"/><path d="m165.193 291.449c-14.26 11.62-32.45 18.58-52.28 18.58-42.75 0-77.95-32.39-82.36-73.98 14.26-11.62 32.45-18.58 52.28-18.58 42.75 0 77.95 32.39 82.36 73.98z" fill="#9bd069"/><path d="m165.193 291.449c-14.26 11.62-32.45 18.58-52.28 18.58-42.75 0-77.95-32.39-82.36-73.98 14.26-11.62 32.45-18.58 52.28-18.58 42.75 0 77.95 32.39 82.36 73.98z" fill="#665e66"/><path d="m330.86 291.449c-14.26 11.62-32.45 18.58-52.28 18.58-42.75 0-77.95-32.39-82.36-73.98 14.26-11.62 32.45-18.58 52.28-18.58 42.75 0 77.95 32.39 82.36 73.98z" fill="#9bd069"/><path d="m330.86 291.449c-14.26 11.62-32.45 18.58-52.28 18.58-42.75 0-77.95-32.39-82.36-73.98 14.26-11.62 32.45-18.58 52.28-18.58 42.75 0 77.95 32.39 82.36 73.98z" fill="#665e66"/><path d="m496.527 291.449c-14.26 11.62-32.45 18.58-52.28 18.58-42.75 0-77.95-32.39-82.36-73.98 14.26-11.62 32.45-18.58 52.28-18.58 42.75 0 77.95 32.39 82.36 73.98z" fill="#9bd069"/><path d="m496.527 291.449c-14.26 11.62-32.45 18.58-52.28 18.58-42.75 0-77.95-32.39-82.36-73.98 14.26-11.62 32.45-18.58 52.28-18.58 42.75 0 77.95 32.39 82.36 73.98z" fill="#665e66"/><path d="m0 300.302c45.748 0 82.833 37.086 82.833 82.833 0-45.748 37.086-82.833 82.833-82.833s82.833 37.086 82.833 82.833c0-45.748 37.086-82.833 82.833-82.833s82.833 37.086 82.833 82.833c0-45.748 37.086-82.833 82.833-82.833v171.069h-496.998z" fill="#7dbe3b"/><g fill="#9bd069"><path d="m497 300.301v86.93c-28.25-11.01-48.96-37.08-52.28-68.35 14.26-11.62 32.45-18.58 52.28-18.58z"/><path d="m413.693 374.282c-14.26 11.62-32.45 18.58-52.28 18.58-42.75 0-77.95-32.39-82.36-73.98 14.26-11.62 32.45-18.58 52.28-18.58 42.75 0 77.95 32.39 82.36 73.98z"/><path d="m248.027 374.282c-14.26 11.62-32.45 18.58-52.28 18.58-42.75 0-77.95-32.39-82.36-73.98 14.26-11.62 32.45-18.58 52.28-18.58 42.75 0 77.95 32.39 82.36 73.98z"/><path d="m82.36 374.281c-14.26 11.62-32.45 18.58-52.28 18.58-10.61 0-20.76-2-30.08-5.63v-86.93c42.75 0 77.95 32.39 82.36 73.98z"/></g><path d="m384.764 120.615c44.499-44.499-38.101-76.885 0-114.986 0 0-52.341 24.036-42.21 57.493 10.13 33.457 42.21 29.188 42.21 57.493z" fill="#da4a54"/><path d="m0 465.969c0-45.748 37.086-82.833 82.833-82.833s82.833 37.086 82.833 82.833c0-45.748 37.086-82.833 82.833-82.833s82.833 37.086 82.833 82.833c0-45.748 37.086-82.833 82.833-82.833s82.835 37.085 82.835 82.833v25.403h-497" fill="#7dbe3b"/><path d="m165.193 457.115c-14.26 11.62-32.45 18.58-52.28 18.58-42.75 0-77.95-32.39-82.36-73.98 14.26-11.62 32.45-18.58 52.28-18.58 42.75 0 77.95 32.39 82.36 73.98z" fill="#9bd069"/><path d="m330.86 457.115c-14.26 11.62-32.45 18.58-52.28 18.58-42.75 0-77.95-32.39-82.36-73.98 14.26-11.62 32.45-18.58 52.28-18.58 42.75 0 77.95 32.39 82.36 73.98z" fill="#9bd069"/><path d="m496.527 457.115c-14.26 11.62-32.45 18.58-52.28 18.58-42.75 0-77.95-32.39-82.36-73.98 14.26-11.62 32.45-18.58 52.28-18.58 42.75 0 77.95 32.39 82.36 73.98z" fill="#9bd069"/></g></svg>