<svg id="Layer_1" enable-background="new 0 0 512.242 512.242" height="512" viewBox="0 0 512.242 512.242" width="512" xmlns="http://www.w3.org/2000/svg"><g><path d="m322.844 424.304h189.398v87.788h-189.398z" fill="#4895ff"/><path d="m322.844 424.304h189.398v87.788h-189.398z" fill="#0b799d"/><path d="m96.631 424.304h289.358v87.788h-289.358z" fill="#5ecef4"/><path d="m228.157 424.304h157.831v87.788h-157.831z" fill="#4895ff"/><path d="m512.242 94.849c0-17.433-14.133-31.566-31.566-31.566-17.434 0-31.566 14.133-31.566 31.566v136.202-136.202-31.566c0-17.434-14.133-31.566-31.566-31.566-17.433 0-31.566 14.133-31.566 31.566v167.768-167.768-31.567c0-17.434-14.133-31.566-31.566-31.566-17.433 0-31.566 14.133-31.566 31.566v416.639h189.398v-353.506z" fill="#5ecef4"/><path d="m512.242 94.849c0-17.433-14.133-31.566-31.566-31.566-17.434 0-31.566 14.133-31.566 31.566v136.202-136.202-31.566c0-17.434-14.133-31.566-31.566-31.566-17.433 0-31.566 14.133-31.566 31.566v167.768-167.768-31.567c0-17.434-14.133-31.566-31.566-31.566-17.433 0-31.566 14.133-31.566 31.566v416.639h189.398v-353.506z" fill="#4895ff"/><path d="m385.989 94.849c0-17.433-14.133-31.566-31.566-31.566-17.434 0-31.566 14.133-31.566 31.566v136.202-136.202-31.566c0-17.434-14.133-31.566-31.566-31.566-17.434 0-31.566 14.133-31.566 31.566v167.768-167.768-31.567c0-17.434-14.133-31.566-31.566-31.566-17.434 0-31.566 14.133-31.566 31.566v31.566 167.768-167.767c0-17.434-14.133-31.566-31.566-31.566-17.434 0-31.566 14.133-31.566 31.566v173.294c0 14.382-11.659 26.041-26.041 26.041-6.907 0-13.53-2.744-18.414-7.627l-35.281-35.281c-12.108-12.108-31.74-12.108-43.848 0l-.794.793c-12.108 12.108-12.108 31.74 0 43.848l47.181 47.181c25.848 25.848 40.369 60.905 40.369 97.46v39.365h289.358v-353.508z" fill="#9ee2f8"/><path d="m385.989 94.849c0-17.433-14.133-31.566-31.566-31.566s-31.566 14.133-31.566 31.566v136.202-136.202-31.566c0-17.434-14.133-31.566-31.566-31.566-17.434 0-31.566 14.133-31.566 31.566v167.768-167.768-31.567c0-17.434-14.133-31.566-31.566-31.566v448.206h157.831v-353.507z" fill="#5ecef4"/></g></svg>