<svg id="Layer_1" enable-background="new 0 0 511.96 511.96" height="512" viewBox="0 0 511.96 511.96" width="512" xmlns="http://www.w3.org/2000/svg"><g><g><path d="m207.802 30.002h52.333v30h-52.333z" fill="#0b799d"/></g><g><path d="m207.802 30.002h52.333v30h-52.333z" fill="#07485e"/></g><g><path d="m207.802 90.006h39.332v30h-39.332z" fill="#0b799d"/></g><g><path d="m207.802 90.006h39.332v30h-39.332z" fill="#07485e"/></g><g><path d="m207.802 150.01h52.333v30h-52.333z" fill="#0b799d"/></g><g><path d="m207.802 150.01h52.333v30h-52.333z" fill="#07485e"/></g><g><path d="m207.802 210.013h39.332v30h-39.332z" fill="#0b799d"/></g><g><path d="m207.802 210.013h39.332v30h-39.332z" fill="#07485e"/></g><g><path d="m207.802 270.017h52.333v30h-52.333z" fill="#0b799d"/></g><g><path d="m207.802 270.017h52.333v30h-52.333z" fill="#07485e"/></g><path d="m207.802 335.993v-320.993h-120.008v320.993c-19.395 16.808-31.663 41.621-31.663 69.3 0 50.626 41.041 91.667 91.667 91.667s91.667-41.041 91.667-91.667c0-27.679-12.268-52.492-31.663-69.3z" fill="#fff5f5"/><path d="m207.802 335.993v-320.993h-60.004v481.96c50.626 0 91.667-41.041 91.667-91.667 0-27.679-12.268-52.492-31.663-69.3z" fill="#e1ebf0"/><path d="m147.798 511.96c-58.816 0-106.667-47.851-106.667-106.667 0-28.598 11.458-55.858 31.663-75.843v-329.45h150.008v329.45c20.205 19.985 31.663 47.246 31.663 75.843 0 58.816-47.851 106.667-106.667 106.667zm-45.004-481.96v312.842l-5.176 4.486c-16.833 14.588-26.487 35.715-26.487 57.965 0 42.274 34.393 76.667 76.667 76.667s76.667-34.393 76.667-76.667c0-22.25-9.654-43.377-26.487-57.965l-5.176-4.486v-312.842z" fill="#e1ebf0"/><path d="m162.798 360.41v-255.429h-30v255.429c-18.767 6.289-32.333 24.026-32.333 44.883 0 26.1 21.233 47.333 47.333 47.333s47.333-21.233 47.333-47.333c0-20.857-13.566-38.594-32.333-44.883z" fill="#ff415b"/><path d="m382.137 66.511-88.692 127.645h43.69v105.861h90.004v-105.861h43.69z" fill="#ff415b"/><path d="m222.802 329.45v-329.45h-75.004v30h45.004v312.842l5.176 4.486c16.833 14.588 26.487 35.715 26.487 57.965 0 42.274-34.393 76.667-76.667 76.667v30c58.816 0 106.667-47.851 106.667-106.667 0-28.597-11.458-55.858-31.663-75.843z" fill="#b4d2d7"/><g fill="#e50058"><path d="m195.131 405.293c0-20.857-13.566-38.594-32.333-44.883v-255.429h-15v347.645c26.099 0 47.333-21.233 47.333-47.333z"/><path d="m382.137 66.511v233.506h45.002v-105.861h43.69z"/></g></g></svg>