<svg id="Layer_1" enable-background="new 0 0 511.86 511.86" height="512" viewBox="0 0 511.86 511.86" width="512" xmlns="http://www.w3.org/2000/svg"><g><path d="m350.992 198.239c-.918 0-1.838.021-2.758.064-12.079-14.954-29.344-24.46-48.479-26.65-17.353-25.47-46.306-40.979-77.438-40.979-31.134 0-60.088 15.509-77.438 40.979-19.135 2.189-36.399 11.696-48.479 26.65-.92-.043-1.84-.064-2.758-.064-33.022 0-59.889 26.866-59.889 59.889v28.527l111.923 108.483h265.204v-137.01c.001-33.023-26.865-59.889-59.888-59.889z" fill="#fff5f5"/><path d="m410.881 258.128c0-33.023-26.866-59.889-59.889-59.889-.918 0-1.838.021-2.758.064-12.079-14.954-29.344-24.46-48.479-26.65-17.353-25.47-46.306-40.979-77.438-40.979v264.464h188.563v-137.01z" fill="#e1ebf0"/><path d="m362.169 43.043c-24.077 0-43.666 19.589-43.666 43.667s19.589 43.667 43.666 43.667c24.078 0 43.667-19.589 43.667-43.667s-19.589-43.667-43.667-43.667z" fill="#fff5f5"/><path d="m77.42 73.341c-24.077 0-43.666 19.589-43.666 43.667s19.589 43.667 43.666 43.667c24.078 0 43.667-19.589 43.667-43.667s-19.589-43.667-43.667-43.667z" fill="#fff5f5"/><g><path d="m257.32 44.043h30v30.002h-30z" fill="#9ee2f8"/></g><g><path d="m157.314 74.045h30v30.002h-30z" fill="#9ee2f8"/></g><path d="m5.768 296.182-5.768 5.769 166.867 166.867h173.207l67.52-51.368h104.266v-168.821h-122.948l-104.83 29.839h-69.701c-21.854 0-39.569 17.716-39.569 39.569v11.808h109.541v31.468h-131.792l-65.131-65.131c-22.55-22.55-59.111-22.55-81.662 0z" fill="#ffd4c4"/><path d="m388.912 248.629-104.83 29.839h-61.765v51.377h62.036v31.468h-62.036v107.504h117.757l67.519-51.367h104.267v-168.821z" fill="#ffbea4"/><path d="m362.169 43.043c-24.077 0-43.666 19.589-43.666 43.667s19.589 43.667 43.666 43.667c24.078 0 43.667-19.589 43.667-43.667s-19.589-43.667-43.667-43.667z" fill="#e1ebf0"/><g><path d="m257.32 44.043h30v30.002h-30z" fill="#5ecef4"/></g></g></svg>