<svg id="Layer_1" enable-background="new 0 0 512.173 512.173" height="512" viewBox="0 0 512.173 512.173" width="512" xmlns="http://www.w3.org/2000/svg"><g><path d="m256.086 28.702-213.65 187.622v267.148h427.301v-267.148z" fill="#fff5f5"/><path d="m469.737 216.324-213.651-187.622v454.77h213.651z" fill="#e1ebf0"/><g><path d="m492.375 261.177-236.289-207.548-236.288 207.548-19.798-22.541 256.086-224.937 256.087 224.937z" fill="#ff415b"/></g><path d="m256.074 137.636-160.318 276.994h320.698z" fill="#ffda44"/><path d="m256.086 137.657v276.973h160.368z" fill="#ffb655"/><g><path d="m241.102 259.603h30v54.5h-30z" fill="#0b799d"/></g><g><path d="m241.086 333.655h30v30.002h-30z" fill="#0b799d"/></g><g><path d="m17.434 468.473h477.306v30h-477.306z" fill="#e1ebf0"/></g><path d="m512.173 238.636-256.087-224.937v39.93l236.289 207.548z" fill="#e50058"/><path d="m256.086 468.473h238.653v30h-238.653z" fill="#b4d2d7"/><g fill="#07485e"><path d="m256.086 259.603h15.016v54.5h-15.016z"/><path d="m256.086 333.655h15v30.002h-15z"/></g></g></svg>