<svg id="Layer_1" enable-background="new 0 0 511.984 511.984" height="512" viewBox="0 0 511.984 511.984" width="512" xmlns="http://www.w3.org/2000/svg"><g><path d="m302.958 229.333h90.004v88.897h-90.004z" fill="#0b799d"/><path d="m347.959 229.333h45.002v88.897h-45.002z" fill="#07485e"/><path d="m347.96 0c-27.754 0-50.334 22.579-50.334 50.333v38.564h100.667v-38.564c0-27.754-22.58-50.333-50.333-50.333z" fill="#0b799d"/><path d="m398.292 50.333c0-27.754-22.579-50.333-50.333-50.333v88.897h50.333z" fill="#07485e"/><path d="m154.961 416.979h298v95.005h-298z" fill="#fff5f5"/><path d="m347.959 416.979h105.002v95.005h-105.002z" fill="#e1ebf0"/><g><path d="m169.961 401.979h317.069v30h-317.069z" fill="#e1ebf0"/></g><path d="m176.507 88.899c-67.023 0-121.552 54.528-121.552 121.552v165.772h100.004v-147.441c0-21.989 17.89-39.878 39.879-39.878h108.122v-100.005z" fill="#e1ebf0"/><path d="m272.96 58.897h150v200.436h-150z" fill="#fff5f5"/><path d="m104.958 336.004c-44.114 0-80.004 35.89-80.004 80.004v95.977h160.008v-95.977c-.001-44.114-35.89-80.004-80.004-80.004z" fill="#0b799d"/><g><path d="m89.958 411.41h30v30.001h-30z" fill="#fff5f5"/></g><path d="m347.959 401.979h139.071v30h-139.071z" fill="#b4d2d7"/><path d="m347.959 58.897h75v200.436h-75z" fill="#e1ebf0"/></g></svg>