<svg id="Layer_1" enable-background="new 0 0 512.022 512.022" height="512" viewBox="0 0 512.022 512.022" width="512" xmlns="http://www.w3.org/2000/svg"><g><path d="m67.201 331.153-43.648 43.649c-15.183 15.183-23.543 35.368-23.543 56.839s8.36 41.656 23.543 56.838c15.182 15.182 35.367 23.543 56.838 23.543s41.656-8.361 56.838-23.543l43.648-43.648z" fill="#9ee2f8"/><path d="m80.391 512.022c21.471 0 41.656-8.361 56.838-23.543l43.648-43.648-56.838-56.838-100.486 100.485c15.182 15.183 35.367 23.544 56.838 23.544z" fill="#5ecef4"/><path d="m500.93 11.1c-7.158-7.158-16.675-11.1-26.798-11.1s-19.639 3.942-26.797 11.1l-27.592 27.592 53.595 53.596 27.592-27.592c14.776-14.777 14.776-38.819 0-53.596z" fill="#e1ebf0"/><path d="m446.541 65.491 26.797 26.797 27.592-27.592c14.776-14.776 14.776-38.818.001-53.594z" fill="#b4d2d7"/><path d="m87.739 271.187h175.448v130.763h-175.448z" fill="#e1ebf0" transform="matrix(.707 -.707 .707 .707 -186.598 222.65)"/><path d="m110.855 326.993h175.448v65.381h-175.448z" fill="#b4d2d7" transform="matrix(.707 -.707 .707 .707 -196.172 245.765)"/><path d="m342.648 60.166h142.636v75.796h-142.636z" fill="#fff5f5" transform="matrix(.707 -.707 .707 .707 51.907 321.44)"/><path d="m356.048 92.514h142.636v37.896h-142.636z" fill="#e1ebf0" transform="matrix(.707 -.707 .707 .707 46.358 334.842)"/><g><path d="m129.772 321.568h91.382v30h-91.382z" fill="#ff415b" transform="matrix(.707 -.707 .707 .707 -186.598 222.65)"/></g><path d="m393.929 231.778 12.581-72.663-53.596-53.595-72.66 12.581-234.266 234.266 113.676 113.677zm-234.265 191.839-71.25-71.25 102.848-102.847 35.625 35.625 35.625 35.625z" fill="#0b799d"/><path d="m226.887 285.144 35.625 35.626-102.848 102.847-35.625-35.625-21.213 21.213 56.838 56.838 234.265-234.265 12.58-72.662-26.797-26.797z" fill="#07485e"/><g><path d="m264.702 217.318h30.023v30h-30.023z" fill="#5ecef4" transform="matrix(.707 -.707 .707 .707 -82.347 265.832)"/></g><g><path d="m303.624 178.396h30.023v30h-30.023z" fill="#5ecef4" transform="matrix(.707 -.707 .707 .707 -43.426 281.954)"/></g><path d="m135.075 334.372h91.382v15h-91.382z" fill="#e50058" transform="matrix(.707 -.707 .707 .707 -188.794 227.952)"/><g fill="#4895ff"><path d="m270.005 230.121h30.023v15h-30.023z" transform="matrix(.707 -.707 .707 .707 -84.543 271.139)"/><path d="m308.927 191.199h30.023v15h-30.023z" transform="matrix(.707 -.707 .707 .707 -45.622 287.257)"/></g></g></svg>