<svg id="Layer_1" enable-background="new 0 0 512 512" height="512" viewBox="0 0 512 512" width="512" xmlns="http://www.w3.org/2000/svg"><g><path d="m418.868 141.819c-11.928-20.362-29.024-37.408-49.44-49.295l-3.499-2.037h-219.858l-3.498 2.036c-20.42 11.885-37.518 28.93-49.445 49.293-12.275 20.957-18.763 44.989-18.763 69.498v191.723h363.271v-191.723c0-24.504-6.49-48.535-18.768-69.495z" fill="#64504b"/><path d="m437.636 211.314c0-24.504-6.49-48.535-18.768-69.495-11.928-20.362-29.024-37.408-49.44-49.295l-3.499-2.037h-109.825v312.549h181.532z" fill="#3e322e"/><path d="m379.433 279.603v-90.329h-70.256c-29.265 0-53.074-23.809-53.074-53.074 0 29.265-23.809 53.074-53.074 53.074h-70.463v90.329c0 8.233.817 16.277 2.362 24.063h242.143c1.545-7.786 2.362-15.83 2.362-24.063z" fill="#ffd4c4"/><path d="m379.433 279.603v-90.329h-70.256c-29.265 0-53.074-23.809-53.074-53.074v167.466h120.968c1.545-7.786 2.362-15.83 2.362-24.063z" fill="#ffbea4"/><path d="m340.512 373.037h-169.024c-53.554 0-97.124 43.57-97.124 97.124v41.839h363.271v-41.839c.001-53.555-43.569-97.124-97.123-97.124z" fill="#5ecef4"/><path d="m437.636 470.161c0-53.554-43.57-97.124-97.124-97.124h-84.408v138.963h181.532z" fill="#4895ff"/><g><path d="m241 388.037h30v123.963h-30z" fill="#fff5f5"/></g><path d="m256.104 388.037h14.896v123.963h-14.896z" fill="#e1ebf0"/><g><path d="m194.287 230.55h30v27.443h-30z" fill="#64504b"/></g><g><path d="m287.713 230.55h30v27.443h-30z" fill="#64504b"/></g><path d="m382.476 28.673c-43.551-19.294-84.921-28.673-126.476-28.673s-82.925 9.379-126.476 28.673l-11.318 5.014 27.04 117.513h221.509l27.04-117.513z" fill="#fff5f5"/><path d="m393.794 33.687-11.318-5.014c-43.514-19.278-84.852-28.657-126.372-28.672v151.199h110.65z" fill="#e1ebf0"/><path d="m285.676 62.017h-14.572v-14.573h-30v14.573h-14.573v30h14.573v14.572h30v-14.572h14.572z" fill="#ff415b"/><path d="m379.401 282.157h-246.802c1.365 66.887 56.193 120.88 123.401 120.88 67.207 0 122.036-53.993 123.401-120.88z" fill="#e1ebf0"/><path d="m256.104 403.035c67.16-.056 121.933-54.026 123.297-120.879h-123.297z" fill="#b4d2d7"/><g><path d="m287.713 230.55h30v27.443h-30z" fill="#3e322e"/></g><path d="m271.104 62.017v-14.573h-15v59.145h15v-14.572h14.572v-30z" fill="#e50058"/></g></svg>