<svg id="Layer_1" enable-background="new 0 0 511.771 511.771" height="512" viewBox="0 0 511.771 511.771" width="512" xmlns="http://www.w3.org/2000/svg"><g><g><path d="m434.986 362.392h-15.02v-30h15.02c25.798 0 46.785-20.987 46.785-46.785v-183.501c0-25.797-20.987-46.785-46.785-46.785-25.797 0-46.784 20.987-46.784 46.785v18.222h-30v-18.222c0-42.339 34.445-76.785 76.784-76.785 42.34 0 76.785 34.445 76.785 76.785v183.501c0 42.339-34.445 76.785-76.785 76.785z" fill="#0b799d"/></g><g><path d="m434.986 362.392h-15.02v-30h15.02c25.798 0 46.785-20.987 46.785-46.785v-183.501c0-25.797-20.987-46.785-46.785-46.785-25.797 0-46.784 20.987-46.784 46.785v18.222h-30v-18.222c0-42.339 34.445-76.785 76.784-76.785 42.34 0 76.785 34.445 76.785 76.785v183.501c0 42.339-34.445 76.785-76.785 76.785z" fill="#07485e"/></g><g><path d="m91.804 362.392h-15.019c-42.34 0-76.785-34.446-76.785-76.785v-183.501c0-42.339 34.445-76.785 76.785-76.785 42.339 0 76.784 34.445 76.784 76.785v18.222h-30v-18.222c0-25.797-20.987-46.785-46.784-46.785-25.798 0-46.785 20.988-46.785 46.785v183.501c0 25.797 20.987 46.785 46.785 46.785h15.019z" fill="#0b799d"/></g><path d="m387.167 114.851c-10.393-26.498-28.314-48.98-51.83-65.017-23.515-16.037-50.988-24.513-79.451-24.513s-55.937 8.477-79.451 24.513c-23.516 16.037-41.438 38.519-51.83 65.017l-54.199 138.198v47.922c0 102.273 83.206 185.479 185.479 185.479s185.479-83.206 185.479-185.479v-47.922z" fill="#e1ebf0"/><path d="m387.167 114.851c-10.393-26.498-28.314-48.98-51.83-65.017-23.515-16.037-50.988-24.513-79.451-24.513v461.129c102.273 0 185.479-83.206 185.479-185.479v-47.922z" fill="#b4d2d7"/><circle cx="255.886" cy="319.867" fill="#725d57" r="88.333"/><path d="m255.886 231.534v176.667c48.785 0 88.333-39.548 88.333-88.333s-39.548-88.334-88.333-88.334z" fill="#64504b"/><path d="m255.886 423.201c-56.978 0-103.333-46.355-103.333-103.333s46.355-103.333 103.333-103.333 103.333 46.355 103.333 103.333-46.356 103.333-103.333 103.333zm0-176.667c-40.436 0-73.333 32.897-73.333 73.333s32.897 73.333 73.333 73.333 73.333-32.897 73.333-73.333-32.898-73.333-73.333-73.333z" fill="#64504b"/><g><path d="m240.886 334.868h30v30.002h-30z" fill="#64504b"/></g><g><path d="m240.886 274.865h30v30.001h-30z" fill="#64504b"/></g><g><path d="m210.883 304.867h30.002v30h-30.002z" fill="#64504b"/></g><g><path d="m270.887 304.867h30.002v30h-30.002z" fill="#64504b"/></g><g><path d="m299.586 195.192c-29.406-17.26-57.994-17.26-87.4 0l-15.186-25.872c39.074-22.936 78.697-22.936 117.771 0z" fill="#fff5f5"/></g><g><path d="m296.556 134.399c-27.367-16.063-53.973-16.063-81.34 0l-15.186-25.872c37.063-21.755 74.648-21.755 111.711 0z" fill="#fff5f5"/></g><g><path d="m270.887 304.867h30.002v30h-30.002z" fill="#3e322e"/></g><path d="m314.771 169.32c-19.537-11.468-39.211-17.202-58.886-17.202v30.129c14.499 0 28.997 4.315 43.7 12.945z" fill="#e1ebf0"/><path d="m311.741 108.527c-18.531-10.877-37.193-16.316-55.855-16.316v30.141c13.493 0 26.986 4.016 40.67 12.047z" fill="#e1ebf0"/><g fill="#3e322e"><path d="m255.886 216.534v30c40.436 0 73.333 32.897 73.333 73.333s-32.897 73.333-73.333 73.333v30c56.978 0 103.333-46.355 103.333-103.333s-46.356-103.333-103.333-103.333z"/><path d="m255.886 334.868h15v30.002h-15z"/><path d="m255.886 274.865h15v30.001h-15z"/></g></g></svg>