<svg id="Layer_1" enable-background="new 0 0 512.022 512.022" height="512" viewBox="0 0 512.022 512.022" width="512" xmlns="http://www.w3.org/2000/svg"><g><g><path d="m329.878 159.994h30v34.07h-30z" fill="#e1ebf0"/></g><g><path d="m329.878 159.994h30v34.07h-30z" fill="#b4d2d7"/></g><g><path d="m152.144 159.994h30v34.07h-30z" fill="#e1ebf0"/></g><path d="m271.027 21.069v-21.069h-30v21.069h-88.883v74.457h30v-44.457h58.883v220.466h30v-220.466h58.851v44.457h30v-74.457z" fill="#e1ebf0"/><path d="m271.027 51.069h58.851v44.457h30v-74.457h-88.851v-21.069h-15.016v271.535h15.016z" fill="#b4d2d7"/><path d="m210.947 401.812h90.129v70.078h-90.129z" fill="#fff5f5"/><path d="m256.011 401.812h45.064v70.078h-45.064z" fill="#e1ebf0"/><path d="m149.808 341.684h212.406v75.128h-212.406z" fill="#e1ebf0"/><path d="m256.011 341.684h106.203v75.128h-106.203z" fill="#b4d2d7"/><g fill="#fff5f5"><path d="m299.814 80.526v49.466c0 24.814 20.188 45.002 45.002 45.002h.124c24.814 0 45.002-20.188 45.002-45.002v-49.466z"/><path d="m122.081 129.992c0 24.814 20.188 45.002 45.002 45.002h.124c24.814 0 45.002-20.188 45.002-45.002v-49.466h-90.128z"/><path d="m81.361 196.407h-67.032v90.122l130.771.058v-26.441c0-35.146-28.594-63.739-63.739-63.739z"/></g><path d="m14.329 256.535h483.365v85.15h-483.365z" fill="#5ecef4"/><path d="m256.011 256.535h241.682v85.15h-241.682z" fill="#4895ff"/><g><path d="m511.993 356.684h-511.963v-200.783h30v170.783h451.963v-102.64h30z" fill="#0b799d"/></g><g><path d="m140.375 456.89h231.271v30h-231.271z" fill="#e1ebf0"/></g><path d="m256.011 456.89h115.636v30h-115.636z" fill="#b4d2d7"/><circle cx="115.243" cy="471.89" fill="#0b799d" r="40.133"/><circle cx="396.78" cy="471.89" fill="#0b799d" r="40.133"/><path d="m299.814 80.526v49.466c0 24.814 20.188 45.002 45.002 45.002h.124c24.814 0 45.002-20.188 45.002-45.002v-49.466z" fill="#e1ebf0"/><circle cx="396.78" cy="471.89" fill="#07485e" r="40.133"/><path d="m511.993 224.044h-30v102.64h-225.982v30h255.982z" fill="#07485e"/></g></svg>