<svg id="Layer_1" enable-background="new 0 0 511.926 511.926" height="512" viewBox="0 0 511.926 511.926" width="512" xmlns="http://www.w3.org/2000/svg"><g><path d="m90.479 292.849h-8.454c-45.229 0-82.025 36.796-82.025 82.025v51.055h172.503v-51.055c0-45.229-36.796-82.025-82.024-82.025z" fill="#ffb655"/><path d="m172.503 374.874c0-45.229-36.796-82.024-82.024-82.024h-4.227v133.08h86.251z" fill="#ff7c48"/><path d="m429.901 292.849h-8.454c-45.229 0-82.024 36.796-82.024 82.024v51.055h172.503v-51.055c0-45.228-36.796-82.024-82.025-82.024z" fill="#00cc76"/><path d="m511.926 374.874c0-45.229-36.796-82.024-82.024-82.024h-4.227v133.08h86.251z" fill="#00aa95"/><path d="m349.615 85.997-21.603 20.816 15.846 16.446h-175.79l15.846-16.446-21.603-20.816-50.356 52.262 50.356 52.261 21.603-20.815-15.846-16.446h175.79l-15.846 16.446 21.603 20.815 50.356-52.261z" fill="#ff415b"/><path d="m425.674 311.516c-29.806 0-53.969-24.163-53.969-53.969v-11.496c0-29.806 24.163-53.969 53.969-53.969 29.806 0 53.969 24.163 53.969 53.969v11.496c0 29.806-24.163 53.969-53.969 53.969z" fill="#ffd4c4"/><path d="m86.251 311.516c-29.806 0-53.969-24.163-53.969-53.969v-11.496c0-29.806 24.163-53.969 53.969-53.969 29.806 0 53.969 24.163 53.969 53.969v11.496c0 29.806-24.163 53.969-53.969 53.969z" fill="#ffd4c4"/><path d="m349.615 85.997-21.603 20.816 15.846 16.446h-87.879v30h87.879l-15.846 16.446 21.603 20.815 50.356-52.261z" fill="#e50058"/><g fill="#ffbea4"><path d="m86.251 192.083v119.433c29.806 0 53.969-24.163 53.969-53.969v-11.496c0-29.805-24.163-53.968-53.969-53.968z"/><path d="m425.674 192.083v119.433c29.806 0 53.969-24.163 53.969-53.969v-11.496c0-29.805-24.163-53.968-53.969-53.968z"/></g></g></svg>