<svg id="Layer_1" enable-background="new 0 0 512.009 512.009" height="512" viewBox="0 0 512.009 512.009" width="512" xmlns="http://www.w3.org/2000/svg"><g><path d="m446.037 138.413h-71.912v157.299h137.884v-38.899z" fill="#fff5f5"/><path d="m446.037 138.413h-71.912v157.299h137.884v-38.899z" fill="#e1ebf0"/><path d="m404.125 256.813v-118.4h-91.278v253.341h199.162v-134.941z" fill="#0b799d"/><path d="m404.125 256.813v-118.4h-91.278v253.341h199.162v-134.941z" fill="#07485e"/><g><path d="m467.09 303.905h44.919v30h-44.919z" fill="#ffda44"/></g><path d="m272.167 271.746h70.68v-198.155h-342.847v89.901h77.456c6.625 0 12.014 5.389 12.014 12.014 0 23.166 18.847 42.013 42.013 42.013h26.486c7.324 0 13.282 5.958 13.282 13.282s-5.958 13.282-13.282 13.282h-157.969v147.671h342.847v-90.004h-70.68c-8.271 0-15.001-6.73-15.001-15.002s6.73-15.002 15.001-15.002z" fill="#00cc76"/><path d="m272.167 271.746h70.68v-198.155h-171.423v318.163h171.424v-90.004h-70.68c-8.271 0-15.001-6.73-15.001-15.002s6.729-15.002 15-15.002z" fill="#00aa95"/><path d="m272.167 241.746c-24.814 0-45.001 20.188-45.001 45.002s20.188 45.002 45.001 45.002h70.68v-90.004z" fill="#a5e887"/><path d="m157.969 187.518h-26.486c-6.624 0-12.013-5.389-12.013-12.013 0-23.167-18.847-42.014-42.014-42.014h-77.456v140.591h157.969c23.866 0 43.282-19.417 43.282-43.282s-19.417-43.282-43.282-43.282z" fill="#a5e887"/><g><path d="m.02 304.75h53.55v30h-53.55z" fill="#a5e887"/></g><g><path d="m259.949 130.594h82.898v30h-82.898z" fill="#a5e887"/></g><circle cx="413.672" cy="390.085" fill="#e1ebf0" r="33.333"/><circle cx="413.672" cy="390.085" fill="#b4d2d7" r="33.333"/><path d="m413.672 438.419c-26.651 0-48.333-21.682-48.333-48.333s21.682-48.333 48.333-48.333 48.334 21.682 48.334 48.333-21.683 48.333-48.334 48.333zm0-66.667c-10.108 0-18.333 8.224-18.333 18.333s8.225 18.333 18.333 18.333c10.109 0 18.334-8.224 18.334-18.333s-8.225-18.333-18.334-18.333z" fill="#64504b"/><path d="m413.672 438.419c-26.651 0-48.333-21.682-48.333-48.333s21.682-48.333 48.333-48.333 48.334 21.682 48.334 48.333-21.683 48.333-48.334 48.333zm0-66.667c-10.108 0-18.333 8.224-18.333 18.333s8.225 18.333 18.333 18.333c10.109 0 18.334-8.224 18.334-18.333s-8.225-18.333-18.334-18.333z" fill="#3e322e"/><circle cx="104.776" cy="390.085" fill="#e1ebf0" r="33.333"/><circle cx="171.443" cy="390.085" fill="#e1ebf0" r="33.333"/><path d="m171.443 341.752c-12.915 0-24.654 5.102-33.333 13.383-8.679-8.282-20.418-13.383-33.334-13.383-26.651 0-48.333 21.682-48.333 48.333s21.682 48.333 48.333 48.333c12.915 0 24.654-5.102 33.334-13.383 8.679 8.282 20.418 13.383 33.333 13.383 26.651 0 48.333-21.682 48.333-48.333s-21.682-48.333-48.333-48.333zm-66.667 66.667c-10.109 0-18.333-8.224-18.333-18.333s8.224-18.333 18.333-18.333 18.333 8.224 18.333 18.333c.001 10.109-8.223 18.333-18.333 18.333zm66.667 0c-10.109 0-18.333-8.224-18.333-18.333s8.224-18.333 18.333-18.333 18.333 8.224 18.333 18.333-8.224 18.333-18.333 18.333z" fill="#64504b"/><g><path d="m467.09 303.905h44.919v30h-44.919z" fill="#ffb655"/></g><path d="m272.167 241.746c-24.814 0-45.001 20.188-45.001 45.002s20.188 45.002 45.001 45.002h70.68v-90.004z" fill="#00cc76"/><g><path d="m259.949 130.594h82.898v30h-82.898z" fill="#00cc76"/></g><path d="m201.251 230.801c0-19.169-12.531-35.457-29.827-41.13v82.26c17.296-5.673 29.827-21.962 29.827-41.13z" fill="#00cc76"/><path d="m171.443 356.752c-.006 0-.013 0-.019 0v66.666h.019c18.41 0 33.333-14.924 33.333-33.333s-14.924-33.333-33.333-33.333z" fill="#b4d2d7"/><path d="m171.443 341.752c-.006 0-.013 0-.019 0v30c.006 0 .013-.001.019-.001 10.109 0 18.333 8.224 18.333 18.333s-8.224 18.333-18.333 18.333c-.006 0-.013-.001-.019-.001v30h.019c26.651 0 48.333-21.682 48.333-48.333 0-26.649-21.682-48.331-48.333-48.331z" fill="#3e322e"/></g></svg>