<svg id="Layer_1" enable-background="new 0 0 512.255 512.255" height="512" viewBox="0 0 512.255 512.255" width="512" xmlns="http://www.w3.org/2000/svg"><g><ellipse cx="208.602" cy="208.617" fill="#9ee2f8" rx="208.602" ry="208.602" transform="matrix(.707 -.707 .707 .707 -86.417 208.606)"/><path d="m208.602.015v417.205c115.023 0 208.603-93.579 208.603-208.602-.001-115.024-93.58-208.603-208.603-208.603z" fill="#5ecef4"/><g fill="#00cc76"><path d="m335.851 43.443-66.013 25.452v35.243l-42.944 13.929v67.915l61.425 35.641 57.369-38.648 70.613 44.963c.587-6.364.903-12.806.903-19.321 0-67.158-31.909-126.994-81.353-165.174z"/><path d="m102.116 238.646 1.833-21.997 42.716-32.506-32.53-85.947-62.93-26.328c-31.879 36.644-51.205 84.481-51.205 136.749 0 88.199 55.023 163.785 132.544 194.245l16.37-127.271z"/><path d="m384.212 321.097-94.947-50.321-80.663 63.522 23.301 81.613c63.883-7.134 119.147-43.221 152.309-94.814z"/></g><path d="m335.851 43.443-66.013 25.452v35.243l-42.944 13.929v67.915l61.425 35.641 57.369-38.648 70.613 44.963c.587-6.364.903-12.806.903-19.321 0-67.158-31.909-126.994-81.353-165.174z" fill="#00aa95"/><path d="m384.212 321.097-94.947-50.321-80.663 63.522 23.301 81.613c63.883-7.134 119.147-43.221 152.309-94.814z" fill="#00aa95"/><path d="m351.875 235.245-160.317 276.995h320.697z" fill="#ffda44"/><path d="m351.875 235.245v276.995h160.38z" fill="#ffb655"/><g><path d="m336.903 357.213h30v54.5h-30z" fill="#ff415b"/></g><g><path d="m336.888 431.264h30v30.002h-30z" fill="#ff415b"/></g><path d="m351.875 357.213h15.028v54.5h-15.028z" fill="#e50058"/><path d="m351.875 431.264h15.013v30.002h-15.013z" fill="#e50058"/></g></svg>