<svg id="Layer_1" enable-background="new 0 0 512.007 512.007" height="512" viewBox="0 0 512.007 512.007" width="512" xmlns="http://www.w3.org/2000/svg"><g><path d="m254.28.081h-79.823c-57.799 0-104.821 47.023-104.821 104.822v38.119h289.467v-38.119c0-57.799-47.024-104.822-104.823-104.822z" fill="#64504b"/><path d="m359.103 104.903c0-57.799-47.023-104.822-104.822-104.822h-39.911v142.941h144.733z" fill="#3e322e"/><path d="m422.949 405.051c-15.31-46.334-58.429-77.423-107.468-77.423h-202.225c-62.449-.001-113.256 50.806-113.256 113.256v71.042h443.236v-44.16z" fill="#a5e887"/><path d="m443.236 467.766-20.287-62.715c-15.31-46.334-58.429-77.423-107.468-77.423h-101.112v184.298h228.867z" fill="#00cc76"/><g><path d="m199.369 342.627h30v169.253h-30z" fill="#00cc76"/></g><path d="m214.369 342.627h15v169.253h-15z" fill="#00aa95"/><path d="m69.636 194.864v18.029c0 79.807 64.927 144.734 144.733 144.734s144.734-64.927 144.734-144.734v-18.029z" fill="#e1ebf0"/><path d="m359.103 212.893v-18.029h-144.734v162.763c79.807 0 144.734-64.927 144.734-144.734z" fill="#b4d2d7"/><path d="m344.103 234.866h-105.804l-23.93-17.948-23.93 17.948h-105.804v-106.844h259.468z" fill="#5ecef4"/><path d="m214.369 128.022v88.896l23.93 17.948h105.804v-106.844z" fill="#4895ff"/><path d="m69.636 212.893c0 12.775 1.671 25.166 4.793 36.973h121.009l18.931-14.198 18.93 14.198h121.01c3.122-11.807 4.793-24.198 4.793-36.973v-99.871h-289.466zm30-69.871h229.467v76.844h-85.804l-28.93-21.698-28.931 21.698h-85.802z" fill="#0b799d"/><path d="m393.852 269.739h98.771v105.755h-98.771z" fill="#fff5f5"/><path d="m443.236 269.739h49.386v105.755h-49.386z" fill="#e1ebf0"/><path d="m393.852 335.539v127.002c0 27.231 22.154 49.385 49.385 49.385s49.386-22.154 49.386-49.385v-127.002z" fill="#ffb655"/><path d="m492.622 462.541v-127.002h-49.386v176.386c27.232.001 49.386-22.153 49.386-49.384z" fill="#ff7c48"/><g><path d="m408.585 197.385h30v30.002h-30z" fill="#ffb655"/></g><g><path d="m448.588 157.383h30v30.002h-30z" fill="#ffb655"/></g><g><path d="m374.467 254.739h137.54v30h-137.54z" fill="#e1ebf0"/></g><path d="m443.236 254.739h68.771v30h-68.771z" fill="#b4d2d7"/><g><path d="m448.588 157.383h30v30.002h-30z" fill="#ff7c48"/></g><path d="m214.369 113.022v30h114.733v76.844h-85.804l-28.93-21.698v37.5l18.93 14.198h121.01c3.122-11.807 4.793-24.198 4.793-36.973v-99.871z" fill="#07485e"/></g></svg>