<svg id="Layer_1" enable-background="new 0 0 511.831 511.831" height="512" viewBox="0 0 511.831 511.831" width="512" xmlns="http://www.w3.org/2000/svg"><g><path d="m114.331 352.8h-38.051c-42.061 0-76.28 34.219-76.28 76.28v69.897h190.61v-69.897c0-42.061-34.218-76.28-76.279-76.28z" fill="#00cc76"/><path d="m190.61 429.08c0-42.062-34.219-76.28-76.28-76.28h-19.025v146.178h95.305z" fill="#00aa95"/><path d="m95.305 371.339c-32.969 0-59.696-26.727-59.696-59.696v-12.716c0-32.969 26.727-59.696 59.696-59.696 32.969 0 59.696 26.727 59.696 59.696v12.716c0 32.969-26.727 59.696-59.696 59.696z" fill="#ffd4c4"/><path d="m435.551 352.8h-38.051c-42.061 0-76.28 34.219-76.28 76.28v69.897h190.61v-69.897c.001-42.061-34.218-76.28-76.279-76.28z" fill="#ffb655"/><path d="m511.831 429.08c0-42.062-34.219-76.28-76.28-76.28h-19.025v146.178h95.305z" fill="#ff7c48"/><path d="m416.525 371.339c-32.969 0-59.696-26.727-59.696-59.696v-12.716c0-32.969 26.727-59.696 59.696-59.696 32.969 0 59.696 26.727 59.696 59.696v12.716c.001 32.969-26.726 59.696-59.696 59.696z" fill="#ffd4c4"/><path d="m274.941 352.8h-38.051c-42.061 0-76.28 34.219-76.28 76.28v69.897h190.61v-69.897c0-42.061-34.218-76.28-76.279-76.28z" fill="#5ecef4"/><path d="m274.941 352.8h-19.025v146.178h95.305v-69.898c-.001-42.061-34.219-76.28-76.28-76.28z" fill="#4895ff"/><path d="m255.827 12.853c-53.293 0-96.65 43.357-96.65 96.65s43.357 96.649 96.65 96.649 96.65-43.356 96.65-96.649-43.357-96.65-96.65-96.65zm0 30c12.954 0 25.048 3.728 35.29 10.148l-91.792 91.792c-6.42-10.242-10.147-22.335-10.147-35.289-.001-36.752 29.898-66.651 66.649-66.651zm0 133.3c-12.954 0-25.048-3.727-35.29-10.147l91.792-91.792c6.42 10.242 10.147 22.336 10.147 35.29.001 36.75-29.898 66.649-66.649 66.649z" fill="#ff415b"/><path d="m255.915 371.339c-32.969 0-59.696-26.727-59.696-59.696v-12.716c0-32.969 26.727-59.696 59.696-59.696 32.969 0 59.696 26.727 59.696 59.696v12.716c0 32.969-26.726 59.696-59.696 59.696z" fill="#ffbea4"/><path d="m352.477 109.503c0-53.264-43.309-96.602-96.562-96.649v30c12.921.017 24.983 3.741 35.202 10.146l-35.202 35.202v42.426l56.415-56.414c6.42 10.242 10.147 22.336 10.147 35.29 0 36.721-29.852 66.599-66.562 66.647v30.001c53.253-.048 96.562-43.385 96.562-96.649z" fill="#e50058"/><path d="m255.915 239.231v132.108c32.969 0 59.696-26.727 59.696-59.696v-12.716c0-32.969-26.726-59.696-59.696-59.696z" fill="#ffa785"/><g fill="#ffbea4"><path d="m95.305 239.231v132.108c32.969 0 59.696-26.727 59.696-59.696v-12.716c0-32.969-26.727-59.696-59.696-59.696z"/><path d="m416.525 239.231v132.108c32.969 0 59.696-26.727 59.696-59.696v-12.716c.001-32.969-26.726-59.696-59.696-59.696z"/></g></g></svg>