<svg id="Layer_1" enable-background="new 0 0 512.04 512.04" height="512" viewBox="0 0 512.04 512.04" width="512" xmlns="http://www.w3.org/2000/svg"><g><path d="m35.437 432.307c0 26.354 21.441 47.795 47.795 47.795s47.795-21.44 47.795-47.795v-38.009h-95.59z" fill="#64504b"/><path d="m381.013 394.298v38.009c0 26.354 21.441 47.795 47.795 47.795s47.795-21.44 47.795-47.795v-38.009z" fill="#64504b"/><path d="m381.013 394.298v38.009c0 26.354 21.441 47.795 47.795 47.795s47.795-21.44 47.795-47.795v-38.009z" fill="#3e322e"/><g><path d="m432.724 180.464h54.617v30h-54.617z" fill="#0b799d"/></g><g><path d="m432.724 180.464h54.617v30h-54.617z" fill="#07485e"/></g><g><path d="m24.711 180.464h54.617v30h-54.617z" fill="#0b799d"/></g><path d="m209.321 31.938h93.398v90.12h-93.398z" fill="#e1ebf0"/><path d="m256.02 31.938h46.699v90.12h-46.699z" fill="#b4d2d7"/><path d="m282.72 31.938h93.965v90.12h-93.965z" fill="#5ecef4"/><path d="m282.72 31.938h93.965v90.12h-93.965z" fill="#4895ff"/><path d="m135.355 31.938h93.965v90.12h-93.965z" fill="#ff415b"/><path d="m63.954 248.011 41.208-140.953h301.716l41.208 140.953z" fill="#fff5f5"/><path d="m406.878 107.058h-150.858v140.953h192.066z" fill="#e1ebf0"/><path d="m433.689 252.22-38.054-130.162h-279.23l-38.054 130.162-28.795-8.418 44.363-151.744h324.202l44.363 151.744z" fill="#4895ff"/><path d="m418.121 92.058h-162.101v30h139.615l38.054 130.162 28.795-8.418z" fill="#0b799d"/><path d="m158.334 333.991h195.372v90.308h-195.372z" fill="#e1ebf0"/><path d="m256.02 333.991h97.686v90.308h-97.686z" fill="#b4d2d7"/><path d="m450.708 233.011h-389.376c-33.819 0-61.332 27.514-61.332 61.332v129.955h188.334v-60.308h135.372v60.308h188.334v-129.955c0-33.818-27.513-61.332-61.332-61.332z" fill="#0b799d"/><path d="m450.708 233.011h-194.688v130.979h67.686v60.308h188.334v-129.955c0-33.818-27.513-61.332-61.332-61.332z" fill="#07485e"/><g><path d="m380.972 291.725h64.176v30h-64.176z" fill="#ffda44"/></g><g><path d="m66.892 291.725h64.176v30h-64.176z" fill="#ffda44"/></g><g><path d="m380.972 291.725h64.176v30h-64.176z" fill="#ffb655"/></g></g></svg>