<svg id="Layer_1" enable-background="new 0 0 512.145 512.145" height="512" viewBox="0 0 512.145 512.145" width="512" xmlns="http://www.w3.org/2000/svg"><g><path d="m27.561 44.362h456.871v162.14h-456.871z" fill="#a5e887"/><path d="m255.996 44.362h228.436v162.14h-228.436z" fill="#00cc76"/><path d="m484.432 108.032h-142.23v-63.671h-172.444v63.671h-142.197v30h142.197v68.47h172.444v-68.47h142.23z" fill="#00cc76"/><path d="m342.202 108.032v-63.671h-86.206v162.141h86.206v-68.47h142.23v-30z" fill="#00aa95"/><path d="m27.561 186.502h456.871v296.039h-456.871z" fill="#fff5f5"/><path d="m255.996 186.502h228.436v296.039h-228.436z" fill="#e1ebf0"/><path d="m405.308 467.542v-158.007h-298.471v158.007" fill="#9ee2f8"/><path d="m255.996 309.535h149.312v158.007h-149.312z" fill="#5ecef4"/><path d="m288.979 108.032h-17.907v-17.906h-30v17.906h-17.906v30h17.906v17.906h30v-17.906h17.907z" fill="#fff5f5"/><g><path d="m0 29.603h512.145v30h-512.145z" fill="#e1ebf0"/></g><path d="m323.669 467.542v-210.679h-135.346v210.679" fill="#9ee2f8"/><path d="m255.996 256.863h67.673v210.678h-67.673z" fill="#5ecef4"/><path d="m338.669 294.535v-52.672h-165.346v52.672h-81.486v173.007h30v-143.007h51.486v143.006h30v-195.678h37.749v195.679h30v-195.679h37.597v195.678h30v-143.006h51.639v143.007h30v-173.007z" fill="#0b799d"/><path d="m338.669 294.535v-52.672h-82.673v225.679h15.076v-195.679h37.597v195.678h30v-143.006h51.639v143.007h30v-173.007z" fill="#07485e"/><g><path d="m0 452.542h512.145v30h-512.145z" fill="#e1ebf0"/></g><path d="m271.072 155.938v-17.906h17.907v-30h-17.907v-17.906h-15.076v65.812z" fill="#e1ebf0"/><g fill="#b4d2d7"><path d="m255.996 29.603h256.148v30h-256.148z"/><path d="m255.996 452.542h256.148v30h-256.148z"/></g></g></svg>