<?xml version="1.0" encoding="iso-8859-1"?>
<!-- Generator: Adobe Illustrator 19.1.0, SVG Export Plug-In . SVG Version: 6.00 Build 0)  -->
<svg version="1.1" id="Capa_1" xmlns="http://www.w3.org/2000/svg" xmlns:xlink="http://www.w3.org/1999/xlink" x="0px" y="0px"
	 viewBox="0 0 455.339 455.339" style="enable-background:new 0 0 455.339 455.339;" xml:space="preserve">
<g>
	<g>
		<g>
			<path style="fill:#F48438;" d="M184.564,191.971h-8.411V153.51c0-2.323,1.883-4.206,4.206-4.206h0
				c2.323,0,4.206,1.883,4.206,4.206V191.971z"/>
			<path style="fill:#F48438;" d="M279.187,191.971h-8.411V153.51c0-2.323,1.883-4.206,4.206-4.206l0,0
				c2.323,0,4.206,1.883,4.206,4.206V191.971z"/>
		</g>
		<path style="fill:#F4E84A;" d="M331.761,199.254v206.531c0,24.393-46.61,44.16-104.091,44.16s-104.091-19.767-104.091-44.16
			V199.254H331.761z"/>
		<path style="fill:#F2D24C;" d="M331.761,372.866v19.178c-16.56,18.305-56.409,30.902-104.091,30.902
			s-87.531-12.596-104.091-30.902v-19.178h0.158c0,20.124,41.763,41.668,103.933,41.668s103.933-21.544,103.933-41.668H331.761z"/>
		<path style="fill:#F2D24C;" d="M331.761,229.07v19.178c-16.56,18.305-56.409,30.902-104.091,30.902s-87.531-12.596-104.091-30.902
			V229.07h0.158c0,20.124,41.763,41.668,103.933,41.668s103.933-21.544,103.933-41.668H331.761z"/>
		<g>
			<g>
				<path style="fill:#F4E84A;" d="M351.736,119.18c-2.299,0-4.493-1.329-5.486-3.565c-1.346-3.028,0.018-6.574,3.046-7.919
					l27.717-12.318c3.029-1.346,6.575,0.019,7.919,3.046c1.346,3.028-0.018,6.574-3.046,7.919l-27.717,12.318
					C353.378,119.014,352.55,119.18,351.736,119.18z"/>
				<g>
					<path style="fill:#F4E84A;" d="M326.939,67.755c-1.704,0-3.397-0.722-4.584-2.125c-2.14-2.53-1.824-6.316,0.707-8.456
						l24.627-20.828c2.53-2.14,6.316-1.824,8.456,0.707c2.14,2.53,1.824,6.316-0.707,8.456l-24.627,20.828
						C329.684,67.289,328.308,67.755,326.939,67.755z"/>
					<path style="fill:#F4E84A;" d="M373.277,172.045c-2.957,0-5.531-2.186-5.938-5.196c-0.444-3.284,1.858-6.306,5.142-6.75
						l31.962-4.322c3.286-0.45,6.306,1.858,6.75,5.142c0.444,3.284-1.858,6.306-5.142,6.75l-31.962,4.322
						C373.816,172.028,373.545,172.045,373.277,172.045z"/>
				</g>
			</g>
			<g>
				<path style="fill:#F4E84A;" d="M103.603,119.18c-0.814,0-1.641-0.167-2.433-0.519l-27.717-12.318
					c-3.028-1.346-4.392-4.892-3.046-7.919c1.345-3.028,4.89-4.393,7.919-3.046l27.717,12.318c3.028,1.346,4.392,4.892,3.046,7.919
					C108.096,117.852,105.902,119.18,103.603,119.18z"/>
				<g>
					<path style="fill:#F4E84A;" d="M128.4,67.755c-1.369,0-2.745-0.465-3.872-1.419L99.902,45.509
						c-2.53-2.14-2.847-5.925-0.707-8.456c2.14-2.531,5.926-2.847,8.456-0.707l24.627,20.828c2.53,2.14,2.847,5.925,0.707,8.456
						C131.798,67.033,130.105,67.755,128.4,67.755z"/>
					<path style="fill:#F4E84A;" d="M82.062,172.045c-0.268,0-0.539-0.018-0.812-0.055l-31.962-4.322
						c-3.284-0.444-5.586-3.466-5.142-6.75c0.444-3.283,3.459-5.591,6.75-5.142l31.962,4.322c3.284,0.444,5.586,3.466,5.142,6.75
						C87.593,169.86,85.019,172.045,82.062,172.045z"/>
				</g>
			</g>
		</g>
		<ellipse style="fill:#F4E84A;" cx="227.67" cy="199.253" rx="104.086" ry="44.158"/>
		<path style="fill:#45CE83;" d="M227.67,174.02c-49.828,0-91.471,14.855-101.682,34.695c10.211,19.84,51.854,34.695,101.682,34.695
			s91.471-14.855,101.682-34.695C319.141,188.876,277.498,174.02,227.67,174.02z"/>
		<g>
			<path style="fill:#F48438;" d="M180.358,455.339L180.358,455.339c-2.323,0-4.206-1.883-4.206-4.206V227.631
				c0-2.323,1.883-4.206,4.206-4.206h0c2.323,0,4.206,1.883,4.206,4.206v223.502C184.564,453.457,182.681,455.339,180.358,455.339z"
				/>
			<path style="fill:#F48438;" d="M274.981,455.339L274.981,455.339c-2.323,0-4.206-1.883-4.206-4.206V227.631
				c0-2.323,1.883-4.206,4.206-4.206l0,0c2.323,0,4.206,1.883,4.206,4.206v223.502C279.187,453.457,277.304,455.339,274.981,455.339
				z"/>
		</g>
		<path style="fill:#F2D24C;" d="M290.192,124.037c0,3.459-2.061,6.656-5.32,8.054c-18.263,7.812-37.725,11.723-57.198,11.723
			s-38.945-3.911-57.208-11.723c-3.575-1.535-5.72-5.247-5.257-9.106l1.083-8.99l0.757-6.35l9.457-78.737
			c0.359-2.989,4.181-4.009,5.982-1.596l16.618,22.266c1.541,2.065,4.742,1.676,5.744-0.699l19.753-46.842
			c1.146-2.718,4.998-2.718,6.144,0L250.5,48.88c1.001,2.374,4.202,2.764,5.744,0.699l16.617-22.265
			c1.801-2.412,5.623-1.392,5.982,1.597l9.237,77.021l0.789,6.498l1.262,10.556C290.171,123.333,290.192,123.69,290.192,124.037z"/>
		<path style="fill:#F4E84A;" d="M288.957,112.429c-14.52,8.159-37.042,13.311-62.77,13.311c-24.036,0-45.274-4.5-59.805-11.745
			l0.757-6.35c12.943,7.034,33.593,12.102,59.048,12.102c27.474,0,49.343-5.909,61.981-13.816L288.957,112.429z"/>
	</g>
	<path style="fill:#FFFFFF;" d="M313.74,410.955c-2.761,0-5-2.239-5-5V294.672c0-2.761,2.239-5,5-5s5,2.239,5,5v111.283
		C318.74,408.717,316.501,410.955,313.74,410.955z"/>
	<path style="fill:#FFFFFF;" d="M313.74,274.174c-2.761,0-5-2.239-5-5v-17.229c0-2.761,2.239-5,5-5s5,2.239,5,5v17.229
		C318.74,271.935,316.501,274.174,313.74,274.174z"/>
</g>
<g>
</g>
<g>
</g>
<g>
</g>
<g>
</g>
<g>
</g>
<g>
</g>
<g>
</g>
<g>
</g>
<g>
</g>
<g>
</g>
<g>
</g>
<g>
</g>
<g>
</g>
<g>
</g>
<g>
</g>
</svg>
