<?xml version="1.0" encoding="iso-8859-1"?>
<!-- Generator: Adobe Illustrator 19.1.0, SVG Export Plug-In . SVG Version: 6.00 Build 0)  -->
<svg version="1.1" id="Capa_1" xmlns="http://www.w3.org/2000/svg" xmlns:xlink="http://www.w3.org/1999/xlink" x="0px" y="0px"
	 viewBox="0 0 458.45 458.45" style="enable-background:new 0 0 458.45 458.45;" xml:space="preserve">
<g>
	<path style="fill:#F48438;" d="M424.226,56.358L45.225,435.359c-3.513,3.513-9.402,3.19-12.481-0.942
		c-2.467-3.311-1.923-7.989,0.997-10.909L412.558,44.691L424.226,56.358z"/>
	<path style="fill:#F4E84A;" d="M421.08,78.106l-51.583,84.476c-2.918,4.779-9.539,5.568-13.499,1.609l0,0
		c-2.376-2.376-3.161-5.914-2.013-9.072l6.602-18.156l-8.996,4.773c-7.008,3.718-15.622,2.427-21.231-3.182l0,0l0,0
		c-5.61-5.61-6.901-14.224-3.182-21.231l4.773-8.996l-18.156,6.602c-3.158,1.148-6.696,0.364-9.072-2.013l0,0
		c-3.96-3.96-3.171-10.581,1.609-13.499l84.476-51.583"/>
	<path style="fill:#F2D24C;" d="M421.08,78.106l-17.664-17.664l-11.54,16.596l-61.515,61.515l0,0
		c5.61,5.61,14.224,6.901,21.231,3.182l8.996-4.773l-6.602,18.156c-1.148,3.158-0.364,6.696,2.013,9.073
		c3.96,3.96,10.581,3.171,13.499-1.609L421.08,78.106z"/>
	<circle style="fill:#45CE83;" cx="419.452" cy="49.462" r="38.998"/>
	<path style="fill:#FFFFFF;" d="M435.148,70.158c-1.28,0-2.559-0.488-3.536-1.464c-1.953-1.953-1.953-5.119,0-7.071
		c6.705-6.705,6.705-17.615,0-24.32c-1.953-1.953-1.953-5.119,0-7.071c1.953-1.952,5.118-1.952,7.071,0
		c10.604,10.604,10.604,27.858,0,38.462C437.707,69.669,436.427,70.158,435.148,70.158z"/>
	<path style="fill:#F48438;" d="M113.086,369.356l-13.528-13.528c-3.879-3.879-10.168-3.879-14.047,0l0,0
		c-3.879,3.879-3.879,10.168,0,14.047l13.528,13.528c3.879,3.879,10.168,3.879,14.047,0h0
		C116.965,379.524,116.965,373.235,113.086,369.356z"/>
	<polygon style="fill:#F2D24C;" points="317.368,163.216 297.498,183.086 297.498,159.751 317.368,139.882 	"/>
	<polygon style="fill:#F2D24C;" points="277.218,203.366 257.349,223.235 257.349,199.901 277.218,180.031 	"/>
	<polygon style="fill:#F2D24C;" points="237.069,243.515 217.199,263.385 217.199,240.05 237.069,220.181 	"/>
	<polygon style="fill:#F2D24C;" points="196.919,283.665 177.049,303.535 177.049,280.2 196.919,260.33 	"/>
	<polygon style="fill:#F2D24C;" points="156.436,324.148 136.566,344.018 136.566,320.683 156.436,300.813 	"/>
	<path style="fill:#F48438;" d="M51.413,431.029l-13.528-13.528c-3.879-3.879-10.168-3.879-14.047,0h0
		c-3.879,3.879-3.879,10.168,0,14.047l13.528,13.528c3.879,3.879,10.168,3.879,14.047,0h0
		C55.292,441.198,55.292,434.908,51.413,431.029z"/>
	<g>
		<path style="fill:#45CE83;" d="M45.891,44.691L34.224,56.358l379.001,379.001c3.513,3.513,9.402,3.19,12.481-0.942
			c2.467-3.311,1.923-7.989-0.997-10.909L45.891,44.691"/>
		<path style="fill:#F4E84A;" d="M37.37,78.106l51.583,84.476c2.918,4.779,9.539,5.568,13.499,1.609h0
			c2.376-2.376,3.161-5.914,2.013-9.072l-6.602-18.156l8.996,4.773c7.008,3.718,15.622,2.427,21.231-3.182l0,0h0
			c5.61-5.61,6.901-14.224,3.182-21.231l-4.773-8.996l18.156,6.602c3.158,1.148,6.696,0.364,9.072-2.013l0,0
			c3.96-3.96,3.171-10.581-1.609-13.499L67.642,47.833"/>
		<path style="fill:#F2D24C;" d="M37.37,78.106l17.664-17.664l11.54,16.596l61.515,61.515l0,0c-5.61,5.61-14.224,6.901-21.231,3.182
			l-8.996-4.773l6.602,18.156c1.148,3.158,0.364,6.696-2.013,9.073c-3.96,3.96-10.581,3.171-13.499-1.609L37.37,78.106z"/>
		<circle style="fill:#F48438;" cx="38.998" cy="49.462" r="38.998"/>
		<path style="fill:#FFFFFF;" d="M61.195,54.462c-2.761,0-5-2.239-5-5c0-9.482-7.714-17.197-17.197-17.197c-2.761,0-5-2.239-5-5
			s2.239-5,5-5c14.997,0,27.197,12.2,27.197,27.197C66.195,52.223,63.956,54.462,61.195,54.462z"/>
		<path style="fill:#45CE83;" d="M345.364,369.356l13.528-13.528c3.879-3.879,10.168-3.879,14.048,0v0
			c3.879,3.879,3.879,10.168,0,14.047l-13.528,13.528c-3.879,3.879-10.168,3.879-14.047,0h0
			C341.485,379.524,341.485,373.235,345.364,369.356z"/>
		<polygon style="fill:#F2D24C;" points="141.082,163.216 160.952,183.086 160.952,159.751 141.082,139.882 		"/>
		<polygon style="fill:#F2D24C;" points="181.232,203.366 201.101,223.235 201.101,199.901 181.232,180.031 		"/>
		<polygon style="fill:#F2D24C;" points="221.381,243.515 241.251,263.385 241.251,240.05 221.381,220.181 		"/>
		<polygon style="fill:#F2D24C;" points="261.531,283.665 281.4,303.535 281.4,280.2 261.531,260.33 		"/>
		<polygon style="fill:#F2D24C;" points="302.014,324.148 321.883,344.018 321.883,320.683 302.014,300.813 		"/>
		<path style="fill:#45CE83;" d="M407.037,431.029l13.528-13.528c3.879-3.879,10.168-3.879,14.048,0v0
			c3.879,3.879,3.879,10.168,0,14.047l-13.528,13.528c-3.879,3.879-10.168,3.879-14.047,0h0
			C403.158,441.198,403.158,434.908,407.037,431.029z"/>
	</g>
</g>
<g>
</g>
<g>
</g>
<g>
</g>
<g>
</g>
<g>
</g>
<g>
</g>
<g>
</g>
<g>
</g>
<g>
</g>
<g>
</g>
<g>
</g>
<g>
</g>
<g>
</g>
<g>
</g>
<g>
</g>
</svg>
