<?xml version="1.0" encoding="iso-8859-1"?>
<!-- Generator: Adobe Illustrator 19.1.0, SVG Export Plug-In . SVG Version: 6.00 Build 0)  -->
<svg version="1.1" id="Capa_1" xmlns="http://www.w3.org/2000/svg" xmlns:xlink="http://www.w3.org/1999/xlink" x="0px" y="0px"
	 viewBox="0 0 481.265 481.265" style="enable-background:new 0 0 481.265 481.265;" xml:space="preserve">
<g>
	<path style="fill:#F4E84A;" d="M240.632,209.765c-2.042-4.258-3.581-8.785-4.99-13.285c-1.691-5.396-3.118-10.868-4.32-16.392
		c-2.551-11.723-4.151-23.659-4.979-35.624c-1.713-24.752-0.572-49.931,4.448-74.26c1.261-6.109,2.785-12.166,4.642-18.121
		c1.465-4.696,3.057-9.427,5.199-13.863c1.883,3.899,3.32,8.031,4.653,12.145c1.697,5.236,3.125,10.556,4.341,15.923
		c2.631,11.606,4.289,23.441,5.185,35.304c1.872,24.807,0.794,50.077-4.04,74.505c-1.214,6.135-2.681,12.223-4.483,18.213
		C244.714,199.542,243,204.827,240.632,209.765z"/>
	<path style="fill:#F4E84A;" d="M264.092,230.281c-7.083-9.357-13.671-19.085-20.205-28.83
		c-7.552-11.264-15.014-22.595-22.737-33.743c-8.059-11.632-16.371-23.125-25.563-33.896c-8.869-10.392-18.499-20.209-29.441-28.432
		c-10.255-7.707-21.515-13.552-33.458-18.165c-0.822-0.318-1.644-0.639-2.457-0.979c12.673-4.735,26.95-4.39,39.89-0.95
		c15.017,3.992,28.644,12.111,40.296,22.278c11.715,10.223,21.515,22.595,29.49,35.91c7.84,13.09,13.94,27.227,18.175,41.883
		c3.896,13.481,6.545,27.775,6.172,41.856C264.228,228.235,264.187,229.261,264.092,230.281z"/>
	<path style="fill:#F48438;" d="M235.137,229.863c-8.668-8.805-17.084-17.855-25.666-26.744c-8.977-9.299-17.99-18.68-27.609-27.322
		c-5.025-4.515-10.032-9.034-15.217-13.367c-3.6-3.009-7.344-5.835-11.052-8.708c-4.704-3.645-9.714-7.137-14.772-10.274
		c-6.423-3.982-12.822-8.022-19.583-11.423c-6.504-3.271-13.055-6.337-19.75-9.197c-6.264-2.676-12.683-4.92-19.015-7.42
		c-0.945-0.373-1.887-0.753-2.817-1.16c5.977-2.226,12.146-3.473,18.445-4.352c3.765-0.525,7.623-0.643,11.424-0.696
		c3.773-0.053,7.755,0.181,11.492,0.708c7.794,1.1,15.359,2.73,22.821,5.257c7.26,2.459,14.356,5.612,21,9.447
		c10.509,6.065,20.495,13.517,29.005,22.193c10.925,11.137,20.324,23.524,27.496,37.415c6.704,12.984,12.011,27.294,13.54,41.908
		C235.008,227.372,235.091,228.614,235.137,229.863z"/>
	<path style="fill:#46B9CC;" d="M219.672,261.941c-8.136-7.531-15.969-15.387-23.88-23.153c-9.046-8.88-18.123-17.742-27.611-26.152
		c-7.599-6.736-15.496-12.981-23.615-19.066c-8.399-6.295-17.463-11.923-26.726-16.844c-5.412-2.875-10.884-5.558-16.433-8.16
		c-5.088-2.386-10.338-4.401-15.462-6.702c-0.777-0.349-1.553-0.704-2.316-1.083c11.113-4.785,23.951-6.265,35.943-5.066
		c13.82,1.383,27.304,5.68,39.403,12.511c9.526,5.379,18.441,12.131,26.092,19.961c9.633,9.86,17.778,21.007,23.84,33.413
		c5.601,11.461,9.878,24.14,10.681,36.949C219.659,259.681,219.683,260.809,219.672,261.941z"/>
	<path style="fill:#F4E84A;" d="M230.972,293.649c-12.443-7.889-24.745-15.998-37.208-23.855
		c-14.295-9.012-28.734-17.801-43.581-25.878c-15.509-8.436-31.459-16.094-48.042-22.187c-16.274-5.979-33.08-10.411-50.278-12.709
		c-16.011-2.139-32.146-2.198-48.245-1.176c-1.205,0.077-2.411,0.143-3.618,0.179c13.201-9.945,29.314-16.056,45.523-18.863
		c18.81-3.258,38.25-2.16,56.775,2.274c18.531,4.436,36.204,12.053,52.513,21.86c16.098,9.68,30.878,21.587,43.9,35.116
		c11.885,12.347,22.849,26.268,30.57,41.633C229.877,291.229,230.46,292.425,230.972,293.649z"/>
	<path style="fill:#F4E84A;" d="M217.172,230.281c-0.562-6.033-0.069-12.238,0.611-18.24c0.824-7.272,2.185-14.475,4.001-21.564
		c3.759-14.664,9.398-28.874,16.748-42.109c7.513-13.531,16.836-26.164,28.027-36.886c11.186-10.716,24.415-19.574,39.151-24.558
		c13.402-4.533,28.765-6.057,42.432-1.675c0.968,0.31,1.937,0.629,2.889,0.985c-5.177,2.17-10.427,4.094-15.477,6.568
		c-5.822,2.852-11.423,6.167-16.732,9.886c-11.057,7.746-20.786,17.14-29.735,27.211c-9.377,10.553-17.833,21.893-25.933,33.443
		c-7.944,11.328-15.568,22.878-23.273,34.369c-6.883,10.266-13.725,20.593-21.137,30.489
		C218.225,228.897,217.697,229.588,217.172,230.281z"/>
	<path style="fill:#F48438;" d="M246.127,229.863c0.241-6.402,1.556-12.775,3.253-18.938c2.023-7.345,4.691-14.5,7.929-21.397
		c6.659-14.187,15.552-27.389,26.284-38.819c8.304-8.843,17.761-16.867,28.109-23.236c13.096-8.06,27.555-14.234,42.808-16.706
		c14.724-2.386,29.745-2.064,44.044,2.448c1.025,0.323,2.049,0.657,3.056,1.033c-2.304,1.01-4.666,1.898-7.033,2.747
		c-3.361,1.206-6.657,2.571-9.998,3.831c-3.267,1.232-6.487,2.668-9.695,4.048c-3.37,1.449-6.755,3.022-10.009,4.711
		c-3.328,1.728-6.659,3.417-9.952,5.212c-3.302,1.8-6.544,3.703-9.767,5.643c-5.146,3.099-10.156,6.496-15.007,10.039
		c-9.833,7.181-19.287,14.795-28.254,23.045c-9.016,8.296-17.738,16.884-26.286,25.664c-9.161,9.409-18.133,19-27.275,28.428
		C247.602,228.369,246.864,229.115,246.127,229.863z"/>
	<path style="fill:#46B9CC;" d="M261.592,261.941c-0.053-5.664,0.9-11.344,2.219-16.838c1.553-6.466,3.709-12.776,6.389-18.862
		c5.565-12.635,13.231-24.172,22.477-34.405c7.333-8.115,16.024-15.391,25.379-21.082c11.79-7.173,24.836-12.497,38.57-14.398
		c12.885-1.784,26.051-1.1,38.342,3.384c0.896,0.327,1.79,0.664,2.666,1.042c-4.434,2.197-9.096,3.995-13.641,5.95
		c-5.585,2.403-11.049,5.066-16.487,7.785c-10.24,5.12-20.045,11.357-29.373,17.979c-7.441,5.283-14.575,11.045-21.463,17.026
		c-9.612,8.346-18.827,17.123-27.91,26.039c-8.39,8.236-16.706,16.556-25.267,24.615
		C262.864,260.768,262.227,261.353,261.592,261.941z"/>
	<g>
		<path style="fill:#46B9CC;" d="M199.801,286.757c-10.983-1.9-21.889-4.243-32.81-6.465c-12.304-2.503-24.621-4.932-37.031-6.849
			c-10.083-1.558-20.168-2.482-30.337-3.173c-10.418-0.708-21.039-0.517-31.435,0.393c-6.168,0.54-12.284,1.268-18.418,2.113
			c-5.567,0.767-11.068,1.933-16.619,2.791c-0.842,0.13-1.686,0.254-2.533,0.352c6.72-10.062,16.685-18.29,27.398-23.809
			c12.316-6.345,25.897-10.047,39.724-10.937c11.108-0.715,22.403,0.184,33.263,2.622c13.311,2.988,26.107,7.944,37.816,14.976
			c10.936,6.568,21.424,14.877,29.068,25.187C198.56,284.867,199.194,285.801,199.801,286.757z"/>
		<path style="fill:#46B9CC;" d="M281.464,286.757c3.037-4.781,6.928-9.027,11.025-12.919c4.821-4.58,10.064-8.701,15.624-12.347
			c11.447-7.509,24.02-12.955,37.217-16.535c10.625-2.882,21.972-4.287,32.991-3.979c13.915,0.389,27.859,3.051,40.516,9
			c11.709,5.503,22.314,13.225,30.142,23.618c0.574,0.762,1.14,1.531,1.67,2.324c-4.915-0.57-9.805-1.599-14.682-2.431
			c-6.048-1.033-12.142-1.808-18.242-2.459c-11.339-1.211-22.88-1.371-34.266-0.881c-9.179,0.395-18.352,1.352-27.448,2.63
			c-12.479,1.754-24.864,4.081-37.212,6.593c-11.582,2.356-23.148,4.825-34.778,6.939
			C283.169,286.465,282.316,286.609,281.464,286.757z"/>
	</g>
	<path style="fill:#F4E84A;" d="M250.292,293.649c2.936-7.01,7.157-13.584,11.443-19.829c5.04-7.344,10.631-14.324,16.618-20.917
		c12.429-13.69,26.636-25.794,42.137-35.874c15.994-10.4,33.457-18.654,51.83-23.858c18.381-5.206,37.703-7.218,56.716-4.982
		c17.185,2.02,34.717,7.602,49.021,17.533c1.08,0.75,2.157,1.51,3.207,2.301c-7.113-0.212-14.2-0.755-21.321-0.851
		c-8.284-0.112-16.596,0.289-24.834,1.164c-16.996,1.804-33.692,5.699-49.856,11.223c-16.726,5.716-32.867,13.034-48.48,21.302
		c-15.18,8.039-29.936,16.827-44.496,25.933c-13.1,8.193-26.031,16.651-39.041,24.985
		C252.258,292.407,251.274,293.027,250.292,293.649z"/>
	<path style="fill:#F2D24C;" d="M251.389,440.199L251.389,440.199c-6.623,3.795-14.892,3.795-21.516,0l0,0
		c-41.998-24.065-70.014-48.206-75.901-94.701l-9.181-83.79c-7.526-52.823,82.726-43.837,138.343-43.837l-75.664,3.73
		c55.617,0,135.337-11.216,127.812,41.607l-7.992,82.29C321.403,391.993,293.387,416.134,251.389,440.199z"/>
	<path style="fill:#FFFFFF;" d="M277.854,370.243c0,20.557-16.665,37.221-37.221,37.221s-37.221-16.665-37.221-37.221H277.854z"/>
	<g>
		<path style="fill:#4D4D4D;" d="M181.084,325.22c6.168-16.808,34.693-17.209,40.689,0c-3.076-0.822-6.024-2.035-9.153-2.685
			c-3.696-0.768-7.405-1.307-11.192-1.322c-3.676-0.014-7.344,0.473-10.926,1.257C187.286,323.174,184.257,324.403,181.084,325.22z"
			/>
		<path style="fill:#4D4D4D;" d="M264.326,325.22c6.168-16.808,34.693-17.209,40.689,0c-3.076-0.822-6.024-2.035-9.153-2.685
			c-3.696-0.768-7.405-1.307-11.192-1.322c-3.676-0.014-7.344,0.473-10.926,1.257C270.527,323.174,267.498,324.403,264.326,325.22z"
			/>
	</g>
	<path style="fill:#45CE83;" d="M357.283,266.612c-5.022-14.265-13.245-27.65-24.649-39.054l-76.713-76.713
		c-8.445-8.445-22.137-8.445-30.582,0l-29.285,29.285l-47.428,47.428c-11.404,11.404-19.617,24.789-24.649,39.044
		c-9.614,27.29-7.563,57.792,6.182,83.721h25.79c0,0-4.014-64.474-4.014-68.996c0-27.363,22.182-49.546,49.546-49.546h0.001
		c8.347,0.012,16.181,4.031,21.059,10.805l18.093,25.121l18.093-25.121c4.878-6.773,12.712-10.793,21.059-10.805h0
		c27.363,0,49.546,22.182,49.546,49.546c0,4.518-4.009,68.996-4.009,68.996h25.789C364.846,324.393,366.907,293.902,357.283,266.612
		z"/>
	<g>
		<path style="fill:#F28F4C;" d="M130.156,356.321c-1.58,0-3.12-0.64-4.24-1.76c-1.12-1.11-1.76-2.66-1.76-4.24s0.64-3.12,1.76-4.24
			c1.12-1.12,2.66-1.76,4.24-1.76c1.58,0,3.13,0.64,4.25,1.76c1.11,1.11,1.75,2.66,1.75,4.24s-0.64,3.13-1.75,4.24
			C133.285,355.681,131.735,356.321,130.156,356.321z"/>
		<path style="fill:#F28F4C;" d="M137.055,350.321c0-3.31,2.68-6,6-6l0,0c3.31,0,6,2.69,6,6l0,0c0,3.32-2.69,6-6,6l0,0
			C139.735,356.321,137.055,353.641,137.055,350.321z"/>
		<path style="fill:#F28F4C;" d="M155.946,356.321c-1.58,0-3.12-0.64-4.24-1.76c-1.12-1.11-1.76-2.66-1.76-4.24s0.64-3.13,1.76-4.24
			c1.12-1.12,2.66-1.76,4.24-1.76c1.58,0,3.13,0.64,4.25,1.76c1.11,1.12,1.75,2.66,1.75,4.24s-0.64,3.13-1.75,4.24
			C159.075,355.681,157.525,356.321,155.946,356.321z"/>
		<path style="fill:#F28F4C;" d="M148.825,332.311c-0.2-3.31,2.32-6.15,5.62-6.35l0,0c3.31-0.21,6.16,2.31,6.36,5.62l0,0
			c0.2,3.31-2.32,6.15-5.62,6.35l0,0c-0.13,0.01-0.25,0.02-0.37,0.02l0,0C151.665,337.951,149.025,335.491,148.825,332.311z
			 M147.715,313.911L147.715,313.911L147.715,313.911c-0.2-3.31,2.32-6.15,5.63-6.35l0,0c3.31-0.19,6.15,2.33,6.35,5.64l0,0
			c0.19,3.3-2.33,6.15-5.63,6.34l0,0c-0.13,0.01-0.25,0.01-0.37,0.01l0,0C150.545,319.551,147.906,317.101,147.715,313.911z
			 M146.635,295.501L146.635,295.501L146.635,295.501c-0.19-3.31,2.34-6.14,5.65-6.33l0,0c3.31-0.19,6.14,2.34,6.33,5.65l0,0
			c0.19,3.31-2.34,6.14-5.65,6.33l0,0c-0.11,0.01-0.23,0.01-0.34,0.01l0,0C149.465,301.161,146.815,298.701,146.635,295.501z
			 M151.595,282.731c-3.3-0.3-5.73-3.22-5.43-6.52l0,0c0.3-3.3,3.22-5.73,6.52-5.43l0,0c3.3,0.3,5.73,3.23,5.43,6.52l0,0
			c-0.28,3.12-2.9,5.46-5.97,5.46l0,0C151.965,282.761,151.785,282.751,151.595,282.731z M154.465,264.531
			c-2.96-1.48-4.16-5.09-2.67-8.05l0,0c1.48-2.97,5.08-4.16,8.05-2.68l0,0c2.96,1.48,4.16,5.09,2.67,8.05l0,0
			c-1.05,2.1-3.17,3.32-5.37,3.32l0,0C156.245,265.171,155.325,264.961,154.465,264.531z M225.015,256.292
			c-1.94-2.69-1.33-6.44,1.36-8.38l0,0c2.69-1.94,6.44-1.33,8.38,1.36l0,0c1.93,2.69,1.32,6.44-1.37,8.38l0,0
			c-1.06,0.76-2.28,1.13-3.5,1.13l0,0C228.025,258.781,226.185,257.911,225.015,256.292z M163.775,248.631
			c-2.22-2.46-2.04-6.25,0.42-8.48l0,0l0,0l0,0c2.46-2.22,6.25-2.04,8.48,0.42l0,0c2.22,2.45,2.03,6.25-0.42,8.48v-0.01
			c-1.15,1.04-2.59,1.56-4.03,1.56l0,0C166.595,250.601,164.965,249.931,163.775,248.631z M214.665,242.771
			c-2.49-2.19-2.73-5.98-0.54-8.47l0,0c2.19-2.49,5.98-2.73,8.47-0.54l0,0l0,0l0,0c2.48,2.19,2.72,5.99,0.53,8.47l0,0
			c-1.18,1.35-2.84,2.04-4.5,2.04l0,0C217.215,244.271,215.805,243.771,214.665,242.771z M178.205,237.161
			c-1.18-3.09,0.37-6.56,3.47-7.74l0,0c0,0,0,0-0.01,0l0,0c3.1-1.18,6.57,0.37,7.75,3.46l0,0c1.18,3.1-0.37,6.57-3.46,7.75h-0.01
			c-0.7,0.27-1.42,0.39-2.14,0.39l0,0C181.395,241.021,179.115,239.561,178.205,237.161z M201.725,237.781
			c-3.31-0.05-5.96-2.77-5.91-6.08l0,0c0.04-3.32,2.77-5.96,6.08-5.92l0,0c3.32,0.05,5.96,2.77,5.92,6.09l0,0
			c-0.05,3.28-2.73,5.91-6,5.91l0,0C201.785,237.781,201.755,237.781,201.725,237.781z"/>
		<path style="fill:#F28F4C;" d="M240.635,273.711c-1.58,0-3.13-0.64-4.25-1.76c-1.11-1.12-1.75-2.67-1.75-4.24
			c0-1.58,0.64-3.13,1.75-4.25c1.12-1.11,2.67-1.75,4.25-1.75c1.58,0,3.12,0.64,4.24,1.75c1.12,1.12,1.76,2.67,1.76,4.25
			c0,1.57-0.64,3.12-1.76,4.24S242.215,273.711,240.635,273.711z"/>
		<path style="fill:#F28F4C;" d="M326.085,337.971c-3.31-0.2-5.83-3.05-5.62-6.36v0.01c0.2-3.31,3.04-5.83,6.35-5.63l0,0
			c3.31,0.2,5.82,3.05,5.62,6.36l0,0c-0.19,3.18-2.83,5.63-5.98,5.63l0,0C326.335,337.981,326.205,337.981,326.085,337.971z
			 M327.205,319.571c-3.31-0.2-5.83-3.04-5.63-6.34v-0.01c0.19-3.3,3.03-5.82,6.34-5.63l0,0c3.31,0.2,5.83,3.04,5.64,6.35l0,0
			c-0.2,3.19-2.84,5.64-5.99,5.64l0,0C327.446,319.581,327.325,319.581,327.205,319.571z M328.295,301.171
			c-3.31-0.18-5.84-3.02-5.65-6.33l0,0c0.19-3.3,3.02-5.83,6.33-5.65l0,0c3.31,0.19,5.84,3.03,5.65,6.33l0,0
			c-0.18,3.2-2.82,5.66-5.98,5.66l0,0C328.535,301.181,328.415,301.181,328.295,301.171z M323.145,277.311
			c-0.3-3.3,2.13-6.21,5.43-6.52l0,0c3.3-0.3,6.22,2.13,6.52,5.43l0,0c0,0,0,0,0,0.01l0,0c0.3,3.29-2.13,6.21-5.43,6.51l0,0
			c-0.18,0.02-0.37,0.03-0.55,0.03l0,0C326.045,282.771,323.435,280.431,323.145,277.311z M318.745,261.861
			c-1.48-2.96-0.28-6.57,2.68-8.05l0,0c2.97-1.48,6.57-0.28,8.06,2.68l0,0c1.48,2.96,0.28,6.57-2.68,8.05l0,0
			c-0.87,0.43-1.78,0.64-2.69,0.64l0,0C321.915,265.181,319.805,263.961,318.745,261.861z M247.885,257.641
			c-2.69-1.94-3.3-5.69-1.37-8.37l0,0c1.94-2.69,5.69-3.3,8.38-1.37l0,0c2.69,1.94,3.3,5.69,1.36,8.38l0,0
			c-1.17,1.63-3.01,2.49-4.87,2.49l0,0C250.165,258.771,248.946,258.411,247.885,257.641z M309.025,249.051L309.025,249.051
			c-2.46-2.22-2.65-6.02-0.42-8.47l0,0c2.23-2.46,6.02-2.64,8.47-0.42l0,0c0,0,0,0,0.01,0l0,0c2.45,2.23,2.64,6.02,0.41,8.48l0,0
			c-1.18,1.31-2.81,1.97-4.45,1.97l0,0C311.615,250.611,310.165,250.101,309.025,249.051z M258.135,242.231
			c-2.19-2.49-1.94-6.28,0.55-8.47l0,0c2.48-2.19,6.27-1.95,8.46,0.54l0,0c2.19,2.49,1.95,6.28-0.54,8.47l0,0
			c-1.14,1-2.55,1.49-3.96,1.49l0,0C260.985,244.261,259.325,243.571,258.135,242.231z M295.325,240.631
			c-3.1-1.18-4.65-4.65-3.46-7.74l0,0c1.18-3.1,4.65-4.65,7.74-3.47l0,0c3.1,1.19,4.65,4.65,3.46,7.75l0,0
			c-0.91,2.39-3.19,3.86-5.6,3.86l0,0C296.755,241.031,296.025,240.901,295.325,240.631z M273.465,231.871
			c-0.05-3.32,2.6-6.04,5.91-6.09l0,0l0,0l0,0c3.31-0.04,6.04,2.61,6.08,5.92l0,0c0.05,3.31-2.6,6.04-5.91,6.08l0,0
			c-0.03,0-0.06,0-0.08,0l0,0C276.185,237.781,273.505,235.151,273.465,231.871z"/>
		<path style="fill:#F28F4C;" d="M325.325,356.321c-1.58,0-3.13-0.64-4.25-1.76c-1.11-1.11-1.75-2.66-1.75-4.24s0.64-3.12,1.75-4.24
			c1.12-1.12,2.67-1.76,4.25-1.76c1.57,0,3.12,0.64,4.24,1.76c1.11,1.12,1.76,2.66,1.76,4.24s-0.65,3.13-1.76,4.24
			C328.446,355.681,326.895,356.321,325.325,356.321z"/>
		<path style="fill:#F28F4C;" d="M332.215,350.321c0-3.31,2.69-6,6-6l0,0c3.31,0,6,2.69,6,6l0,0c0,3.31-2.69,6-6,6l0,0
			C334.905,356.321,332.215,353.631,332.215,350.321z"/>
		<path style="fill:#F28F4C;" d="M351.115,356.321c-1.58,0-3.13-0.64-4.25-1.76c-1.11-1.11-1.75-2.66-1.75-4.24s0.64-3.12,1.75-4.24
			c1.12-1.12,2.67-1.76,4.25-1.76c1.57,0,3.12,0.64,4.24,1.76c1.11,1.12,1.76,2.66,1.76,4.24s-0.65,3.13-1.76,4.24
			C354.235,355.681,352.696,356.321,351.115,356.321z"/>
		<path style="fill:#F28F4C;" d="M356.205,339.641c-3.15-1.03-4.87-4.42-3.85-7.57l0,0c1.03-3.15,4.42-4.87,7.57-3.84l0,0
			c3.15,1.03,4.87,4.42,3.84,7.57l0,0c-0.82,2.53-3.17,4.14-5.7,4.14l0,0C357.446,339.941,356.825,339.841,356.205,339.641z
			 M117.485,335.751L117.485,335.751c-1.03-3.15,0.69-6.53,3.84-7.56l0,0c3.15-1.03,6.54,0.69,7.57,3.84l0,0
			c1.03,3.15-0.7,6.54-3.85,7.57l0,0c-0.61,0.2-1.24,0.3-1.86,0.3l0,0C120.665,339.901,118.305,338.292,117.485,335.751z
			 M361.255,322.542c-3.28-0.48-5.55-3.52-5.07-6.8l0,0c0.48-3.28,3.53-5.55,6.81-5.07l0,0c3.28,0.48,5.54,3.52,5.07,6.8l0,0
			c-0.44,2.99-3,5.14-5.93,5.14l0,0C361.845,322.611,361.555,322.581,361.255,322.542z M113.196,317.431L113.196,317.431
			c-0.48-3.28,1.79-6.33,5.07-6.8l0,0c3.28-0.48,6.33,1.79,6.8,5.07l0,0c0.48,3.28-1.79,6.32-5.07,6.8l0,0
			c-0.29,0.04-0.58,0.06-0.87,0.06l0,0C116.196,322.561,113.635,320.421,113.196,317.431z M357.196,298.991
			c-0.08-3.32,2.54-6.07,5.85-6.15l0,0c3.32-0.08,6.07,2.54,6.15,5.85l0,0c0.08,3.31-2.54,6.07-5.85,6.15l0,0c-0.05,0-0.1,0-0.15,0
			l0,0C359.946,304.841,357.275,302.251,357.196,298.991z M117.915,304.801c-3.31-0.09-5.93-2.84-5.85-6.15l0,0
			c0.09-3.32,2.84-5.93,6.15-5.85l0,0c3.31,0.08,5.93,2.83,5.85,6.15l0,0c-0.08,3.26-2.75,5.85-5.99,5.85l0,0
			C118.025,304.801,117.965,304.801,117.915,304.801z M355.365,282.311c-0.64-3.26,1.48-6.41,4.73-7.05l0,0
			c3.25-0.64,6.4,1.48,7.04,4.73h0.01c0.63,3.25-1.48,6.4-4.73,7.05l0,0c-0.39,0.07-0.78,0.11-1.17,0.11l0,0
			C358.435,287.151,355.926,285.171,355.365,282.311z M118.855,286.991c-3.25-0.64-5.37-3.79-4.73-7.04l0,0
			c0.64-3.26,3.8-5.37,7.05-4.73l0,0c3.25,0.64,5.37,3.79,4.73,7.05l0,0c-0.57,2.86-3.07,4.84-5.88,4.84l0,0
			C119.635,287.111,119.245,287.071,118.855,286.991z M350.735,266.181c-1.18-3.09,0.37-6.56,3.46-7.74l0,0
			c3.1-1.19,6.57,0.36,7.75,3.46l0,0c1.18,3.09-0.37,6.56-3.46,7.75l0,0c-0.71,0.26-1.43,0.39-2.14,0.39l0,0
			C353.926,270.042,351.645,268.571,350.735,266.181z M122.785,269.601c-3.09-1.18-4.64-4.65-3.45-7.75l0,0
			c1.18-3.09,4.65-4.64,7.75-3.45l0,0c3.09,1.18,4.64,4.65,3.45,7.75l0,0c-0.91,2.39-3.19,3.85-5.6,3.85l0,0
			C124.215,270.001,123.495,269.871,122.785,269.601z M343.426,251.091L343.426,251.091L343.426,251.091
			c-1.69-2.84-0.76-6.53,2.09-8.22l0,0c2.84-1.7,6.53-0.76,8.22,2.08l0,0c1.7,2.85,0.76,6.53-2.08,8.23l0,0
			c-0.97,0.57-2.02,0.84-3.07,0.84l0,0C346.545,254.021,344.555,252.981,343.426,251.091z M129.625,253.141
			c-2.84-1.69-3.77-5.38-2.08-8.22l0,0c1.7-2.85,5.38-3.78,8.23-2.09l0,0c2.84,1.7,3.78,5.38,2.08,8.23l0,0l0,0l0,0
			c-1.12,1.88-3.12,2.93-5.16,2.93l0,0C131.656,253.991,130.595,253.721,129.625,253.141z M333.645,237.471
			c-2.16-2.52-1.86-6.3,0.65-8.46l0,0c2.52-2.15,6.31-1.86,8.46,0.66l0,0c2.16,2.51,1.87,6.3-0.65,8.46l0,0
			c-1.13,0.96-2.52,1.44-3.9,1.44l0,0C336.515,239.571,334.825,238.861,333.645,237.471z M139.185,238.091
			c-2.52-2.15-2.81-5.94-0.65-8.46l0,0c2.15-2.52,5.94-2.81,8.46-0.65l0,0c2.51,2.15,2.81,5.94,0.65,8.46l0,0l0,0l0,0
			c-1.19,1.39-2.87,2.1-4.56,2.1l0,0C141.705,239.541,140.315,239.061,139.185,238.091z M321.585,224.991
			c-2.34-2.34-2.34-6.14,0-8.48l0,0c2.34-2.34,6.14-2.34,8.49,0l0,0c2.34,2.34,2.34,6.14,0,8.48l0,0c-1.18,1.17-2.71,1.76-4.25,1.76
			l0,0C324.295,226.751,322.755,226.161,321.585,224.991z M151.225,224.961c-2.35-2.34-2.35-6.14,0-8.49l0,0
			c2.34-2.34,6.14-2.34,8.48,0l0,0c2.34,2.35,2.34,6.15,0,8.49l0,0c-1.17,1.17-2.71,1.76-4.24,1.76l0,0
			C153.926,226.721,152.395,226.131,151.225,224.961z M308.985,212.391c-2.34-2.34-2.34-6.14,0-8.48l0,0c2.34-2.35,6.14-2.35,8.48,0
			l0,0c2.35,2.34,2.35,6.14,0,8.48l0,0c-1.17,1.17-2.7,1.76-4.24,1.76l0,0C311.696,214.151,310.155,213.561,308.985,212.391z
			 M163.825,212.361c-2.35-2.34-2.35-6.14,0-8.49l0,0c2.34-2.34,6.14-2.34,8.48,0l0,0c2.35,2.35,2.35,6.15,0,8.49l0,0
			c-1.17,1.17-2.71,1.76-4.24,1.76l0,0C166.525,214.121,164.995,213.531,163.825,212.361z M296.385,199.791
			c-2.34-2.34-2.34-6.14,0-8.48l0,0c2.34-2.35,6.14-2.35,8.48,0l0,0c2.35,2.34,2.35,6.14,0,8.48l0,0c-1.17,1.17-2.7,1.76-4.24,1.76
			l0,0C299.095,201.551,297.555,200.961,296.385,199.791z M176.426,199.761c-2.35-2.34-2.35-6.14,0-8.49l0,0
			c2.34-2.34,6.14-2.34,8.48,0l0,0c2.35,2.35,2.35,6.15,0,8.49l0,0c-1.17,1.17-2.7,1.76-4.24,1.76l0,0
			C179.125,201.521,177.595,200.931,176.426,199.761z M283.785,187.191c-2.34-2.34-2.34-6.14,0-8.48l0,0c2.34-2.35,6.14-2.35,8.48,0
			l0,0c2.35,2.34,2.35,6.14,0,8.48l0,0c-1.17,1.17-2.7,1.76-4.24,1.76l0,0C286.495,188.951,284.955,188.361,283.785,187.191z
			 M189.025,187.161c-2.35-2.34-2.35-6.14,0-8.49l0,0c2.34-2.34,6.14-2.34,8.48,0l0,0c2.34,2.35,2.34,6.15,0,8.49l0,0
			c-1.17,1.17-2.7,1.76-4.24,1.76l0,0C191.725,188.921,190.196,188.331,189.025,187.161z M271.185,174.591
			c-2.34-2.34-2.34-6.14,0-8.48l0,0c2.34-2.35,6.14-2.35,8.48,0l0,0c2.35,2.34,2.35,6.14,0,8.48l0,0c-1.17,1.17-2.7,1.76-4.24,1.76
			l0,0C273.895,176.351,272.355,175.761,271.185,174.591z M201.625,174.561c-2.35-2.35-2.35-6.14,0-8.49l0,0
			c2.34-2.34,6.14-2.34,8.48,0l0,0c2.35,2.35,2.35,6.14,0,8.49l0,0c-1.17,1.17-2.7,1.76-4.24,1.76l0,0
			C204.335,176.321,202.795,175.731,201.625,174.561z M258.585,161.991c-2.35-2.34-2.35-6.14,0-8.48l0,0c2.34-2.35,6.14-2.35,8.48,0
			l0,0c2.35,2.34,2.35,6.14,0,8.48l0,0c-1.17,1.17-2.7,1.76-4.24,1.76l0,0C261.285,163.751,259.755,163.161,258.585,161.991z
			 M214.225,161.961c-2.34-2.35-2.34-6.15,0-8.49l0,0c2.34-2.34,6.14-2.34,8.48,0l0,0c2.35,2.34,2.35,6.14,0,8.49l0,0
			c-1.17,1.17-2.7,1.75-4.24,1.75l0,0C216.926,163.711,215.395,163.131,214.225,161.961z M246.906,151.821
			c-3.04-1.33-4.42-4.87-3.09-7.91l0,0c1.33-3.03,4.87-4.41,7.9-3.08l0,0c3.04,1.33,4.42,4.86,3.09,7.9l0,0
			c-0.98,2.25-3.19,3.59-5.5,3.59l0,0C248.505,152.321,247.685,152.161,246.906,151.821z M226.485,148.701
			c-1.32-3.04,0.07-6.58,3.11-7.9l0,0c3.04-1.32,6.57,0.07,7.9,3.11l0,0c1.32,3.04-0.07,6.57-3.11,7.89l0,0l0,0l0,0
			c-0.78,0.34-1.59,0.5-2.39,0.5l0,0C229.676,152.301,227.475,150.961,226.485,148.701z"/>
	</g>
</g>
<g>
</g>
<g>
</g>
<g>
</g>
<g>
</g>
<g>
</g>
<g>
</g>
<g>
</g>
<g>
</g>
<g>
</g>
<g>
</g>
<g>
</g>
<g>
</g>
<g>
</g>
<g>
</g>
<g>
</g>
</svg>
