<?xml version="1.0" encoding="iso-8859-1"?>
<!-- Generator: Adobe Illustrator 19.1.0, SVG Export Plug-In . SVG Version: 6.00 Build 0)  -->
<svg version="1.1" id="Capa_1" xmlns="http://www.w3.org/2000/svg" xmlns:xlink="http://www.w3.org/1999/xlink" x="0px" y="0px"
	 viewBox="0 0 473.272 473.272" style="enable-background:new 0 0 473.272 473.272;" xml:space="preserve">
<g>
	<path style="fill:#DD7F3E;" d="M236.636,339.935c-6.135-17.645-9.856-36.214-12.799-54.629c-3.235-20.24-5.263-40.677-6.324-61.143
		c-1.124-21.682-1.214-43.413-0.348-65.106c0.83-20.823,2.698-41.632,5.758-62.247c2.775-18.693,6.397-37.464,12.133-55.495
		c0.501-1.574,1.036-3.135,1.581-4.695c6.04,17.27,9.735,35.435,12.668,53.462c3.29,20.219,5.333,40.641,6.434,61.093
		c1.168,21.692,1.251,43.454,0.381,65.159c-0.833,20.807-2.643,41.587-5.648,62.196c-2.766,18.966-6.382,38.019-12.14,56.326
		C237.795,336.559,237.222,338.248,236.636,339.935z"/>
	<path style="fill:#F2D24C;" d="M292.405,356.223c0,30.794-24.975,55.769-55.769,55.769c-30.806,0-55.769-24.975-55.769-55.769
		c0-20.879,11.472-39.079,28.469-48.64c3.86-2.184,8.002-3.895,12.369-5.099c4.757-1.334,9.761-2.03,14.931-2.03
		c5.17,0,10.174,0.708,14.931,2.03c4.367,1.204,8.51,2.915,12.37,5.099C280.92,317.143,292.405,335.343,292.405,356.223z"/>
	<path style="fill:#FFFFFF;" d="M266.021,355.396c0,16.23-13.157,29.388-29.388,29.388s-29.388-13.157-29.388-29.388H266.021z"/>
	<g>
		<path style="fill:#4D4D4D;" d="M195.338,344.421c4.11-11.201,23.12-11.469,27.116,0c-2.05-0.547-4.014-1.356-6.1-1.79
			c-2.463-0.512-4.935-0.871-7.458-0.881c-2.45-0.01-4.894,0.315-7.281,0.838C199.471,343.057,197.452,343.876,195.338,344.421z"/>
		<path style="fill:#4D4D4D;" d="M250.812,344.421c4.11-11.201,23.12-11.469,27.116,0c-2.05-0.547-4.014-1.356-6.1-1.79
			c-2.463-0.512-4.935-0.871-7.458-0.881c-2.45-0.01-4.894,0.315-7.281,0.838C254.945,343.057,252.926,343.876,250.812,344.421z"/>
	</g>
	<path style="fill:#F48438;" d="M218.705,305.851c-1.339-3.536-2.435-7.152-3.739-10.699c-1.58-4.301-3.153-8.598-4.768-12.885
		c-3.285-8.718-6.984-17.297-11.061-25.674c-8.296-17.042-18.145-33.166-29.697-48.202c-11.656-15.173-25.204-29.073-40.096-41.093
		c-7.477-6.035-15.289-11.605-23.329-16.854c-7.815-5.102-15.966-9.576-24.217-13.922c-16.116-8.488-33.262-14.683-50.394-20.735
		c-1.473-0.52-2.932-1.077-4.394-1.63c19.715-6.438,40.769-7.442,61.203-4.181c21.43,3.419,42.015,11.688,60.279,23.331
		c18.228,11.62,33.969,26.944,46.564,44.472c6.328,8.807,11.874,18.424,16.225,28.364c4.35,9.938,7.967,20.358,10.1,31.009
		c4.165,20.795,4.879,42.678-1.003,63.241C219.856,302.224,219.288,304.039,218.705,305.851z"/>
	<path style="fill:#DD7F3E;" d="M218.705,305.851c-5.176-4.776-10.092-9.839-15.215-14.674c-5.797-5.47-11.778-10.777-18.011-15.748
		c-12.736-10.158-26.152-19.231-40.516-26.939c-14.629-7.85-30.248-14.185-46.268-18.571c-8.014-2.195-16.104-3.965-24.275-5.45
		c-8.003-1.454-16.085-2.286-24.177-3.042c-7.986-0.746-16.073-0.864-24.089-0.905c-7.451-0.039-14.883,0.395-22.327,0.574
		c-1.276,0.031-2.551,0.041-3.827,0.05c12.702-12.573,28.497-20.865,45.477-26.107c18.634-5.752,38.915-6.568,58.127-3.712
		c19.222,2.858,37.716,9.867,54.286,19.96c15.986,9.737,30.296,23.078,40.791,38.593c10.269,15.183,17.981,32.724,19.678,51.132
		C218.508,302.624,218.613,304.236,218.705,305.851z"/>
	<path style="fill:#F48438;" d="M217.218,298.519c-5.197-0.306-10.374-0.999-15.563-1.426c-6.004-0.494-12.005-0.943-18.028-1.131
		c-12.466-0.391-24.893,0.085-37.284,1.525c-24.275,2.821-48.282,10.073-70.258,20.737c-5.967,2.895-11.9,5.865-17.683,9.115
		c-4.926,2.768-9.798,5.668-14.805,8.288c1.418-13.863,7.446-26.564,15.725-37.632c8.901-11.901,21.137-21.341,34.391-27.923
		c13.768-6.837,29.046-10.423,44.384-10.895c15.066-0.464,30.694,2.471,44.333,8.967c12.846,6.118,24.978,14.993,32.785,27.093
		C215.91,296.315,216.569,297.413,217.218,298.519z"/>
	<path style="fill:#DD7F3E;" d="M211.609,295.376c-3.603,3.542-7.466,6.841-11.183,10.266c-3.976,3.664-7.891,7.395-11.672,11.259
		c-7.892,8.066-15.26,16.567-22.035,25.594c-13.73,18.296-24.601,39.035-32.048,60.663c-2.015,5.851-3.994,11.723-5.677,17.68
		c-1.49,5.271-2.865,10.595-4.533,15.814c-18.791-20.801-20.976-52.395-12.603-78.125c8.574-26.349,29.244-49.974,55.466-59.78
		c7.412-2.772,15.044-4.714,22.956-5.303C197.505,292.906,204.612,293.506,211.609,295.376z"/>
	<path style="fill:#F48438;" d="M254.567,305.851c-1.393-4.325-2.652-8.665-3.523-13.125c-0.988-5.053-1.557-10.098-2.052-15.218
		c-1.039-10.74-0.212-21.764,1.387-32.406c3.235-21.528,11.679-42.329,23.327-60.643c11.616-18.264,26.922-34.05,44.463-46.68
		c8.707-6.269,18.177-11.656,27.958-16.064c9.853-4.442,20.358-8.065,30.964-10.198c10.72-2.156,21.524-3.534,32.479-3.324
		c10.543,0.203,21.063,1.387,31.229,4.279c1.834,0.522,3.65,1.093,5.462,1.685c-7.541,2.852-15.204,5.367-22.744,8.227
		c-8.703,3.301-17.31,6.916-25.679,10.994c-17.039,8.303-33.203,18.016-48.285,29.519c-15.263,11.64-29.066,25.111-41.297,39.895
		c-12.08,14.601-22.194,30.684-30.957,47.45c-8.54,16.339-14.992,33.582-21.032,50.964
		C255.724,302.764,255.15,304.309,254.567,305.851z"/>
	<path style="fill:#DD7F3E;" d="M254.567,305.851c0.218-3.844,0.533-7.676,1.241-11.463c0.826-4.415,1.953-8.694,3.242-12.992
		c2.685-8.956,6.851-17.405,11.588-25.437c9.588-16.26,23.415-30.126,38.876-40.83c15.876-10.992,34.016-18.521,52.884-22.497
		c9.656-2.035,19.781-3.127,29.658-2.887c9.626,0.234,19.327,1.113,28.693,3.448c17.892,4.46,35.241,12.077,49.011,24.599
		c1.199,1.09,2.361,2.214,3.513,3.354c-6.762-0.048-13.518-0.468-20.28-0.55c-7.96-0.096-15.935-0.072-23.883,0.44
		c-16.395,1.055-32.573,3.332-48.526,7.313c-16.134,4.026-31.892,9.822-46.764,17.269c-7.371,3.691-14.51,7.814-21.496,12.179
		c-6.852,4.281-13.311,9.067-19.789,13.881c-12.622,9.382-23.858,20.502-35.088,31.457
		C256.501,304.057,255.537,304.956,254.567,305.851z"/>
	<path style="fill:#F48438;" d="M256.054,298.519c1.516-2.585,3.105-5.125,4.986-7.461c2.246-2.789,4.681-5.339,7.247-7.831
		c5.188-5.038,11.264-9.12,17.573-12.607c13.188-7.29,28.418-10.922,43.417-11.428c15.439-0.521,30.902,2.538,45.125,8.503
		c13.603,5.704,26.415,14.67,35.978,25.942c9.251,10.904,16.577,23.879,18.817,38.166c0.199,1.271,0.348,2.544,0.479,3.823
		c-4.365-2.283-8.534-4.924-12.885-7.228c-5.191-2.748-10.289-5.655-15.577-8.221c-10.973-5.325-22.178-10.021-33.788-13.78
		c-23.728-7.682-48.353-10.772-73.239-10.578c-6.774,0.053-13.605,0.456-20.35,1.072
		C267.918,297.431,261.986,298.17,256.054,298.519z"/>
	<path style="fill:#DD7F3E;" d="M261.663,295.376c26.855-7.182,55.603,4.527,74.919,23.306c20.3,19.735,32.323,49.302,29.05,77.703
		c-1.695,14.713-6.772,29.146-16.821,40.268c-3.1-9.697-5.431-19.615-8.75-29.252c-3.668-10.653-7.861-21.069-12.85-31.177
		c-10.222-20.71-23.781-39.243-39.522-56.081c-4.232-4.527-8.722-8.882-13.283-13.076
		C270.17,303.171,265.765,299.412,261.663,295.376z"/>
	<path style="fill:#45CE83;" d="M288.929,344.788c-4.269-28.376-10.281-54.921-17.332-79.635
		c-1.701-5.963-5.998-10.823-11.667-13.336c-15.253-6.761-33.002-6.761-48.255,0c-5.669,2.513-9.966,7.372-11.667,13.336
		c-7.051,24.714-13.063,51.259-17.332,79.635c6.614-14.055,17.411-23.711,29.776-28.975c7.786-3.315,16.827-0.212,21.059,7.117
		l3.126,5.415l2.783-4.821c4.402-7.625,13.919-10.524,21.873-6.751C272.759,322.212,282.7,331.55,288.929,344.788z"/>
	<path style="fill:#F4E84A;" d="M260.18,251.929c-15.392-6.91-33.364-6.91-48.756,0c-5.591,2.51-9.756,7.401-11.437,13.295
		c-2.251,7.894-4.382,15.997-6.399,24.265c22.699-23.658,61.728-23.658,84.427,0c-2.016-8.268-4.147-16.37-6.399-24.265
		C269.936,259.33,265.771,254.439,260.18,251.929z"/>
	
		<line style="fill:none;stroke:#FFFFFF;stroke-width:10;stroke-linecap:round;stroke-miterlimit:10;" x1="260.268" y1="266.093" x2="268.872" y2="308.918"/>
</g>
<g>
</g>
<g>
</g>
<g>
</g>
<g>
</g>
<g>
</g>
<g>
</g>
<g>
</g>
<g>
</g>
<g>
</g>
<g>
</g>
<g>
</g>
<g>
</g>
<g>
</g>
<g>
</g>
<g>
</g>
</svg>
