<?xml version="1.0" encoding="iso-8859-1"?>
<!-- Generator: Adobe Illustrator 19.1.0, SVG Export Plug-In . SVG Version: 6.00 Build 0)  -->
<svg version="1.1" id="Capa_1" xmlns="http://www.w3.org/2000/svg" xmlns:xlink="http://www.w3.org/1999/xlink" x="0px" y="0px"
	 viewBox="0 0 427.542 427.542" style="enable-background:new 0 0 427.542 427.542;" xml:space="preserve">
<g>
	<path style="fill:#F4E84A;" d="M353.966,384.558c7.657,12.423,0.535,28.653-13.752,31.628
		c-33.988,7.078-78.155,11.356-126.443,11.356s-92.455-4.278-126.443-11.356c-14.287-2.975-21.409-19.206-13.752-31.628
		c10.151-16.469,21.489-31.153,33.809-43.718c30.553-31.191,67.116-49.334,106.386-49.334s75.833,18.143,106.386,49.334
		C332.477,353.405,343.815,368.089,353.966,384.558z"/>
	<path style="fill:#F4E84A;" d="M408.108,47.196c0,167.13-87.008,302.611-194.337,302.611S19.434,214.326,19.434,47.196
		c0,26.069,87.008,47.196,194.337,47.196S408.108,73.265,408.108,47.196z"/>
	<path style="fill:#F48438;" d="M24.953,119.151c5.814,37.113,16.016,71.544,29.713,101.88
		c35.171,12.123,93.25,20.044,158.956,20.044c65.888,0,124.11-7.964,159.251-20.144c13.711-30.392,23.915-64.89,29.715-102.075
		c-20.468,20.74-97.294,36.155-188.966,36.155C122.386,155.011,45.856,139.742,24.953,119.151z"/>
	<path style="fill:#45CE83;" d="M30.63,149.163c26.877,18.241,98.665,31.293,183.016,31.293s156.139-13.052,183.016-31.293
		c6.246-27.18,10.077-56.15,11.064-86.293c-0.033-4.321-0.07-8.583-0.11-12.807c-6.102,24.733-90.604,44.33-193.97,44.33
		c-101.213,0-184.34-18.789-193.488-42.791c-0.129,5.671-0.243,11.475-0.342,17.412C21.094,96.95,24.809,123.835,30.63,149.163z"/>
	<path style="fill:#F48438;" d="M408.111,47.2c0,20.803-55.41,38.458-132.325,44.732h-0.011c-7.54,0.617-15.283,1.127-23.206,1.521
		h-0.011c-12.539,0.617-25.504,0.936-38.787,0.936c-17.208,0-33.895-0.542-49.774-1.563h-0.011
		c-6.551-0.415-12.954-0.925-19.207-1.5c-6.924-0.638-13.666-1.372-20.186-2.191c-6.147-0.766-12.092-1.617-17.825-2.542
		C54.145,78.159,19.431,63.663,19.431,47.2c0-26.067,87.008-47.2,194.34-47.2c2.648,0,5.286,0.011,7.902,0.043
		c6.966,0.064,13.837,0.223,20.59,0.468c7.36,0.255,14.581,0.617,21.643,1.074h0.011c6.551,0.425,12.943,0.925,19.197,1.51
		c28.205,2.616,53.251,6.786,73.384,12.071c5.435,1.425,10.518,2.935,15.198,4.52C394.615,27.429,408.111,36.926,408.111,47.2z"/>
	<path style="fill:#FFFFFF;" d="M225.863,12.858l-86.455,65.12c-4.478-0.457-8.912-0.968-13.241-1.51
		c-1.702-0.213-3.393-0.436-5.084-0.659l83.637-62.993c3.01-0.032,6.03-0.053,9.051-0.053c2.914,0,5.456,0.011,7.785,0.043
		C222.992,12.816,224.428,12.837,225.863,12.858z"/>
	<path style="fill:#FFFFFF;" d="M267.777,14.645l-87.923,66.237h-0.011l-15.847,11.944h-0.011c-6.551-0.415-12.954-0.925-19.207-1.5
		l15.336-11.55l87.965-66.269c5.02,0.223,10.05,0.489,14.996,0.808l0.351,0.032C264.885,14.443,266.342,14.538,267.777,14.645z"/>
	<path style="fill:#FFFFFF;" d="M359.146,29.141l-63.791,48.051h-0.011c-6.498,0.755-13.199,1.414-20.08,1.978h-0.011l-0.521,0.043
		c-1.202,0.096-2.414,0.191-3.637,0.287l72.235-54.411c3.435,0.776,6.753,1.585,9.933,2.425
		C355.275,28.045,357.242,28.588,359.146,29.141z"/>
	<path style="fill:#F4E84A;" d="M213.771,12.762c2.919,0,5.453,0.014,7.785,0.042c6.697,0.061,13.508,0.216,20.264,0.461
		c7.093,0.246,14.247,0.601,21.261,1.055l0.342,0.022c6.383,0.417,12.606,0.908,18.511,1.461
		c27.041,2.508,51.703,6.557,71.326,11.708c5.154,1.352,9.979,2.786,14.351,4.266c20.471,6.916,26.866,13.397,27.692,15.422
		c-0.902,2.234-8.221,9.407-31.933,16.797c-22.598,7.043-53.055,12.288-88.105,15.174h-0.01l-0.52,0.043
		c-7.366,0.603-14.928,1.1-22.484,1.478h-0.006l-0.313,0.015c-12.418,0.611-25.257,0.92-38.16,0.92
		c-16.622,0-33.092-0.517-48.955-1.537l-0.42-0.026h-0.005c-5.981-0.383-12.019-0.856-18.442-1.446
		c-6.696-0.617-13.347-1.339-19.779-2.147c-5.89-0.734-11.734-1.567-17.383-2.479c-23.594-3.781-43.503-8.834-57.575-14.613
		c-13.75-5.646-18.265-10.567-18.964-12.163c0.387-0.797,2.515-4.236,11.971-9.022c9.35-4.733,22.934-9.208,39.285-12.942
		C118.766,17.198,165.029,12.762,213.771,12.762 M213.771,0C106.439,0,19.431,21.132,19.431,47.2
		c0,16.464,34.714,30.96,87.338,39.393c5.732,0.925,11.678,1.776,17.825,2.542c6.519,0.819,13.262,1.553,20.186,2.191
		c6.254,0.574,12.656,1.085,19.207,1.5h0.011c15.879,1.021,32.566,1.563,49.774,1.563c13.284,0,26.248-0.319,38.787-0.936h0.011
		c7.923-0.394,15.666-0.904,23.206-1.521h0.011c76.915-6.275,132.325-23.93,132.325-44.732c0-10.274-13.496-19.771-36.416-27.514
		c-4.68-1.585-9.763-3.095-15.198-4.52c-20.133-5.286-45.179-9.455-73.384-12.071c-6.254-0.585-12.645-1.085-19.197-1.51h-0.011
		c-7.062-0.457-14.283-0.819-21.643-1.074c-6.753-0.245-13.624-0.404-20.59-0.468C219.057,0.011,216.419,0,213.771,0L213.771,0z"/>
</g>
<g>
</g>
<g>
</g>
<g>
</g>
<g>
</g>
<g>
</g>
<g>
</g>
<g>
</g>
<g>
</g>
<g>
</g>
<g>
</g>
<g>
</g>
<g>
</g>
<g>
</g>
<g>
</g>
<g>
</g>
</svg>
