<?xml version="1.0" encoding="iso-8859-1"?>
<!-- Generator: Adobe Illustrator 19.1.0, SVG Export Plug-In . SVG Version: 6.00 Build 0)  -->
<svg version="1.1" id="Capa_1" xmlns="http://www.w3.org/2000/svg" xmlns:xlink="http://www.w3.org/1999/xlink" x="0px" y="0px"
	 viewBox="0 0 445.703 445.703" style="enable-background:new 0 0 445.703 445.703;" xml:space="preserve">
<g>
	<path style="fill:#46B9CC;" d="M243.942,241.607c-1.919,0-3.839-0.732-5.304-2.197l-45.21-45.21c-2.929-2.929-2.929-7.678,0-10.606
		c2.93-2.929,7.678-2.929,10.607,0l45.21,45.21c2.929,2.929,2.929,7.678,0,10.606C247.781,240.874,245.861,241.607,243.942,241.607z
		"/>
	<path style="fill:#46B9CC;" d="M198.732,241.607c-1.919,0-3.839-0.732-5.304-2.197c-2.929-2.929-2.929-7.678,0-10.606l45.21-45.21
		c2.93-2.929,7.678-2.929,10.607,0c2.929,2.929,2.929,7.678,0,10.606l-45.21,45.21C202.571,240.874,200.651,241.607,198.732,241.607
		z"/>
	<g>
		<path style="fill:#46B9CC;" d="M176.397,171.245c-2.34-3.41-1.471-8.08,1.939-10.42l0,0c3.42-2.35,8.09-1.48,10.431,1.93l0,0
			c2.35,3.42,1.479,8.09-1.94,10.43l0,0c-1.3,0.89-2.77,1.32-4.24,1.32l0,0C180.207,174.506,177.857,173.365,176.397,171.245z
			 M163.637,155.986c-2.841-3.01-2.7-7.76,0.31-10.6l0,0c3.01-2.84,7.76-2.7,10.6,0.31l0,0c2.841,3.02,2.7,7.76-0.31,10.6l0,0
			c-1.45,1.37-3.3,2.05-5.15,2.05l0,0C167.097,158.345,165.107,157.555,163.637,155.986z M149.006,142.026
			c-3.149-2.7-3.51-7.43-0.81-10.58l0,0c2.69-3.14,7.43-3.5,10.57-0.81l0,0c3.14,2.7,3.51,7.43,0.81,10.58l0,0
			c-1.479,1.73-3.58,2.62-5.7,2.62l0,0C152.157,143.835,150.417,143.236,149.006,142.026z M132.997,129.765
			c-3.43-2.33-4.32-6.99-1.99-10.42l0,0c2.32-3.43,6.99-4.32,10.41-1.99l0,0c3.431,2.33,4.32,6.99,2,10.42l0,0
			c-1.46,2.13-3.819,3.28-6.22,3.28l0,0C135.747,131.055,134.287,130.645,132.997,129.765z M115.737,119.535L115.737,119.535
			L115.737,119.535c-3.69-1.88-5.15-6.4-3.271-10.09l0,0c1.881-3.69,6.4-5.16,10.08-3.28l0,0c3.7,1.88,5.16,6.4,3.28,10.09l0,0
			c-1.32,2.6-3.96,4.1-6.689,4.1l0,0C117.997,120.355,116.836,120.085,115.737,119.535z M97.397,111.715
			c-3.91-1.35-6-5.62-4.65-9.53l0,0c1.351-3.92,5.62-6,9.54-4.65l0,0c3.91,1.35,6,5.62,4.65,9.53l0,0
			c-1.07,3.11-3.98,5.06-7.09,5.06l0,0C99.037,112.125,98.207,111.995,97.397,111.715z M78.216,106.675L78.216,106.675
			L78.216,106.675c-4.079-0.74-6.779-4.64-6.04-8.72l0,0c0.74-4.07,4.65-6.78,8.721-6.04l0,0c4.08,0.75,6.779,4.65,6.04,8.73l0,0
			c-0.66,3.62-3.82,6.16-7.37,6.15l0,0C79.117,106.795,78.667,106.756,78.216,106.675z M30.317,99.335
			c-0.54-4.1,2.34-7.87,6.45-8.42l0,0c4.1-0.55,7.87,2.34,8.42,6.44l0,0c0.54,4.11-2.34,7.88-6.44,8.43l0,0c0,0,0,0-0.01,0l0,0
			c-0.33,0.04-0.67,0.07-0.99,0.07l0,0C34.037,105.845,30.817,103.105,30.317,99.335z M58.527,104.675
			c-4.14-0.09-7.42-3.52-7.33-7.66l0,0c0.09-4.14,3.53-7.42,7.67-7.33l0,0c4.14,0.09,7.42,3.52,7.33,7.66l0,0
			c-0.09,4.09-3.43,7.34-7.49,7.34l0,0C58.647,104.685,58.586,104.685,58.527,104.675z"/>
		<path style="fill:#46B9CC;" d="M163.867,198.685c0,0,0,0,0,0.01l0,0c-3.55-2.14-4.7-6.74-2.57-10.3l0,0
			c2.13-3.55,6.74-4.7,10.29-2.57v0.01c3.551,2.13,4.7,6.74,2.57,10.29l0,0c-1.41,2.34-3.89,3.64-6.43,3.64l0,0
			C166.407,199.765,165.077,199.415,163.867,198.685z M1.147,193.955c-2.2-3.51-1.141-8.14,2.37-10.34l0,0
			c3.51-2.21,8.14-1.15,10.34,2.36l0,0c2.2,3.51,1.14,8.14-2.37,10.34l0,0c-1.24,0.78-2.62,1.15-3.98,1.15l0,0
			C5.017,197.465,2.577,196.225,1.147,193.955z M145.937,190.125c-3.83-1.56-5.681-5.94-4.11-9.78l0,0
			c1.561-3.83,5.93-5.68,9.771-4.12l0,0c3.84,1.57,5.68,5.94,4.119,9.78l0,0c-1.189,2.91-3.989,4.67-6.949,4.67l0,0
			C147.827,190.675,146.867,190.495,145.937,190.125z M19.176,183.165c-1.63-3.8,0.12-8.21,3.931-9.85l0,0
			c3.81-1.64,8.22,0.12,9.859,3.93l0,0c1.631,3.8-0.13,8.22-3.93,9.85l0,0c-0.97,0.42-1.979,0.61-2.96,0.61l0,0
			C23.167,187.705,20.397,186.006,19.176,183.165z M126.847,183.506c-3.98-1.15-6.28-5.31-5.131-9.29l0,0
			c1.15-3.98,5.301-6.27,9.28-5.12l0,0c3.98,1.14,6.28,5.3,5.13,9.28l0,0c-0.95,3.29-3.939,5.42-7.2,5.42l0,0
			C128.237,183.795,127.537,183.705,126.847,183.506z M38.667,175.315c-1.02-4.02,1.41-8.1,5.431-9.12l0,0
			c4.01-1.01,8.09,1.42,9.109,5.43l0,0c1.021,4.02-1.41,8.1-5.43,9.11l0,0l0,0l0,0c-0.62,0.16-1.24,0.24-1.851,0.24l0,0
			C42.577,180.975,39.527,178.705,38.667,175.315z M107.197,178.995c-4.08-0.69-6.83-4.56-6.14-8.65l0,0
			c0.699-4.08,4.569-6.83,8.659-6.13l0,0c4.08,0.69,6.83,4.56,6.131,8.65l0,0c-0.62,3.65-3.79,6.24-7.381,6.24l0,0
			C108.046,179.105,107.626,179.075,107.197,178.995z M59.137,170.615c-0.391-4.13,2.63-7.79,6.75-8.19l0,0
			c4.119-0.4,7.789,2.62,8.189,6.75l0,0c0.39,4.12-2.63,7.78-6.75,8.18l0,0l0,0l0,0c-0.25,0.03-0.49,0.04-0.729,0.04l0,0
			C62.777,177.395,59.517,174.486,59.137,170.615z M87.256,176.855L87.256,176.855L87.256,176.855c-4.14-0.18-7.34-3.68-7.17-7.82
			l0,0c0.181-4.13,3.681-7.35,7.82-7.16l0,0c4.14,0.17,7.35,3.67,7.17,7.81l0,0c-0.17,4.03-3.5,7.18-7.49,7.18l0,0
			C87.477,176.865,87.367,176.865,87.256,176.855z"/>
		<path style="fill:#46B9CC;" d="M15.117,295.435c-3.49-2.23-4.52-6.86-2.3-10.35l0,0c2.229-3.5,6.859-4.53,10.359-2.3l0,0
			c3.49,2.22,4.521,6.86,2.301,10.35l0,0c-1.431,2.25-3.86,3.47-6.34,3.47l0,0C17.756,296.605,16.367,296.225,15.117,295.435z
			 M26.767,277.965c-3.11-2.73-3.41-7.47-0.67-10.58l0,0c2.729-3.11,7.47-3.41,10.579-0.68l0,0c3.11,2.74,3.41,7.48,0.681,10.59l0,0
			l0,0l0,0c-1.48,1.68-3.561,2.54-5.641,2.54l0,0C29.966,279.835,28.197,279.225,26.767,277.965z M40.997,262.526
			c-2.649-3.2-2.2-7.92,0.99-10.57l0,0c3.189-2.64,7.91-2.19,10.56,1l0,0c2.641,3.19,2.19,7.92-1,10.56l0,0c0,0,0,0,0.011,0l0,0
			c-1.4,1.16-3.101,1.72-4.79,1.72l0,0C44.617,265.236,42.477,264.315,40.997,262.526z M57.466,249.486
			c-2.13-3.55-0.979-8.15,2.58-10.28l0,0c3.551-2.13,8.16-0.98,10.29,2.57l0,0c2.12,3.56,0.971,8.17-2.58,10.3l0,0l0,0l0,0
			c-1.21,0.72-2.54,1.06-3.85,1.06l0,0C61.357,253.135,58.867,251.835,57.466,249.486z M75.716,239.075
			c-1.619-3.81,0.16-8.21,3.98-9.83l0,0c3.81-1.61,8.22,0.17,9.83,3.99l0,0c1.61,3.81-0.17,8.21-3.99,9.83l0,0c0,0,0,0,0.01,0l0,0
			c-0.96,0.4-1.949,0.59-2.92,0.59l0,0C79.697,243.655,76.917,241.935,75.716,239.075z M95.216,231.265
			c-1.13-3.99,1.19-8.14,5.181-9.26l0,0c3.99-1.13,8.13,1.19,9.26,5.18l0,0c1.12,3.98-1.2,8.13-5.18,9.25l0,0l0,0l0,0
			c-0.681,0.2-1.37,0.29-2.04,0.29l0,0C99.157,236.725,96.147,234.565,95.216,231.265z M115.537,225.895
			c-0.67-4.09,2.101-7.95,6.19-8.62l0,0c4.09-0.67,7.939,2.1,8.609,6.18l0,0c0.681,4.09-2.09,7.95-6.18,8.62l0,0l0,0l0,0
			c-0.41,0.07-0.82,0.1-1.23,0.1l0,0C119.327,232.175,116.147,229.565,115.537,225.895z M164.097,229.905c0,0,0,0,0.01,0l0,0
			c-4.13-0.4-7.141-4.07-6.74-8.19l0,0c0.4-4.13,4.07-7.14,8.19-6.74l0,0c4.119,0.4,7.14,4.07,6.739,8.19l0,0
			c-0.38,3.88-3.64,6.78-7.46,6.78l0,0C164.597,229.945,164.347,229.925,164.097,229.905z M136.336,222.795
			c-0.229-4.13,2.931-7.68,7.061-7.91l0,0c4.14-0.24,7.68,2.92,7.92,7.06l0,0c0.229,4.13-2.93,7.68-7.061,7.91l0,0
			c-0.149,0.01-0.29,0.02-0.439,0.02l0,0C139.876,229.875,136.567,226.785,136.336,222.795z"/>
		<path style="fill:#46B9CC;" d="M201.237,161.285c-0.28-4.13,2.83-7.71,6.97-8l0,0c4.13-0.28,7.71,2.83,7.99,6.97l0,0
			c0.29,4.13-2.83,7.71-6.96,8l0,0c-0.18,0.01-0.35,0.01-0.53,0.01l0,0C204.807,168.265,201.506,165.236,201.237,161.285z
			 M198.597,141.135L198.597,141.135L198.597,141.135c-0.69-4.09,2.06-7.96,6.14-8.65l0,0c4.09-0.69,7.96,2.06,8.65,6.14l0,0
			c0.689,4.09-2.061,7.96-6.141,8.65l0,0c-0.42,0.07-0.84,0.11-1.26,0.11l0,0C202.397,147.375,199.216,144.795,198.597,141.135z
			 M194.506,121.006c-0.949-4.03,1.54-8.07,5.57-9.03l0,0c4.03-0.96,8.07,1.54,9.03,5.57l0,0c0.95,4.03-1.54,8.07-5.57,9.03l0,0
			c-0.58,0.13-1.16,0.2-1.74,0.2l0,0C198.407,126.776,195.327,124.455,194.506,121.006z M189.107,101.225
			c-1.23-3.96,0.979-8.16,4.939-9.39l0,0c3.96-1.23,8.16,0.98,9.391,4.94l0,0c1.229,3.95-0.99,8.16-4.94,9.38l0,0
			c-0.74,0.23-1.49,0.34-2.229,0.34l0,0C193.067,106.495,190.107,104.435,189.107,101.225z M182.317,81.945L182.317,81.945
			L182.317,81.945c-1.53-3.85,0.359-8.21,4.21-9.74l0,0c3.85-1.53,8.21,0.35,9.74,4.2l0,0c1.52,3.85-0.36,8.21-4.21,9.74l0,0
			c-0.91,0.36-1.841,0.53-2.761,0.53l0,0C186.307,86.675,183.487,84.885,182.317,81.945z M174.006,63.385
			c-1.869-3.7-0.38-8.22,3.32-10.08l0,0c3.7-1.86,8.21-0.38,10.07,3.32l0,0c1.87,3.7,0.38,8.21-3.32,10.08l0,0
			c-1.08,0.54-2.229,0.8-3.37,0.8l0,0C177.966,67.506,175.327,65.995,174.006,63.385z M163.997,45.845
			c-2.24-3.48-1.24-8.12,2.24-10.37l0,0c3.479-2.24,8.12-1.24,10.37,2.24l0,0c2.24,3.48,1.24,8.12-2.24,10.37l0,0
			c-1.25,0.81-2.66,1.19-4.06,1.19l0,0C167.847,49.276,165.437,48.065,163.997,45.845z M152.126,29.725
			c-2.67-3.17-2.27-7.9,0.9-10.57l0,0c3.17-2.67,7.899-2.27,10.57,0.9l0,0c2.67,3.17,2.26,7.9-0.9,10.57l0,0
			c-1.41,1.19-3.13,1.77-4.83,1.77l0,0C155.727,32.395,153.607,31.486,152.126,29.725z"/>
		<path style="fill:#46B9CC;" d="M258.876,173.185c-3.41-2.34-4.279-7.01-1.939-10.43l0,0c0,0,0,0,0,0.01l0,0
			c2.35-3.42,7.02-4.29,10.43-1.94l0,0c3.41,2.34,4.28,7.01,1.94,10.42l0,0c-1.45,2.12-3.801,3.26-6.19,3.26l0,0
			C261.657,174.506,260.176,174.075,258.876,173.185z M271.466,156.295c-3.01-2.84-3.149-7.58-0.31-10.6l0,0
			c2.84-3.01,7.59-3.15,10.6-0.31l0,0c3.021,2.84,3.16,7.59,0.32,10.6l0,0c-1.479,1.56-3.47,2.36-5.46,2.35l0,0
			C274.767,158.335,272.917,157.665,271.466,156.295z M286.126,141.215c-2.7-3.14-2.33-7.88,0.811-10.58l0,0
			c3.149-2.69,7.88-2.33,10.58,0.81l0,0c2.689,3.15,2.33,7.89-0.82,10.58h0.01c-1.42,1.21-3.149,1.81-4.88,1.81l0,0
			C289.707,143.835,287.607,142.945,286.126,141.215z M302.296,127.776c-2.33-3.43-1.439-8.09,1.99-10.42l0,0
			c3.43-2.33,8.09-1.44,10.42,1.99l0,0c2.32,3.43,1.431,8.09-2,10.42h0.01c-1.29,0.87-2.76,1.29-4.21,1.29l0,0
			C306.107,131.055,303.747,129.905,302.296,127.776z M319.876,116.256c-1.88-3.69-0.41-8.2,3.28-10.09l0,0
			c3.69-1.88,8.2-0.41,10.08,3.28l0,0c1.88,3.69,0.42,8.21-3.271,10.09l0,0c-1.09,0.55-2.25,0.82-3.399,0.82l0,0
			C323.836,120.355,321.207,118.855,319.876,116.256z M338.777,107.065c-1.351-3.91,0.729-8.18,4.64-9.53l0,0
			c3.92-1.35,8.19,0.73,9.54,4.65l0,0c1.351,3.91-0.729,8.18-4.649,9.53l0,0c-0.811,0.28-1.631,0.41-2.44,0.41l0,0
			C342.747,112.125,339.847,110.175,338.777,107.065z M358.767,100.645c-0.74-4.08,1.96-7.98,6.04-8.72l0,0
			c4.08-0.75,7.979,1.96,8.72,6.03l0,0c0.74,4.08-1.96,7.98-6.04,8.72l0,0c-0.45,0.09-0.9,0.13-1.35,0.12l0,0
			C362.586,106.795,359.426,104.265,358.767,100.645z M406.966,105.785L406.966,105.785c-4.109-0.55-7-4.32-6.449-8.42l0,0
			c0.55-4.11,4.319-7,8.43-6.45l0,0c0,0,0,0-0.01,0l0,0c4.109,0.55,6.989,4.32,6.45,8.42l0,0c-0.5,3.77-3.721,6.52-7.421,6.52l0,0
			C407.637,105.855,407.296,105.825,406.966,105.785z M379.506,97.345c-0.09-4.14,3.19-7.57,7.341-7.66l0,0
			c4.14-0.09,7.569,3.19,7.659,7.33l0,0c0.091,4.14-3.189,7.57-7.33,7.66v0.01c-0.06,0-0.109,0-0.17,0l0,0
			C382.937,104.685,379.597,101.435,379.506,97.345z"/>
		<path style="fill:#46B9CC;" d="M271.546,196.125c-2.13-3.56-0.979-8.16,2.57-10.3l0,0c3.55-2.13,8.16-0.98,10.29,2.57l0,0
			c2.13,3.56,0.98,8.16-2.57,10.29v0.01c-1.21,0.72-2.54,1.07-3.85,1.07l0,0C275.437,199.765,272.957,198.465,271.546,196.125z
			 M434.216,196.315c-3.51-2.2-4.569-6.83-2.369-10.34l0,0c2.199-3.5,6.829-4.57,10.34-2.36l0,0l0,0l0,0
			c3.51,2.2,4.569,6.83,2.37,10.33l0,0c-1.431,2.27-3.87,3.52-6.36,3.52l0,0C436.836,197.465,435.457,197.095,434.216,196.315z
			 M289.987,186.006c-1.561-3.84,0.29-8.21,4.12-9.78l0,0c3.84-1.56,8.21,0.29,9.78,4.12l0,0c1.56,3.84-0.29,8.22-4.12,9.78l0,0
			c-0.931,0.38-1.88,0.55-2.83,0.55l0,0C293.977,190.675,291.176,188.915,289.987,186.006z M416.676,187.095
			c-3.81-1.63-5.569-6.05-3.93-9.85l0,0c1.63-3.81,6.05-5.56,9.851-3.93l0,0c3.81,1.64,5.56,6.05,3.93,9.85l0,0
			c-1.22,2.84-3.99,4.54-6.9,4.54l0,0C418.647,187.705,417.637,187.515,416.676,187.095z M309.577,178.375
			c-1.15-3.98,1.15-8.14,5.13-9.29l0,0c3.98-1.14,8.13,1.15,9.28,5.13l0,0c1.15,3.98-1.15,8.14-5.13,9.29l0,0
			c-0.69,0.2-1.391,0.29-2.08,0.29l0,0C313.527,183.795,310.527,181.655,309.577,178.375z M397.926,180.745L397.926,180.745
			c-4.02-1.02-6.449-5.1-5.43-9.12l0,0c1.021-4.01,5.101-6.44,9.12-5.43l0,0c4.01,1.02,6.44,5.1,5.42,9.12l0,0
			c-0.86,3.39-3.91,5.66-7.26,5.66l0,0C399.167,180.975,398.546,180.895,397.926,180.745z M329.857,172.865
			c-0.69-4.09,2.05-7.96,6.14-8.66l0,0l0,0l0,0c4.08-0.69,7.95,2.06,8.65,6.14l0,0c0.689,4.09-2.061,7.96-6.141,8.65l0,0
			c-0.43,0.08-0.85,0.11-1.26,0.11l0,0C333.657,179.105,330.477,176.515,329.857,172.865z M378.376,177.355L378.376,177.355
			c-4.12-0.4-7.14-4.06-6.739-8.18l0,0c0.39-4.13,4.06-7.15,8.18-6.75l0,0c4.13,0.4,7.14,4.06,6.75,8.19l0,0
			c-0.38,3.88-3.641,6.78-7.46,6.78l0,0C378.867,177.395,378.626,177.385,378.376,177.355z M350.626,169.685
			c-0.18-4.14,3.03-7.64,7.17-7.82l0,0l0,0l0,0c4.141-0.17,7.641,3.03,7.82,7.17l0,0c0.18,4.14-3.03,7.64-7.17,7.82l0,0
			c-0.11,0-0.22,0.01-0.33,0.01l0,0C354.126,176.865,350.807,173.715,350.626,169.685z"/>
		<path style="fill:#46B9CC;" d="M420.237,293.135L420.237,293.135c-2.23-3.49-1.2-8.13,2.3-10.35l0,0
			c3.49-2.23,8.12-1.2,10.351,2.3l0,0c2.229,3.49,1.199,8.12-2.301,10.35l0,0c-1.25,0.8-2.64,1.18-4.02,1.17l0,0
			C424.086,296.605,421.667,295.385,420.237,293.135z M408.347,277.295c-2.73-3.11-2.431-7.85,0.68-10.59l0,0
			c3.11-2.73,7.85-2.43,10.59,0.68l0,0c2.73,3.11,2.43,7.85-0.68,10.59l0,0c-1.431,1.25-3.19,1.86-4.95,1.86l0,0
			C411.907,279.835,409.836,278.975,408.347,277.295z M394.157,263.515L394.157,263.515c-3.19-2.65-3.64-7.37-0.99-10.56l0,0
			c2.641-3.19,7.36-3.64,10.55-0.99l0,0c3.19,2.64,3.641,7.37,1,10.56l0,0c-1.489,1.79-3.63,2.71-5.779,2.71l0,0
			C397.247,265.236,395.557,264.675,394.157,263.515z M377.957,252.075h-0.01c-3.55-2.13-4.7-6.74-2.57-10.29l0,0
			c2.12-3.56,6.73-4.71,10.29-2.58l0,0c0,0,0,0-0.01,0l0,0c3.56,2.13,4.71,6.73,2.58,10.29l0,0c-1.4,2.34-3.89,3.64-6.44,3.64l0,0
			C380.487,253.135,379.157,252.795,377.957,252.075z M360.167,243.065c-3.819-1.62-5.6-6.02-3.99-9.83l0,0
			c1.62-3.82,6.021-5.6,9.83-3.99l0,0c3.82,1.62,5.601,6.02,3.99,9.83l0,0c-1.21,2.86-3.99,4.58-6.91,4.58l0,0
			C362.107,243.655,361.117,243.465,360.167,243.065z M341.237,236.435h-0.01c-3.98-1.12-6.301-5.27-5.181-9.25l0,0
			c1.13-3.99,5.28-6.31,9.261-5.18l0,0l0,0l0,0c3.989,1.12,6.31,5.27,5.18,9.25l0,0c-0.93,3.31-3.94,5.47-7.22,5.47l0,0
			C342.597,236.725,341.917,236.635,341.237,236.435z M321.546,232.075L321.546,232.075c-4.09-0.67-6.85-4.53-6.18-8.62l0,0
			c0.67-4.08,4.53-6.85,8.61-6.18l0,0c4.09,0.67,6.859,4.53,6.189,8.61l0,0c-0.609,3.68-3.79,6.29-7.39,6.29l0,0
			C322.367,232.175,321.966,232.145,321.546,232.075z M273.407,223.165c-0.4-4.12,2.62-7.79,6.74-8.19l0,0l0,0l0,0
			c4.12-0.4,7.79,2.61,8.189,6.74l0,0c0.4,4.12-2.609,7.79-6.729,8.19l0,0c-0.25,0.02-0.5,0.04-0.74,0.04l0,0
			C277.057,229.945,273.787,227.045,273.407,223.165z M301.457,229.855c-4.14-0.23-7.3-3.78-7.06-7.91l0,0
			c0.229-4.14,3.77-7.3,7.91-7.06l0,0c4.14,0.23,7.3,3.78,7.06,7.91l0,0c-0.229,3.99-3.54,7.08-7.479,7.08l0,0
			C301.737,229.875,301.597,229.865,301.457,229.855z"/>
		<path style="fill:#46B9CC;" d="M236.466,168.256c-4.13-0.29-7.239-3.87-6.96-8l0,0l0,0l0,0c0.28-4.14,3.86-7.25,8-6.97l0,0
			c4.131,0.28,7.25,3.87,6.96,8l0,0c-0.27,3.96-3.56,6.98-7.47,6.98l0,0C236.827,168.265,236.647,168.265,236.466,168.256z
			 M238.457,147.276c-4.08-0.69-6.83-4.56-6.14-8.65l0,0l0,0l0,0c0.689-4.08,4.56-6.83,8.649-6.14l0,0
			c4.08,0.69,6.83,4.56,6.141,8.65l0,0c-0.62,3.66-3.8,6.25-7.391,6.25l0,0C239.307,147.385,238.876,147.345,238.457,147.276z
			 M242.167,126.575c-4.029-0.96-6.52-5-5.569-9.03l0,0c0.96-4.03,5-6.52,9.029-5.57l0,0c4.03,0.96,6.521,5,5.57,9.03l0,0
			c-0.82,3.45-3.9,5.77-7.29,5.77l0,0C243.327,126.776,242.747,126.705,242.167,126.575z M247.207,106.155
			c-3.95-1.22-6.16-5.43-4.93-9.38l0,0c1.229-3.96,5.43-6.17,9.38-4.94l0,0c3.96,1.23,6.17,5.43,4.94,9.39l0,0
			c-1,3.21-3.96,5.27-7.16,5.27l0,0C248.697,106.495,247.947,106.385,247.207,106.155z M253.647,86.145
			c-3.851-1.53-5.73-5.89-4.2-9.74l0,0c0,0,0,0,0,0.01l0,0c1.52-3.86,5.88-5.74,9.729-4.21l0,0c3.851,1.53,5.74,5.89,4.211,9.74l0,0
			c-1.171,2.94-3.99,4.73-6.971,4.73l0,0C255.497,86.675,254.557,86.506,253.647,86.145z M261.626,66.705
			c-3.7-1.87-5.189-6.38-3.319-10.08l0,0c1.859-3.7,6.369-5.18,10.069-3.32l0,0c3.7,1.87,5.19,6.38,3.32,10.08h0.01
			c-1.33,2.61-3.97,4.12-6.71,4.12l0,0C263.867,67.506,262.707,67.245,261.626,66.705z M271.336,48.075
			c-3.479-2.24-4.479-6.88-2.229-10.36l0,0c2.24-3.48,6.88-4.48,10.359-2.24l0,0c3.48,2.25,4.48,6.89,2.24,10.37l0,0
			c-1.439,2.22-3.85,3.44-6.31,3.44l0,0C274.006,49.285,272.597,48.895,271.336,48.075z M283.006,30.625
			c-3.159-2.67-3.56-7.4-0.89-10.57l0,0c0,0,0,0-0.01,0l0,0c2.67-3.17,7.41-3.57,10.569-0.9l0,0c3.171,2.67,3.57,7.4,0.9,10.57l0,0
			c-1.479,1.76-3.6,2.67-5.74,2.67l0,0C286.137,32.395,284.417,31.815,283.006,30.625z"/>
	</g>
	<g>
		<path style="fill:#F4E84A;" d="M41.357,222.725c-2.41-3.37-1.63-8.06,1.74-10.46v-0.01c3.369-2.4,8.05-1.62,10.46,1.75l0,0
			c2.409,3.37,1.63,8.05-1.74,10.46l0,0l0,0l0,0c-1.32,0.94-2.851,1.4-4.36,1.4l0,0C45.117,225.865,42.817,224.776,41.357,222.725z
			 M58.867,211.115c-1.59-3.83,0.22-8.22,4.05-9.81l0,0c3.82-1.59,8.21,0.22,9.8,4.04l0,0c1.591,3.83-0.21,8.22-4.04,9.81l0,0
			c-0.939,0.39-1.92,0.58-2.88,0.58l0,0C62.867,215.736,60.067,213.995,58.867,211.115z M78.506,203.635
			c-0.83-4.06,1.78-8.03,5.83-8.86l0,0c4.061-0.84,8.03,1.77,8.87,5.83l0,0c0.83,4.05-1.78,8.02-5.83,8.86l0,0
			c-0.52,0.1-1.02,0.15-1.529,0.15l0,0C82.367,209.615,79.247,207.175,78.506,203.635z M126.487,207.795
			c-4.1-0.65-6.89-4.49-6.24-8.58l0,0c0.65-4.09,4.49-6.88,8.58-6.24v0.01c4.09,0.64,6.88,4.48,6.23,8.57l0,0
			c-0.58,3.7-3.771,6.33-7.391,6.33l0,0C127.277,207.885,126.876,207.855,126.487,207.795z M99.197,199.895
			c-0.18-4.14,3.03-7.63,7.17-7.81l0,0c4.14-0.18,7.64,3.04,7.81,7.17l0,0c0.181,4.14-3.029,7.64-7.17,7.82l0,0
			c-0.109,0-0.22,0-0.33,0l0,0C102.687,207.075,99.367,203.925,99.197,199.895z"/>
		<path style="fill:#F4E84A;" d="M138.367,161.855c-3.31-2.49-3.97-7.19-1.479-10.5l0,0c2.5-3.31,7.199-3.97,10.51-1.47l0,0
			c3.31,2.49,3.96,7.19,1.47,10.5l0,0c-1.479,1.96-3.72,2.99-5.99,2.99l0,0C141.296,163.375,139.716,162.875,138.367,161.855z
			 M121.487,152.055c-3.73-1.79-5.311-6.27-3.521-10.01l0,0c1.78-3.73,6.261-5.31,10-3.52v-0.01c3.74,1.79,5.311,6.27,3.53,10.01
			l0,0c-1.29,2.69-3.979,4.26-6.78,4.26l0,0C123.637,152.785,122.537,152.555,121.487,152.055z M103.027,144.935
			c-3.98-1.17-6.25-5.34-5.08-9.31l0,0c1.16-3.98,5.33-6.25,9.31-5.09l0,0c3.971,1.17,6.25,5.34,5.08,9.31l0,0
			c-0.96,3.27-3.949,5.39-7.189,5.39l0,0C104.447,145.236,103.737,145.135,103.027,144.935z M56.167,135.015
			c-0.54-4.11,2.351-7.88,6.46-8.42l0,0c4.101-0.54,7.87,2.35,8.41,6.46l0,0c0.55,4.1-2.34,7.87-6.45,8.42l0,0
			c-0.33,0.04-0.66,0.06-0.989,0.06l0,0C59.887,141.535,56.667,138.795,56.167,135.015z M83.847,141.175L83.847,141.175
			L83.847,141.175c-4.12-0.39-7.15-4.05-6.761-8.18l0,0c0.4-4.12,4.061-7.15,8.181-6.75l0,0c4.12,0.39,7.149,4.05,6.76,8.17l0,0
			c-0.37,3.88-3.64,6.79-7.46,6.79l0,0C84.327,141.205,84.086,141.195,83.847,141.175z"/>
		<path style="fill:#F4E84A;" d="M172.027,125.875L172.027,125.875L172.027,125.875c-1.67-3.79,0.04-8.22,3.83-9.89l0,0
			c3.79-1.67,8.22,0.04,9.89,3.83l0,0c1.68,3.79-0.04,8.22-3.83,9.89l0,0c-0.99,0.44-2.01,0.64-3.02,0.64l0,0
			C176.006,130.345,173.267,128.675,172.027,125.875z M162.057,109.075c-2.391-3.38-1.591-8.06,1.79-10.45l0,0
			c3.39-2.39,8.06-1.59,10.46,1.79l0,0c2.39,3.38,1.59,8.06-1.79,10.46l0,0c-1.32,0.93-2.83,1.37-4.33,1.37l0,0
			C165.836,112.245,163.517,111.145,162.057,109.075z M149.397,93.875c-2.9-2.96-2.86-7.71,0.09-10.61l0,0
			c2.96-2.9,7.71-2.86,10.61,0.09l0,0c2.899,2.96,2.859,7.71-0.091,10.61l0,0c-1.46,1.43-3.359,2.15-5.26,2.15l0,0
			C152.807,96.115,150.867,95.365,149.397,93.875z M134.477,81.245c-3.42-2.35-4.28-7.02-1.931-10.43l0,0
			c2.351-3.41,7.03-4.27,10.44-1.92l0,0c3.4,2.35,4.27,7.02,1.91,10.43l0,0c-1.45,2.12-3.79,3.25-6.181,3.25l0,0
			C137.256,82.575,135.767,82.145,134.477,81.245z M117.506,72.135L117.506,72.135L117.506,72.135c-3.85-1.53-5.739-5.89-4.21-9.74
			l0,0c1.521-3.85,5.88-5.73,9.73-4.21l0,0c3.85,1.53,5.74,5.88,4.21,9.74l0,0c-1.16,2.94-3.98,4.73-6.97,4.73l0,0
			C119.347,72.655,118.417,72.486,117.506,72.135z"/>
		<path style="fill:#F4E84A;" d="M393.897,224.465c-3.38-2.41-4.16-7.09-1.75-10.46l0,0c2.41-3.37,7.09-4.15,10.46-1.74l0,0
			c3.37,2.4,4.149,7.09,1.75,10.46l0,0c-1.47,2.05-3.771,3.14-6.11,3.14l0,0C396.737,225.865,395.216,225.405,393.897,224.465z
			 M377.027,215.155c-3.82-1.59-5.63-5.98-4.04-9.8l0,0c1.59-3.83,5.979-5.64,9.8-4.05l0,0c3.83,1.59,5.64,5.98,4.05,9.81l0,0
			c-1.199,2.88-3.989,4.62-6.93,4.62l0,0C378.947,215.736,377.966,215.545,377.027,215.155z M358.336,209.465
			c-4.06-0.84-6.67-4.81-5.83-8.86l0,0c0.83-4.06,4.801-6.67,8.86-5.83l0,0c4.05,0.84,6.67,4.8,5.83,8.86l0,0
			c-0.73,3.54-3.86,5.98-7.34,5.98l0,0C359.357,209.615,358.847,209.565,358.336,209.465z M310.647,201.555
			c-0.65-4.09,2.14-7.93,6.229-8.57l0,0c4.09-0.65,7.94,2.14,8.58,6.23l0,0c0.65,4.09-2.14,7.93-6.229,8.58l0,0
			c-0.4,0.06-0.79,0.1-1.181,0.1l0,0C314.417,207.885,311.227,205.256,310.647,201.555z M338.697,207.075
			c-4.14-0.18-7.35-3.68-7.17-7.82l0,0c0.17-4.13,3.67-7.35,7.81-7.17l0,0c4.141,0.18,7.351,3.67,7.17,7.81l0,0
			c-0.17,4.03-3.489,7.18-7.489,7.18l0,0C338.917,207.075,338.807,207.075,338.697,207.075z"/>
		<path style="fill:#F4E84A;" d="M296.836,160.385c-2.489-3.31-1.83-8.01,1.48-10.5l0,0c3.3-2.5,8.01-1.84,10.5,1.47l0,0
			c2.49,3.31,1.83,8.01-1.47,10.5l0,0c-1.351,1.02-2.94,1.52-4.511,1.52l0,0C300.557,163.375,298.317,162.345,296.836,160.385z
			 M314.216,148.526c-1.79-3.74-0.21-8.22,3.521-10l0,0l0,0l0,0c3.74-1.79,8.22-0.22,10.01,3.52l0,0c1.78,3.74,0.21,8.22-3.53,10
			v0.01c-1.04,0.5-2.149,0.73-3.229,0.73l0,0C318.187,152.785,315.506,151.215,314.216,148.526z M333.367,139.855
			c-1.17-3.98,1.11-8.15,5.09-9.32l0,0l0,0l0,0c3.97-1.16,8.141,1.11,9.311,5.09l0,0c1.159,3.97-1.11,8.14-5.091,9.31l0,0
			c-0.699,0.2-1.409,0.3-2.109,0.3l0,0C337.327,145.236,334.327,143.115,333.367,139.855z M381.117,141.475v-0.01
			c-4.1-0.54-6.99-4.31-6.45-8.41l0,0c0.54-4.11,4.311-7,8.42-6.46l0,0l0,0l0,0c4.101,0.55,6.99,4.31,6.45,8.42l0,0
			c-0.5,3.77-3.72,6.52-7.43,6.52l0,0C381.787,141.535,381.457,141.515,381.117,141.475z M353.676,134.415
			c-0.39-4.12,2.641-7.78,6.761-8.17l0,0c4.13-0.4,7.79,2.63,8.18,6.75l0,0c0.39,4.12-2.63,7.78-6.76,8.18l0,0
			c-0.24,0.02-0.48,0.03-0.72,0.03l0,0C357.317,141.205,354.046,138.295,353.676,134.415z"/>
		<path style="fill:#F4E84A;" d="M263.787,129.705c-3.79-1.67-5.5-6.1-3.83-9.89l0,0c1.681-3.79,6.101-5.5,9.891-3.83l0,0
			c3.79,1.67,5.51,6.1,3.84,9.89l0,0c-1.24,2.8-3.99,4.47-6.87,4.47l0,0C265.807,130.345,264.777,130.145,263.787,129.705z
			 M273.197,110.875c-3.38-2.4-4.19-7.08-1.79-10.46l0,0c2.39-3.38,7.07-4.18,10.45-1.79l0,0c3.38,2.39,4.18,7.07,1.79,10.45l0,0
			c-1.46,2.07-3.78,3.18-6.13,3.18l0,0C276.017,112.256,274.506,111.805,273.197,110.875z M285.707,93.965
			c-2.96-2.9-3-7.65-0.1-10.61l0,0c2.91-2.95,7.66-2.99,10.609-0.09l0,0c2.95,2.9,3,7.65,0.091,10.61l0,0
			c-1.471,1.49-3.41,2.24-5.351,2.24l0,0C289.067,96.115,287.167,95.395,285.707,93.965z M300.807,79.325
			c-2.351-3.41-1.49-8.08,1.92-10.43l0,0c0,0,0,0-0.011,0l0,0c3.421-2.35,8.091-1.49,10.44,1.92l0,0c2.35,3.41,1.49,8.08-1.92,10.43
			l0,0c-1.3,0.9-2.78,1.33-4.25,1.33l0,0C304.597,82.575,302.256,81.435,300.807,79.325z M318.466,67.925
			c-1.529-3.86,0.36-8.22,4.21-9.74l0,0l0,0l0,0c3.851-1.52,8.211,0.36,9.73,4.21l0,0c1.53,3.85-0.36,8.21-4.21,9.74l0,0
			c-0.91,0.36-1.84,0.53-2.76,0.53l0,0C322.457,72.665,319.626,70.865,318.466,67.925z"/>
	</g>
	<path style="fill:#F4E84A;" d="M221.336,240.048c-4.143,0-7.5-3.358-7.5-7.5v-42.092c0-4.142,3.357-7.5,7.5-7.5s7.5,3.358,7.5,7.5
		v42.092C228.836,236.69,225.479,240.048,221.336,240.048z"/>
	<path style="fill:#F4E84A;" d="M242.382,219.002h-42.092c-4.143,0-7.5-3.358-7.5-7.5s3.357-7.5,7.5-7.5h42.092
		c4.143,0,7.5,3.358,7.5,7.5S246.525,219.002,242.382,219.002z"/>
	<path style="fill:#46B9CC;" d="M213.836,420.815c0-4.15,3.36-7.5,7.5-7.5l0,0c4.141,0,7.5,3.35,7.5,7.5l0,0
		c0,4.14-3.359,7.5-7.5,7.5l0,0C217.197,428.315,213.836,424.955,213.836,420.815z M213.836,399.815c0-4.14,3.36-7.5,7.5-7.5l0,0
		c4.141,0,7.5,3.36,7.5,7.5l0,0c0,4.14-3.359,7.5-7.5,7.5l0,0C217.197,407.315,213.836,403.955,213.836,399.815z M213.836,378.815
		c0-4.15,3.36-7.5,7.5-7.5l0,0c4.141,0,7.5,3.35,7.5,7.5l0,0c0,4.14-3.359,7.5-7.5,7.5l0,0
		C217.197,386.315,213.836,382.955,213.836,378.815z M213.836,357.815c0-4.14,3.36-7.5,7.5-7.5l0,0c4.141,0,7.5,3.36,7.5,7.5l0,0
		c0,4.14-3.359,7.5-7.5,7.5l0,0C217.197,365.315,213.836,361.955,213.836,357.815z M213.836,336.815c0-4.14,3.36-7.5,7.5-7.5l0,0
		c4.141,0,7.5,3.36,7.5,7.5l0,0c0,4.14-3.359,7.5-7.5,7.5l0,0C217.197,344.315,213.836,340.955,213.836,336.815z M213.836,315.815
		c0-4.15,3.36-7.5,7.5-7.5l0,0c4.141,0,7.5,3.35,7.5,7.5l0,0c0,4.14-3.359,7.5-7.5,7.5l0,0
		C217.197,323.315,213.836,319.955,213.836,315.815z M213.836,294.815c0-4.14,3.36-7.5,7.5-7.5l0,0c4.141,0,7.5,3.36,7.5,7.5l0,0
		c0,4.14-3.359,7.5-7.5,7.5l0,0C217.197,302.315,213.836,298.955,213.836,294.815z M213.836,273.815c0-4.15,3.36-7.5,7.5-7.5l0,0
		c4.141,0,7.5,3.35,7.5,7.5l0,0c0,4.14-3.359,7.5-7.5,7.5l0,0C217.197,281.315,213.836,277.955,213.836,273.815z M213.836,252.815
		c0-4.14,3.36-7.5,7.5-7.5l0,0c4.141,0,7.5,3.36,7.5,7.5l0,0c0,4.14-3.359,7.5-7.5,7.5l0,0
		C217.197,260.315,213.836,256.955,213.836,252.815z"/>
</g>
<g>
</g>
<g>
</g>
<g>
</g>
<g>
</g>
<g>
</g>
<g>
</g>
<g>
</g>
<g>
</g>
<g>
</g>
<g>
</g>
<g>
</g>
<g>
</g>
<g>
</g>
<g>
</g>
<g>
</g>
</svg>
