<?xml version="1.0" encoding="iso-8859-1"?>
<!-- Generator: Adobe Illustrator 19.1.0, SVG Export Plug-In . SVG Version: 6.00 Build 0)  -->
<svg version="1.1" id="Capa_1" xmlns="http://www.w3.org/2000/svg" xmlns:xlink="http://www.w3.org/1999/xlink" x="0px" y="0px"
	 viewBox="0 0 480.35 480.35" style="enable-background:new 0 0 480.35 480.35;" xml:space="preserve">
<g>
	<g>
		<polygon style="fill:#F4E84A;" points="71.564,296.798 43.13,261.921 0,274.754 30.67,175.187 102.234,197.231 		"/>
		
			<rect x="22.248" y="185.191" transform="matrix(-0.9557 -0.2944 0.2944 -0.9557 55.4551 424.6712)" style="fill:#45CE83;" width="74.882" height="45.942"/>
	</g>
	<g>
		<polygon style="fill:#F4E84A;" points="335.542,207.575 345.059,311.324 316.584,295.899 305.494,289.887 295.693,297.805 
			270.49,318.164 260.973,214.416 		"/>
		<polygon style="fill:#45CE83;" points="308.708,210.037 316.584,295.899 305.494,289.887 295.693,297.805 287.817,211.953 		"/>
		
			<rect x="291.612" y="215.518" transform="matrix(-0.0913 -0.9958 0.9958 -0.0913 77.801 576.9098)" style="fill:#45CE83;" width="20.989" height="74.882"/>
	</g>
	<g>
		
			<rect x="124.705" y="225.25" transform="matrix(0.0956 -0.9954 0.9954 0.0956 -101.5858 413.579)" style="fill:#45CE83;" width="104.184" height="74.882"/>
		<g>
			
				<rect x="170.772" y="205.087" transform="matrix(0.0956 -0.9954 0.9954 0.0956 -79.764 397.2688)" style="fill:#F4E84A;" width="15.921" height="74.882"/>
			
				<rect x="166.901" y="245.414" transform="matrix(0.0956 -0.9954 0.9954 0.0956 -123.4075 429.8891)" style="fill:#F4E84A;" width="15.921" height="74.882"/>
		</g>
	</g>
	<g>
		
			<rect x="376.975" y="200.716" transform="matrix(-0.2985 -0.9544 0.9544 -0.2985 329.8403 718.7511)" style="fill:#45CE83;" width="104.184" height="74.882"/>
		<polygon style="fill:#F4E84A;" points="434.939,256.932 396.545,248.328 423.195,219.381 461.589,227.985 		"/>
		<circle style="fill:#46B9CC;" cx="429.067" cy="238.157" r="9.405"/>
	</g>
	<path style="fill:#F48438;" d="M240.008,218.041c-82.588,0-162.896-16.631-238.69-49.431l2.779-6.424
		c74.913,32.417,154.285,48.854,235.911,48.854c81.627,0,160.999-16.437,235.912-48.854l2.779,6.424
		C402.905,201.41,322.597,218.041,240.008,218.041z"/>
</g>
<g>
</g>
<g>
</g>
<g>
</g>
<g>
</g>
<g>
</g>
<g>
</g>
<g>
</g>
<g>
</g>
<g>
</g>
<g>
</g>
<g>
</g>
<g>
</g>
<g>
</g>
<g>
</g>
<g>
</g>
</svg>
