<?xml version="1.0" encoding="iso-8859-1"?>
<!-- Generator: Adobe Illustrator 19.1.0, SVG Export Plug-In . SVG Version: 6.00 Build 0)  -->
<svg version="1.1" id="Capa_1" xmlns="http://www.w3.org/2000/svg" xmlns:xlink="http://www.w3.org/1999/xlink" x="0px" y="0px"
	 viewBox="0 0 444.665 444.665" style="enable-background:new 0 0 444.665 444.665;" xml:space="preserve">
<g>
	<path style="fill:#F4E84A;" d="M439.667,337.681c-10.812-28.847-106.316-19.746-216.996-20.631
		c-110.68,0.887-206.184-8.214-216.996,20.631c-4.706,14.036,14.886,36.176,54.061,55.126
		c38.857,18.886,97.296,34.583,162.935,34.242c65.639,0.34,124.078-15.357,162.935-34.243
		C424.781,373.857,444.374,351.718,439.667,337.681z"/>
	<path style="fill:#F48438;" d="M223.725,427.082c-0.03-2.76,2.19-5.02,4.95-5.05l0,0l0,0l0,0c2.76-0.02,5.02,2.19,5.05,4.95l0,0
		c0.03,2.77-2.19,5.03-4.95,5.05l0,0c-0.02,0-0.04,0-0.05,0l0,0C225.985,432.032,223.755,429.832,223.725,427.082z M205.725,426.812
		c0.07-2.76,2.36-4.94,5.12-4.88l0,0c2.76,0.07,4.94,2.36,4.88,5.12l0,0c-0.07,2.76-2.36,4.95-5.12,4.88l0,0
		C207.845,431.862,205.655,429.572,205.725,426.812z M241.725,426.732c-0.15-2.76,1.96-5.12,4.72-5.26l0,0
		c2.76-0.15,5.11,1.96,5.26,4.72l0,0c0.15,2.76-1.96,5.11-4.72,5.26l0,0c-0.09,0.01-0.18,0.01-0.27,0.01l0,0
		C244.075,431.462,241.865,429.392,241.725,426.732z M192.405,431.092c-2.76-0.19-4.84-2.58-4.65-5.33l0,0
		c0.19-2.76,2.58-4.84,5.33-4.65l0,0c2.76,0.19,4.84,2.58,4.65,5.33l0,0c-0.18,2.64-2.38,4.66-4.98,4.66l0,0
		C192.635,431.102,192.515,431.092,192.405,431.092z M259.684,425.582c-0.27-2.74,1.74-5.19,4.49-5.46l0,0
		c2.75-0.27,5.19,1.74,5.46,4.49l0,0c0.27,2.74-1.74,5.19-4.48,5.46l0,0c-0.17,0.02-0.33,0.02-0.5,0.02l0,0
		C262.115,430.092,259.934,428.162,259.684,425.582z M174.255,429.442c-2.74-0.3-4.71-2.78-4.41-5.52l0,0
		c0.31-2.75,2.79-4.72,5.53-4.41l0,0c2.75,0.31,4.72,2.78,4.41,5.53l0,0c-0.29,2.55-2.45,4.44-4.96,4.44l0,0
		C174.635,429.482,174.445,429.472,174.255,429.442z M277.584,423.652c-0.39-2.73,1.51-5.27,4.24-5.66l0,0
		c2.74-0.38,5.27,1.51,5.66,4.25l0,0c0.39,2.73-1.51,5.26-4.24,5.65v0.01c-0.24,0.03-0.48,0.05-0.72,0.05l0,0
		C280.084,427.952,277.934,426.152,277.584,423.652z M156.204,427.012c-2.73-0.43-4.59-2.99-4.16-5.72l0,0
		c0.43-2.73,2.98-4.59,5.71-4.16l0,0c2.73,0.43,4.59,2.99,4.16,5.72l0,0c-0.39,2.46-2.51,4.22-4.93,4.22l0,0
		C156.725,427.072,156.465,427.052,156.204,427.012z M295.374,420.932c-0.51-2.71,1.28-5.33,3.99-5.84l0,0
		c2.72-0.51,5.33,1.28,5.84,3.99l0,0c0.51,2.71-1.27,5.33-3.99,5.84l0,0c-0.31,0.06-0.62,0.09-0.93,0.09l0,0
		C297.925,425.012,295.834,423.332,295.374,420.932z M138.265,423.772c-2.7-0.55-4.45-3.19-3.9-5.89l0,0
		c0.55-2.71,3.19-4.46,5.9-3.91l0,0c2.7,0.56,4.45,3.2,3.9,5.9l0,0c-0.48,2.37-2.57,4.01-4.9,4.01l0,0
		C138.934,423.882,138.604,423.842,138.265,423.772z M313.035,417.422c-0.63-2.68,1.03-5.38,3.72-6.01l0,0
		c2.69-0.63,5.38,1.03,6.01,3.72l0,0c0.64,2.69-1.03,5.38-3.71,6.01l0,0c-0.39,0.09-0.78,0.14-1.15,0.14l0,0
		C315.635,421.282,313.575,419.732,313.035,417.422z M120.495,419.732c-2.68-0.68-4.31-3.39-3.63-6.07l0,0
		c0.67-2.68,3.39-4.3,6.07-3.63l0,0c2.68,0.68,4.3,3.39,3.63,6.07l0,0c-0.58,2.27-2.61,3.78-4.85,3.78l0,0
		C121.314,419.882,120.905,419.832,120.495,419.732z M330.515,413.112c-0.76-2.66,0.77-5.42,3.43-6.18l0,0
		c2.65-0.76,5.42,0.77,6.18,3.43l0,0c0.76,2.65-0.77,5.42-3.43,6.18l0,0c-0.46,0.13-0.92,0.19-1.38,0.19l0,0
		C333.144,416.732,331.144,415.302,330.515,413.112z M102.914,414.852L102.914,414.852c-2.64-0.81-4.13-3.6-3.33-6.24l0,0
		c0.81-2.65,3.6-4.13,6.24-3.33l0,0l0,0l0,0c2.64,0.8,4.13,3.6,3.33,6.24l0,0c-0.66,2.16-2.64,3.54-4.78,3.54l0,0
		C103.885,415.062,103.394,414.992,102.914,414.852z M347.765,407.962c-0.9-2.61,0.49-5.46,3.11-6.35l0,0l0,0l0,0
		c2.61-0.9,5.45,0.5,6.35,3.11l0,0c0.89,2.61-0.5,5.45-3.11,6.35l0,0c-0.54,0.18-1.08,0.27-1.62,0.27l0,0
		C350.414,411.342,348.475,410.032,347.765,407.962z M85.584,409.082L85.584,409.082c-2.6-0.94-3.94-3.81-3-6.4l0,0
		c0.95-2.6,3.81-3.94,6.41-3l0,0c2.59,0.94,3.94,3.81,2.99,6.4l0,0c-0.73,2.04-2.65,3.3-4.7,3.3l0,0
		C86.725,409.382,86.144,409.282,85.584,409.082z M364.725,401.922c-1.04-2.56,0.19-5.48,2.74-6.52l0,0
		c2.56-1.04,5.48,0.19,6.52,2.75l0,0c1.04,2.56-0.19,5.47-2.75,6.51l0,0c-0.61,0.26-1.25,0.38-1.88,0.38l0,0
		C367.385,405.032,365.515,403.862,364.725,401.922z M68.575,402.352c-2.54-1.1-3.71-4.04-2.61-6.57l0,0
		c1.09-2.54,4.03-3.71,6.57-2.61l0,0c2.53,1.09,3.7,4.03,2.61,6.57l0,0c-0.82,1.89-2.66,3.02-4.6,3.02l0,0
		C69.885,402.762,69.215,402.632,68.575,402.352z M381.294,394.892c-1.2-2.48-0.17-5.47,2.32-6.68l0,0c2.48-1.2,5.48-0.16,6.68,2.32
		l0,0c1.2,2.49,0.17,5.48-2.32,6.68l0,0c-0.7,0.34-1.44,0.5-2.18,0.5l0,0C383.945,397.712,382.164,396.682,381.294,394.892z
		 M51.985,394.522c-2.46-1.26-3.42-4.28-2.15-6.73l0,0c1.26-2.46,4.28-3.42,6.73-2.16l0,0c2.46,1.27,3.42,4.28,2.15,6.74l0,0
		c-0.88,1.72-2.63,2.71-4.44,2.71l0,0C53.495,395.082,52.715,394.902,51.985,394.522z M397.365,386.782
		c-1.41-2.38-0.62-5.45,1.76-6.85l0,0l0,0l0,0c2.38-1.41,5.45-0.61,6.85,1.76l0,0c1.4,2.38,0.61,5.45-1.76,6.85l0,0
		c-0.8,0.47-1.68,0.69-2.54,0.69l0,0C399.965,389.232,398.294,388.362,397.365,386.782z M35.965,385.382L35.965,385.382
		c-2.33-1.48-3.02-4.57-1.54-6.9l0,0c1.48-2.33,4.57-3.02,6.9-1.54l0,0c2.33,1.48,3.02,4.57,1.54,6.9l0,0
		c-0.95,1.5-2.57,2.32-4.22,2.32l0,0C37.725,386.162,36.794,385.912,35.965,385.382z M412.664,377.302c-1.66-2.21-1.21-5.34,0.99-7
		l0,0c2.21-1.67,5.34-1.22,7,0.98l0,0c1.66,2.21,1.22,5.35-0.98,7.01h-0.01c-0.9,0.67-1.95,1-3,1l0,0
		C415.144,379.292,413.655,378.602,412.664,377.302z M20.854,374.482L20.854,374.482c-2.12-1.77-2.41-4.92-0.64-7.04l0,0
		c1.76-2.12,4.92-2.41,7.04-0.65l0,0l0,0l0,0c2.12,1.77,2.41,4.92,0.65,7.04l0,0c-0.99,1.19-2.42,1.81-3.85,1.81l0,0
		C22.925,375.642,21.794,375.262,20.854,374.482z M426.704,366.022c-2.03-1.86-2.17-5.03-0.31-7.06l0,0
		c1.87-2.04,5.03-2.18,7.07-0.31l0,0c2.03,1.86,2.17,5.02,0.31,7.06l0,0c-0.99,1.08-2.34,1.63-3.69,1.63l0,0
		C428.874,367.342,427.664,366.902,426.704,366.022z M7.485,360.822L7.485,360.822c-1.66-2.21-1.21-5.34,0.99-7l0,0
		c2.21-1.66,5.34-1.22,7,0.99l0,0c1.66,2.21,1.22,5.34-0.99,7l0,0c-0.9,0.68-1.95,1-3,1l0,0
		C9.965,362.812,8.465,362.122,7.485,360.822z M438.124,352.002c-2.65-0.79-4.16-3.58-3.37-6.22l0,0l0,0l0,0
		c0.5-1.67,1.78-2.88,3.33-3.36l0,0c-1.38-0.46-2.55-1.52-3.1-2.99l0,0c-0.97-2.58,0.34-5.46,2.93-6.43l0,0
		c2.58-0.97,5.46,0.34,6.43,2.92l0,0c0.97,2.59-0.34,5.47-2.92,6.44l0,0c-0.1,0.04-0.2,0.07-0.3,0.1l0,0
		c2.55,0.85,3.99,3.58,3.21,6.17l0,0c-0.64,2.17-2.63,3.58-4.79,3.58l0,0C439.075,352.212,438.595,352.142,438.124,352.002z
		 M4.794,346.402c-2.76-0.12-4.91-2.45-4.79-5.21l0,0c0.11-2.76,2.44-4.9,5.2-4.79l0,0c2.76,0.12,4.9,2.45,4.79,5.21l0,0
		c-0.11,2.69-2.33,4.79-4.99,4.79l0,0C4.934,346.402,4.865,346.402,4.794,346.402z M10.834,330.042c-1.37-2.4-0.53-5.45,1.87-6.82
		l0,0c2.4-1.37,5.45-0.53,6.82,1.87l0,0c1.36,2.4,0.53,5.45-1.87,6.82l0,0c-0.78,0.44-1.63,0.65-2.47,0.65l0,0
		C13.445,332.562,11.755,331.662,10.834,330.042z M424.735,330.422L424.735,330.422L424.735,330.422c-2.52-1.14-3.64-4.1-2.51-6.62
		l0,0c1.14-2.52,4.1-3.64,6.62-2.5l0,0c2.51,1.13,3.64,4.09,2.5,6.61l0,0c-0.83,1.85-2.65,2.95-4.56,2.95l0,0
		C426.095,330.862,425.405,330.722,424.735,330.422z M27.195,322.662c-0.61-2.7,1.08-5.37,3.78-5.98l0,0
		c2.69-0.61,5.37,1.08,5.97,3.78l0,0c0.61,2.69-1.08,5.37-3.77,5.97l0,0c-0.37,0.09-0.74,0.13-1.11,0.13l0,0
		C29.785,326.562,27.715,324.982,27.195,322.662z M408.615,325.692c-2.71-0.52-4.48-3.14-3.96-5.85l0,0
		c0.52-2.71,3.14-4.49,5.85-3.96l0,0c2.71,0.52,4.49,3.14,3.97,5.85l0,0c-0.46,2.39-2.56,4.06-4.91,4.06l0,0
		C409.255,325.792,408.934,325.762,408.615,325.692z M44.865,319.262c-0.3-2.74,1.68-5.21,4.42-5.52l0,0
		c2.75-0.3,5.22,1.68,5.52,4.42l0,0c0.31,2.75-1.67,5.22-4.41,5.52l0,0c0,0,0,0-0.01,0l0,0c-0.18,0.02-0.37,0.03-0.55,0.03l0,0
		C47.314,323.712,45.155,321.822,44.865,319.262z M391.255,323.302L391.255,323.302L391.255,323.302c-2.74-0.26-4.76-2.7-4.5-5.45
		l0,0c0.27-2.75,2.71-4.77,5.46-4.5l0,0c2.75,0.26,4.76,2.7,4.5,5.45l0,0c-0.25,2.59-2.43,4.53-4.97,4.53l0,0
		C391.584,323.332,391.414,323.322,391.255,323.302z M62.794,317.562c-0.15-2.76,1.96-5.12,4.72-5.27l0,0
		c2.75-0.15,5.11,1.96,5.26,4.72l0,0c0.15,2.76-1.96,5.11-4.72,5.26l0,0c-0.09,0.01-0.19,0.01-0.28,0.01l0,0
		C65.144,322.282,62.934,320.222,62.794,317.562z M206.785,317.122c-0.01-2.76,2.22-5.01,4.99-5.02l0,0c2.76,0,5,2.23,5.01,4.99l0,0
		c0.01,2.76-2.23,5.01-4.99,5.01l0,0h-0.01l0,0C209.024,322.102,206.785,319.872,206.785,317.122z M242.785,317.112
		c-0.01-2.76,2.22-5.01,4.98-5.01l0,0c2.76-0.01,5.01,2.22,5.02,4.98l0,0c0.01,2.76-2.22,5.01-4.98,5.02l0,0c-0.01,0-0.01,0-0.02,0
		l0,0C245.035,322.102,242.794,319.872,242.785,317.112z M373.544,322.092c-2.76-0.13-4.89-2.47-4.76-5.23l0,0
		c0.12-2.76,2.46-4.89,5.22-4.76l0,0c2.76,0.12,4.89,2.47,4.77,5.22l0,0c-0.13,2.68-2.34,4.77-5,4.77l0,0
		C373.704,322.092,373.624,322.092,373.544,322.092z M229.765,322.092L229.765,322.092L229.765,322.092
		c-2.76-0.01-4.99-2.26-4.98-5.02l0,0c0.01-2.76,2.26-4.99,5.02-4.98l0,0c2.76,0.01,4.99,2.26,4.98,5.02l0,0
		c-0.01,2.76-2.25,4.98-5,4.98l0,0C229.774,322.092,229.765,322.092,229.765,322.092z M193.755,322.082
		c-2.76-0.01-4.99-2.26-4.97-5.02l0,0c0.01-2.76,2.26-4.99,5.02-4.98l0,0c2.76,0.01,4.99,2.26,4.98,5.03l0,0
		c-0.02,2.75-2.25,4.97-5,4.97l0,0C193.774,322.082,193.765,322.082,193.755,322.082z M260.785,317.032
		c-0.03-2.77,2.19-5.02,4.95-5.05l0,0c2.76-0.02,5.02,2.2,5.04,4.96l0,0c0.03,2.76-2.19,5.02-4.95,5.04l0,0l0,0l0,0
		c-0.02,0-0.03,0-0.05,0l0,0C263.035,321.982,260.805,319.772,260.785,317.032z M170.774,316.902c0.03-2.76,2.29-4.98,5.05-4.95l0,0
		c2.76,0.03,4.98,2.29,4.95,5.05l0,0c-0.03,2.76-2.28,4.98-5.05,4.95l0,0l0,0l0,0C172.965,321.922,170.755,319.662,170.774,316.902z
		 M278.774,316.852c-0.03-2.76,2.18-5.02,4.95-5.05l0,0c2.76-0.03,5.02,2.18,5.05,4.94l0,0c0.04,2.76-2.18,5.02-4.94,5.06l0,0
		c-0.02,0-0.04,0-0.06,0l0,0C281.044,321.802,278.805,319.602,278.774,316.852z M157.715,321.752c-2.76-0.03-4.97-2.29-4.94-5.06
		l0,0c0.04-2.76,2.3-4.97,5.06-4.94l0,0c2.76,0.04,4.98,2.3,4.94,5.06l0,0c-0.03,2.74-2.26,4.94-4.99,4.94l0,0
		C157.755,321.752,157.735,321.752,157.715,321.752z M80.774,316.722c-0.06-2.76,2.12-5.05,4.88-5.11l0,0
		c2.76-0.06,5.05,2.12,5.12,4.88l0,0c0.06,2.76-2.12,5.05-4.89,5.12l0,0c-0.04,0-0.08,0-0.11,0l0,0
		C83.064,321.612,80.834,319.452,80.774,316.722z M296.774,316.642c-0.03-2.76,2.19-5.02,4.95-5.05l0,0
		c2.76-0.03,5.02,2.18,5.05,4.94l0,0c0.03,2.76-2.18,5.03-4.94,5.06l0,0c-0.02,0-0.04,0-0.06,0l0,0
		C299.044,321.592,296.805,319.392,296.774,316.642z M139.725,321.552c-2.76-0.04-4.98-2.3-4.95-5.06l0,0
		c0.03-2.76,2.3-4.97,5.06-4.94l0,0c2.76,0.03,4.97,2.29,4.94,5.05l0,0c-0.03,2.74-2.26,4.95-5,4.95l0,0
		C139.755,321.552,139.745,321.552,139.725,321.552z M355.684,321.532c0,0,0,0,0.01,0l0,0c-2.77-0.05-4.96-2.33-4.91-5.09l0,0
		c0.05-2.76,2.33-4.96,5.09-4.91l0,0c2.76,0.05,4.96,2.33,4.91,5.09l0,0c-0.05,2.73-2.28,4.91-5,4.91l0,0
		C355.755,321.532,355.715,321.532,355.684,321.532z M314.774,316.452c-0.02-2.76,2.2-5.02,4.97-5.04l0,0
		c2.76-0.01,5.01,2.21,5.03,4.97l0,0c0.02,2.76-2.2,5.01-4.96,5.04l0,0l0,0l0,0c-0.01,0-0.02,0-0.03,0l0,0
		C317.035,321.422,314.794,319.202,314.774,316.452z M116.774,316.362c0.02-2.76,2.27-4.99,5.03-4.97l0,0
		c2.76,0.02,4.99,2.27,4.97,5.03l0,0c-0.01,2.76-2.27,4.99-5.03,4.97l0,0l0,0l0,0C118.985,321.372,116.765,319.122,116.774,316.362z
		 M98.774,316.402c-0.01-2.77,2.22-5.02,4.98-5.03l0,0c2.76-0.01,5.01,2.22,5.02,4.98l0,0c0.01,2.76-2.21,5.01-4.98,5.02l0,0
		c0,0-0.01,0-0.02,0l0,0C101.024,321.372,98.785,319.152,98.774,316.402z M332.774,316.352c0.01-2.76,2.25-5,5.01-4.99l0,0
		c2.76,0,5,2.25,4.99,5.01l0,0c0,2.76-2.25,4.99-5.01,4.99l0,0l0,0l0,0C335.005,321.352,332.774,319.112,332.774,316.352z"/>
	<path style="fill:#45CE83;" d="M370.036,48.591H75.308l24.229,305.657h0.379c-0.193,0.707-0.266,1.422-0.209,2.142
		c1.177,14.852,56.222,26.684,122.965,26.684s121.788-11.833,122.965-26.684c0.057-0.72-0.016-1.435-0.209-2.142h0.379
		L370.036,48.591z"/>
	<ellipse style="fill:#F4E84A;" cx="222.672" cy="49.61" rx="147.364" ry="31.979"/>
	<path style="fill:#F48438;" d="M211.584,81.522c0.02-2.77,2.28-4.98,5.04-4.96l0,0c2.76,0.03,4.98,2.28,4.96,5.04l0,0
		c-0.03,2.76-2.29,4.98-5.05,4.96l0,0l0,0l0,0C213.774,86.542,211.555,84.282,211.584,81.522z M229.584,81.572
		c-0.05-2.76,2.15-5.04,4.92-5.09l0,0c2.76-0.04,5.03,2.16,5.08,4.92l0,0c0.05,2.76-2.15,5.04-4.91,5.08l0,0l0,0l0,0
		c-0.03,0-0.06,0-0.09,0l0,0C231.865,86.482,229.635,84.302,229.584,81.572z M198.405,86.162L198.405,86.162L198.405,86.162
		c-2.76-0.1-4.92-2.42-4.82-5.18l0,0c0.1-2.76,2.41-4.91,5.18-4.82h-0.01c2.76,0.1,4.92,2.42,4.82,5.18l0,0
		c-0.09,2.7-2.31,4.82-4.99,4.82l0,0C198.524,86.162,198.465,86.162,198.405,86.162z M247.584,81.152
		c-0.12-2.76,2.02-5.09,4.78-5.22l0,0c2.76-0.12,5.09,2.02,5.21,4.78l0,0c0.13,2.75-2.01,5.09-4.77,5.21l0,0l0,0l0,0
		c-0.07,0-0.15,0.01-0.23,0.01l0,0C249.925,85.932,247.704,83.832,247.584,81.152z M180.274,85.252L180.274,85.252L180.274,85.252
		c-2.75-0.17-4.85-2.55-4.67-5.31l0,0c0.18-2.75,2.56-4.84,5.32-4.67l0,0c2.75,0.18,4.84,2.56,4.66,5.32l0,0
		c-0.17,2.64-2.37,4.68-4.98,4.68l0,0C180.495,85.272,180.385,85.262,180.274,85.252z M265.575,80.232
		c-0.21-2.75,1.86-5.15,4.61-5.36l0,0c2.76-0.2,5.15,1.86,5.36,4.62l0,0c0.21,2.75-1.86,5.15-4.61,5.36l0,0
		c-0.13,0.01-0.26,0.01-0.38,0.01l0,0C267.965,84.862,265.765,82.862,265.575,80.232z M162.164,83.802L162.164,83.802
		L162.164,83.802c-2.75-0.27-4.76-2.71-4.49-5.46l0,0c0.26-2.75,2.71-4.76,5.46-4.49l0,0c2.74,0.26,4.76,2.71,4.49,5.46l0,0
		c-0.25,2.58-2.43,4.51-4.97,4.51l0,0C162.495,83.822,162.325,83.822,162.164,83.802z M283.515,78.772
		c-0.29-2.75,1.69-5.21,4.44-5.51l0,0c2.74-0.3,5.21,1.68,5.51,4.43l0,0c0.29,2.74-1.69,5.21-4.44,5.51l0,0
		c-0.18,0.02-0.36,0.03-0.54,0.03l0,0C285.965,83.232,283.794,81.332,283.515,78.772z M144.095,81.712
		c-2.74-0.37-4.66-2.89-4.29-5.62l0,0c0.37-2.74,2.89-4.66,5.63-4.29l0,0c2.73,0.37,4.65,2.89,4.28,5.63l0,0
		c-0.34,2.51-2.48,4.33-4.95,4.33l0,0C144.544,81.762,144.314,81.742,144.095,81.712z M301.405,76.682
		c-0.41-2.74,1.47-5.28,4.2-5.69l0,0c2.73-0.41,5.28,1.47,5.69,4.2l0,0c0.41,2.73-1.47,5.28-4.2,5.69l0,0l0,0l0,0
		c-0.25,0.04-0.5,0.06-0.75,0.06l0,0C303.914,80.942,301.774,79.162,301.405,76.682z M126.064,78.842c-2.71-0.5-4.51-3.11-4-5.82
		l0,0c0.5-2.72,3.11-4.51,5.82-4.01l0,0c2.72,0.51,4.51,3.12,4.01,5.83l0,0c-0.45,2.41-2.55,4.09-4.91,4.09l0,0
		C126.684,78.932,126.374,78.902,126.064,78.842z M319.184,73.822c-0.56-2.71,1.19-5.35,3.89-5.91l0,0
		c2.71-0.55,5.35,1.19,5.91,3.89l0,0c0.55,2.71-1.19,5.35-3.89,5.91l0,0l0,0l0,0c-0.34,0.07-0.68,0.1-1.01,0.1l0,0
		C321.755,77.812,319.675,76.182,319.184,73.822z M108.135,74.902L108.135,74.902L108.135,74.902c-2.67-0.69-4.28-3.43-3.58-6.1l0,0
		c0.7-2.67,3.43-4.27,6.1-3.57l0,0c2.67,0.69,4.27,3.42,3.58,6.09l0,0c-0.59,2.25-2.62,3.75-4.84,3.75l0,0
		C108.975,75.072,108.555,75.012,108.135,74.902z M336.774,69.922c-0.79-2.64,0.72-5.43,3.37-6.21l0,0
		c2.65-0.78,5.43,0.73,6.22,3.38l0,0c0.78,2.64-0.73,5.43-3.38,6.21l0,0c-0.48,0.14-0.95,0.21-1.42,0.21l0,0
		C339.405,73.512,337.414,72.102,336.774,69.922z M90.374,69.142c-2.56-1.05-3.77-3.97-2.73-6.52l0,0c1.05-2.56,3.97-3.77,6.53-2.73
		l0,0c2.55,1.05,3.77,3.97,2.73,6.53l0,0c-0.8,1.93-2.67,3.1-4.63,3.1l0,0C91.635,69.522,90.995,69.402,90.374,69.142z
		 M353.914,64.382c-1.26-2.46-0.28-5.48,2.18-6.73l0,0c2.46-1.26,5.47-0.28,6.73,2.17l0,0c1.25,2.46,0.28,5.48-2.18,6.73l0,0
		c-0.73,0.37-1.51,0.55-2.27,0.55l0,0C356.555,67.102,354.794,66.112,353.914,64.382z M73.334,57.932L73.334,57.932L73.334,57.932
		c-1.68-2.19-1.26-5.33,0.93-7.01l0,0c2.2-1.68,5.33-1.26,7.01,0.93l0,0c1.68,2.19,1.27,5.33-0.93,7.01l0,0
		c-0.9,0.69-1.97,1.03-3.03,1.03l0,0C75.805,59.892,74.325,59.212,73.334,57.932z M365.035,49.612c0-2.76,2.24-5,5-5l0,0
		c2.76,0,5,2.24,5,5l0,0l0,0l0,0c0,2.76-2.24,5-5,5l0,0C367.274,54.612,365.035,52.372,365.035,49.612z M360.894,44.442
		L360.894,44.442c-2.24-1.61-2.74-4.74-1.13-6.98l0,0c1.62-2.24,4.75-2.74,6.99-1.12l0,0c2.23,1.61,2.74,4.74,1.12,6.98l0,0
		c-0.98,1.35-2.5,2.07-4.06,2.07l0,0C362.805,45.392,361.785,45.082,360.894,44.442z M77.874,42.912c-1.57-2.26-1.01-5.38,1.26-6.95
		l0,0c2.27-1.58,5.38-1.02,6.96,1.25l0,0c1.57,2.27,1.01,5.38-1.26,6.96l0,0c-0.87,0.6-1.86,0.89-2.85,0.89l0,0
		C80.405,45.062,78.854,44.312,77.874,42.912z M346.005,37.382L346.005,37.382c-2.61-0.91-3.99-3.75-3.09-6.36l0,0
		c0.9-2.61,3.75-4,6.36-3.09l0,0c2.61,0.9,3.99,3.75,3.09,6.36l0,0c-0.72,2.07-2.65,3.36-4.73,3.36l0,0
		C347.095,37.652,346.544,37.562,346.005,37.382z M93.515,34.082c-0.89-2.61,0.5-5.46,3.12-6.35l0,0c2.61-0.89,5.45,0.51,6.34,3.12
		l0,0c0.89,2.61-0.5,5.46-3.11,6.35l0,0c-0.54,0.18-1.08,0.27-1.62,0.27l0,0C96.164,37.472,94.225,36.162,93.515,34.082z
		 M329.184,32.642c-2.69-0.63-4.37-3.31-3.74-6l0,0c0.62-2.69,3.31-4.37,6-3.74l0,0l0,0l0,0c2.69,0.62,4.36,3.31,3.74,6l0,0
		c-0.54,2.31-2.59,3.87-4.87,3.87l0,0C329.945,32.772,329.564,32.732,329.184,32.642z M110.715,28.762
		c-0.62-2.69,1.06-5.38,3.75-5.99l0,0c2.69-0.62,5.38,1.06,6,3.75l0,0c0.61,2.69-1.07,5.38-3.76,5.99l0,0
		c-0.38,0.09-0.75,0.13-1.12,0.13l0,0C113.305,32.642,111.245,31.072,110.715,28.762z M311.825,29.212
		c-2.73-0.46-4.56-3.03-4.11-5.76l0,0c0.46-2.72,3.04-4.56,5.76-4.1l0,0c2.72,0.46,4.56,3.03,4.11,5.76l0,0
		c-0.41,2.44-2.53,4.17-4.93,4.17l0,0C312.385,29.282,312.104,29.262,311.825,29.212z M128.325,25.002
		c-0.45-2.72,1.39-5.3,4.12-5.75l0,0c0,0,0,0-0.01,0l0,0c2.73-0.45,5.3,1.39,5.76,4.12l0,0c0.45,2.72-1.39,5.3-4.12,5.75l0,0
		c-0.28,0.04-0.55,0.07-0.82,0.07l0,0C130.854,29.192,128.735,27.452,128.325,25.002z M294.215,26.682
		c-2.74-0.33-4.69-2.83-4.35-5.57l0,0c0.33-2.74,2.82-4.69,5.57-4.35l0,0c2.74,0.33,4.69,2.82,4.35,5.56l0,0
		c-0.31,2.54-2.46,4.4-4.95,4.4l0,0C294.624,26.722,294.425,26.712,294.215,26.682z M146.124,22.252c-0.33-2.74,1.62-5.23,4.36-5.57
		l0,0c2.74-0.33,5.23,1.63,5.56,4.37l0,0c0.34,2.74-1.62,5.23-4.36,5.56l0,0c-0.2,0.03-0.41,0.04-0.61,0.04l0,0
		C148.584,26.652,146.425,24.792,146.124,22.252z M276.485,24.852c-2.75-0.24-4.79-2.66-4.55-5.41l0,0
		c0.23-2.75,2.66-4.79,5.41-4.56l0,0c2.75,0.24,4.79,2.66,4.55,5.41l0,0c-0.22,2.61-2.41,4.58-4.97,4.57l0,0
		C276.774,24.862,276.635,24.862,276.485,24.852z M164.015,20.242c-0.23-2.75,1.81-5.17,4.56-5.41l0,0
		c2.75-0.23,5.17,1.81,5.41,4.56l0,0c0.23,2.75-1.81,5.17-4.56,5.41l0,0c-0.15,0.01-0.29,0.02-0.43,0.02l0,0
		C166.425,24.822,164.235,22.852,164.015,20.242z M258.675,23.602c-2.75-0.15-4.87-2.51-4.71-5.27l0,0c0.15-2.76,2.5-4.87,5.26-4.72
		l0,0l0,0l0,0c2.76,0.15,4.87,2.51,4.72,5.27l0,0c-0.15,2.66-2.35,4.73-4.99,4.73l0,0C258.865,23.612,258.774,23.602,258.675,23.602
		z M181.965,18.842c-0.15-2.75,1.97-5.11,4.73-5.26l0,0c2.75-0.15,5.11,1.97,5.26,4.72l0,0c0.15,2.76-1.97,5.12-4.72,5.27l0,0
		c-0.1,0-0.19,0-0.28,0l0,0C184.314,23.572,182.115,21.512,181.965,18.842z M240.825,22.872c-2.76-0.07-4.94-2.37-4.86-5.13l0,0
		c0.07-2.76,2.37-4.94,5.13-4.87l0,0c2.76,0.08,4.94,2.38,4.86,5.14l0,0c-0.07,2.71-2.29,4.86-4.99,4.86l0,0
		C240.914,22.872,240.874,22.872,240.825,22.872z M199.954,17.992c-0.07-2.76,2.11-5.06,4.87-5.13l0,0
		c2.76-0.07,5.06,2.11,5.13,4.87l0,0c0.07,2.76-2.11,5.05-4.87,5.13l0,0c-0.05,0-0.09,0-0.13,0l0,0
		C202.245,22.862,200.024,20.702,199.954,17.992z M217.954,17.632c0-2.76,2.24-5,5-5l0,0c2.76,0,5,2.24,5,5l0,0c0,2.76-2.24,5-5,5
		l0,0C220.195,22.632,217.954,20.392,217.954,17.632z"/>
	<g>
		<path style="fill:#F4E84A;" d="M335.709,229.117c-39.445-20.216-77.155-42.056-113.037-65.305
			c-35.882,23.249-73.592,45.089-113.037,65.305c35.796,26.138,73.503,50.939,113.037,74.188
			C262.205,280.056,299.912,255.255,335.709,229.117z"/>
		<g>
			<path style="fill:#F48438;" d="M335.704,234.112c-1.31,0-2.6-0.53-3.53-1.46c-0.93-0.93-1.47-2.22-1.47-3.54
				c0-1.31,0.54-2.6,1.47-3.53c0.93-0.93,2.22-1.46,3.53-1.46c1.32,0,2.61,0.53,3.54,1.46c0.93,0.93,1.46,2.22,1.46,3.53
				c0,1.32-0.53,2.61-1.46,3.54C338.314,233.582,337.024,234.112,335.704,234.112z"/>
			<path style="fill:#F48438;" d="M316.825,224.902L316.825,224.902L316.825,224.902c-2.44-1.29-3.37-4.32-2.08-6.76l0,0
				c1.3-2.44,4.32-3.36,6.76-2.07h0.01c2.43,1.29,3.36,4.32,2.07,6.76l0,0c-0.9,1.69-2.63,2.66-4.42,2.66l0,0
				C318.374,225.492,317.564,225.302,316.825,224.902z M300.345,216.012c-2.42-1.33-3.31-4.37-1.98-6.79l0,0
				c1.33-2.42,4.37-3.31,6.79-1.98l0,0c2.42,1.33,3.3,4.37,1.98,6.79l0,0c-0.91,1.66-2.63,2.6-4.39,2.6l0,0
				C301.925,216.632,301.104,216.432,300.345,216.012z M283.985,206.882c-2.4-1.37-3.24-4.42-1.87-6.82l0,0
				c1.36-2.4,4.41-3.24,6.81-1.88l0,0c2.4,1.37,3.24,4.42,1.88,6.82l0,0c-0.92,1.62-2.61,2.53-4.35,2.53l0,0
				C285.615,207.532,284.765,207.322,283.985,206.882z M267.765,197.512L267.765,197.512L267.765,197.512
				c-2.38-1.4-3.17-4.46-1.78-6.84l0,0c1.4-2.39,4.47-3.18,6.85-1.78l0,0c2.38,1.4,3.18,4.46,1.78,6.84l0,0
				c-0.93,1.59-2.6,2.47-4.32,2.47l0,0C269.434,198.202,268.564,197.982,267.765,197.512z M251.684,187.912
				c-2.36-1.43-3.11-4.51-1.68-6.87l0,0c1.44-2.36,4.51-3.11,6.87-1.68l0,0c2.36,1.43,3.11,4.51,1.68,6.87l0,0
				c-0.94,1.55-2.59,2.41-4.28,2.41l0,0C253.394,188.642,252.495,188.402,251.684,187.912z M235.745,178.072
				c-2.34-1.46-3.04-4.55-1.58-6.89l0,0c1.47-2.34,4.55-3.04,6.9-1.58l0,0c2.33,1.47,3.04,4.55,1.57,6.9l0,0
				c-0.95,1.51-2.57,2.34-4.24,2.34l0,0C237.495,178.842,236.575,178.592,235.745,178.072z"/>
			<path style="fill:#F48438;" d="M222.675,168.812c-1.32,0-2.61-0.53-3.54-1.46c-0.93-0.93-1.46-2.22-1.46-3.54
				c0-1.32,0.53-2.61,1.46-3.54c0.93-0.93,2.22-1.46,3.54-1.46c1.31,0,2.6,0.53,3.53,1.46c0.93,0.93,1.47,2.22,1.47,3.54
				c0,1.32-0.54,2.6-1.47,3.54C225.274,168.282,223.985,168.812,222.675,168.812z"/>
			<path style="fill:#F48438;" d="M121.765,222.832c-1.29-2.44-0.36-5.47,2.08-6.76l0,0c2.44-1.3,5.46-0.37,6.76,2.07l0,0
				c1.29,2.44,0.36,5.47-2.08,6.76l0,0c-0.74,0.4-1.54,0.58-2.33,0.58l0,0C124.394,225.482,122.664,224.522,121.765,222.832z
				 M138.225,214.032c-1.33-2.42-0.45-5.46,1.97-6.79l0,0c2.42-1.33,5.46-0.45,6.79,1.97l0,0c1.33,2.43,0.44,5.47-1.98,6.79l0,0
				c-0.76,0.42-1.58,0.62-2.4,0.62l0,0C140.845,216.622,139.135,215.682,138.225,214.032z M154.544,205.002
				c-1.37-2.41-0.52-5.46,1.88-6.82l0,0c2.4-1.37,5.45-0.52,6.81,1.88l0,0c1.37,2.4,0.53,5.45-1.87,6.81l0,0
				c-0.78,0.45-1.63,0.66-2.47,0.66l0,0C157.155,207.532,155.465,206.622,154.544,205.002z M170.735,195.732
				c-1.4-2.38-0.6-5.45,1.78-6.85l0,0c2.38-1.39,5.45-0.6,6.84,1.78l0,0c1.4,2.38,0.61,5.45-1.78,6.85l0,0
				c-0.79,0.46-1.66,0.69-2.52,0.69l0,0C173.334,198.202,171.664,197.312,170.735,195.732z M186.794,186.232
				c-1.44-2.36-0.68-5.44,1.68-6.87l0,0c2.36-1.44,5.43-0.68,6.87,1.68l0,0c1.43,2.36,0.68,5.43-1.68,6.87l0,0l0,0l0,0
				c-0.82,0.49-1.71,0.72-2.6,0.72l0,0C189.385,188.632,187.735,187.782,186.794,186.232z M202.704,176.492
				c-1.47-2.34-0.76-5.42,1.58-6.89l0,0c2.34-1.47,5.43-0.76,6.89,1.58l0,0c1.47,2.34,0.76,5.42-1.57,6.89l0,0l0,0l0,0
				c-0.83,0.52-1.75,0.77-2.66,0.77l0,0C205.285,178.842,203.655,178.012,202.704,176.492z"/>
			<path style="fill:#F48438;" d="M109.635,234.112c-1.32,0-2.61-0.53-3.54-1.46c-0.93-0.93-1.46-2.22-1.46-3.54
				c0-1.31,0.53-2.6,1.46-3.53c0.93-0.93,2.22-1.46,3.54-1.46c1.32,0,2.6,0.53,3.53,1.46c0.94,0.93,1.47,2.22,1.47,3.53
				c0,1.32-0.53,2.61-1.47,3.54C112.235,233.582,110.945,234.112,109.635,234.112z"/>
			<path style="fill:#F48438;" d="M205.544,298.912c-2.36-1.43-3.12-4.5-1.69-6.86l0,0c1.43-2.36,4.5-3.12,6.87-1.69l0,0
				c2.36,1.42,3.12,4.5,1.69,6.86l0,0c-0.94,1.56-2.59,2.42-4.28,2.42l0,0C207.255,299.642,206.354,299.402,205.544,298.912z
				 M191.084,290.052L191.084,290.052c-2.35-1.46-3.07-4.54-1.61-6.89l0,0c1.46-2.34,4.54-3.06,6.89-1.61l0,0
				c2.34,1.46,3.06,4.54,1.61,6.89l0,0c-0.95,1.52-2.59,2.36-4.26,2.36l0,0C192.814,290.802,191.905,290.562,191.084,290.052z
				 M176.725,281.002c-2.32-1.48-3.01-4.57-1.52-6.9l0,0c1.48-2.33,4.58-3.01,6.91-1.52l0,0c2.32,1.48,3,4.57,1.52,6.9l0,0
				c-0.96,1.49-2.57,2.31-4.22,2.31l0,0C178.495,281.792,177.564,281.542,176.725,281.002z M162.485,271.782
				c-2.31-1.51-2.96-4.61-1.44-6.92l0,0c1.52-2.31,4.61-2.95,6.92-1.44l0,0c2.31,1.52,2.96,4.62,1.44,6.93l0,0
				c-0.96,1.46-2.56,2.25-4.18,2.25l0,0C164.274,272.602,163.325,272.342,162.485,271.782z M148.354,262.392
				c-2.29-1.55-2.9-4.65-1.35-6.94l0,0c1.54-2.29,4.65-2.9,6.94-1.35l0,0c0,0,0,0,0-0.01l0,0c2.29,1.55,2.89,4.66,1.35,6.95l0,0
				c-0.97,1.43-2.54,2.2-4.15,2.2l0,0C150.184,263.242,149.215,262.972,148.354,262.392z M134.345,252.822
				c-2.27-1.57-2.84-4.69-1.27-6.96l0,0c1.57-2.27,4.69-2.84,6.96-1.26l0,0c2.27,1.57,2.84,4.68,1.27,6.95l0,0
				c-0.98,1.41-2.54,2.16-4.12,2.16l0,0C136.204,253.712,135.215,253.422,134.345,252.822z M120.455,243.072L120.455,243.072
				c-2.25-1.6-2.78-4.72-1.18-6.97l0,0c1.6-2.25,4.72-2.78,6.97-1.18l0,0l0,0l0,0c2.25,1.6,2.78,4.72,1.18,6.97l0,0
				c-0.98,1.38-2.52,2.11-4.08,2.11l0,0C122.345,244.002,121.334,243.702,120.455,243.072z"/>
			<path style="fill:#F48438;" d="M222.675,308.302c-1.32,0-2.61-0.53-3.54-1.46c-0.93-0.93-1.46-2.22-1.46-3.54
				c0-1.31,0.53-2.6,1.46-3.53c0.93-0.93,2.22-1.47,3.54-1.47c1.31,0,2.6,0.54,3.53,1.47c0.93,0.93,1.47,2.22,1.47,3.53
				c0,1.32-0.54,2.61-1.47,3.54C225.274,307.772,223.985,308.302,222.675,308.302z"/>
			<path style="fill:#F48438;" d="M232.914,297.232c-1.43-2.36-0.67-5.44,1.69-6.87l0,0c0,0,0,0,0,0.01l0,0
				c2.36-1.43,5.44-0.68,6.87,1.69l0,0c1.43,2.36,0.67,5.43-1.7,6.86h0.01c-0.81,0.49-1.7,0.72-2.59,0.72l0,0
				C235.505,299.642,233.854,298.782,232.914,297.232z M247.365,288.442c-1.46-2.34-0.74-5.42,1.61-6.88l0,0l0,0l0,0
				c2.34-1.46,5.43-0.74,6.88,1.61l0,0c1.46,2.34,0.74,5.43-1.61,6.88l0,0c-0.82,0.51-1.73,0.76-2.63,0.76l0,0
				C249.945,290.812,248.305,289.972,247.365,288.442z M261.704,279.482c-1.49-2.32-0.81-5.41,1.52-6.9l0,0l0,0l0,0
				c2.33-1.49,5.42-0.8,6.91,1.52l0,0c1.48,2.33,0.8,5.42-1.53,6.91l0,0c-0.83,0.53-1.76,0.79-2.68,0.79l0,0
				C264.274,281.802,262.655,280.982,261.704,279.482z M275.934,270.352c-1.52-2.31-0.87-5.41,1.43-6.92l0,0
				c2.31-1.52,5.41-0.87,6.93,1.43l0,0c1.51,2.31,0.87,5.41-1.44,6.93l0,0c-0.84,0.55-1.8,0.82-2.74,0.82l0,0
				C278.485,272.612,276.894,271.812,275.934,270.352z M290.044,261.042c-1.54-2.29-0.94-5.4,1.35-6.94l0,0l0,0l0,0
				c2.29-1.55,5.4-0.94,6.94,1.35l0,0c1.55,2.29,0.94,5.4-1.35,6.94l0,0c-0.86,0.58-1.83,0.86-2.79,0.85l0,0
				C292.584,263.242,291.015,262.472,290.044,261.042z M304.044,251.552c-1.57-2.27-1.01-5.38,1.26-6.95l0,0
				c2.27-1.58,5.39-1.01,6.96,1.26l0,0c1.57,2.27,1.01,5.39-1.26,6.96h-0.01c-0.86,0.6-1.85,0.89-2.84,0.89l0,0
				C306.575,253.712,305.015,252.952,304.044,251.552z M317.925,241.892c-1.6-2.25-1.08-5.37,1.17-6.97l0,0
				c2.25-1.6,5.38-1.07,6.98,1.18l0,0c1.6,2.25,1.07,5.37-1.18,6.97l0,0c-0.88,0.62-1.89,0.93-2.89,0.93l0,0
				C320.434,244.002,318.894,243.262,317.925,241.892z"/>
		</g>
		<path style="fill:#46B9CC;" d="M258.829,233.105c-0.566-18.99-16.752-33.92-36.157-33.93c-19.406,0.01-35.592,14.94-36.157,33.93
			c-0.566,18.973,15.62,34.843,36.157,34.837C243.209,267.947,259.395,252.078,258.829,233.105z"/>
	</g>
</g>
<g>
</g>
<g>
</g>
<g>
</g>
<g>
</g>
<g>
</g>
<g>
</g>
<g>
</g>
<g>
</g>
<g>
</g>
<g>
</g>
<g>
</g>
<g>
</g>
<g>
</g>
<g>
</g>
<g>
</g>
</svg>
