<?xml version="1.0" encoding="iso-8859-1"?>
<!-- Generator: Adobe Illustrator 19.1.0, SVG Export Plug-In . SVG Version: 6.00 Build 0)  -->
<svg version="1.1" id="Capa_1" xmlns="http://www.w3.org/2000/svg" xmlns:xlink="http://www.w3.org/1999/xlink" x="0px" y="0px"
	 viewBox="0 0 474.104 474.104" style="enable-background:new 0 0 474.104 474.104;" xml:space="preserve">
<g>
	<polygon style="fill:#F2D24C;" points="380.283,335.355 380.283,301.978 348.869,341.759 343.496,317.713 345.368,328.208 
		341.826,308.354 321.889,311.654 313.907,293.11 295.035,300.341 283.837,283.53 266.429,293.794 252.743,278.929 237.052,291.667 
		221.363,278.929 207.678,293.793 190.268,283.53 179.07,300.341 160.197,293.11 152.214,311.654 132.277,308.355 128.734,328.209 
		108.65,330.355 115.478,314.829 93.821,301.98 93.821,393.206 111.569,402.766 108.651,422.68 128.736,424.825 132.278,444.679 
		152.214,441.379 160.197,459.922 179.069,452.692 190.267,469.503 207.675,459.239 221.361,474.104 237.052,461.366 
		252.741,474.104 266.426,459.24 283.836,469.503 295.034,452.692 313.907,459.923 321.89,441.379 341.827,444.678 345.369,424.824 
		365.454,422.678 362.536,402.764 380.283,393.204 	"/>
	<polygon style="fill:#F4E84A;" points="369.055,318.667 380.283,301.978 362.535,292.418 365.453,272.504 345.368,270.359 
		341.826,250.505 321.889,253.805 313.907,235.261 295.035,242.492 283.837,225.681 266.429,235.945 252.743,221.08 
		237.052,233.818 221.363,221.08 207.678,235.944 190.268,225.681 179.07,242.492 160.197,235.261 152.214,253.805 132.277,250.506 
		128.734,270.36 108.65,272.506 111.568,292.42 93.821,301.98 105.049,318.667 93.821,335.357 111.569,344.917 108.651,364.831 
		128.736,366.976 132.278,386.83 152.214,383.53 160.197,402.073 179.069,394.843 190.267,411.654 207.675,401.39 221.361,416.255 
		237.052,403.517 252.741,416.255 266.426,401.391 283.836,411.654 295.034,394.843 313.907,402.074 321.89,383.53 341.827,386.829 
		345.369,366.975 365.454,364.829 362.536,344.915 380.283,335.355 	"/>
	<g>
		<path style="fill:#D6B632;" d="M163.608,278.711L163.608,278.711c-19.643,0-35.567-15.924-35.567-35.567v0
			c0-10.174,9.644-17.583,19.474-14.962l16.093,4.291V278.711z"/>
		<path style="fill:#D6B632;" d="M310.496,278.711L310.496,278.711c19.643,0,35.567-15.924,35.567-35.567v0
			c0-10.174-9.644-17.583-19.474-14.962l-16.093,4.291V278.711z"/>
	</g>
	<path style="fill:#D6B632;" d="M237.052,174.262c-49.844,0-90.25,28.454-90.25,87.935c0,30.796,0.889,68.515,18.254,88.144
		c16.174,18.284,47.958,19.557,71.996,19.557s55.822-1.273,71.996-19.557c17.365-19.629,18.254-57.348,18.254-88.144
		C327.302,202.715,286.896,174.262,237.052,174.262z"/>
	<path style="fill:#F48438;" d="M280.976,100.682c-20.19,0-37.453,12.485-44.521,30.151c-7.07-17.665-24.335-30.149-44.524-30.149
		c-0.438,0-0.869,0.007-1.3,0.014c-5.898,0.158-11.522,1.379-16.702,3.484c-17.556,7.112-29.948,24.331-29.948,44.445
		c0,26.486,21.472,47.95,47.95,47.95c20.188,0,37.454-12.484,44.523-30.151c7.068,17.666,24.332,30.152,44.522,30.152
		c26.481,0,47.948-21.467,47.948-47.948S307.457,100.682,280.976,100.682z"/>
	<path style="fill:#F2D24C;" d="M146.802,253.459c0-59.482,40.406-87.935,90.25-87.935s90.25,28.454,90.25,87.935
		s-40.406,107.701-90.25,107.701c-24.038,0-45.88-11.215-62.054-29.498C157.633,312.033,146.802,284.255,146.802,253.459z"/>
	<path style="fill:#FFFFFF;" d="M264.691,288.373c0,15.265-12.374,27.639-27.639,27.639s-27.639-12.374-27.639-27.639H264.691z"/>
	<path style="fill:#F2F2F2;" d="M263.365,296.837c0.858-2.668,1.326-5.511,1.326-8.464h-55.278c0,2.953,0.468,5.796,1.326,8.464
		H263.365z"/>
	<g>
		<path style="fill:#4D4D4D;" d="M171.755,259.973c2.382-6.523,8.438-11.01,15.011-12.749c7.499-1.984,15.652-0.36,21.816,4.32
			c2.768,2.102,5.071,5.136,6.208,8.429c-2.398-0.637-4.704-1.583-7.113-2.194c-2.967-0.752-5.909-1.353-8.95-1.722
			c-6.31-0.766-12.962-0.202-19.08,1.501c-1.552,0.432-3.127,0.82-4.661,1.315C173.901,259.223,172.864,259.691,171.755,259.973z"/>
		<path style="fill:#4D4D4D;" d="M259.796,259.973c2.382-6.523,8.438-11.01,15.011-12.749c7.499-1.984,15.652-0.36,21.816,4.32
			c2.768,2.102,5.071,5.136,6.208,8.429c-2.398-0.637-4.704-1.583-7.113-2.194c-2.967-0.752-5.909-1.353-8.95-1.722
			c-6.31-0.766-12.962-0.202-19.08,1.501c-1.552,0.432-3.127,0.82-4.661,1.315C261.942,259.223,260.905,259.691,259.796,259.973z"/>
	</g>
	<path style="fill:#F2D24C;" d="M175.775,139.231c0.208,14.69,4.77,26.701,4.82,26.823l-10.05,3.894
		c-0.208-0.553-5.237-13.67-5.539-30.221c-0.251-13.649,2.787-25.645,8.922-35.544c5.179-2.105,10.804-3.326,16.702-3.484
		C180.531,110.022,175.538,122.953,175.775,139.231z"/>
	<path style="fill:#F2D24C;" d="M295.832,139.231c-0.208,14.69-4.77,26.701-4.82,26.823l10.05,3.894
		c0.208-0.553,5.237-13.67,5.538-30.221c0.251-13.649-2.787-25.645-8.922-35.544c-5.179-2.105-10.804-3.326-16.702-3.484
		C291.077,110.022,296.069,122.953,295.832,139.231z"/>
	<path style="fill:#F2D24C;" d="M257.538,56.616c-2.643-0.247-5.183,0.061-7.526,0.81l0,0v-6.655l0,0
		c2.725-3.894,3.608-8.85,2.278-13.514l-9.329-32.722c-1.724-6.048-10.295-6.048-12.019,0l-9.329,32.722
		c-1.33,4.664-0.447,9.62,2.278,13.514l0,0v6.655l0,0c-2.342-0.75-4.883-1.058-7.526-0.81c-8.82,0.825-15.982,7.883-16.899,16.694
		c-1.175,11.285,7.645,20.813,18.69,20.813c2,0,3.926-0.315,5.735-0.894l0,0v22.196l0,0h26.121l0,0V93.229l0,0
		c1.808,0.579,3.734,0.894,5.735,0.894c11.045,0,19.865-9.528,18.69-20.813C273.52,64.499,266.358,57.441,257.538,56.616z"/>
	<path style="fill:#F4E84A;" d="M255.824,160.002v-51.631l0,0c-11.736-6.523-26.009-6.523-37.745,0l0,0v51.689
		c-22.593,1.959-44.951,7.361-66.263,16.233v47.976c54.431-22.661,115.679-22.791,170.272-0.293v-47.976
		C300.749,167.207,278.392,161.887,255.824,160.002z"/>
	<g>
		<path style="fill:#F48438;" d="M151.815,213.841c-1.18,0-2.34-0.48-3.18-1.32s-1.32-2-1.32-3.18c0-1.18,0.48-2.34,1.32-3.18
			c0.84-0.84,2-1.32,3.18-1.32s2.35,0.48,3.18,1.32c0.841,0.84,1.32,2,1.32,3.18c0,1.18-0.479,2.34-1.32,3.18
			C154.165,213.361,152.995,213.841,151.815,213.841z"/>
		<path style="fill:#F48438;" d="M163.915,204.661c-0.77-2.36,0.521-4.9,2.881-5.67l0,0l0,0l0,0c2.359-0.77,4.899,0.52,5.67,2.88
			l0,0c0.779,2.36-0.511,4.9-2.87,5.67l0,0c-0.471,0.15-0.94,0.23-1.4,0.23l0,0C166.295,207.771,164.535,206.561,163.915,204.661z
			 M304.285,207.311c-2.359-0.77-3.66-3.3-2.899-5.67l0,0c0.77-2.36,3.3-3.66,5.67-2.9l0,0l0,0l0,0c2.359,0.77,3.66,3.3,2.899,5.67
			l0,0c-0.619,1.9-2.38,3.12-4.29,3.12l0,0C305.215,207.531,304.745,207.461,304.285,207.311z M180.624,199.551
			c-0.59-2.41,0.9-4.85,3.311-5.43l0,0c2.42-0.59,4.85,0.9,5.43,3.31l0,0c0.59,2.42-0.899,4.85-3.31,5.44l0,0
			c-0.36,0.08-0.71,0.12-1.061,0.12l0,0C182.965,202.991,181.115,201.611,180.624,199.551z M287.815,202.691
			c-2.42-0.58-3.92-3-3.34-5.42l0,0c0.58-2.42,3-3.91,5.42-3.34l0,0c2.42,0.58,3.91,3.01,3.33,5.43l0,0
			c-0.49,2.06-2.33,3.45-4.37,3.45l0,0C288.515,202.811,288.165,202.771,287.815,202.691z M197.675,195.771
			c-0.391-2.46,1.279-4.76,3.729-5.16l0,0c2.46-0.39,4.76,1.28,5.16,3.73l0,0c0.39,2.46-1.28,4.76-3.729,5.16l0,0
			c-0.24,0.04-0.48,0.06-0.721,0.06l0,0C199.945,199.561,198.035,197.981,197.675,195.771z M271.025,199.381
			c-2.46-0.38-4.14-2.68-3.76-5.14l0,0c0.39-2.46,2.689-4.14,5.149-3.75l0,0l0,0l0,0c2.45,0.38,4.131,2.69,3.75,5.14l0,0
			c-0.35,2.22-2.26,3.81-4.439,3.81l0,0C271.495,199.441,271.255,199.421,271.025,199.381z M214.975,193.331
			c-0.2-2.47,1.649-4.64,4.13-4.84l0,0c2.47-0.2,4.64,1.64,4.84,4.12l0,0c0.2,2.48-1.649,4.65-4.12,4.85l0,0
			c-0.12,0.01-0.25,0.01-0.37,0.01l0,0C217.135,197.471,215.165,195.691,214.975,193.331z M254.025,197.401
			c-2.479-0.19-4.33-2.35-4.14-4.83l0,0c0.189-2.48,2.35-4.33,4.83-4.14l0,0l0,0l0,0c2.479,0.19,4.33,2.35,4.14,4.83l0,0
			c-0.18,2.36-2.15,4.15-4.48,4.15l0,0C254.255,197.411,254.145,197.411,254.025,197.401z M232.415,192.271
			c0-2.49,2.011-4.51,4.49-4.51l0,0c2.48-0.01,4.51,2,4.51,4.49l0,0c0,2.49-2.01,4.5-4.489,4.51l0,0
			C234.435,196.761,232.415,194.751,232.415,192.271z"/>
		<path style="fill:#F48438;" d="M322.085,213.551c-1.181,0-2.341-0.48-3.181-1.32s-1.319-2-1.319-3.18
			c0-1.19,0.479-2.35,1.319-3.19c0.84-0.83,2-1.31,3.181-1.31c1.18,0,2.34,0.48,3.18,1.31c0.84,0.84,1.32,2,1.32,3.19
			c0,1.18-0.48,2.34-1.32,3.18S323.265,213.551,322.085,213.551z"/>
	</g>
	<g>
		<path style="fill:#45CE83;" d="M151.815,193.441c-1.18,0-2.34-0.48-3.18-1.32c-0.84-0.83-1.32-1.99-1.32-3.18
			c0-1.18,0.48-2.34,1.32-3.18s2-1.32,3.18-1.32s2.35,0.48,3.18,1.32c0.841,0.84,1.32,2,1.32,3.18c0,1.19-0.479,2.35-1.32,3.18
			C154.165,192.961,152.995,193.441,151.815,193.441z"/>
		<path style="fill:#45CE83;" d="M163.915,184.261c-0.77-2.36,0.521-4.9,2.881-5.67l0,0c2.359-0.77,4.899,0.52,5.67,2.88l0,0
			c0.779,2.36-0.511,4.9-2.87,5.67l0,0c-0.471,0.16-0.94,0.23-1.4,0.23l0,0C166.295,187.371,164.535,186.161,163.915,184.261z
			 M304.285,186.911L304.285,186.911c-2.359-0.77-3.66-3.3-2.899-5.67l0,0c0.77-2.36,3.3-3.66,5.67-2.89l0,0
			c2.359,0.76,3.66,3.29,2.899,5.66l0,0c-0.619,1.9-2.38,3.12-4.279,3.12l0,0C305.215,187.131,304.745,187.061,304.285,186.911z
			 M180.624,179.151c-0.59-2.41,0.9-4.84,3.311-5.43l0,0c2.42-0.58,4.85,0.9,5.43,3.32l0,0c0.59,2.41-0.899,4.85-3.31,5.43l0,0
			c-0.36,0.09-0.72,0.13-1.07,0.13l0,0C182.965,182.601,181.115,181.211,180.624,179.151z M287.815,182.291
			c-2.42-0.57-3.91-3-3.34-5.41l0,0c0.58-2.42,3-3.92,5.42-3.34l0,0c2.42,0.57,3.91,3,3.33,5.42l0,0c-0.49,2.07-2.33,3.46-4.37,3.46
			l0,0C288.515,182.421,288.165,182.381,287.815,182.291z M197.675,175.371c-0.391-2.45,1.279-4.76,3.729-5.15l0,0
			c2.46-0.4,4.76,1.27,5.16,3.73l0,0c0.39,2.45-1.28,4.76-3.729,5.15l0,0c-0.24,0.04-0.48,0.06-0.721,0.06l0,0
			C199.945,179.161,198.035,177.581,197.675,175.371z M271.025,178.981c-2.46-0.38-4.14-2.68-3.76-5.14l0,0
			c0.39-2.45,2.689-4.13,5.149-3.75l0,0l0,0l0,0c2.45,0.39,4.131,2.69,3.75,5.14l0,0c-0.35,2.22-2.26,3.81-4.439,3.81l0,0
			C271.495,179.041,271.255,179.021,271.025,178.981z M214.975,172.941c-0.2-2.48,1.649-4.65,4.13-4.85l0,0
			c2.47-0.2,4.64,1.65,4.84,4.13l0,0c0.2,2.47-1.649,4.64-4.12,4.84l0,0c-0.12,0.01-0.25,0.02-0.37,0.02l0,0
			C217.135,177.081,215.165,175.291,214.975,172.941z M254.025,177.001c-2.479-0.19-4.33-2.35-4.14-4.83l0,0
			c0.189-2.48,2.35-4.33,4.83-4.14l0,0l0,0l0,0c2.479,0.19,4.33,2.35,4.14,4.83l0,0c-0.18,2.36-2.15,4.16-4.48,4.16l0,0
			C254.255,177.021,254.145,177.011,254.025,177.001z M232.415,171.871c0-2.49,2.011-4.5,4.49-4.51l0,0c2.48,0,4.51,2.01,4.51,4.49
			l0,0c0,2.49-2.01,4.51-4.489,4.51l0,0C234.435,176.361,232.415,174.351,232.415,171.871z"/>
		<path style="fill:#45CE83;" d="M322.085,193.151c-1.181,0-2.341-0.48-3.181-1.32c-0.84-0.84-1.319-2-1.319-3.18
			c0-1.18,0.479-2.34,1.319-3.18s2-1.32,3.181-1.32c1.189,0,2.35,0.48,3.18,1.32c0.84,0.84,1.32,2,1.32,3.18
			c0,1.18-0.48,2.34-1.32,3.18C324.435,192.671,323.275,193.151,322.085,193.151z"/>
	</g>
	<path style="fill:#F48438;" d="M232.455,156.131c0-2.48,2.011-4.5,4.5-4.5l0,0c2.48,0,4.5,2.02,4.5,4.5l0,0
		c0,2.49-2.02,4.5-4.5,4.5l0,0C234.465,160.631,232.455,158.621,232.455,156.131z M232.455,138.131c0-2.48,2.011-4.5,4.5-4.5l0,0
		c2.48,0,4.5,2.02,4.5,4.5l0,0c0,2.49-2.02,4.5-4.5,4.5l0,0C234.465,142.631,232.455,140.621,232.455,138.131z M232.455,120.131
		c0-2.48,2.011-4.5,4.5-4.5l0,0c2.48,0,4.5,2.02,4.5,4.5l0,0c0,2.49-2.02,4.5-4.5,4.5l0,0
		C234.465,124.631,232.455,122.621,232.455,120.131z"/>
	<path style="fill:#D6B632;" d="M274.707,326.396c-4.119,11.43-14.833,19.305-26.318,22.324c-13.122,3.45-27.823,0.653-38.477-7.831
		c-4.651-3.704-8.592-8.835-10.516-14.493c4.073,1.073,7.972,2.745,12.07,3.751c2.613,0.641,5.2,1.365,7.845,1.879
		c2.728,0.53,5.474,0.892,8.231,1.228c5.653,0.689,11.368,0.627,17.038,0.222c5.366-0.384,10.862-1.335,16.044-2.777
		c2.713-0.755,5.416-1.53,8.125-2.303C270.762,327.821,272.667,326.908,274.707,326.396z"/>
</g>
<g>
</g>
<g>
</g>
<g>
</g>
<g>
</g>
<g>
</g>
<g>
</g>
<g>
</g>
<g>
</g>
<g>
</g>
<g>
</g>
<g>
</g>
<g>
</g>
<g>
</g>
<g>
</g>
<g>
</g>
</svg>
