<?xml version="1.0" encoding="iso-8859-1"?>
<!-- Generator: Adobe Illustrator 19.1.0, SVG Export Plug-In . SVG Version: 6.00 Build 0)  -->
<svg version="1.1" id="Capa_1" xmlns="http://www.w3.org/2000/svg" xmlns:xlink="http://www.w3.org/1999/xlink" x="0px" y="0px"
	 viewBox="0 0 479.462 479.462" style="enable-background:new 0 0 479.462 479.462;" xml:space="preserve">
<g>
	<polygon style="fill:#45CE83;" points="446.689,278.98 446.689,230.752 401.298,288.233 393.535,253.488 396.24,268.652 
		391.122,239.965 362.315,244.733 350.781,217.939 323.513,228.387 307.332,204.096 282.178,218.927 262.404,197.448 
		239.731,215.853 217.061,197.448 197.288,218.926 172.132,204.096 155.95,228.386 128.682,217.939 117.146,244.734 88.338,239.966 
		83.22,268.654 54.199,271.755 64.065,249.322 32.772,230.755 32.773,362.57 58.417,376.383 54.201,405.158 83.222,408.258 
		88.34,436.945 117.147,432.177 128.681,458.971 155.949,448.523 172.13,472.813 197.284,457.983 217.058,479.462 239.731,461.057 
		262.401,479.462 282.174,457.984 307.33,472.814 323.511,448.524 350.78,458.971 362.316,432.176 391.124,436.944 396.242,408.256 
		425.263,405.155 421.046,376.381 446.689,362.568 	"/>
	<polygon style="fill:#F4E84A;" points="430.466,254.867 446.689,230.752 421.045,216.939 425.261,188.165 396.24,185.065 
		391.122,156.377 362.315,161.146 350.781,134.352 323.513,144.799 307.332,120.509 282.178,135.339 262.404,113.861 
		239.731,132.265 217.061,113.86 197.288,135.338 172.132,120.508 155.95,144.799 128.682,134.352 117.146,161.146 88.338,156.378 
		83.22,185.066 54.199,188.167 58.416,216.942 32.772,230.755 48.996,254.867 32.773,278.982 58.417,292.796 54.201,321.57 
		83.222,324.67 88.34,353.357 117.147,348.589 128.681,375.383 155.949,364.936 172.13,389.226 197.284,374.396 217.058,395.874 
		239.731,377.469 262.401,395.874 282.174,374.396 307.33,389.226 323.511,364.936 350.78,375.383 362.316,348.589 391.124,353.356 
		396.242,324.668 425.263,321.567 421.046,292.793 446.689,278.98 	"/>
	<path style="fill:#FFFFFF;" d="M347.853,112.179c-0.115,2.979-0.354,5.983-0.716,9.004l-6.263,51.703
		c-6.872,56.707-39.563,107.06-88.575,136.418c-7.728,4.625-17.374,4.625-25.102,0c-24.502-14.675-44.929-34.609-60.09-57.95
		c-15.16-23.349-25.053-50.114-28.485-78.468l-6.263-51.703c-0.403-3.325-0.65-6.625-0.749-9.893
		C194.398,59.703,285.393,59.999,347.853,112.179z"/>
	<path style="fill:#45CE83;" d="M347.853,112.179c-62.46-52.18-153.454-52.477-216.244-0.889C129.774,51.061,178.185,0,239.747,0
		c30.214,0,57.258,12.296,76.756,31.95C336.923,52.526,349.054,81.167,347.853,112.179z"/>
	<g>
		<path style="fill:#4D4D4D;" d="M330.709,160c-15.507,2.467-28.45,9.467-37.378,18.742c-3.747-12.316-12.105-24.427-24.805-33.661
			C290.412,141.611,312.78,146.978,330.709,160z"/>
		<path style="fill:#4D4D4D;" d="M161.055,160c15.507,2.467,28.45,9.467,37.378,18.742c3.747-12.316,12.106-24.427,24.805-33.661
			C201.352,141.611,178.984,146.978,161.055,160z"/>
	</g>
	<path style="fill:#4D4D4D;" d="M247.918,247.381c-4.923,0-8.913,3.991-8.913,8.913c0-4.923-3.991-8.913-8.913-8.913
		c-4.923,0-8.913,3.991-8.913,8.913v2.976c0,9.845,7.981,17.827,17.827,17.827c9.845,0,17.827-7.981,17.827-17.827v-2.976
		C256.831,251.371,252.84,247.381,247.918,247.381z"/>
	<path style="fill:#4D4D4D;" d="M290.394,216.792L290.394,216.792c-4.236-4.236-4.236-11.103,0-15.339l7.67-7.67l7.67,7.67
		c4.236,4.236,4.236,11.103,0,15.339l0,0C301.498,221.027,294.63,221.027,290.394,216.792z"/>
	<g>
		<path style="fill:#4D4D4D;" d="M145.958,148.042c0,0-0.09-1.514,0.038-4.047c0.023-0.638,0.073-1.33,0.135-2.088
			c0.126-0.769,0.319-1.592,0.511-2.497c0.189-0.906,0.453-1.857,0.714-2.89c0.116-0.533,0.309-1.013,0.504-1.509
			c0.194-0.502,0.393-1.015,0.597-1.539c0.413-1.052,0.89-2.132,1.383-3.266c0.577-1.072,1.235-2.149,1.895-3.286
			c0.329-0.569,0.679-1.137,1.039-1.71c0.372-0.562,0.805-1.084,1.225-1.631c0.844-1.091,1.737-2.192,2.665-3.303
			c2.045-2.006,4.125-4.208,6.644-5.923c2.39-1.908,5.143-3.354,7.868-4.832c2.858-1.201,5.706-2.45,8.69-3.122
			c2.914-0.895,5.935-1.134,8.779-1.478c1.447-0.031,2.866-0.038,4.245-0.013c0.69,0.018,1.368,0.002,2.039,0.066
			c0.673,0.082,1.334,0.158,1.985,0.259c1.3,0.197,2.552,0.365,3.75,0.58c1.193,0.326,2.334,0.634,3.413,0.968
			c0.536,0.17,1.061,0.337,1.574,0.501c0.51,0.161,1.007,0.308,1.474,0.549c0.94,0.439,1.825,0.826,2.637,1.24
			c0.811,0.415,1.566,0.775,2.243,1.158c0.664,0.437,1.265,0.839,1.794,1.227c2.127,1.512,3.2,2.519,3.2,2.519
			s-1.548,0.231-4.009,0.385c-0.618,0.051-1.285,0.068-2.007,0.109c-0.739,0.115-1.517,0.185-2.343,0.29
			c-0.825,0.104-1.683,0.162-2.579,0.253c-0.892,0.062-1.838,0.282-2.8,0.425c-0.964,0.16-1.95,0.269-2.961,0.422
			c-1.013,0.243-2.046,0.438-3.096,0.664c-0.524,0.116-1.054,0.206-1.587,0.303c-0.531,0.121-1.063,0.294-1.6,0.431
			c-1.073,0.297-2.16,0.566-3.26,0.82c-2.152,0.791-4.402,1.309-6.566,2.25c-2.231,0.725-4.338,1.828-6.531,2.718
			c-2.068,1.152-4.252,2.097-6.216,3.38c-2.091,1.095-3.903,2.529-5.87,3.709c-0.889,0.697-1.78,1.377-2.683,2.028
			c-0.441,0.335-0.913,0.639-1.339,0.978c-0.406,0.357-0.813,0.709-1.231,1.047c-0.834,0.677-1.628,1.365-2.457,1.999
			c-0.752,0.692-1.451,1.397-2.183,2.046c-0.709,0.654-1.483,1.28-2.073,1.903c-0.618,0.617-1.187,1.231-1.781,1.795
			c-0.592,0.566-1.132,1.12-1.684,1.623c-0.497,0.571-0.94,1.109-1.373,1.576C147.083,147.026,145.958,148.042,145.958,148.042z"/>
	</g>
	<g>
		<path style="fill:#4D4D4D;" d="M334.755,148.042c0,0-1.126-1.016-2.811-2.911c-0.433-0.468-0.876-1.005-1.373-1.576
			c-0.552-0.503-1.092-1.056-1.684-1.623c-0.594-0.564-1.164-1.178-1.781-1.795c-0.59-0.623-1.364-1.249-2.073-1.903
			c-0.731-0.649-1.43-1.354-2.183-2.046c-0.828-0.635-1.623-1.322-2.457-1.999c-0.418-0.338-0.825-0.69-1.231-1.047
			c-0.426-0.339-0.898-0.643-1.339-0.978c-0.903-0.651-1.794-1.331-2.683-2.028c-1.968-1.18-3.779-2.613-5.87-3.709
			c-1.964-1.283-4.148-2.229-6.216-3.38c-2.194-0.89-4.301-1.993-6.531-2.718c-2.164-0.94-4.414-1.459-6.566-2.25
			c-1.1-0.254-2.187-0.523-3.26-0.82c-0.537-0.137-1.069-0.31-1.6-0.431c-0.533-0.096-1.062-0.187-1.587-0.303
			c-1.05-0.226-2.083-0.421-3.096-0.664c-1.01-0.154-1.997-0.263-2.961-0.422c-0.962-0.143-1.908-0.363-2.8-0.425
			c-0.896-0.091-1.754-0.149-2.579-0.253c-0.826-0.105-1.603-0.175-2.343-0.29c-0.722-0.041-1.389-0.057-2.007-0.109
			c-2.461-0.154-4.009-0.385-4.009-0.385s1.074-1.007,3.2-2.519c0.529-0.388,1.13-0.79,1.794-1.227
			c0.678-0.383,1.432-0.743,2.243-1.158c0.812-0.414,1.697-0.802,2.637-1.24c0.467-0.241,0.964-0.388,1.474-0.549
			c0.513-0.163,1.038-0.33,1.574-0.501c1.08-0.333,2.22-0.642,3.413-0.968c1.198-0.216,2.45-0.383,3.75-0.58
			c0.65-0.101,1.312-0.177,1.985-0.259c0.672-0.064,1.349-0.048,2.039-0.066c1.379-0.025,2.798-0.018,4.245,0.013
			c2.844,0.344,5.865,0.584,8.779,1.478c2.984,0.672,5.832,1.921,8.69,3.122c2.725,1.478,5.478,2.924,7.868,4.832
			c2.519,1.715,4.599,3.917,6.644,5.923c0.928,1.111,1.821,2.212,2.665,3.303c0.42,0.547,0.853,1.069,1.225,1.631
			c0.36,0.573,0.71,1.141,1.039,1.71c0.66,1.137,1.318,2.214,1.895,3.286c0.493,1.133,0.97,2.213,1.383,3.266
			c0.203,0.524,0.402,1.037,0.597,1.539c0.195,0.496,0.388,0.976,0.504,1.509c0.261,1.032,0.525,1.983,0.714,2.89
			c0.192,0.904,0.384,1.727,0.511,2.497c0.062,0.758,0.112,1.45,0.135,2.088C334.845,146.528,334.755,148.042,334.755,148.042z"/>
	</g>
</g>
<g>
</g>
<g>
</g>
<g>
</g>
<g>
</g>
<g>
</g>
<g>
</g>
<g>
</g>
<g>
</g>
<g>
</g>
<g>
</g>
<g>
</g>
<g>
</g>
<g>
</g>
<g>
</g>
<g>
</g>
</svg>
