<?xml version="1.0" encoding="iso-8859-1"?>
<!-- Generator: Adobe Illustrator 19.1.0, SVG Export Plug-In . SVG Version: 6.00 Build 0)  -->
<svg version="1.1" id="Capa_1" xmlns="http://www.w3.org/2000/svg" xmlns:xlink="http://www.w3.org/1999/xlink" x="0px" y="0px"
	 viewBox="0 0 460.328 460.328" style="enable-background:new 0 0 460.328 460.328;" xml:space="preserve">
<g>
	
		<rect x="236.606" y="226.33" transform="matrix(-0.8433 0.5374 -0.5374 -0.8433 744.2191 417.605)" style="fill:#45CE83;" width="149.26" height="181.911"/>
	<polygon style="fill:#F4E84A;" points="260.513,355.53 294.315,285.313 372.239,284.335 338.436,354.552 	"/>
	<path style="fill:#46B9CC;" d="M297.474,331.975c1.763,2.767,4.031,5.016,6.612,6.703c1.282,0.844,2.646,1.545,4.056,2.101
		c6.452,2.542,13.984,2.066,20.28-1.946c10.437-6.651,13.507-20.505,6.854-30.946c-2.071-3.25-4.839-5.784-7.983-7.535
		c-1.341-0.746-2.751-1.347-4.203-1.801c-6.09-1.912-12.951-1.219-18.757,2.481C293.892,307.684,290.823,321.538,297.474,331.975z"
		/>
	<path style="fill:#46B9CC;" d="M330.764,207.703l88.736-26.275l0,0c-17.718-49.598-51.125-92.066-95.157-120.964l0,0
		l-46.431,80.054L330.764,207.703z"/>
	<polygon style="fill:#F4E84A;" points="330.764,207.703 55.375,395.39 30.658,363.969 277.912,140.517 	"/>
	<polygon style="fill:#46B9CC;" points="9.438,415.805 55.375,395.39 30.658,363.969 0,403.807 	"/>
	<path style="fill:#FFFFFF;" d="M250.615,190.461c-1.229,0-2.452-0.5-3.34-1.483c-1.666-1.844-1.522-4.689,0.322-6.356l8.326-7.524
		c1.844-1.667,4.689-1.522,6.356,0.322c1.666,1.844,1.522,4.689-0.322,6.356l-8.326,7.524
		C252.77,190.078,251.691,190.461,250.615,190.461z"/>
	<path style="fill:#FFFFFF;" d="M117.731,310.553c-1.229,0-2.452-0.5-3.34-1.483c-1.666-1.844-1.522-4.689,0.322-6.355
		l118.44-107.038c1.844-1.667,4.689-1.523,6.355,0.321c1.667,1.844,1.523,4.689-0.321,6.355l-118.44,107.038
		C119.886,310.17,118.807,310.553,117.731,310.553z"/>
	<path style="fill:#FFFFFF;" d="M296.133,139.654c-0.766,0-1.542-0.196-2.253-0.608c-2.15-1.247-2.882-4-1.635-6.15l31.733-54.713
		c1.247-2.149,4-2.881,6.15-1.635s2.882,4,1.635,6.15l-31.733,54.713C299.195,138.85,297.685,139.654,296.133,139.654z"/>
	<g>
		<path style="fill:#F4E84A;" d="M395.171,105.506c-1.87,0-3.712-0.872-4.884-2.508c-1.929-2.694-1.308-6.442,1.387-8.371
			l23.458-16.79c2.693-1.929,6.442-1.309,8.371,1.387c1.929,2.694,1.308,6.442-1.387,8.371l-23.458,16.79
			C397.601,105.142,396.38,105.506,395.171,105.506z"/>
		<g>
			<path style="fill:#F4E84A;" d="M362.201,62.357c-1.297,0-2.603-0.419-3.702-1.282c-2.606-2.047-3.06-5.819-1.013-8.425
				l18.948-24.125c2.047-2.606,5.819-3.059,8.425-1.013c2.606,2.047,3.06,5.819,1.013,8.425l-18.948,24.125
				C365.74,61.569,363.979,62.357,362.201,62.357z"/>
			<path style="fill:#F4E84A;" d="M425.38,150.622c-2.477,0-4.795-1.545-5.662-4.015c-1.097-3.127,0.548-6.551,3.675-7.648
				l28.946-10.156c3.128-1.097,6.551,0.549,7.648,3.675c1.097,3.127-0.548,6.551-3.675,7.648l-28.946,10.156
				C426.709,150.512,426.039,150.622,425.38,150.622z"/>
		</g>
	</g>
</g>
<g>
</g>
<g>
</g>
<g>
</g>
<g>
</g>
<g>
</g>
<g>
</g>
<g>
</g>
<g>
</g>
<g>
</g>
<g>
</g>
<g>
</g>
<g>
</g>
<g>
</g>
<g>
</g>
<g>
</g>
</svg>
