<?xml version="1.0" encoding="iso-8859-1"?>
<!-- Generator: Adobe Illustrator 19.0.0, SVG Export Plug-In . SVG Version: 6.00 Build 0)  -->
<svg xmlns="http://www.w3.org/2000/svg" xmlns:xlink="http://www.w3.org/1999/xlink" version="1.1" id="Capa_1" x="0px" y="0px" viewBox="0 0 512 512" style="enable-background:new 0 0 512 512;" xml:space="preserve">
<circle style="fill:#F2F2F2;" cx="256" cy="256" r="256"/>
<path style="fill:#FFFFFF;" d="M465.589,403.037c-0.334,0.491-0.679,0.972-1.024,1.452c-6.52,9.132-13.625,17.826-21.264,26.018  c-1.463,1.578-2.947,3.124-4.451,4.66c-5.245,5.35-10.721,10.47-16.405,15.339c-6.228,5.339-12.727,10.386-19.456,15.109  c-25.924,18.213-55.38,31.744-87.134,39.351l-39.215,6.207c-6.802,0.543-13.688,0.825-20.637,0.825  c-26.122,0-51.336-3.908-75.076-11.191c-7.899-2.414-15.632-5.204-23.186-8.349c-19.801-8.234-38.348-18.892-55.265-31.587  c-0.909-0.679-1.808-1.369-2.706-2.048L44.714,111.427l-2.56-16.154c-2.247-14.158,7.408-27.449,21.567-29.696l25.851-4.096  l264.652-41.942l23.709-3.762c14.158-2.236,27.449,7.419,29.696,21.567l2.226,14.033L465.589,403.037z"/>
<g>
	
		<rect x="162.814" y="82.44" transform="matrix(0.9877 -0.1565 0.1565 0.9877 -10.2473 44.1333)" style="fill:#E6E6E6;" width="224.665" height="9.404"/>
	
		<rect x="177.077" y="172.481" transform="matrix(0.9877 -0.1565 0.1565 0.9877 -24.1626 47.4748)" style="fill:#E6E6E6;" width="224.665" height="9.404"/>
	
		<rect x="191.36" y="262.532" transform="matrix(0.9877 -0.1565 0.1565 0.9877 -38.0793 50.8195)" style="fill:#E6E6E6;" width="224.665" height="9.404"/>
	
		<rect x="205.614" y="352.571" transform="matrix(0.9877 -0.1565 0.1565 0.9877 -51.9945 54.1596)" style="fill:#E6E6E6;" width="224.665" height="9.404"/>
	<path style="fill:#E6E6E6;" d="M443.301,430.507c-1.463,1.578-2.947,3.124-4.451,4.66l-216.816,34.367l-1.473-9.289l221.884-35.171   L443.301,430.507z"/>
</g>
<g>
	<circle style="fill:#FF9500;" cx="113.55" cy="158.9" r="20.237"/>
	<path style="fill:#FF9500;" d="M118.134,187.791c-15.934,2.526-30.951-8.383-33.476-24.317s8.383-30.951,24.317-33.476   c15.934-2.526,30.951,8.383,33.476,24.317C144.976,170.248,134.067,185.267,118.134,187.791z M109.801,135.213   c-13.058,2.07-21.998,14.377-19.929,27.436s14.378,21.998,27.436,19.929s21.998-14.377,19.929-27.436   S122.859,133.143,109.801,135.213z"/>
</g>
<g>
	<circle style="fill:#1BADF8;" cx="127.82" cy="248.94" r="20.237"/>
	<path style="fill:#1BADF8;" d="M132.404,277.835c-15.934,2.526-30.951-8.383-33.476-24.317   c-2.526-15.934,8.383-30.951,24.317-33.476s30.951,8.383,33.476,24.317C159.247,260.292,148.338,275.31,132.404,277.835z    M124.071,225.256c-13.058,2.07-21.998,14.377-19.929,27.436s14.378,21.998,27.436,19.929c13.058-2.07,21.998-14.377,19.929-27.436   S137.129,223.187,124.071,225.256z"/>
</g>
<g>
	<circle style="fill:#63DA38;" cx="142.1" cy="338.99" r="20.237"/>
	<path style="fill:#63DA38;" d="M146.675,367.878c-15.934,2.526-30.951-8.383-33.476-24.317s8.383-30.951,24.317-33.476   c15.934-2.526,30.951,8.383,33.476,24.317C173.518,350.335,162.609,365.353,146.675,367.878z M138.342,315.3   c-13.058,2.07-21.998,14.377-19.929,27.436s14.378,21.998,27.436,19.929c13.058-2.07,21.998-14.377,19.929-27.436   C163.709,322.17,151.4,313.23,138.342,315.3z"/>
</g>
<g>
	<circle style="fill:#CB73E1;" cx="156.37" cy="429.02" r="20.237"/>
	<path style="fill:#CB73E1;" d="M160.947,457.922c-15.934,2.526-30.951-8.383-33.476-24.317   c-2.526-15.934,8.383-30.951,24.317-33.476s30.951,8.383,33.476,24.317C187.788,440.38,176.879,455.397,160.947,457.922z    M152.614,405.343c-13.058,2.07-21.998,14.377-19.929,27.436c2.07,13.058,14.378,21.998,27.436,19.929   c13.058-2.07,21.998-14.377,19.929-27.436C177.98,412.213,165.672,403.273,152.614,405.343z"/>
</g>
<g>
</g>
<g>
</g>
<g>
</g>
<g>
</g>
<g>
</g>
<g>
</g>
<g>
</g>
<g>
</g>
<g>
</g>
<g>
</g>
<g>
</g>
<g>
</g>
<g>
</g>
<g>
</g>
<g>
</g>
</svg>
