<?xml version="1.0" encoding="iso-8859-1"?>
<!-- Generator: Adobe Illustrator 19.0.0, SVG Export Plug-In . SVG Version: 6.00 Build 0)  -->
<svg xmlns="http://www.w3.org/2000/svg" xmlns:xlink="http://www.w3.org/1999/xlink" version="1.1" id="Capa_1" x="0px" y="0px" viewBox="0 0 512 512" style="enable-background:new 0 0 512 512;" xml:space="preserve">
<circle style="fill:#27E3E3;" cx="256" cy="256" r="256"/>
<path style="fill:#FFFFFF;" d="M495.233,164.665H16.775c11.734-30.72,29.226-58.608,51.148-82.327h376.162  c17.836,19.299,32.737,41.357,43.99,65.452C490.656,153.307,493.048,158.939,495.233,164.665z"/>
<g>
	<polygon style="fill:#343434;" points="241.382,82.334 159.05,82.334 100.881,164.666 183.213,164.666  "/>
	<polygon style="fill:#343434;" points="429.017,82.334 346.685,82.334 288.516,164.666 370.848,164.666  "/>
	<path style="fill:#343434;" d="M495.233,164.665h-19.08l11.922-16.875C490.656,153.307,493.048,158.939,495.233,164.665z"/>
</g>
<path style="fill:#FFFFFF;" d="M444.085,82.338H67.922c16.896-18.296,36.436-34.126,58.013-46.874  c19.623-11.609,40.929-20.658,63.467-26.708C210.634,3.041,232.964,0,256.004,0c11.567,0,22.956,0.763,34.116,2.257  c42.14,5.611,81.031,21.473,114.102,44.993h0.01C418.704,57.553,432.069,69.318,444.085,82.338z"/>
<g>
	<path style="fill:#343434;" d="M241.386,82.338h-82.338l-33.113-46.874c19.623-11.609,40.929-20.658,63.467-26.708L241.386,82.338z   "/>
	<path style="fill:#343434;" d="M429.017,82.338H346.69L290.119,2.257C332.26,7.868,371.151,23.73,404.222,47.25h0.01   L429.017,82.338z"/>
	<path style="fill:#343434;" d="M446.457,84.95H65.549c0.784-0.878,1.578-1.745,2.372-2.612c0.805-0.878,1.62-1.745,2.456-2.612   h371.262c0.815,0.867,1.63,1.735,2.445,2.612C444.879,83.205,445.673,84.072,446.457,84.95z"/>
</g>
<g>
</g>
<g>
</g>
<g>
</g>
<g>
</g>
<g>
</g>
<g>
</g>
<g>
</g>
<g>
</g>
<g>
</g>
<g>
</g>
<g>
</g>
<g>
</g>
<g>
</g>
<g>
</g>
<g>
</g>
</svg>
