<?xml version="1.0" encoding="iso-8859-1"?>
<!-- Generator: Adobe Illustrator 19.0.0, SVG Export Plug-In . SVG Version: 6.00 Build 0)  -->
<svg xmlns="http://www.w3.org/2000/svg" xmlns:xlink="http://www.w3.org/1999/xlink" version="1.1" id="Capa_1" x="0px" y="0px" viewBox="0 0 512 512" style="enable-background:new 0 0 512 512;" xml:space="preserve">
<circle cx="256" cy="256" r="256"/>
<path style="fill:#F0F0F0;" d="M508.283,299.686c-14.367,83.581-69.256,153.307-143.726,188.228  c-1.964,0.92-3.929,1.808-5.925,2.685c-1.599,2.048-4.106,3.051-7.346,3.072c-2.341,0.951-4.702,1.86-7.084,2.727  c-23.834,8.746-49.33,14.054-75.891,15.308c-1.473,0.073-2.936,0.125-4.42,0.167c-2.612,0.084-5.245,0.125-7.889,0.125  c-3.594,0-7.178-0.073-10.731-0.23c-1.473-0.052-2.947-0.125-4.42-0.219c-31.013-1.797-60.552-9.132-87.625-21.013  c-1.337-0.596-2.665-1.191-3.992-1.797C73.867,454.112,18.205,383.936,3.723,299.686C5.802,162.125,117.951,51.262,256.003,51.262  S506.204,162.125,508.283,299.686z"/>
<path d="M242.169,86.255c-0.857,0-1.264,0.47-1.661,1.003l-5.454,7.722c-0.47,0.397-1.003,1.39-1.003,1.996  c0,0.993,0.742,1.923,1.735,1.923c0.397,0,0.867-0.199,1.264-0.794l2.665-4.326v39.466c0,1.128,1.066,1.724,2.194,1.724  c1.066,0,2.194-0.596,2.194-1.724V87.917C244.102,86.861,243.109,86.255,242.169,86.255z"/>
<path d="M276.713,130.914h-21.232v-4.127c0-8.85,22.361-13.375,22.361-27.69c0-7.178-5.59-12.769-13.239-12.769  c-7.053,0-12.507,4.65-12.507,11.045c0,1.996,0.658,2.727,1.996,2.727c1.526,0,2.33-0.93,2.33-1.797  c0-5.256,3.459-7.858,8.046-7.858c6.123,0,8.986,4.598,8.986,8.788c0,11.651-22.497,16.509-22.497,27.554v6.457  c0,1.066,1.202,1.724,2.069,1.724h23.688c0.867,0,1.599-0.993,1.599-2.058S277.58,130.914,276.713,130.914z"/>
<path d="M354.338,111.218c-0.867,0-1.264,0.46-1.661,0.993l-5.465,7.722c-0.46,0.397-0.993,1.4-0.993,1.996  c0,1.003,0.731,1.933,1.724,1.933c0.408,0,0.867-0.199,1.264-0.794l2.664-4.326v39.455c0,1.139,1.066,1.735,2.194,1.735  c1.066,0,2.194-0.596,2.194-1.735V112.88C356.261,111.813,355.268,111.218,354.338,111.218z"/>
<path d="M441.159,227.055h-21.232v-4.127c0-8.85,22.361-13.375,22.361-27.69c0-7.189-5.59-12.779-13.239-12.779  c-7.053,0-12.518,4.66-12.518,11.055c0,1.996,0.669,2.727,2.006,2.727c1.526,0,2.32-0.93,2.32-1.797  c0-5.256,3.469-7.858,8.056-7.858c6.123,0,8.986,4.598,8.986,8.788c0,11.651-22.497,16.499-22.497,27.554v6.457  c0,1.055,1.202,1.724,2.069,1.724h23.688c0.867,0,1.599-0.993,1.599-2.058C442.758,227.985,442.026,227.055,441.159,227.055z"/>
<path d="M456.853,303.406c3.062-1.463,5.454-5.183,5.454-11.243c0-8.589-4.984-11.713-12.173-11.713  c-10.585,0-13.04,7.053-13.04,10.721c0,1.923,0.533,2.529,2.257,2.529c1.536,0,2.132-0.805,2.132-2.132  c0-2.863,1.526-7.126,8.516-7.126c5.59,0,8.056,2.8,8.056,8.589c0,6.583-2.999,8.516-8.317,8.516c-1.202,0-1.672,1.003-1.672,1.933  c0,0.93,0.47,1.86,1.735,1.86c5.726,0,9.446,2.727,9.446,8.85v1.264c0,6.855-3.385,9.989-9.582,9.989  c-7.314,0-9.383-4.535-9.383-7.387c0-1.139-0.533-1.87-2.257-1.87c-1.463,0-2.069,0.47-2.069,2.33  c0,4.932,4.326,10.982,13.782,10.982c7.722,0,13.908-3.856,13.908-14.043v-1.264C463.645,308.265,460.782,305.005,456.853,303.406z"/>
<path d="M437.899,411.751h-3.668V398.91c0-1.128-1.128-1.661-2.194-1.661c-1.128,0-2.194,0.533-2.194,1.661v12.842h-13.04  l15.37-30.344c0.136-0.334,0.199-0.596,0.199-0.867c0-1.066-1.264-1.797-2.132-1.797c-0.794,0-1.599,0.408-2.058,1.337  l-16.708,32.935c-0.199,0.334-0.261,0.731-0.261,1.139c0,0.993,0.596,1.797,1.724,1.797h16.906v9.718  c0,1.128,1.066,1.724,2.194,1.724c1.066,0,2.194-0.596,2.194-1.724v-9.718h3.668c0.993,0,1.661-1.066,1.661-2.132  C439.56,412.817,439.027,411.751,437.899,411.751z"/>
<path d="M351.193,468.73h-7.252l1.066-15.977h16.102c1.003,0,1.463-1.003,1.463-2.058c0-1.003-0.46-1.996-1.463-1.996h-18.631  c-0.867,0-1.264,0.658-1.4,1.661l-1.327,19.163c0,0.261-0.063,1.066-0.063,1.327c0,0.94,0.397,1.672,2.257,1.672h9.247  c5.862,0,9.383,3.187,9.383,9.843v1.264c0,3.02-0.679,5.329-1.943,6.969c1.996-0.878,3.96-1.766,5.925-2.685  c0.272-1.285,0.418-2.706,0.418-4.284v-1.264C364.976,472.387,358.988,468.73,351.193,468.73z M341.747,486.096  c0-1.128-0.669-1.86-2.267-1.86c-1.264,0-2.121,0.596-2.121,2.194c0,4.2,2.403,8.025,6.844,9.968  c2.382-0.867,4.744-1.776,7.084-2.727c-0.052,0.01-0.104,0.01-0.157,0.01C345.875,493.682,341.747,490.955,341.747,486.096z"/>
<path d="M255.188,494.539c-4.127,0-7.784,1.337-10.052,4.399V488.75c0-6.917,3.532-10.115,9.456-10.115  c5.183,0,9.446,2.926,9.446,7.523c0,1.327,1.129,1.797,2.33,1.797c1.264,0,2.058-0.533,2.058-1.996  c0-5.789-4.786-11.379-13.709-11.379c-7.91,0-13.97,3.856-13.97,14.169v20.637c0,0.752,0.031,1.473,0.104,2.163  c1.473,0.094,2.947,0.167,4.42,0.219c-0.094-0.679-0.136-1.411-0.136-2.184v-2.194c0-6.593,3.73-9.059,9.456-9.059  c5.925,0,9.446,2.664,9.446,9.655v1.599c0,0.815-0.052,1.578-0.146,2.288c1.484-0.042,2.947-0.094,4.42-0.167  c0.073-0.731,0.115-1.505,0.115-2.32v-1.599C268.427,497.673,262.576,494.539,255.188,494.539z"/>
<path d="M167.856,449.922H144.23c-0.993,0-1.996,0.867-1.996,1.672v10.041c0,0.94,1.003,1.672,2.194,1.672  c1.139,0,2.205-0.731,2.205-1.672v-7.649h18.892v3.594l-16.29,31.159c1.327,0.606,2.654,1.202,3.992,1.797l16.029-31.295  c0.397-0.596,0.669-1.4,0.669-1.933v-5.716C169.924,450.789,168.786,449.922,167.856,449.922z"/>
<path d="M92.006,401.762c3.521-1.463,5.851-4.723,5.851-10.449c0-8.777-5.319-11.64-12.507-11.64  c-7.126,0-12.518,2.863-12.518,11.64c0,5.726,2.403,8.986,5.925,10.449c-4.326,1.735-7.252,5.59-7.252,12.445v0.805  c0,9.916,6.06,13.709,13.845,13.709s13.845-3.793,13.845-13.709v-0.805C99.195,407.352,96.332,403.497,92.006,401.762z   M77.158,391.648c0-5.789,3.062-8.119,8.192-8.119c5.193,0,8.255,2.33,8.255,8.119c0,5.862-3.062,8.255-8.255,8.255  C80.22,399.902,77.158,397.509,77.158,391.648z M94.796,414.677c0,6.855-3.459,10.177-9.383,10.177s-9.519-3.26-9.519-10.177v-0.93  c0-6.855,3.594-9.916,9.456-9.916c5.925,0,9.446,3.062,9.446,9.916V414.677z"/>
<path d="M57.546,281.066c-7.784,0-13.772,3.856-13.772,14.179v1.599c0,10.177,5.851,13.302,13.239,13.302  c4.127,0,7.795-1.327,10.052-4.451v10.177c0,6.99-3.521,10.188-9.519,10.188c-5.183,0-9.446-2.936-9.446-7.523  c0-1.337-1.128-1.86-2.267-1.86c-1.264,0-2.058,0.596-2.058,2.058c0,5.789,4.723,11.379,13.709,11.379  c7.847,0,13.97-3.856,13.97-14.242v-20.626C71.453,284.922,65.33,281.066,57.546,281.066z M67.065,297.304  c0,6.593-3.73,9.049-9.446,9.049c-5.998,0-9.456-2.654-9.456-9.644v-1.599c0-6.99,3.459-10.188,9.383-10.188  s9.519,3.197,9.519,10.188V297.304z"/>
<path d="M74.546,182.396c-0.867,0-1.264,0.47-1.661,1.003l-5.454,7.711c-0.47,0.408-1.003,1.4-1.003,1.996  c0,1.003,0.731,1.933,1.735,1.933c0.397,0,0.857-0.199,1.264-0.794l2.654-4.326v39.466c0,1.128,1.066,1.724,2.205,1.724  c1.055,0,2.194-0.596,2.194-1.724v-45.328C76.479,182.992,75.476,182.396,74.546,182.396z"/>
<path d="M98.84,204.621c-1.463,0-2.466,1.003-2.466,2.403c0,1.327,1.003,2.456,2.466,2.456c1.327,0,2.393-1.128,2.393-2.456  C101.233,205.624,100.167,204.621,98.84,204.621z M98.84,204.621c-1.463,0-2.466,1.003-2.466,2.403c0,1.327,1.003,2.456,2.466,2.456  c1.327,0,2.393-1.128,2.393-2.456C101.233,205.624,100.167,204.621,98.84,204.621z M98.767,182.459  c-7.784,0-13.834,3.866-13.834,14.179v20.626c0,10.386,6.05,14.242,13.834,14.242c7.795,0,13.845-3.856,13.845-14.242v-20.626  C112.612,186.325,106.562,182.459,98.767,182.459z M108.223,217.265c0,6.99-3.532,10.188-9.456,10.188  c-5.914,0-9.446-3.197-9.446-10.188v-20.626c0-6.917,3.532-10.115,9.446-10.115c5.925,0,9.456,3.197,9.456,10.115V217.265z   M98.84,204.621c-1.463,0-2.466,1.003-2.466,2.403c0,1.327,1.003,2.456,2.466,2.456c1.327,0,2.393-1.128,2.393-2.456  C101.233,205.624,100.167,204.621,98.84,204.621z M98.84,204.621c-1.463,0-2.466,1.003-2.466,2.403c0,1.327,1.003,2.456,2.466,2.456  c1.327,0,2.393-1.128,2.393-2.456C101.233,205.624,100.167,204.621,98.84,204.621z M98.84,204.621c-1.463,0-2.466,1.003-2.466,2.403  c0,1.327,1.003,2.456,2.466,2.456c1.327,0,2.393-1.128,2.393-2.456C101.233,205.624,100.167,204.621,98.84,204.621z"/>
<path d="M155.891,111.218c-0.857,0-1.264,0.46-1.661,0.993l-5.454,7.722c-0.47,0.397-1.003,1.4-1.003,1.996  c0,1.003,0.731,1.933,1.735,1.933c0.397,0,0.867-0.199,1.264-0.794l2.664-4.326v39.455c0,1.139,1.066,1.735,2.194,1.735  c1.066,0,2.194-0.596,2.194-1.735V112.88C157.825,111.813,156.832,111.218,155.891,111.218z"/>
<path d="M174.731,111.218c-0.867,0-1.264,0.46-1.661,0.993l-5.465,7.722c-0.46,0.397-0.993,1.4-0.993,1.996  c0,1.003,0.731,1.933,1.724,1.933c0.408,0,0.867-0.199,1.275-0.794l2.654-4.326v39.455c0,1.139,1.066,1.735,2.194,1.735  c1.066,0,2.205-0.596,2.205-1.735V112.88C176.664,111.813,175.661,111.218,174.731,111.218z"/>
<path d="M255.855,309.751l-84.149-58.649c-2.334-1.627-2.907-4.837-1.281-7.171c1.627-2.335,4.838-2.908,7.171-1.28l78.549,54.745  l140.087-88.158c2.407-1.514,5.587-0.792,7.102,1.616c1.515,2.407,0.792,5.587-1.615,7.103L255.855,309.751z"/>
<circle cx="256" cy="303.57" r="16.639"/>
<path style="fill:#C61218;" d="M256,441.619L256,441.619c-1.422,0-2.576-1.153-2.576-2.576V306.149c0-1.422,1.154-2.576,2.576-2.576  l0,0c1.422,0,2.576,1.154,2.576,2.576v132.894C258.576,440.466,257.423,441.619,256,441.619z"/>
<g>
</g>
<g>
</g>
<g>
</g>
<g>
</g>
<g>
</g>
<g>
</g>
<g>
</g>
<g>
</g>
<g>
</g>
<g>
</g>
<g>
</g>
<g>
</g>
<g>
</g>
<g>
</g>
<g>
</g>
</svg>
