<?xml version="1.0" encoding="iso-8859-1"?>
<!-- Generator: Adobe Illustrator 19.0.0, SVG Export Plug-In . SVG Version: 6.00 Build 0)  -->
<svg xmlns="http://www.w3.org/2000/svg" xmlns:xlink="http://www.w3.org/1999/xlink" version="1.1" id="Capa_1" x="0px" y="0px" viewBox="0 0 512 512" style="enable-background:new 0 0 512 512;" xml:space="preserve">
<path style="fill:#F2F2F2;" d="M512,256c0,45.087-11.651,87.458-32.12,124.249c-20.47,36.812-49.768,68.054-85.023,90.854  C354.858,496.985,307.19,512,256,512s-98.858-15.015-138.856-40.897c-35.265-22.81-64.564-54.053-85.034-90.875  C11.651,343.437,0,301.077,0,256s11.651-87.437,32.11-124.228C56.592,87.74,93.686,51.691,138.512,28.494  C173.693,10.282,213.65,0,256,0s82.307,10.282,117.488,28.494c44.816,23.186,81.91,59.235,106.392,103.257  C500.349,168.542,512,210.913,512,256z"/>
<path style="fill:#FE533A;" d="M479.885,131.751v248.498c-20.47,36.812-49.768,68.054-85.023,90.854H117.149  c-35.265-22.81-64.564-54.053-85.034-90.875V131.772C32.23,74.7,78.519,28.494,135.602,28.494h240.807  C433.492,28.494,479.76,74.689,479.885,131.751z"/>
<path style="fill:#3DA3D3;" d="M479.885,139.557v240.692c-20.47,36.812-49.768,68.054-85.023,90.854H117.149  c-35.265-22.81-64.564-54.053-85.034-90.875V139.557h339.947c3.062,0,5.736,2.079,6.531,5.036  c2.215,8.286,9.77,14.388,18.756,14.388c8.986,0,16.541-6.102,18.756-14.388c0.794-2.957,3.469-5.036,6.531-5.036H479.885z"/>
<path style="fill:#34CB26;" d="M479.885,249.281v130.968c-20.47,36.812-49.768,68.054-85.023,90.854H117.149  c-35.265-22.81-64.564-54.053-85.034-90.875V249.281h174.32c4.859,0,9.174,3.344,10.146,8.108  c3.751,18.338,19.968,32.131,39.424,32.131c19.446,0,35.662-13.793,39.424-32.131c0.961-4.765,5.277-8.108,10.136-8.108H479.885  L479.885,249.281z"/>
<path style="fill:#FFA107;" d="M479.885,361.744v18.505c-20.47,36.812-49.768,68.054-85.023,90.854  C354.863,496.985,307.195,512,256.005,512s-98.858-15.015-138.857-40.897c-35.265-22.81-64.564-54.053-85.034-90.875v-18.484h8.767  c0,5.663,4.598,10.261,10.271,10.261c5.663,0,10.25-4.598,10.25-10.261h8.589c0,5.663,4.587,10.261,10.25,10.261  c5.674,0,10.271-4.598,10.271-10.261h8.568c0,5.663,4.608,10.261,10.271,10.261s10.25-4.598,10.25-10.261h8.589  c0,5.663,4.587,10.261,10.25,10.261c5.674,0,10.271-4.598,10.271-10.261h8.568c0,5.663,4.608,10.261,10.271,10.261  s10.261-4.598,10.261-10.261h8.579c0,5.663,4.587,10.261,10.261,10.261c5.663,0,10.261-4.598,10.261-10.261h8.579  c0,5.663,4.598,10.261,10.261,10.261c5.674,0,10.261-4.598,10.261-10.261h8.579c0,5.663,4.598,10.261,10.261,10.261  s10.271-4.598,10.271-10.261h8.568c0,5.663,4.587,10.261,10.271,10.261c5.663,0,10.25-4.598,10.25-10.261h8.589  c0,5.663,4.587,10.261,10.25,10.261c5.674,0,10.261-4.598,10.261-10.261h8.579c0,5.663,4.598,10.261,10.261,10.261  c5.674,0,10.261-4.598,10.261-10.261h8.579c0,5.663,4.598,10.261,10.261,10.261c5.674,0,10.261-4.598,10.261-10.261h8.579  c0,5.663,4.598,10.261,10.261,10.261s10.271-4.598,10.271-10.261h8.568c0,5.663,4.598,10.261,10.271,10.261  c5.663,0,10.25-4.598,10.25-10.261h8.589c0,5.663,4.587,10.261,10.25,10.261c5.674,0,10.271-4.598,10.271-10.261H479.885z"/>
<g>
	<path style="fill:#FFFFFF;" d="M144.954,66.669H95.362c-4.539,0-8.219,3.679-8.219,8.219h66.03   C153.173,70.348,149.494,66.669,144.954,66.669z"/>
	<path style="fill:#FFFFFF;" d="M87.142,85.24v17.23c0,4.539,3.68,8.218,8.219,8.218h49.593c4.539,0,8.219-3.679,8.219-8.218V85.24   H87.142z"/>
	<path style="fill:#FFFFFF;" d="M101.87,225.704l8.028,1.337l24.752-25.42h19.461c3.32,0,6.283-2.426,6.599-5.731   c0.362-3.791-2.609-6.98-6.326-6.98h-19.735l-24.752-25.42l-8.028,1.337l12.71,24.083H96.066l-5.843-5.736l-3.739,1.568v4.168   v12.71v4.168l3.739,1.568l5.843-5.736h18.515L101.87,225.704z"/>
	<path style="fill:#FFFFFF;" d="M125.899,304.655h-34.18c-2.147,0-3.888,1.741-3.888,3.888v18.36c0,2.147,1.741,3.888,3.888,3.888   h34.18c2.147,0,3.888-1.741,3.888-3.888v-18.36C129.787,306.395,128.046,304.655,125.899,304.655z"/>
	<polygon style="fill:#FFFFFF;" points="135.289,307.294 153.173,297.776 153.173,335.606 135.289,326.088  "/>
	<path style="fill:#FFFFFF;" d="M124.975,272.666c-7.398,0-13.416,6.019-13.416,13.416s6.019,13.416,13.416,13.416   c7.398,0,13.406-6.019,13.406-13.416S132.373,272.666,124.975,272.666z M124.975,293.303c-3.981,0-7.22-3.239-7.22-7.22   s3.239-7.22,7.22-7.22c3.981,0,7.22,3.239,7.22,7.22S128.956,293.303,124.975,293.303z"/>
	<path style="fill:#FFFFFF;" d="M95.195,272.666c-7.387,0-13.406,6.019-13.406,13.416s6.019,13.416,13.406,13.416   c7.398,0,13.416-6.019,13.416-13.416S102.593,272.666,95.195,272.666z M95.195,293.303c-3.981,0-7.22-3.239-7.22-7.22   s3.239-7.22,7.22-7.22c3.992,0,7.231,3.239,7.231,7.22S99.187,293.303,95.195,293.303z"/>
	<path style="fill:#FFFFFF;" d="M89.898,396.821v0.073c-6.75,0.69-12.037,6.405-12.037,13.343c0,7.387,6.008,13.406,13.406,13.406   c3.438,0,6.572-1.306,8.944-3.448c5.632,5.141,13.113,8.265,21.326,8.265c17.471,0,31.64-14.169,31.64-31.64H89.898V396.821z    M91.267,417.458c-3.981,0-7.22-3.239-7.22-7.22c0-3.73,2.842-6.802,6.468-7.189c0.92,4.639,2.853,8.902,5.559,12.56   C94.798,416.758,93.116,417.458,91.267,417.458z"/>
	<rect x="100.22" y="433.97" style="fill:#FFFFFF;" width="45.4" height="7.566"/>
</g>
<g>
</g>
<g>
</g>
<g>
</g>
<g>
</g>
<g>
</g>
<g>
</g>
<g>
</g>
<g>
</g>
<g>
</g>
<g>
</g>
<g>
</g>
<g>
</g>
<g>
</g>
<g>
</g>
<g>
</g>
</svg>
