<?xml version="1.0" encoding="iso-8859-1"?>
<!-- Generator: Adobe Illustrator 19.0.0, SVG Export Plug-In . SVG Version: 6.00 Build 0)  -->
<svg xmlns="http://www.w3.org/2000/svg" xmlns:xlink="http://www.w3.org/1999/xlink" version="1.1" id="Capa_1" x="0px" y="0px" viewBox="0 0 512 512" style="enable-background:new 0 0 512 512;" xml:space="preserve">
<circle style="fill:#F2F2F2;" cx="256" cy="256" r="256"/>
<path style="fill:#DCE0DF;" d="M312.06,38.35v385.753H62.927C46.052,404.752,32.05,382.83,21.57,358.996V38.35H312.06z"/>
<path d="M129.81,58.151c-1.317,0-2.644,0.564-2.644,1.818V92.12l-15.663-30.636c-1.128-2.205-2.142-3.333-4.023-3.333  c-1.39,0-2.644,0.502-2.644,1.818v42.276c0,1.254,1.317,1.891,2.644,1.891c1.317,0,2.644-0.637,2.644-1.891V70.094l16.353,31.65  c0.752,1.379,1.891,2.393,3.333,2.393c1.317,0,2.644-0.637,2.644-1.891V59.969C132.454,58.715,131.127,58.151,129.81,58.151z"/>
<path d="M161.251,97.784c-1.567,0-2.884,2.445-7.607,2.445c-5.224,0-8.934-2.957-8.934-7.607v-1.891h13.782  c2.832,0,5.59-0.188,5.59-5.224c0-6.729-5.653-11.567-12.069-11.567c-6.928,0-12.528,5.464-12.528,11.891v6.604  c0,7.293,5.789,12.204,13.97,12.204c6.102,0,9.937-2.832,9.937-4.472C163.393,99.226,162.515,97.784,161.251,97.784z M144.71,84.942  c0-3.835,3.271-6.854,7.231-6.854c4.159,0,7.178,3.396,7.178,7.105c0,1.64-0.564,2.017-2.769,2.017h-11.64V84.942z"/>
<path d="M204.53,74.19c-0.752,0-1.442,0.376-1.63,1.003l-7.68,21.326l-5.789-19.247c-0.313-0.951-1.066-1.264-2.006-1.264  c-0.888,0-1.64,0.313-1.954,1.264l-5.914,19.059l-7.617-21.138c-0.251-0.69-0.94-1.003-1.693-1.003c-1.39,0-3.208,0.94-3.208,2.267  c0,0.251,0.125,0.627,0.251,1.003l9.749,25.913c0.376,1.014,1.128,1.327,2.142,1.327c1.066,0,1.943-0.439,2.267-1.327l5.977-18.307  l6.102,18.495c0.313,0.763,1.066,1.139,2.132,1.139c0.951,0,1.766-0.313,2.079-1.139l9.812-26.101  c0.125-0.251,0.251-0.69,0.251-1.003C207.801,75.068,205.857,74.19,204.53,74.19z"/>
<path d="M215.909,82.559c0-1.891,1.505-4.409,5.726-4.409c3.647,0,5.601,1.829,6.729,1.829c1.254,0,2.079-1.829,2.079-2.644  c0-1.766-4.472-3.396-8.871-3.396c-7.555,0-10.324,4.65-10.324,8.808c0,10.438,15.349,6.102,15.349,13.709  c0,2.017-1.442,3.96-5.966,3.96c-5.538,0-6.865-2.957-8.307-2.957c-1.076,0-1.829,1.452-1.829,2.393  c0,2.142,4.284,4.786,10.324,4.786c6.729,0,10.501-3.271,10.501-8.432C231.321,84.816,215.909,88.975,215.909,82.559z"/>
<path style="fill:#FFDB00;" d="M167.405,175.952v276.374H91.713c-10.324-8.631-19.947-18.077-28.787-28.223  C46.052,404.752,32.05,382.83,21.57,358.996c-0.282-0.637-0.564-1.285-0.846-1.933c-13.333-31.002-20.72-65.17-20.72-101.062  c0-27.951,4.483-54.867,12.769-80.049L167.405,175.952L167.405,175.952z"/>
<polygon style="fill:#FFFFFF;" points="132.784,320.237 97.428,392.346 168.14,392.346 "/>
<rect x="136.82" y="123.03" style="fill:#34BEE8;" width="226.99" height="329.29"/>
<polygon style="fill:#93DBF1;" points="365.874,377.803 363.81,399.097 358.659,452.32 136.821,452.32 136.821,377.803   242.969,274.443 259.728,274.443 363.81,375.793 "/>
<path style="fill:#4CCA61;" d="M512,205.345v50.656c0,44.387-11.295,86.13-31.169,122.524c-0.648,1.181-1.306,2.361-1.975,3.532  c-0.846,1.505-1.714,3.009-2.602,4.493c-0.742,1.264-1.505,2.518-2.278,3.762c-4.315,7.001-8.965,13.772-13.928,20.302  c-0.888,1.181-1.808,2.361-2.717,3.532c-10.992,13.97-23.406,26.76-37.021,38.17H312.07V205.345H512L512,205.345z"/>
<path style="fill:#FF5640;" d="M81.546,357.063v67.04h-18.62C46.052,404.752,32.05,382.83,21.57,358.996  c-0.282-0.637-0.564-1.285-0.846-1.933H81.546z"/>
<circle style="fill:#01C1F5;" cx="86.26" cy="305.32" r="34.11"/>
<path style="fill:#F2ED00;" d="M454.452,319.181c0,9.667-3.44,18.542-9.173,25.439c-1.482,1.817-3.158,3.511-4.957,5.01  c-6.951,5.928-15.965,9.474-25.791,9.474s-18.84-3.546-25.791-9.474c-1.799-1.499-3.475-3.193-4.957-5.01  c-5.733-6.897-9.173-15.772-9.173-25.439c0-9.367,3.211-17.976,8.644-24.786c1.446-1.853,3.07-3.563,4.834-5.116  c7.038-6.245,16.3-10.038,26.444-10.038s19.406,3.794,26.444,10.038c1.764,1.553,3.388,3.263,4.834,5.116  C451.241,301.205,454.452,309.814,454.452,319.181z"/>
<g>
	<path style="fill:#FFFFCF;" d="M445.807,294.396c-8.132,8.468-19.511,13.337-31.278,13.337s-23.145-4.869-31.278-13.337   c1.446-1.853,3.07-3.563,4.834-5.116l0.036,0.036c6.827,7.215,16.459,11.361,26.409,11.361c9.949,0,19.581-4.146,26.409-11.361   l0.036-0.036C442.737,290.833,444.36,292.543,445.807,294.396z"/>
	<path style="fill:#FFFFCF;" d="M445.277,344.62c-1.482,1.817-3.158,3.511-4.957,5.01c-6.881-6.898-16.018-10.709-25.791-10.709   s-18.911,3.811-25.791,10.709c-1.799-1.499-3.475-3.193-4.957-5.01c8.203-8.22,19.123-12.755,30.749-12.755   C426.155,331.865,437.075,336.4,445.277,344.62z"/>
</g>
<g>
	<path style="fill:#FFFFFF;" d="M480.831,378.525H324.139l-12.068,20.344v6.917l14.075-23.729h23.5l-28.682,70.259h3.803l15.6-38.17   h69.893v38.17h3.532v-38.17h43.541c0.909-1.17,1.829-2.351,2.717-3.532H341.8l11.661-28.557h117.153l3.365,8.255   c0.773-1.243,1.536-2.497,2.278-3.762l-1.829-4.493h4.43C479.525,380.886,480.183,379.706,480.831,378.525z"/>
	<path style="fill:#FFFFFF;" d="M291.482,317.664l1.764-10.585l-33.518-32.636v-25.66c0-4.376-3.199-8.285-7.557-8.7   c-4.998-0.476-9.202,3.441-9.202,8.34v26.021l-33.518,32.636l1.764,10.585l31.754-16.759v24.413l-7.564,7.705l2.068,4.929h5.496   h16.759h5.496l2.068-4.929l-7.564-7.705v-24.413L291.482,317.664z"/>
</g>
<g>
	<rect x="36.566" y="130.66" style="fill:#C2C6C5;" width="100.26" height="5.292"/>
	<rect x="36.566" y="143.31" style="fill:#C2C6C5;" width="100.26" height="5.292"/>
	<rect x="36.566" y="155.95" style="fill:#C2C6C5;" width="100.26" height="5.292"/>
</g>
<g>
	<path style="fill:#FFFFFF;" d="M344.88,233.87c0-3.657,2.947-4.932,6.447-4.932c4.127,0,5.496,1.797,6.593,1.797   c1.087,0,1.703-1.421,1.703-2.173c0-2.132-4.932-3.135-8.296-3.135c-4.692,0-10.428,1.85-10.428,8.819   c0,11.515,15.6,7.199,15.6,16.729c0,3.929-2.612,5.872-6.593,5.872c-5.59,0-6.677-3.835-8.098-3.835   c-0.909,0-1.755,1.233-1.755,2.184c0,2.038,3.929,5.35,10.041,5.35c6.019,0,10.386-3.176,10.386-9.947   C360.48,237.704,344.88,241.874,344.88,233.87z"/>
	<path style="fill:#FFFFFF;" d="M376.206,225.522h-8.955c-0.993,0-1.609,0.669-1.609,1.379v31.848c0,0.94,0.993,1.421,1.985,1.421   s1.996-0.481,1.996-1.421v-12.277h6.395c5.736,0,10.24-2.842,10.24-10.282v-0.428C386.258,228.27,381.796,225.522,376.206,225.522z    M382.277,236.43c0,4.545-2.372,6.729-6.259,6.729h-6.395v-14.033h6.395c3.887,0,6.259,2.132,6.259,6.729V236.43z"/>
	<path style="fill:#FFFFFF;" d="M400.844,225.522c-5.736,0-10.188,2.8-10.188,10.334v14.263c0,7.534,4.451,10.334,10.188,10.334   c5.736,0,10.24-2.8,10.24-10.334v-14.263C411.084,228.322,406.581,225.522,400.844,225.522z M407.103,250.118   c0,4.598-2.372,6.729-6.259,6.729s-6.207-2.132-6.207-6.729v-14.263c0-4.598,2.32-6.729,6.207-6.729s6.259,2.132,6.259,6.729   V250.118z"/>
	<path style="fill:#FFFFFF;" d="M438.043,257.557l-7.011-13.312c3.981-0.805,7.053-3.459,7.053-9.247   c0-7.199-4.786-9.477-10.512-9.477H418.9c-0.857,0.052-1.431,0.669-1.431,1.379v31.848c0,0.94,1.003,1.421,1.996,1.421   s1.985-0.481,1.985-1.421v-13.939h5.454l7.158,13.887c0.428,0.805,0.993,1.567,1.797,1.567c1.139,0,2.372-0.993,2.372-2.038   C438.231,258.039,438.189,257.798,438.043,257.557z M421.45,241.498v-12.372h6.123c3.929,0,6.531,1.703,6.531,6.165   c0,4.503-2.602,6.207-6.531,6.207H421.45z"/>
	<path style="fill:#FFFFFF;" d="M460.779,225.522H441.49c-0.94,0-1.421,0.951-1.421,1.808c0,0.993,0.522,1.891,1.421,1.891h7.68   v29.529c0,0.94,1.003,1.421,1.996,1.421s1.985-0.481,1.985-1.421v-29.53h7.628c0.951,0,1.432-0.951,1.432-1.891   C462.211,226.431,461.73,225.522,460.779,225.522z"/>
	<path style="fill:#FFFFFF;" d="M468.982,233.87c0-3.657,2.936-4.932,6.447-4.932c4.117,0,5.496,1.797,6.583,1.797   s1.703-1.421,1.703-2.173c0-2.132-4.921-3.135-8.286-3.135c-4.692,0-10.428,1.85-10.428,8.819c0,11.515,15.59,7.199,15.59,16.729   c0,3.929-2.602,5.872-6.593,5.872c-5.59,0-6.677-3.835-8.098-3.835c-0.899,0-1.755,1.233-1.755,2.184   c0,2.038,3.939,5.35,10.052,5.35c6.019,0,10.376-3.176,10.376-9.947C484.572,237.704,468.982,241.874,468.982,233.87z"/>
</g>
<g>
	<path style="fill:#3F43A3;" d="M178.648,155.263h-22.841c-1.118,0-1.682,1.128-1.682,2.142c0,1.17,0.616,2.236,1.682,2.236h9.091   v34.973c0,1.118,1.181,1.682,2.361,1.682c0.052,0,0.094,0,0.146-0.01c1.128-0.042,2.205-0.596,2.205-1.672v-34.973h9.038   c1.128,0,1.682-1.118,1.682-2.236C180.331,156.329,179.777,155.263,178.648,155.263z"/>
	<path style="fill:#3F43A3;" d="M213.673,193.203l-8.307-15.767c4.712-0.951,8.359-4.096,8.359-10.94   c0-8.537-5.663-11.233-12.455-11.233h-10.271c-1.014,0.063-1.682,0.794-1.682,1.63v37.721c0,1.118,1.17,1.682,2.351,1.682   s2.361-0.564,2.361-1.682v-16.499h6.457l8.474,16.436c0.502,0.961,1.17,1.86,2.132,1.86c1.348,0,2.8-1.181,2.8-2.414   C213.892,193.767,213.84,193.485,213.673,193.203z M194.029,174.186v-14.649h7.241c4.66,0,7.743,2.017,7.743,7.293   c0,5.329-3.082,7.356-7.743,7.356H194.029L194.029,174.186z"/>
	<path style="fill:#3F43A3;" d="M249.816,193.881l-11.452-37.324c-0.334-1.066-1.63-1.63-2.915-1.63   c-1.296,0-2.581,0.512-2.926,1.63l-11.442,37.324c-0.063,0.167-0.115,0.282-0.115,0.449c0,1.181,1.63,1.964,2.863,1.964   c0.836,0,1.515-0.334,1.735-1.066l2.476-8.359h14.754l2.476,8.359c0.219,0.731,0.899,1.066,1.682,1.066   c1.348,0,2.915-0.899,2.915-2.017C249.868,194.164,249.816,194.049,249.816,193.881z M229.106,182.994l6.342-21.107l6.228,21.107   H229.106z"/>
	<path style="fill:#3F43A3;" d="M279.836,155.263c-0.784,0-1.4,0.345-1.682,1.066l-9.822,33.342l-9.874-33.342   c-0.23-0.721-0.899-1.066-1.745-1.066c-1.233,0-2.863,0.794-2.863,1.975c0,0.167,0.063,0.272,0.115,0.439L265.468,195   c0.345,1.128,1.578,1.63,2.863,1.63c1.348,0,2.581-0.554,2.978-1.63l11.389-37.324c0-0.167,0.063-0.272,0.063-0.387   C282.761,156.162,281.183,155.263,279.836,155.263z"/>
	<path style="fill:#3F43A3;" d="M314.014,192.032h-17.397v-14.315h8.756c1.128,0,1.63-1.014,1.63-1.912   c0-1.066-0.616-2.017-1.63-2.017h-8.756v-14.252h17.397c1.014,0,1.63-1.014,1.63-2.194c0-1.014-0.502-2.079-1.63-2.079h-19.978   c-1.066,0-2.132,0.564-2.132,1.693v37.658c0,1.118,1.066,1.682,2.132,1.682h19.978c1.128,0,1.63-1.066,1.63-2.079   C315.644,193.035,315.028,192.032,314.014,192.032z"/>
	<path style="fill:#3F43A3;" d="M344.995,192.032h-15.318v-35.14c0-1.118-1.181-1.63-2.361-1.63c-1.181,0-2.351,0.512-2.351,1.63   v37.721c0,1.118,1.066,1.682,2.132,1.682h17.899c1.014,0,1.515-1.066,1.515-2.132S346.009,192.032,344.995,192.032z"/>
</g>
<g>
	<path style="fill:#000028;" d="M60.858,246.67l-12.831-41.827c-0.376-1.202-1.829-1.829-3.271-1.829   c-1.452,0-2.894,0.564-3.281,1.829L28.644,246.67c-0.063,0.188-0.125,0.313-0.125,0.502c0,1.327,1.829,2.205,3.208,2.205   c0.951,0,1.703-0.376,1.954-1.191l2.769-9.373h16.54l2.769,9.373c0.251,0.815,1.014,1.191,1.891,1.191   c1.505,0,3.271-1.003,3.271-2.267C60.92,246.984,60.858,246.858,60.858,246.67z M37.64,234.466l7.116-23.646l6.98,23.646H37.64z"/>
	<path style="fill:#000028;" d="M93.813,245.918l-9.31-17.68c5.287-1.066,9.373-4.587,9.373-12.267c0-9.561-6.353-12.58-13.97-12.58   H68.402c-1.139,0.063-1.891,0.878-1.891,1.829v42.276c0,1.254,1.317,1.881,2.644,1.881c1.317,0,2.644-0.627,2.644-1.881v-18.505   h7.231l9.498,18.432c0.564,1.076,1.327,2.079,2.393,2.079c1.505,0,3.145-1.317,3.145-2.706   C94.064,246.545,94.002,246.231,93.813,245.918z M71.798,224.592v-16.415h8.108c5.224,0,8.683,2.257,8.683,8.171   c0,5.977-3.459,8.244-8.683,8.244L71.798,224.592L71.798,224.592z"/>
	<path style="fill:#000028;" d="M124,203.391H98.4c-1.264,0-1.891,1.254-1.891,2.393c0,1.317,0.69,2.518,1.891,2.518h10.188v39.194   c0,1.254,1.327,1.881,2.644,1.881s2.644-0.627,2.644-1.881v-39.194H124c1.264,0,1.891-1.264,1.891-2.518   C125.892,204.582,125.265,203.391,124,203.391z"/>
</g>
<g>
</g>
<g>
</g>
<g>
</g>
<g>
</g>
<g>
</g>
<g>
</g>
<g>
</g>
<g>
</g>
<g>
</g>
<g>
</g>
<g>
</g>
<g>
</g>
<g>
</g>
<g>
</g>
<g>
</g>
</svg>
