<?xml version="1.0" encoding="iso-8859-1"?>
<!-- Generator: Adobe Illustrator 19.0.0, SVG Export Plug-In . SVG Version: 6.00 Build 0)  -->
<svg xmlns="http://www.w3.org/2000/svg" xmlns:xlink="http://www.w3.org/1999/xlink" version="1.1" id="Capa_1" x="0px" y="0px" viewBox="0 0 512 512" style="enable-background:new 0 0 512 512;" xml:space="preserve">
<circle style="fill:#30DD4F;" cx="256" cy="256" r="256"/>
<path style="fill:#F2F2F2;" d="M469.1,397.917c-22.382,33.541-52.464,61.492-87.73,81.335  c-62.84-9.059-145.398-55.745-219.136-129.484S41.81,193.483,32.75,130.643c-1.317-9.049-1.839-17.69-1.557-25.84  c0.512-14.576,6.332-28.473,16.165-39.246c12.601-13.814,30.668-28.306,54.251-34.429c0.01,0,0.021-0.01,0.031,0  c0.219,0.188,5.13,4.451,12.445,11.776c20.25,20.313,58.901,64.167,66.936,110.059c0.773,4.451-0.491,9.017-3.427,12.466  l-17.115,20.031c-13.113,15.339-12.56,38.087,1.285,52.767l54.366,57.637l57.647,54.376c14.681,13.845,37.428,14.399,52.767,1.296  l20.031-17.126c3.438-2.936,8.014-4.2,12.466-3.427C404.932,339.016,448.787,377.667,469.1,397.917z"/>
<g>
</g>
<g>
</g>
<g>
</g>
<g>
</g>
<g>
</g>
<g>
</g>
<g>
</g>
<g>
</g>
<g>
</g>
<g>
</g>
<g>
</g>
<g>
</g>
<g>
</g>
<g>
</g>
<g>
</g>
</svg>
