<?xml version="1.0" encoding="iso-8859-1"?>
<!-- Generator: Adobe Illustrator 19.0.0, SVG Export Plug-In . SVG Version: 6.00 Build 0)  -->
<svg xmlns="http://www.w3.org/2000/svg" xmlns:xlink="http://www.w3.org/1999/xlink" version="1.1" id="Capa_1" x="0px" y="0px" viewBox="0 0 512 512" style="enable-background:new 0 0 512 512;" xml:space="preserve">
<circle style="fill:#FFC11B;" cx="256" cy="256" r="253.57"/>
<g>
	<circle style="fill:#F2F2F2;" cx="141.68" cy="68.38" r="46.39"/>
	<circle style="fill:#F2F2F2;" cx="370.32" cy="68.38" r="46.39"/>
	<path style="fill:#F2F2F2;" d="M512,156.19c0,9.822-6.096,18.216-14.718,21.59c-2.619,1.035-5.485,1.604-8.477,1.604h-41.689   c-12.648,0-22.904,10.257-22.904,22.904v46.678l36.318,156.956c-12.968,17.678-28.183,33.606-45.219,47.372l-34.362-148.449   c-2.608-11.271-18.651-11.271-21.259,0l-35.614,153.903c-2.919,12.596-14.138,21.197-26.641,21.197   c-1.646,0-3.322-0.145-4.999-0.455c-15.339-2.826-25.212-17.885-21.693-33.089l45.695-197.435v-46.678   c0-12.648-10.257-22.904-22.915-22.904h-75.047c-12.648,0-22.904,10.257-22.904,22.904v46.678l45.695,197.435   c0.476,2.08,0.704,4.15,0.704,6.189c0,12.896-9.16,24.457-22.408,26.899c-14.397,2.66-28.328-6.479-31.629-20.741L152.31,304.845   c-2.608-11.271-18.651-11.271-21.259,0L96.699,453.294c-17.036-13.765-32.25-29.694-45.229-47.372l36.328-156.956v-46.678   c0-12.648-10.257-22.904-22.904-22.904H23.205c-2.991,0-5.858-0.569-8.477-1.604c-3.001-1.17-5.692-2.95-7.928-5.185   C2.598,168.392,0,162.596,0,156.19c0-12.813,10.391-23.194,23.205-23.194h465.601c6.407,0,12.203,2.598,16.405,6.79   C509.402,143.987,512,149.783,512,156.19z"/>
</g>
<g>
</g>
<g>
</g>
<g>
</g>
<g>
</g>
<g>
</g>
<g>
</g>
<g>
</g>
<g>
</g>
<g>
</g>
<g>
</g>
<g>
</g>
<g>
</g>
<g>
</g>
<g>
</g>
<g>
</g>
</svg>
