<?xml version="1.0" encoding="iso-8859-1"?>
<!-- Generator: Adobe Illustrator 19.0.0, SVG Export Plug-In . SVG Version: 6.00 Build 0)  -->
<svg xmlns="http://www.w3.org/2000/svg" xmlns:xlink="http://www.w3.org/1999/xlink" version="1.1" id="Capa_1" x="0px" y="0px" viewBox="0 0 512 512" style="enable-background:new 0 0 512 512;" xml:space="preserve">
<circle style="fill:#FF9200;" cx="256" cy="256" r="256"/>
<g>
	<path style="fill:#F2F2F2;" d="M501.941,114.917v212.376c-7.022,24.283-17.544,47.083-30.992,67.803   c-18.693-12.601-47.825-23.73-92.453-23.73c-102.87,0-110.592,84.877-110.592,84.877V140.632c0,0,7.722-84.867,110.592-84.867   c15.705,0,29.487,1.379,41.566,3.709C487.166,72.442,501.941,114.917,501.941,114.917z"/>
	<path style="fill:#F2F2F2;" d="M244.091,140.632v315.611c0,0-7.711-84.877-110.592-84.877c-44.607,0-73.749,11.128-92.442,23.73   c-13.448-20.731-23.98-43.541-31.002-67.835V114.917c0,0,14.775-42.475,81.889-55.442c12.079-2.33,25.861-3.709,41.556-3.709   C236.38,55.765,244.091,140.632,244.091,140.632z"/>
</g>
<g>
</g>
<g>
</g>
<g>
</g>
<g>
</g>
<g>
</g>
<g>
</g>
<g>
</g>
<g>
</g>
<g>
</g>
<g>
</g>
<g>
</g>
<g>
</g>
<g>
</g>
<g>
</g>
<g>
</g>
</svg>
