<?xml version="1.0" encoding="iso-8859-1"?>
<!-- Generator: Adobe Illustrator 19.0.0, SVG Export Plug-In . SVG Version: 6.00 Build 0)  -->
<svg xmlns="http://www.w3.org/2000/svg" xmlns:xlink="http://www.w3.org/1999/xlink" version="1.1" id="Capa_1" x="0px" y="0px" viewBox="0 0 512 512" style="enable-background:new 0 0 512 512;" xml:space="preserve">
<circle style="fill:#5FA7FF;" cx="256" cy="256" r="256"/>
<g>
	<path style="fill:#F2F2F2;" d="M499.12,123.245v213.149c-4.19,12.706-9.362,24.973-15.412,36.718L355.425,242.405l118.523-120.769   l17.951-18.296C496.403,108.731,499.12,115.669,499.12,123.245z"/>
	<path style="fill:#F2F2F2;" d="M240.061,303.416c4.234,4.314,9.894,6.69,15.939,6.69c6.045,0,11.705-2.375,15.939-6.69   L477.728,93.724c-3.046-0.998-6.296-1.544-9.675-1.544H43.946c-3.379,0-6.629,0.546-9.675,1.544L240.061,303.416z"/>
	<path style="fill:#F2F2F2;" d="M156.571,242.405L28.299,373.101c-6.05-11.734-11.222-24.001-15.412-36.707V123.245   c0-7.576,2.706-14.514,7.21-19.905l17.962,18.307L156.571,242.405z"/>
	<path style="fill:#F2F2F2;" d="M475.129,388.429c-2.184,3.615-4.462,7.168-6.813,10.658H43.69   c-2.351-3.49-4.629-7.053-6.813-10.668l131.5-133.987l59.653,60.792c7.429,7.565,17.366,11.734,27.972,11.734   c10.606,0,20.532-4.169,27.961-11.734l59.664-60.792L475.129,388.429z"/>
</g>
<g>
</g>
<g>
</g>
<g>
</g>
<g>
</g>
<g>
</g>
<g>
</g>
<g>
</g>
<g>
</g>
<g>
</g>
<g>
</g>
<g>
</g>
<g>
</g>
<g>
</g>
<g>
</g>
<g>
</g>
</svg>
