<?xml version="1.0" encoding="iso-8859-1"?>
<!-- Generator: Adobe Illustrator 19.0.0, SVG Export Plug-In . SVG Version: 6.00 Build 0)  -->
<svg xmlns="http://www.w3.org/2000/svg" xmlns:xlink="http://www.w3.org/1999/xlink" version="1.1" id="Capa_1" x="0px" y="0px" viewBox="0 0 512 512" style="enable-background:new 0 0 512 512;" xml:space="preserve">
<circle style="fill:#43DF5F;" cx="256" cy="256" r="256"/>
<g>
	<path style="fill:#F2F2F2;" d="M298.488,105.895H83.306c-26.527,0-48.031,21.504-48.031,48.031v167.457   c0,26.527,21.504,48.031,48.031,48.031h215.182c26.527,0,48.031-21.504,48.031-48.031V153.926   C346.518,127.399,325.014,105.895,298.488,105.895z"/>
	<path style="fill:#F2F2F2;" d="M24.9,203.418H4.563c-2.52,0-4.563-2.043-4.563-4.563v-55.198c0-2.52,2.043-4.563,4.563-4.563H24.9   V203.418z"/>
	<polygon style="fill:#F2F2F2;" points="358.968,280.191 460.641,346.591 460.641,132.869 358.968,199.268  "/>
	<path style="fill:#F2F2F2;" d="M512,132.869V256c0,31.89-5.831,62.422-16.488,90.593h-19.31V132.869H512z"/>
</g>
<g>
</g>
<g>
</g>
<g>
</g>
<g>
</g>
<g>
</g>
<g>
</g>
<g>
</g>
<g>
</g>
<g>
</g>
<g>
</g>
<g>
</g>
<g>
</g>
<g>
</g>
<g>
</g>
<g>
</g>
</svg>
