<?xml version="1.0" encoding="iso-8859-1"?>
<!-- Generator: Adobe Illustrator 19.0.0, SVG Export Plug-In . SVG Version: 6.00 Build 0)  -->
<svg xmlns="http://www.w3.org/2000/svg" xmlns:xlink="http://www.w3.org/1999/xlink" version="1.1" id="Capa_1" x="0px" y="0px" viewBox="0 0 512 512" style="enable-background:new 0 0 512 512;" xml:space="preserve">
<circle style="fill:#F2F2F2;" cx="256" cy="256" r="256"/>
<path style="fill:#34ABE0;" d="M503.508,321.629c-13.72,51.911-43.353,97.353-83.352,130.821c-2.435,0.178-4.89,0.272-7.367,0.272  H100.585c-2.978,0-5.925-0.125-8.84-0.366c-44.419-37.188-76.027-89.172-87.249-148.365c10.794-23.939,30.302-43.123,54.471-53.52  c8.161-36.227,40.511-63.289,79.203-63.289c11.264,0,21.985,2.288,31.734,6.437c22.936-42.329,67.741-71.084,119.265-71.084  c74.867,0,135.565,60.688,135.565,135.555c0,0.522-0.031,1.024-0.042,1.546C460.96,264.076,491.032,288.537,503.508,321.629z"/>
<g>
</g>
<g>
</g>
<g>
</g>
<g>
</g>
<g>
</g>
<g>
</g>
<g>
</g>
<g>
</g>
<g>
</g>
<g>
</g>
<g>
</g>
<g>
</g>
<g>
</g>
<g>
</g>
<g>
</g>
</svg>
