<?xml version="1.0" encoding="iso-8859-1"?>
<!-- Generator: Adobe Illustrator 19.0.0, SVG Export Plug-In . SVG Version: 6.00 Build 0)  -->
<svg xmlns="http://www.w3.org/2000/svg" xmlns:xlink="http://www.w3.org/1999/xlink" version="1.1" id="Capa_1" x="0px" y="0px" viewBox="0 0 512 512" style="enable-background:new 0 0 512 512;" xml:space="preserve">
<circle style="fill:#1A1B1C;" cx="256" cy="256" r="256"/>
<path style="fill:#262626;" d="M363.987,295.912c0,1.324-0.02,2.649-0.079,3.953c-2.026,56.501-47.459,101.934-103.96,103.96  c-1.304,0.06-2.628,0.079-3.953,0.079s-2.648-0.02-3.953-0.079c-56.501-2.025-101.934-47.459-103.96-103.96  c-0.06-1.304-0.079-2.628-0.079-3.953c0-1.324,0.02-2.638,0.079-3.953c2.026-56.49,47.459-101.934,103.96-103.96  c1.304-0.06,2.628-0.079,3.953-0.079c1.325,0,2.648,0.02,3.953,0.079c56.501,2.026,101.934,47.469,103.96,103.96  C363.968,293.275,363.987,294.588,363.987,295.912z"/>
<g>
	
		<rect x="178.289" y="68.152" transform="matrix(0.2594 0.9658 -0.9658 0.2594 215.8784 -135.3258)" style="fill:#FFFFFF;" width="35.769" height="9.882"/>
	<path style="fill:#FFFFFF;" d="M317.161,504.643c-3.197,0.794-6.416,1.515-9.655,2.173l-1.087-4.065l9.55-2.56L317.161,504.643z"/>
	<polygon style="fill:#FFFFFF;" points="251.059,295.922 251.059,295.912 260.94,295.912  "/>
	
		<rect x="473.906" y="218.213" transform="matrix(0.2594 0.9658 -0.9658 0.2594 582.6544 -287.602)" style="fill:#FFFFFF;" width="9.882" height="35.769"/>
	<path style="fill:#FFFFFF;" d="M51.726,355.881l-28.15,7.565c-1.4-3.02-2.738-6.071-4.023-9.153l29.602-7.952L51.726,355.881z"/>
	<polygon style="fill:#FFFFFF;" points="256,300.863 255.995,295.922 251.059,295.922 251.059,290.982 256,290.972 256.004,295.912    260.94,295.912 260.94,300.853  "/>
	
		<rect x="310.722" y="55.167" transform="matrix(0.966 0.2586 -0.2586 0.966 29.6277 -79.1445)" style="fill:#FFFFFF;" width="9.882" height="35.768"/>
	<path style="fill:#FFFFFF;" d="M205.733,502.783l-1.087,4.065c-3.239-0.658-6.447-1.379-9.644-2.163l1.191-4.451L205.733,502.783z"/>
	<polygon style="fill:#FFFFFF;" points="251.059,295.922 251.059,295.912 260.94,295.912  "/>
	<polygon style="fill:#FFFFFF;" points="256.009,300.853 255.99,290.972 256,290.972  "/>
	<path style="fill:#FFFFFF;" d="M492.526,354.115c-1.275,3.082-2.612,6.134-4.012,9.153l-28.191-7.544l2.55-9.55L492.526,354.115z"/>
	
		<rect x="15.231" y="231.307" transform="matrix(0.966 0.2586 -0.2586 0.966 62.2192 -0.5275)" style="fill:#FFFFFF;" width="35.768" height="9.882"/>
	
		<rect x="413.959" y="114.664" transform="matrix(0.708 0.7062 -0.7062 0.708 215.9403 -257.1187)" style="fill:#FFFFFF;" width="9.88" height="35.819"/>
	<path style="fill:#FFFFFF;" d="M109.237,450.068l-9.049,9.07c-2.633-2.027-5.224-4.096-7.764-6.217l9.812-9.832L109.237,450.068z"/>
	<polygon style="fill:#FFFFFF;" points="256,300.863 255.995,295.922 251.059,295.922 255.995,295.917 255.99,290.982 256,290.982    256,295.917 260.94,295.912 260.94,300.853  "/>
	<polygon style="fill:#FFFFFF;" points="256,300.853 255.995,295.917 251.059,295.922 255.995,295.912 255.99,290.972    260.94,290.972 260.94,295.912 256,295.917  "/>
	<path style="fill:#FFFFFF;" d="M420.031,452.544c-2.539,2.132-5.12,4.2-7.743,6.228l-9.122-9.101l6.98-6.99L420.031,452.544z"/>
	
		<rect x="74.76" y="128.082" transform="matrix(0.7081 0.7061 -0.7061 0.7081 120.977 -26.606)" style="fill:#FFFFFF;" width="35.819" height="9.88"/>
</g>
<g>
	<path style="fill:#A1A1A1;" d="M477.595,384.26c-0.826,1.442-1.672,2.873-2.539,4.294l-23.124-9.488l1.881-4.577L477.595,384.26z"/>
	
		<rect x="24.691" y="205.786" transform="matrix(0.925 0.3799 -0.3799 0.925 82.3104 -0.56)" style="fill:#A1A1A1;" width="35.765" height="4.94"/>
	<polygon style="fill:#A1A1A1;" points="254.446,297.838 257.553,293.997 257.561,294.003  "/>
	<path style="fill:#A1A1A1;" d="M177.416,493.734L175.253,499c-1.567-0.512-3.124-1.055-4.681-1.599l2.278-5.548L177.416,493.734z"/>
	
		<rect x="341.193" y="64.619" transform="matrix(0.925 0.3799 -0.3799 0.925 57.1097 -124.3752)" style="fill:#A1A1A1;" width="4.94" height="35.765"/>
	<polygon style="fill:#A1A1A1;" points="254.446,297.838 252.601,296.339 254.02,294.432 255.999,295.91 257.553,293.997    259.398,295.495 257.98,297.403 256,295.924  "/>
	<path style="fill:#A1A1A1;" d="M394.483,471.342c-1.39,0.899-2.79,1.787-4.2,2.654l-6.228-8.067l3.918-3.02L394.483,471.342z"/>
	
		<rect x="97.185" y="110.779" transform="matrix(0.6109 0.7917 -0.7917 0.6109 134.4328 -47.035)" style="fill:#A1A1A1;" width="35.767" height="4.941"/>
	<polygon style="fill:#A1A1A1;" points="254.446,297.838 257.553,293.997 257.561,294.003  "/>
	<polygon style="fill:#A1A1A1;" points="258.021,297.346 255.998,295.929 254.021,294.446 258.027,297.337  "/>
	<path style="fill:#A1A1A1;" d="M89.008,427.895l-13.061,10.073c-1.181-1.16-2.351-2.341-3.5-3.532l13.542-10.449L89.008,427.895z"/>
	
		<rect x="436.233" y="137.09" transform="matrix(0.611 0.7916 -0.7916 0.611 293.3283 -287.0036)" style="fill:#A1A1A1;" width="4.94" height="35.765"/>
	<path style="fill:#A1A1A1;" d="M287.507,510.076c-1.63,0.199-3.26,0.387-4.901,0.564l-0.481-3.532l4.89-0.658L287.507,510.076z"/>
	
		<rect x="207.13" y="64.847" transform="matrix(0.1341 0.991 -0.991 0.1341 261.5725 -164.7172)" style="fill:#A1A1A1;" width="35.821" height="4.941"/>
	<polygon style="fill:#A1A1A1;" points="254.446,297.838 252.601,296.339 254.02,294.432 255.999,295.91 257.553,293.997    256.002,295.913 257.978,297.388 257.972,297.397 256,295.917  "/>
	<polygon style="fill:#A1A1A1;" points="256.497,299.504 254.446,297.838 256,295.917 253.985,294.496 256.002,295.914    257.553,293.997 256.006,295.917 258.027,297.337  "/>
	<path style="fill:#A1A1A1;" d="M45.477,326.937l-34.137,4.618c-0.491-1.588-0.972-3.177-1.432-4.786l34.91-4.733L45.477,326.937z"/>
	
		<rect x="482.155" y="247.052" transform="matrix(0.1344 0.9909 -0.9909 0.1344 682.046 -250.879)" style="fill:#A1A1A1;" width="4.941" height="35.817"/>
	<path style="fill:#A1A1A1;" d="M73.501,405.461l-17.554,10.271c-1.045-1.296-2.069-2.602-3.082-3.918l18.15-10.616L73.501,405.461z   "/>
	
		<rect x="452.71" y="161.589" transform="matrix(0.5047 0.8633 -0.8633 0.5047 380.39 -304.0619)" style="fill:#A1A1A1;" width="4.94" height="35.767"/>
	<polygon style="fill:#A1A1A1;" points="256.593,298.315 255.395,293.522 256.604,298.313  "/>
	
		<rect x="121.674" y="94.267" transform="matrix(0.5047 0.8633 -0.8633 0.5047 152.6364 -72.5657)" style="fill:#A1A1A1;" width="35.767" height="4.94"/>
	<path style="fill:#A1A1A1;" d="M369.657,485.459c-1.484,0.731-2.967,1.442-4.462,2.152l-3.918-6.698l4.263-2.497L369.657,485.459z"/>
	<polygon style="fill:#A1A1A1;" points="254.316,298.885 253.629,296.629 255.994,295.914 255.395,293.522 257.651,292.959    258.359,295.172 256.694,295.702 258.358,295.199 256.005,295.921 256.604,298.313  "/>
	
		<rect x="22.805" y="279.217" transform="matrix(0.0051 1 -1 0.0051 322.2426 270.3113)" style="fill:#A1A1A1;" width="4.94" height="35.767"/>
	
		<rect x="484.251" y="276.873" transform="matrix(0.0051 1 -1 0.0051 778.9919 -193.4614)" style="fill:#A1A1A1;" width="4.94" height="35.767"/>
	<polygon style="fill:#A1A1A1;" points="256.593,298.315 255.395,293.522 256.604,298.313  "/>
	<polygon style="fill:#A1A1A1;" points="253.631,296.638 253.629,296.629 258.358,295.199  "/>
	
		<rect x="236.942" y="62.727" transform="matrix(0.0052 1 -1 0.0052 318.6974 -189.9641)" style="fill:#A1A1A1;" width="35.767" height="4.94"/>
	<path style="fill:#A1A1A1;" d="M259.577,511.978c-1.191,0.01-2.382,0.021-3.574,0.021c-0.46,0-0.909,0-1.369-0.01l-0.021-3.229   l4.942-0.021L259.577,511.978z"/>
	
		<rect x="37.579" y="179.344" transform="matrix(0.8691 0.4946 -0.4946 0.8691 97.1893 -3.6481)" style="fill:#A1A1A1;" width="35.817" height="4.94"/>
	<path style="fill:#A1A1A1;" d="M460.803,409.63c-1.003,1.327-2.017,2.654-3.041,3.96l-18.045-10.282l2.445-4.295L460.803,409.63z"/>
	<polygon style="fill:#A1A1A1;" points="256.604,298.313 256,295.922 253.652,296.669 253.649,296.66 256,295.917 255.395,293.522    257.651,292.959 258.359,295.172 256.005,295.921  "/>
	<polygon style="fill:#A1A1A1;" points="256.604,298.313 255.996,295.923 253.631,296.638 252.885,294.15 255.395,293.522    256,295.917 258.36,295.209 256,295.922  "/>
	
		<rect x="367.647" y="77.494" transform="matrix(0.8692 0.4945 -0.4945 0.8692 95.5939 -170.5389)" style="fill:#A1A1A1;" width="4.94" height="35.821"/>
	<path style="fill:#A1A1A1;" d="M152.903,482.073l-3.772,6.625c-1.494-0.69-2.988-1.4-4.472-2.121l3.95-6.949L152.903,482.073z"/>
	
		<rect x="281.836" y="49.044" transform="matrix(0.9925 0.1226 -0.1226 0.9925 10.3497 -34.3497)" style="fill:#A1A1A1;" width="4.942" height="35.77"/>
	<path style="fill:#A1A1A1;" d="M232.336,507.443l-0.428,3.438c-1.651-0.157-3.291-0.324-4.921-0.512l0.439-3.532L232.336,507.443z"/>
	<polygon style="fill:#A1A1A1;" points="258.278,296.871 253.721,294.963 253.725,294.954  "/>
	<path style="fill:#A1A1A1;" d="M502.881,323.959c-0.439,1.609-0.899,3.208-1.369,4.807l-34.586-4.274l0.606-4.901L502.881,323.959z   "/>
	
		<rect x="9.125" y="265.13" transform="matrix(0.9924 0.1227 -0.1227 0.9924 33.04 -1.2917)" style="fill:#A1A1A1;" width="35.763" height="4.94"/>
	<polygon style="fill:#A1A1A1;" points="257.3,299.194 254.994,298.179 255.993,295.92 253.721,294.963 254.663,292.727    256.919,293.619 256.101,295.675 256.993,293.66 257.001,293.664 256.006,295.915 258.278,296.871  "/>
	
		<rect x="392.59" y="93.931" transform="matrix(0.798 0.6027 -0.6027 0.798 147.1997 -215.5076)" style="fill:#A1A1A1;" width="4.941" height="35.769"/>
	<path style="fill:#A1A1A1;" d="M129.685,467.236l-6.008,7.952c-1.411-0.857-2.821-1.724-4.211-2.612l6.28-8.317L129.685,467.236z"/>
	<polygon style="fill:#A1A1A1;" points="258.278,296.871 253.721,294.963 253.725,294.954  "/>
	<polygon style="fill:#A1A1A1;" points="255.093,298.211 254.998,298.17 256.997,293.652 257.005,293.655  "/>
	<path style="fill:#A1A1A1;" d="M441.211,432.723c-1.139,1.202-2.299,2.393-3.469,3.563l-13.396-10.115l2.978-3.939L441.211,432.723   z"/>
	
		<rect x="54.027" y="154.37" transform="matrix(0.798 0.6027 -0.6027 0.798 109.0531 -11.6549)" style="fill:#A1A1A1;" width="35.769" height="4.941"/>
	
		<rect x="465.904" y="187.839" transform="matrix(0.3906 0.9206 -0.9206 0.3906 474.8381 -305.7836)" style="fill:#A1A1A1;" width="4.94" height="35.818"/>
	<path style="fill:#A1A1A1;" d="M61.088,381.324l-22.674,9.613c-0.878-1.411-1.745-2.832-2.591-4.263l23.333-9.906L61.088,381.324z"/>
	<polygon style="fill:#A1A1A1;" points="257.3,299.194 254.994,298.179 255.993,295.92 253.721,294.963 255.996,295.916    256.993,293.66 257.001,293.664 256,295.917 258.278,296.871  "/>
	<polygon style="fill:#A1A1A1;" points="254.998,298.17 255.995,295.916 253.721,294.963 255.997,295.911 256.997,293.652    259.217,294.639 258.278,296.871 256,295.917  "/>
	<path style="fill:#A1A1A1;" d="M343.827,496.534c-1.546,0.575-3.103,1.118-4.671,1.651l-2.309-5.433l4.556-1.933L343.827,496.534z"/>
	
		<rect x="147.964" y="81.083" transform="matrix(0.3907 0.9205 -0.9205 0.3907 177.978 -101.7798)" style="fill:#A1A1A1;" width="35.818" height="4.941"/>
	<path style="fill:#A1A1A1;" d="M259.949,188v215.824c-1.304,0.06-2.628,0.079-3.953,0.079c-1.325,0-2.648-0.02-3.953-0.079V188   c1.304-0.06,2.628-0.079,3.953-0.079C257.321,187.921,258.645,187.941,259.949,188z"/>
	<path style="fill:#A1A1A1;" d="M363.987,295.912c0,1.324-0.02,2.649-0.079,3.953H148.084c-0.06-1.304-0.079-2.628-0.079-3.953   c0-1.324,0.02-2.638,0.079-3.953h215.824C363.968,293.275,363.987,294.588,363.987,295.912z"/>
</g>
<g>
	<path style="fill:#FFFFFF;" d="M174.992,152.669c-1.327,0-2.591,0.554-2.905,1.724l-12.8,44.774l-7.147-28.118   c-0.47-1.724-2.194-2.435-4.086-2.435c-2.038,0-3.772,0.711-4.159,2.435l-7.074,28.118l-12.873-44.774   c-0.313-1.17-1.578-1.724-2.905-1.724c-2.361,0-5.193,1.411-5.193,3.375c0,0.313,0,0.554,0.084,0.784l15.632,50.897   c0.543,1.881,2.905,2.832,5.256,2.832c2.361,0,4.796-0.951,5.266-2.832l5.966-23.719l5.966,23.719   c0.481,1.881,2.915,2.832,5.193,2.832c2.267,0,4.712-0.951,5.339-2.832l15.548-50.897c0.073-0.23,0.073-0.47,0.073-0.784   C180.175,154.08,177.354,152.669,174.992,152.669z"/>
	<path style="fill:#FFFFFF;" d="M382.707,152.669c-2.038,0-4.159,0.784-4.159,2.675v36.049l-17.439-34.011   c-1.881-3.615-3.302-4.712-6.28-4.712c-2.121,0-4.169,0.784-4.169,2.748v51.911c0,1.808,2.121,2.759,4.169,2.759   c2.121,0,4.159-0.951,4.159-2.759V171.28l18.777,35.736c1.097,2.048,2.905,3.072,4.942,3.072c2.121,0,4.169-0.951,4.169-2.759   v-51.984C386.877,153.453,384.829,152.669,382.707,152.669z"/>
	<path style="fill:#FFFFFF;" d="M126.77,397.457c0-4.953,4.086-7.147,9.822-7.147c6.677,0,8.714,2.978,10.836,2.978   c2.361,0,3.459-2.905,3.459-4.472c0-4.326-9.195-5.653-14.294-5.653c-8.401,0-18.139,3.448-18.139,15.078   c0,18.85,25.516,13.427,25.516,27.324c0,5.663-4.242,8.328-9.895,8.328c-8.714,0-10.595-6.207-13.427-6.207   c-1.964,0-3.615,2.591-3.615,4.483c0,3.929,7.147,9.268,17.356,9.268c10.376,0,17.91-5.496,17.91-16.729   C152.297,403.81,126.77,409.076,126.77,397.457z"/>
	<path style="fill:#FFFFFF;" d="M382.321,433.423h-23.333v-18.066h12.1c1.881,0,2.748-1.724,2.748-3.218   c0-1.808-1.024-3.375-2.748-3.375h-12.1V390.78h23.333c1.724,0,2.748-1.735,2.748-3.772c0-1.724-0.867-3.615-2.748-3.615H354.36   c-1.808,0-3.699,0.94-3.699,2.748v51.921c0,1.797,1.891,2.748,3.699,2.748h27.961c1.881,0,2.748-1.891,2.748-3.615   C385.069,435.147,384.045,433.423,382.321,433.423z"/>
</g>
<polygon style="fill:#FE0000;" points="480.549,69.98 425.214,82.825 466.715,125.315 "/>
<g>
</g>
<g>
</g>
<g>
</g>
<g>
</g>
<g>
</g>
<g>
</g>
<g>
</g>
<g>
</g>
<g>
</g>
<g>
</g>
<g>
</g>
<g>
</g>
<g>
</g>
<g>
</g>
<g>
</g>
</svg>
