<?xml version="1.0" encoding="iso-8859-1"?>
<!-- Generator: Adobe Illustrator 19.0.0, SVG Export Plug-In . SVG Version: 6.00 Build 0)  -->
<svg xmlns="http://www.w3.org/2000/svg" xmlns:xlink="http://www.w3.org/1999/xlink" version="1.1" id="Capa_1" x="0px" y="0px" viewBox="0 0 512 512" style="enable-background:new 0 0 512 512;" xml:space="preserve">
<circle style="fill:#C7C8CB;" cx="256" cy="256" r="256"/>
<g>
	<path style="fill:#464646;" d="M106.305,135.562H76.964c-3.739,0-6.769,3.03-6.769,6.769v16.319h42.877v-16.319   C113.074,138.593,110.043,135.562,106.305,135.562z"/>
	<path style="fill:#464646;" d="M486.884,202.626v164.101c-12.33,25.663-28.808,48.943-48.567,68.984H73.689   C53.93,415.67,37.452,392.39,25.122,366.727V202.626H486.884L486.884,202.626z"/>
	<path style="fill:#464646;" d="M457.463,158.65h-74.94c-14.226,0-27.174-8.215-33.233-21.087l-7.059-14.996   c-6.059-12.872-19.007-21.087-33.234-21.087H203.005c-14.226,0-27.174,8.215-33.234,21.087l-7.059,14.996   c-6.059,12.872-19.007,21.087-33.233,21.087h-74.94c-16.247,0-29.418,13.171-29.418,29.418h461.761   C486.881,171.822,473.71,158.65,457.463,158.65z"/>
	<path style="fill:#464646;" d="M422.727,450.266c-12.978,11.149-27.084,21.023-42.13,29.414H131.409   c-15.047-8.391-29.153-18.265-42.13-29.414H422.727z"/>
</g>
<path style="fill:#C7C8CB;" d="M256.003,217.745c-55.923,0-101.428,45.495-101.428,101.418c0,55.933,45.505,101.428,101.428,101.428  s101.418-45.495,101.418-101.428C357.421,263.24,311.926,217.745,256.003,217.745z M256.003,402.452  c-45.923,0-83.289-37.366-83.289-83.289c0-45.913,37.366-83.278,83.289-83.278s83.278,37.366,83.278,83.278  C339.281,365.086,301.926,402.452,256.003,402.452z"/>
<path style="fill:#FFC100;" d="M360.441,240.289c-2.392,0-4.717-0.973-6.417-2.655c-0.413-0.428-0.791-0.89-1.121-1.386  c-0.33-0.495-0.61-1.023-0.841-1.566c-0.214-0.544-0.396-1.122-0.512-1.699c-0.114-0.578-0.181-1.171-0.181-1.765  s0.066-1.187,0.181-1.782c0.116-0.577,0.298-1.155,0.512-1.698c0.23-0.544,0.511-1.072,0.841-1.567  c0.33-0.494,0.708-0.956,1.121-1.369c2.112-2.111,5.245-3.068,8.197-2.49c0.577,0.132,1.137,0.297,1.698,0.528  c0.544,0.231,1.072,0.511,1.567,0.824c0.494,0.33,0.957,0.709,1.369,1.138c0.428,0.413,0.792,0.875,1.139,1.369  c0.312,0.495,0.592,1.023,0.824,1.567c0.23,0.544,0.395,1.121,0.527,1.698c0.116,0.593,0.166,1.188,0.166,1.782  c0,0.593-0.05,1.187-0.166,1.765c-0.132,0.577-0.297,1.155-0.527,1.699c-0.232,0.544-0.512,1.072-0.824,1.566  c-0.346,0.495-0.711,0.957-1.139,1.386c-0.413,0.413-0.875,0.792-1.369,1.121s-1.023,0.61-1.567,0.841  c-0.56,0.214-1.121,0.396-1.698,0.511C361.628,240.223,361.033,240.289,360.441,240.289z"/>
<g>
</g>
<g>
</g>
<g>
</g>
<g>
</g>
<g>
</g>
<g>
</g>
<g>
</g>
<g>
</g>
<g>
</g>
<g>
</g>
<g>
</g>
<g>
</g>
<g>
</g>
<g>
</g>
<g>
</g>
</svg>
