<?xml version="1.0" encoding="iso-8859-1"?>
<!-- Generator: Adobe Illustrator 19.0.0, SVG Export Plug-In . SVG Version: 6.00 Build 0)  -->
<svg xmlns="http://www.w3.org/2000/svg" xmlns:xlink="http://www.w3.org/1999/xlink" version="1.1" id="Capa_1" x="0px" y="0px" viewBox="0 0 512 512" style="enable-background:new 0 0 512 512;" xml:space="preserve">
<path style="fill:#F2F2F2;" d="M512,256c0,1.776-0.021,3.542-0.063,5.308c-0.01,1.045-0.042,2.09-0.084,3.135  C507.402,401.92,394.564,512,256,512c-38.588,0-75.18-8.537-107.99-23.824c-2.602-1.212-5.172-2.466-7.722-3.762  C59.402,443.361,3.26,360.605,0.146,264.443c-0.042-1.045-0.073-2.09-0.084-3.135C0.021,259.542,0,257.776,0,256  C0,114.615,114.615,0,256,0S512,114.615,512,256z"/>
<g>
	<path style="fill:#212121;" d="M144.149,266.732c-2.132,0-3.859-1.728-3.859-3.859V17.603c0-2.132,1.728-3.859,3.859-3.859   c2.132,0,3.859,1.728,3.859,3.859v245.269C148.009,265.004,146.28,266.732,144.149,266.732z"/>
	<path style="fill:#212121;" d="M439.551,266.732c-2.132,0-3.859-1.728-3.859-3.859v-8.147c0-2.132,1.728-3.859,3.859-3.859   c2.132,0,3.859,1.728,3.859,3.859v8.147C443.41,265.004,441.683,266.732,439.551,266.732z"/>
	<path style="fill:#212121;" d="M385.841,266.732c-2.132,0-3.859-1.728-3.859-3.859v-8.147c0-2.132,1.728-3.859,3.859-3.859   s3.859,1.728,3.859,3.859v8.147C389.701,265.004,387.973,266.732,385.841,266.732z"/>
	<path style="fill:#212121;" d="M412.696,266.732c-2.132,0-3.859-1.728-3.859-3.859v-8.147c0-2.132,1.728-3.859,3.859-3.859   s3.859,1.728,3.859,3.859v8.147C416.556,265.004,414.828,266.732,412.696,266.732z"/>
	<path style="fill:#212121;" d="M399.269,266.732c-2.132,0-3.859-1.728-3.859-3.859v-21.011c0-2.132,1.728-3.859,3.859-3.859   s3.859,1.728,3.859,3.859v21.011C403.128,265.004,401.4,266.732,399.269,266.732z"/>
	<path style="fill:#212121;" d="M426.124,266.732c-2.132,0-3.859-1.728-3.859-3.859v-8.147c0-2.132,1.728-3.859,3.859-3.859   c2.132,0,3.859,1.728,3.859,3.859v8.147C429.983,265.004,428.255,266.732,426.124,266.732z"/>
	<path style="fill:#212121;" d="M372.414,266.732c-2.132,0-3.859-1.728-3.859-3.859v-8.147c0-2.132,1.728-3.859,3.859-3.859   c2.132,0,3.859,1.728,3.859,3.859v8.147C376.273,265.004,374.546,266.732,372.414,266.732z"/>
	<path style="fill:#212121;" d="M318.704,266.732c-2.132,0-3.859-1.728-3.859-3.859v-14.579c0-2.132,1.728-3.859,3.859-3.859   s3.859,1.728,3.859,3.859v14.579C322.564,265.004,320.836,266.732,318.704,266.732z"/>
	<path style="fill:#212121;" d="M345.559,266.732c-2.132,0-3.859-1.728-3.859-3.859v-14.579c0-2.132,1.728-3.859,3.859-3.859   c2.132,0,3.859,1.728,3.859,3.859v14.579C349.418,265.004,347.691,266.732,345.559,266.732z"/>
	<path style="fill:#212121;" d="M332.132,266.732c-2.132,0-3.859-1.728-3.859-3.859v-21.011c0-2.132,1.728-3.859,3.859-3.859   s3.859,1.728,3.859,3.859v21.011C335.991,265.004,334.263,266.732,332.132,266.732z"/>
	<path style="fill:#212121;" d="M358.987,266.732c-2.132,0-3.859-1.728-3.859-3.859v-8.147c0-2.132,1.728-3.859,3.859-3.859   c2.132,0,3.859,1.728,3.859,3.859v8.147C362.846,265.004,361.118,266.732,358.987,266.732z"/>
	<path style="fill:#212121;" d="M305.277,266.732c-2.132,0-3.859-1.728-3.859-3.859v-21.011c0-2.132,1.728-3.859,3.859-3.859   c2.132,0,3.859,1.728,3.859,3.859v21.011C309.137,265.004,307.409,266.732,305.277,266.732z"/>
	<path style="fill:#212121;" d="M251.569,266.732c-2.132,0-3.859-1.728-3.859-3.859v-78.898c0-2.132,1.728-3.859,3.859-3.859   c2.132,0,3.859,1.728,3.859,3.859v78.898C255.427,265.004,253.699,266.732,251.569,266.732z"/>
	<path style="fill:#212121;" d="M278.422,266.732c-2.132,0-3.859-1.728-3.859-3.859v-33.875c0-2.132,1.728-3.859,3.859-3.859   c2.132,0,3.859,1.728,3.859,3.859v33.875C282.281,265.004,280.554,266.732,278.422,266.732z"/>
	<path style="fill:#212121;" d="M264.996,266.732c-2.132,0-3.859-1.728-3.859-3.859V235.43c0-2.132,1.728-3.859,3.859-3.859   c2.132,0,3.859,1.728,3.859,3.859v27.443C268.854,265.004,267.126,266.732,264.996,266.732z"/>
	<path style="fill:#212121;" d="M291.85,266.732c-2.132,0-3.859-1.728-3.859-3.859v-40.307c0-2.132,1.728-3.859,3.859-3.859   c2.132,0,3.859,1.728,3.859,3.859v40.307C295.709,265.004,293.982,266.732,291.85,266.732z"/>
	<path style="fill:#212121;" d="M238.141,266.732c-2.132,0-3.859-1.728-3.859-3.859v-53.171c0-2.132,1.728-3.859,3.859-3.859   c2.132,0,3.859,1.728,3.859,3.859v53.171C242,265.004,240.272,266.732,238.141,266.732z"/>
	<path style="fill:#212121;" d="M184.432,266.732c-2.132,0-3.859-1.728-3.859-3.859V158.248c0-2.132,1.728-3.859,3.859-3.859   c2.132,0,3.859,1.728,3.859,3.859v104.626C188.291,265.004,186.562,266.732,184.432,266.732z"/>
	<path style="fill:#212121;" d="M211.286,266.732c-2.132,0-3.859-1.728-3.859-3.859v-33.875c0-2.132,1.728-3.859,3.859-3.859   c2.132,0,3.859,1.728,3.859,3.859v33.875C215.146,265.004,213.417,266.732,211.286,266.732z"/>
	<path style="fill:#212121;" d="M197.859,266.732c-2.132,0-3.859-1.728-3.859-3.859v-66.035c0-2.132,1.728-3.859,3.859-3.859   c2.132,0,3.859,1.728,3.859,3.859v66.034C201.718,265.004,199.99,266.732,197.859,266.732z"/>
	<path style="fill:#212121;" d="M171.004,266.732c-2.132,0-3.859-1.728-3.859-3.859V87.496c0-2.132,1.728-3.859,3.859-3.859   c2.132,0,3.859,1.728,3.859,3.859v175.377C174.864,265.004,173.135,266.732,171.004,266.732z"/>
	<path style="fill:#212121;" d="M157.577,266.732c-2.132,0-3.859-1.728-3.859-3.859V93.928c0-2.132,1.728-3.859,3.859-3.859   c2.132,0,3.859,1.728,3.859,3.859v168.944C161.436,265.004,159.707,266.732,157.577,266.732z"/>
	<path style="fill:#212121;" d="M224.713,266.732c-2.132,0-3.859-1.728-3.859-3.859v-66.035c0-2.132,1.728-3.859,3.859-3.859   c2.132,0,3.859,1.728,3.859,3.859v66.034C228.572,265.004,226.844,266.732,224.713,266.732z"/>
	<path style="fill:#212121;" d="M90.44,266.732c-2.132,0-3.859-1.728-3.859-3.859v-85.329c0-2.132,1.728-3.859,3.859-3.859   s3.859,1.728,3.859,3.859v85.329C94.299,265.004,92.571,266.732,90.44,266.732z"/>
	<path style="fill:#212121;" d="M117.295,266.732c-2.132,0-3.859-1.728-3.859-3.859v-117.49c0-2.132,1.728-3.859,3.859-3.859   s3.859,1.728,3.859,3.859v117.489C121.154,265.004,119.426,266.732,117.295,266.732z"/>
	<path style="fill:#212121;" d="M103.868,266.732c-2.132,0-3.859-1.728-3.859-3.859v-59.602c0-2.132,1.728-3.859,3.859-3.859   c2.131,0,3.859,1.728,3.859,3.859v59.602C107.727,265.004,105.999,266.732,103.868,266.732z"/>
	<path style="fill:#212121;" d="M77.012,266.732c-2.132,0-3.859-1.728-3.859-3.859v-21.011c0-2.132,1.728-3.859,3.859-3.859   s3.859,1.728,3.859,3.859v21.011C80.872,265.004,79.144,266.732,77.012,266.732z"/>
	<path style="fill:#212121;" d="M63.585,266.732c-2.132,0-3.859-1.728-3.859-3.859v-8.147c0-2.132,1.728-3.859,3.859-3.859   c2.132,0,3.859,1.728,3.859,3.859v8.147C67.444,265.004,65.717,266.732,63.585,266.732z"/>
	<path style="fill:#212121;" d="M130.722,266.732c-2.132,0-3.859-1.728-3.859-3.859V158.248c0-2.132,1.728-3.859,3.859-3.859   s3.859,1.728,3.859,3.859v104.626C134.581,265.004,132.854,266.732,130.722,266.732z"/>
	<path style="fill:#212121;" d="M9.876,266.732c-2.132,0-3.859-1.728-3.859-3.859v-21.011c0-2.132,1.728-3.859,3.859-3.859   s3.859,1.728,3.859,3.859v21.011C13.735,265.004,12.007,266.732,9.876,266.732z"/>
	<path style="fill:#212121;" d="M36.73,266.732c-2.132,0-3.859-1.728-3.859-3.859v-14.579c0-2.132,1.728-3.859,3.859-3.859   c2.132,0,3.859,1.728,3.859,3.859v14.579C40.589,265.004,38.862,266.732,36.73,266.732z"/>
	<path style="fill:#212121;" d="M23.303,266.732c-2.132,0-3.859-1.728-3.859-3.859v-8.147c0-2.132,1.728-3.859,3.859-3.859   s3.859,1.728,3.859,3.859v8.147C27.162,265.004,25.434,266.732,23.303,266.732z"/>
	<path style="fill:#212121;" d="M50.158,266.732c-2.132,0-3.859-1.728-3.859-3.859v-8.147c0-2.132,1.728-3.859,3.859-3.859   c2.132,0,3.859,1.728,3.859,3.859v8.147C54.017,265.004,52.29,266.732,50.158,266.732z"/>
	<path style="fill:#212121;" d="M148.01,262.875v225.301c-2.602-1.212-5.172-2.466-7.722-3.762V262.875   c0-2.132,1.735-3.866,3.866-3.866C146.275,259.009,148.01,260.744,148.01,262.875z"/>
	<path style="fill:#212121;" d="M439.551,274.879c-2.132,0-3.859-1.728-3.859-3.859v-8.147c0-2.132,1.728-3.859,3.859-3.859   c2.132,0,3.859,1.728,3.859,3.859v8.147C443.41,273.151,441.683,274.879,439.551,274.879z"/>
	<path style="fill:#212121;" d="M385.841,274.879c-2.132,0-3.859-1.728-3.859-3.859v-8.147c0-2.132,1.728-3.859,3.859-3.859   s3.859,1.728,3.859,3.859v8.147C389.701,273.151,387.973,274.879,385.841,274.879z"/>
	<path style="fill:#212121;" d="M412.696,274.879c-2.132,0-3.859-1.728-3.859-3.859v-8.147c0-2.132,1.728-3.859,3.859-3.859   s3.859,1.728,3.859,3.859v8.147C416.556,273.151,414.828,274.879,412.696,274.879z"/>
	<path style="fill:#212121;" d="M399.269,287.743c-2.132,0-3.859-1.728-3.859-3.859v-21.011c0-2.132,1.728-3.859,3.859-3.859   s3.859,1.728,3.859,3.859v21.011C403.128,286.015,401.4,287.743,399.269,287.743z"/>
	<path style="fill:#212121;" d="M426.124,274.879c-2.132,0-3.859-1.728-3.859-3.859v-8.147c0-2.132,1.728-3.859,3.859-3.859   c2.132,0,3.859,1.728,3.859,3.859v8.147C429.983,273.151,428.255,274.879,426.124,274.879z"/>
	<path style="fill:#212121;" d="M372.414,274.879c-2.132,0-3.859-1.728-3.859-3.859v-8.147c0-2.132,1.728-3.859,3.859-3.859   c2.132,0,3.859,1.728,3.859,3.859v8.147C376.273,273.151,374.546,274.879,372.414,274.879z"/>
	<path style="fill:#212121;" d="M318.704,281.311c-2.132,0-3.859-1.728-3.859-3.859v-14.579c0-2.132,1.728-3.859,3.859-3.859   s3.859,1.728,3.859,3.859v14.579C322.564,279.583,320.836,281.311,318.704,281.311z"/>
	<path style="fill:#212121;" d="M345.559,281.311c-2.132,0-3.859-1.728-3.859-3.859v-14.579c0-2.132,1.728-3.859,3.859-3.859   c2.132,0,3.859,1.728,3.859,3.859v14.579C349.418,279.583,347.691,281.311,345.559,281.311z"/>
	<path style="fill:#212121;" d="M332.132,287.743c-2.132,0-3.859-1.728-3.859-3.859v-21.011c0-2.132,1.728-3.859,3.859-3.859   s3.859,1.728,3.859,3.859v21.011C335.991,286.015,334.263,287.743,332.132,287.743z"/>
	<path style="fill:#212121;" d="M358.987,274.879c-2.132,0-3.859-1.728-3.859-3.859v-8.147c0-2.132,1.728-3.859,3.859-3.859   c2.132,0,3.859,1.728,3.859,3.859v8.147C362.846,273.151,361.118,274.879,358.987,274.879z"/>
	<path style="fill:#212121;" d="M305.277,287.743c-2.132,0-3.859-1.728-3.859-3.859v-21.011c0-2.132,1.728-3.859,3.859-3.859   c2.132,0,3.859,1.728,3.859,3.859v21.011C309.137,286.015,307.409,287.743,305.277,287.743z"/>
	<path style="fill:#212121;" d="M251.569,345.63c-2.132,0-3.859-1.728-3.859-3.859v-78.898c0-2.132,1.728-3.859,3.859-3.859   c2.132,0,3.859,1.728,3.859,3.859v78.898C255.427,343.902,253.699,345.63,251.569,345.63z"/>
	<path style="fill:#212121;" d="M278.422,300.607c-2.132,0-3.859-1.728-3.859-3.859v-33.875c0-2.132,1.728-3.859,3.859-3.859   c2.132,0,3.859,1.728,3.859,3.859v33.875C282.281,298.878,280.554,300.607,278.422,300.607z"/>
	<path style="fill:#212121;" d="M264.996,294.174c-2.132,0-3.859-1.728-3.859-3.859v-27.443c0-2.132,1.728-3.859,3.859-3.859   c2.132,0,3.859,1.728,3.859,3.859v27.443C268.854,292.447,267.126,294.174,264.996,294.174z"/>
	<path style="fill:#212121;" d="M291.85,307.038c-2.132,0-3.859-1.728-3.859-3.859v-40.307c0-2.132,1.728-3.859,3.859-3.859   c2.132,0,3.859,1.728,3.859,3.859v40.307C295.709,305.311,293.982,307.038,291.85,307.038z"/>
	<path style="fill:#212121;" d="M238.141,319.902c-2.132,0-3.859-1.728-3.859-3.859v-53.171c0-2.132,1.728-3.859,3.859-3.859   c2.132,0,3.859,1.728,3.859,3.859v53.171C242,318.175,240.272,319.902,238.141,319.902z"/>
	<path style="fill:#212121;" d="M184.432,371.358c-2.132,0-3.859-1.728-3.859-3.859V262.873c0-2.132,1.728-3.859,3.859-3.859   c2.132,0,3.859,1.728,3.859,3.859v104.626C188.291,369.63,186.562,371.358,184.432,371.358z"/>
	<path style="fill:#212121;" d="M211.286,300.607c-2.132,0-3.859-1.728-3.859-3.859v-33.875c0-2.132,1.728-3.859,3.859-3.859   c2.132,0,3.859,1.728,3.859,3.859v33.875C215.146,298.878,213.417,300.607,211.286,300.607z"/>
	<path style="fill:#212121;" d="M197.859,332.766c-2.132,0-3.859-1.728-3.859-3.859v-66.034c0-2.132,1.728-3.859,3.859-3.859   c2.132,0,3.859,1.728,3.859,3.859v66.034C201.718,331.038,199.99,332.766,197.859,332.766z"/>
	<path style="fill:#212121;" d="M171.004,442.108c-2.132,0-3.859-1.728-3.859-3.859V262.872c0-2.132,1.728-3.859,3.859-3.859   c2.132,0,3.859,1.728,3.859,3.859v175.377C174.864,440.381,173.135,442.108,171.004,442.108z"/>
	<path style="fill:#212121;" d="M157.577,435.676c-2.132,0-3.859-1.728-3.859-3.859V262.872c0-2.132,1.728-3.859,3.859-3.859   c2.132,0,3.859,1.728,3.859,3.859v168.944C161.436,433.948,159.707,435.676,157.577,435.676z"/>
	<path style="fill:#212121;" d="M224.713,332.766c-2.132,0-3.859-1.728-3.859-3.859v-66.034c0-2.132,1.728-3.859,3.859-3.859   c2.132,0,3.859,1.728,3.859,3.859v66.034C228.572,331.038,226.844,332.766,224.713,332.766z"/>
	<path style="fill:#212121;" d="M90.44,352.062c-2.132,0-3.859-1.728-3.859-3.859v-85.329c0-2.132,1.728-3.859,3.859-3.859   s3.859,1.728,3.859,3.859v85.329C94.299,350.333,92.571,352.062,90.44,352.062z"/>
	<path style="fill:#212121;" d="M117.295,384.221c-2.132,0-3.859-1.728-3.859-3.859v-117.49c0-2.132,1.728-3.859,3.859-3.859   s3.859,1.728,3.859,3.859v117.489C121.154,382.493,119.426,384.221,117.295,384.221z"/>
	<path style="fill:#212121;" d="M103.868,326.334c-2.132,0-3.859-1.728-3.859-3.859v-59.602c0-2.132,1.728-3.859,3.859-3.859   c2.131,0,3.859,1.728,3.859,3.859v59.602C107.727,324.606,105.999,326.334,103.868,326.334z"/>
	<path style="fill:#212121;" d="M77.012,287.743c-2.132,0-3.859-1.728-3.859-3.859v-21.011c0-2.132,1.728-3.859,3.859-3.859   s3.859,1.728,3.859,3.859v21.011C80.872,286.015,79.144,287.743,77.012,287.743z"/>
	<path style="fill:#212121;" d="M63.585,274.879c-2.132,0-3.859-1.728-3.859-3.859v-8.147c0-2.132,1.728-3.859,3.859-3.859   c2.132,0,3.859,1.728,3.859,3.859v8.147C67.444,273.151,65.717,274.879,63.585,274.879z"/>
	<path style="fill:#212121;" d="M130.722,371.358c-2.132,0-3.859-1.728-3.859-3.859V262.873c0-2.132,1.728-3.859,3.859-3.859   s3.859,1.728,3.859,3.859v104.626C134.581,369.63,132.854,371.358,130.722,371.358z"/>
	<path style="fill:#212121;" d="M9.876,287.743c-2.132,0-3.859-1.728-3.859-3.859v-21.011c0-2.132,1.728-3.859,3.859-3.859   s3.859,1.728,3.859,3.859v21.011C13.735,286.015,12.007,287.743,9.876,287.743z"/>
	<path style="fill:#212121;" d="M36.73,281.311c-2.132,0-3.859-1.728-3.859-3.859v-14.579c0-2.132,1.728-3.859,3.859-3.859   c2.132,0,3.859,1.728,3.859,3.859v14.579C40.589,279.583,38.862,281.311,36.73,281.311z"/>
	<path style="fill:#212121;" d="M23.303,274.879c-2.132,0-3.859-1.728-3.859-3.859v-8.147c0-2.132,1.728-3.859,3.859-3.859   s3.859,1.728,3.859,3.859v8.147C27.162,273.151,25.434,274.879,23.303,274.879z"/>
	<path style="fill:#212121;" d="M50.158,274.879c-2.132,0-3.859-1.728-3.859-3.859v-8.147c0-2.132,1.728-3.859,3.859-3.859   c2.132,0,3.859,1.728,3.859,3.859v8.147C54.017,273.151,52.29,274.879,50.158,274.879z"/>
	<path style="fill:#212121;" d="M511.937,261.308c-0.01,1.045-0.042,2.09-0.084,3.135H0.146c-0.042-1.045-0.073-2.09-0.084-3.135   H511.937z"/>
</g>
<g>
</g>
<g>
</g>
<g>
</g>
<g>
</g>
<g>
</g>
<g>
</g>
<g>
</g>
<g>
</g>
<g>
</g>
<g>
</g>
<g>
</g>
<g>
</g>
<g>
</g>
<g>
</g>
<g>
</g>
</svg>
