<?xml version="1.0" encoding="iso-8859-1"?>
<!-- Generator: Adobe Illustrator 19.0.0, SVG Export Plug-In . SVG Version: 6.00 Build 0)  -->
<svg xmlns="http://www.w3.org/2000/svg" xmlns:xlink="http://www.w3.org/1999/xlink" version="1.1" id="Capa_1" x="0px" y="0px" viewBox="0 0 512 512" style="enable-background:new 0 0 512 512;" xml:space="preserve">
<circle style="fill:#FFC11B;" cx="256" cy="256" r="256"/>
<g>
	<path style="fill:#F2F2F2;" d="M258.584,0.02c-1.693-0.021-3.385-0.021-5.089,0C159.58,1.336,82.665,77.457,80.418,171.331   c-1.317,55.348,22.967,105.044,61.827,138.104c34.597,29.435,55.212,72.035,55.212,117.457v0.993   c0,7.523,6.102,13.625,13.625,13.625h89.83c7.534,0,13.636-6.102,13.636-13.625c0-22.57,4.838-44.69,14.012-64.784   c9.174-20.104,22.674-38.191,40.009-52.663c38.536-32.214,63.06-80.645,63.06-134.813C431.63,79.495,354.38,1.399,258.584,0.02z    M320.233,231.736h-48.786v162.617c0,8.077-6.552,14.629-14.629,14.629h-0.815c-8.088,0-14.639-6.552-14.639-14.629V231.736   h-49.601c-8.077,0-14.629-6.562-14.629-14.639c0-8.088,6.552-14.639,14.629-14.639h128.47c8.087,0,14.639,6.552,14.639,14.639   C334.872,225.174,328.321,231.736,320.233,231.736z"/>
	<path style="fill:#F2F2F2;" d="M306.707,456.146H205.295c-4.328,0-7.837,3.509-7.837,7.837v8.72c0,4.328,3.509,7.837,7.837,7.837   h101.412c4.328,0,7.837-3.509,7.837-7.837v-8.72C314.544,459.655,311.035,456.146,306.707,456.146z"/>
	<path style="fill:#F2F2F2;" d="M302.344,503.013v4.796c-15.026,2.759-30.521,4.19-46.341,4.19c-15.83,0-31.316-1.432-46.352-4.19   v-4.796c0-4.326,3.511-7.837,7.837-7.837h77.019C298.833,495.176,302.344,498.687,302.344,503.013z"/>
</g>
<g>
</g>
<g>
</g>
<g>
</g>
<g>
</g>
<g>
</g>
<g>
</g>
<g>
</g>
<g>
</g>
<g>
</g>
<g>
</g>
<g>
</g>
<g>
</g>
<g>
</g>
<g>
</g>
<g>
</g>
</svg>
