<?xml version="1.0" encoding="iso-8859-1"?>
<!-- Generator: Adobe Illustrator 19.0.0, SVG Export Plug-In . SVG Version: 6.00 Build 0)  -->
<svg xmlns="http://www.w3.org/2000/svg" xmlns:xlink="http://www.w3.org/1999/xlink" version="1.1" id="Capa_1" x="0px" y="0px" viewBox="0 0 512 512" style="enable-background:new 0 0 512 512;" xml:space="preserve">
<circle style="fill:#494B5B;" cx="256" cy="256" r="256"/>
<path style="fill:#797B89;" d="M133.949,189.094V419.86c0,14.879-7.502,28.003-18.944,35.788c-3.615,2.466-7.628,4.399-11.922,5.674  c-1.86,0.564-3.783,0.993-5.736,1.296c-3.929-5.308-6.928-9.832-9.017-13.176c-11.16-9.665-21.462-20.292-30.783-31.734  c-3.521-4.305-6.907-8.725-10.136-13.26V189.094c0-7.346,1.839-14.263,5.078-20.313c7.262-13.657,21.64-22.946,38.191-22.946  c1.766,0,3.511,0.104,5.214,0.313c6.562,0.784,12.675,3.041,18.004,6.426c2.675,1.714,5.141,3.699,7.377,5.935  C129.1,166.336,133.949,177.141,133.949,189.094z"/>
<g>
	<path style="fill:#5C5E70;" d="M57.546,189.094v228.613c-3.521-4.305-6.907-8.725-10.136-13.26V189.094   c0-7.346,1.839-14.263,5.078-20.313C55.717,174.831,57.546,181.748,57.546,189.094z"/>
	<circle style="fill:#5C5E70;" cx="87.93" cy="247.47" r="31.587"/>
</g>
<g>
	<path style="fill:#F2F2F2;" d="M87.926,283.247c-19.725,0-35.771-16.048-35.771-35.772s16.047-35.772,35.771-35.772   s35.772,16.048,35.772,35.772S107.651,283.247,87.926,283.247z M87.926,220.062c-15.115,0-27.412,12.297-27.412,27.413   c0,15.116,12.297,27.413,27.412,27.413s27.413-12.297,27.413-27.413S103.042,220.062,87.926,220.062z"/>
	<path style="fill:#F2F2F2;" d="M88.617,402.748c-11.394,0-20.663-9.269-20.663-20.663v-54.944c0-11.394,9.269-20.662,20.663-20.662   c11.393,0,20.662,9.269,20.662,20.662v54.944C109.279,393.478,100.009,402.748,88.617,402.748z M88.617,314.838   c-6.785,0-12.304,5.519-12.304,12.303v54.944c0,6.785,5.519,12.304,12.304,12.304c6.783,0,12.303-5.519,12.303-12.304v-54.944   C100.919,320.357,95.4,314.838,88.617,314.838z"/>
	<path style="fill:#F2F2F2;" d="M464.976,211.276c-3.802,0-7.352-2.394-8.641-6.194c-13.146-38.708-34.25-69.564-62.722-91.71   c-33.662-26.182-77.124-39.456-129.179-39.456c-45.864,0-87.251,16.386-123.015,48.704c-27.012,24.408-40.501,49.245-40.634,49.493   c-2.382,4.438-7.909,6.114-12.352,3.738c-4.441-2.376-6.121-7.894-3.751-12.338c0.592-1.109,14.816-27.455,43.981-53.968   c38.776-35.251,85.724-53.883,135.771-53.883c56.211,0,103.444,14.569,140.386,43.302c31.338,24.374,54.485,58.103,68.799,100.249   c1.622,4.773-0.933,9.957-5.707,11.579C466.941,211.12,465.949,211.276,464.976,211.276z"/>
	<path style="fill:#F2F2F2;" d="M143.499,486.023c-14.263-7.001-27.784-15.276-40.417-24.701c-1.86,0.564-3.783,0.993-5.736,1.296   c-3.929-5.308-6.928-9.832-9.017-13.176c-2.278-3.636-3.49-5.872-3.647-6.175c-2.372-4.441-0.69-9.968,3.762-12.34   c4.441-2.372,9.968-0.7,12.34,3.741c0.073,0.125,3.48,6.395,10.24,15.694c1.212,1.672,2.539,3.438,3.981,5.287   c6.531,8.422,15.339,18.505,26.415,28.515C142.109,484.79,142.799,485.406,143.499,486.023z"/>
	<path style="fill:#F2F2F2;" d="M475.275,374.396c-1.787,8.244-4.106,16.478-6.917,24.628   c-13.793,20.428-30.448,38.766-49.403,54.418c18.631-24.921,32.204-53.885,38.473-82.902c11.536-53.373,10.564-115.054-2.058-129.4   c-3.657-4.169-5.308-4.504-7.21-4.89c-8.129-1.661-11.828-5.862-14.67-16.666c-5.423-20.595-22.183-60.876-73.571-99.422   c-4.033-3.02-4.848-8.746-1.829-12.779c3.03-4.033,8.746-4.848,12.779-1.818c55.808,41.848,74.25,86.486,80.269,109.369   c0.46,1.735,0.836,2.842,1.097,3.511c4.545,0.972,9.958,2.79,16.854,10.637C489.904,252.77,485.233,328.316,475.275,374.396z"/>
	<path style="fill:#F2F2F2;" d="M433.433,395.545c-1.11,0-2.238-0.204-3.333-0.634c-4.693-1.843-7.003-7.141-5.16-11.832   c21.711-55.274,17.602-97.626,10.332-123.422c-1.368-4.853,1.458-9.894,6.309-11.261c4.853-1.371,9.893,1.458,11.261,6.309   c8.03,28.492,12.656,75.051-10.911,135.048C440.52,393.349,437.077,395.545,433.433,395.545z"/>
</g>
<g>
</g>
<g>
</g>
<g>
</g>
<g>
</g>
<g>
</g>
<g>
</g>
<g>
</g>
<g>
</g>
<g>
</g>
<g>
</g>
<g>
</g>
<g>
</g>
<g>
</g>
<g>
</g>
<g>
</g>
</svg>
