<?xml version="1.0" encoding="iso-8859-1"?>
<!-- Generator: Adobe Illustrator 19.0.0, SVG Export Plug-In . SVG Version: 6.00 Build 0)  -->
<svg xmlns="http://www.w3.org/2000/svg" xmlns:xlink="http://www.w3.org/1999/xlink" version="1.1" id="Capa_1" x="0px" y="0px" viewBox="0 0 511.999 511.999" style="enable-background:new 0 0 511.999 511.999;" xml:space="preserve">
<circle style="fill:#F2F2F2;" cx="256" cy="256" r="253.61"/>
<path style="fill:#FB9000;" d="M507.295,221.61c-1.449,0.89-3.188,1.418-5.165,1.418h-46.281v189.131  c-22.059,28.187-49.935,51.581-81.838,68.382H137.997c-31.903-16.8-59.779-40.195-81.838-68.382V223.028H9.878  c-1.977,0-3.716-0.528-5.165-1.418c-5.434-3.312-6.739-11.697-0.87-16.231l4.306-3.333l241.82-187.247  c3.551-2.743,8.509-2.743,12.07,0l141.494,109.57V84.744c0-3.633,2.94-6.573,6.573-6.573h39.17c3.633,0,6.573,2.94,6.573,6.573  v80.13l48.01,37.172l4.306,3.333C514.023,209.913,512.719,218.288,507.295,221.61z"/>
<polygon style="fill:#FFAC00;" points="89.686,447.014 89.686,189.496 256,52.538 422.314,189.496 422.314,447.014 "/>
<polygon style="fill:#FFBF2D;" points="123.218,413.482 123.218,205.32 256,95.976 388.782,205.32 388.782,413.482 "/>
<polygon style="fill:#FFD354;" points="156.748,379.952 156.748,221.145 256,139.413 355.252,221.145 355.252,379.952 "/>
<polygon style="fill:#FFE877;" points="190.279,346.421 190.279,236.97 256,182.849 321.721,236.97 321.721,346.421 "/>
<g>
</g>
<g>
</g>
<g>
</g>
<g>
</g>
<g>
</g>
<g>
</g>
<g>
</g>
<g>
</g>
<g>
</g>
<g>
</g>
<g>
</g>
<g>
</g>
<g>
</g>
<g>
</g>
<g>
</g>
</svg>
