<?xml version="1.0" encoding="iso-8859-1"?>
<!-- Generator: Adobe Illustrator 19.0.0, SVG Export Plug-In . SVG Version: 6.00 Build 0)  -->
<svg xmlns="http://www.w3.org/2000/svg" xmlns:xlink="http://www.w3.org/1999/xlink" version="1.1" id="Capa_1" x="0px" y="0px" viewBox="0 0 512 512" style="enable-background:new 0 0 512 512;" xml:space="preserve">
<g>
	<circle style="fill:#DDDDDD;" cx="256" cy="256" r="256"/>
	<rect x="256" y="0.003" style="fill:#DDDDDD;" width="151.52" height="284.49"/>
</g>
<path style="fill:#9A9A9A;" d="M424.801,448.459c-45.056,39.56-104.134,63.54-168.802,63.54  c-75.796,0-143.892-32.935-190.766-85.284c19.989-7.983,44.324-16.018,72.86-22.517c9.686-2.205,17.042-10.135,18.505-19.978  l5.266-35.317c0,0-17.115-14.357-19.874-33.123c-2.769-18.777-6.625-39.204-6.625-39.204s-14.357-3.866-14.357-13.803  c0-9.937-5.527-30.365-9.937-42.517c-4.42-12.142,4.963-20.428,13.249-12.142c0,0-11.598-38.651-8.84-59.632  c0,0-7.178-33.123,8.84-55.766c5.402-7.638,14.075-10.438,23.197-10.794c0,0,9.926-19.571,43.603-27.303  c0,0,16.018-12.142,40.866-8.829c24.837,3.312,44.721,17.669,57.417,17.669s28.16,15.454,32.026,28.703  c3.866,13.26,9.937,17.669,9.937,43.07S321.43,204.8,321.43,204.8l-1.661,3.312c8.286-8.286,17.669,0,13.249,12.142  c-4.409,12.152-9.937,32.58-9.937,42.517c0,9.937-14.357,13.803-14.357,13.803s-3.866,20.428-6.625,39.204  c-2.759,18.766-19.874,33.123-19.874,33.123l5.256,35.317c1.473,9.843,8.829,17.774,18.516,19.978  C362.4,417.039,402.44,435.92,424.801,448.459z"/>
<path style="fill:#FE9441;" d="M511.997,41.609V256c0,4.294-0.104,8.579-0.324,12.821c-0.272,5.622-0.731,11.201-1.369,16.718  c-4.65,40.563-18.787,78.241-40.145,110.759c-3.762,5.736-7.753,11.316-11.964,16.718c-2.654,3.417-5.402,6.771-8.234,10.052  c-0.324,0.387-0.658,0.773-1.003,1.16c-7.502,8.599-15.579,16.697-24.158,24.231c-0.533,0.47-1.066,0.94-1.609,1.4  c-5.057,4.368-10.282,8.537-15.673,12.497V41.609c0-10.125,8.213-41.608,18.338-41.608h67.813  C503.794,0.002,511.997,31.484,511.997,41.609z"/>
<path style="fill:#63CF7C;" d="M511.997,41.609V256c0,4.294-0.104,8.579-0.324,12.821c-0.272,5.622-0.731,11.201-1.369,16.718  c-4.65,40.563-18.787,78.241-40.145,110.759h-62.641V41.609c0-10.125,8.213-41.608,18.338-41.608h67.813  C503.794,0.002,511.997,31.484,511.997,41.609z"/>
<path style="fill:#46C8F4;" d="M493.665,0.003h-67.812c-10.126,0-18.335,31.477-18.335,41.603v227.215h104.481V41.606  C512,31.48,503.791,0.003,493.665,0.003z"/>
<rect x="407.52" y="0.003" style="fill:#CAC6C5;" width="104.48" height="144.48"/>
<path style="fill:#686763;" d="M476.627,109.684l-13.03-42.538c-0.313-0.94-1.379-1.442-2.508-1.442  c-1.066,0-2.132,0.439-2.445,1.442l-7.231,23.479l-5.862,19.059c-0.063,0.115-0.063,0.313-0.063,0.428  c0,1.066,1.317,1.755,2.382,1.755c0.752,0,1.442-0.313,1.63-1.066l2.884-9.644h17.345l2.884,9.644  c0.251,0.752,0.878,1.066,1.567,1.066c1.128,0,2.508-0.815,2.508-1.818C476.69,109.935,476.627,109.799,476.627,109.684z   M453.452,97.584l1.003-3.302l6.635-21.943l7.575,25.245H453.452z"/>
<path style="fill:#00688D;" d="M468.54,203.045c3.197-1.379,5.329-5.068,5.329-10.334c0-8.829-5.768-10.647-12.779-10.647h-10.271  c-0.94,0-1.881,0.502-1.881,1.567v42.652c0,0.815,0.69,1.567,1.881,1.567h11.776c6.949,0,12.403-3.375,12.403-12.904v-1.128  C474.997,207.433,472.364,204.612,468.54,203.045z M453.013,185.888h7.952c5.141,0,8.767,1.494,8.767,7.262  c0,5.956-2.759,8.077-8.516,8.077h-8.202v-15.339H453.013z M470.859,214.758c0,6.457-3.323,9.279-8.767,9.279h-9.08V204.8h9.08  c5.444,0,8.767,2.382,8.767,8.892V214.758z"/>
<path style="fill:#1E7135;" d="M472.427,342.026c-1.317,0-1.943,0.627-2.069,1.63c-0.376,3.009-1.066,7.711-8.516,7.711  c-6.081,0-9.268-3.009-9.268-9.592v-19.414c0-6.52,3.187-9.519,9.017-9.519c7.45,0,8.641,4.88,8.767,7.575  c0.063,0.878,0.627,1.567,2.069,1.567s2.069-0.439,2.069-2.508c0-5.642-4.702-10.459-12.904-10.459  c-7.147,0-13.155,3.636-13.155,13.343v19.414c0,9.78,5.883,13.406,12.967,13.406c8.265,0,13.092-4.88,13.092-10.585  C474.496,342.527,473.869,342.026,472.427,342.026z"/>
<path d="M448.959,424.228c0.345-0.387,0.679-0.773,1.003-1.16C449.397,423.287,449.021,423.726,448.959,424.228z"/>
<rect x="407.52" y="144.48" style="fill:#38AAD3;" width="104.48" height="16.718"/>
<path style="fill:#5BBD72;" d="M511.673,268.821c-0.272,5.622-0.731,11.201-1.369,16.718H407.518v-16.718H511.673z"/>
<path style="fill:#E68737;" d="M470.159,396.298c-3.762,5.736-7.753,11.316-11.964,16.718h-50.677v-16.718H470.159z"/>
<rect x="407.52" y="144.48" style="fill:#38AAD3;" width="15.673" height="124.34"/>
<rect x="407.52" y="268.82" style="fill:#5BBD72;" width="15.673" height="127.48"/>
<path style="fill:#E68737;" d="M423.192,396.298v53.561c-5.057,4.368-10.282,8.537-15.673,12.497v-66.058L423.192,396.298  L423.192,396.298z"/>
<rect x="407.52" y="0.003" style="fill:#B4B3AF;" width="15.673" height="144.48"/>
<g>
</g>
<g>
</g>
<g>
</g>
<g>
</g>
<g>
</g>
<g>
</g>
<g>
</g>
<g>
</g>
<g>
</g>
<g>
</g>
<g>
</g>
<g>
</g>
<g>
</g>
<g>
</g>
<g>
</g>
</svg>
