<?xml version="1.0" encoding="iso-8859-1"?>
<!-- Generator: Adobe Illustrator 19.0.0, SVG Export Plug-In . SVG Version: 6.00 Build 0)  -->
<svg xmlns="http://www.w3.org/2000/svg" xmlns:xlink="http://www.w3.org/1999/xlink" version="1.1" id="Capa_1" x="0px" y="0px" viewBox="0 0 512 512" style="enable-background:new 0 0 512 512;" xml:space="preserve">
<circle style="fill:#759AF5;" cx="256" cy="256" r="256"/>
<g>
	<path style="fill:#F2F2F2;" d="M274.26,115.107H80.84c-26.527,0-48.031,21.504-48.031,48.031v149.033   c0,26.527,21.504,48.031,48.031,48.031h193.42c26.527,0,48.031-21.504,48.031-48.031V163.138   C322.29,136.611,300.786,115.107,274.26,115.107z"/>
	<path style="fill:#F2F2F2;" d="M23.159,205.811H4.563c-2.52,0-4.563-2.043-4.563-4.563v-50.699c0-2.52,2.043-4.563,4.563-4.563   h18.595v59.826L23.159,205.811L23.159,205.811z"/>
	<polygon style="fill:#F2F2F2;" points="333.87,277.218 428.434,338.973 428.434,140.196 333.87,201.952  "/>
	<rect x="442.9" y="140.19" style="fill:#F2F2F2;" width="33.3" height="198.78"/>
</g>
<g>
</g>
<g>
</g>
<g>
</g>
<g>
</g>
<g>
</g>
<g>
</g>
<g>
</g>
<g>
</g>
<g>
</g>
<g>
</g>
<g>
</g>
<g>
</g>
<g>
</g>
<g>
</g>
<g>
</g>
</svg>
