<?xml version="1.0" encoding="iso-8859-1"?>
<!-- Generator: Adobe Illustrator 19.0.0, SVG Export Plug-In . SVG Version: 6.00 Build 0)  -->
<svg xmlns="http://www.w3.org/2000/svg" xmlns:xlink="http://www.w3.org/1999/xlink" version="1.1" id="Capa_1" x="0px" y="0px" viewBox="0 0 512 512" style="enable-background:new 0 0 512 512;" xml:space="preserve">
<path style="fill:#F2F2F2;" d="M511.203,255.203c0,51.853-15.468,100.113-42.041,140.383  c-27.364,41.457-66.488,74.457-112.623,94.248c-12.968,5.573-26.499,10.094-40.478,13.458c-19.26,4.656-39.374,7.114-60.061,7.114  c-20.677,0-40.78-2.458-60.03-7.104c-0.01,0-0.021,0-0.031-0.01c-13.989-3.365-27.531-7.896-40.51-13.468  c-46.124-19.791-85.238-52.791-112.591-94.238c-26.572-40.27-42.041-88.529-42.041-140.383C0.797,114.258,115.055,0,256,0  S511.203,114.258,511.203,255.203z"/>
<path d="M488.808,301.838c0,33.353-7.01,65.072-19.645,93.748c-27.364,41.457-66.488,74.457-112.623,94.248  c-12.968,5.573-26.499,10.094-40.478,13.458C297.03,508.958,276.875,512,256,512c-20.854,0-41.01-3.042-60.03-8.698  c-0.01,0-0.021,0-0.031-0.01c-13.989-3.365-27.531-7.896-40.51-13.468c-46.124-19.791-85.238-52.791-112.591-94.238  c-12.635-28.677-19.645-60.395-19.645-93.748C23.192,173.257,127.419,69.03,256,69.03C384.57,69.03,488.808,173.257,488.808,301.838  z"/>
<circle style="fill:#35AC49;" cx="256.28" cy="301.84" r="210.15"/>
<path style="fill:#26682D;" d="M465.455,284.847l-204.093,21.33c-6.25,0.653-9.672-7.084-4.983-11.269l153.083-136.625  c19.846,21.201,35.347,46.501,45.087,74.508C460.289,249.295,464.02,266.744,465.455,284.847z"/>
<g>
	<path style="fill:#29E829;" d="M320.436,296.619c-1.198-14.979-7.531-28.541-17.25-38.916   c-11.791-12.614-28.583-20.52-47.187-20.52c-35.656,0-64.655,29.01-64.655,64.655s28.999,64.655,64.655,64.655   c35.645,0,64.645-29.01,64.645-64.655C320.645,300.077,320.572,298.338,320.436,296.619z M256,360.336   c-32.26,0-58.499-26.239-58.499-58.499S223.74,243.339,256,243.339c16.823,0,32.02,7.146,42.697,18.562   c8.791,9.385,14.521,21.656,15.614,35.218c0.125,1.552,0.187,3.125,0.187,4.719C314.499,334.097,288.249,360.336,256,360.336z"/>
	<path style="fill:#29E829;" d="M393.601,290.682c-2.573-31.999-16.093-60.957-36.833-83.102   c-25.197-26.937-61.051-43.791-100.769-43.791c-76.123,0-138.06,61.926-138.06,138.049S179.877,439.887,256,439.887   s138.049-61.926,138.049-138.049C394.049,298.077,393.903,294.359,393.601,290.682z M256,433.741   c-72.738,0-131.904-59.176-131.904-131.904S183.262,169.934,256,169.934c37.937,0,72.186,16.104,96.29,41.832   c19.802,21.156,32.729,48.832,35.187,79.415c0.281,3.521,0.427,7.073,0.427,10.656C387.904,374.565,328.728,433.741,256,433.741z"/>
	<path style="fill:#29E829;" d="M256,88.602c-117.581,0-213.235,95.654-213.235,213.235c0,81.228,45.655,151.997,112.664,187.986   c12.979,5.573,26.52,10.104,40.51,13.468c0.01,0.01,0.021,0.01,0.031,0.01C214.99,508.958,235.146,512,256,512   c20.875,0,41.03-3.042,60.061-8.708c13.979-3.365,27.51-7.885,40.478-13.458c67.019-35.978,112.685-106.758,112.685-187.996   C469.225,184.257,373.571,88.602,256,88.602z M256,508.917c-114.185,0-207.079-92.894-207.079-207.079S141.815,94.759,256,94.759   c59.572,0,113.341,25.281,151.153,65.676c31.093,33.218,51.395,76.655,55.249,124.664c0.448,5.521,0.677,11.104,0.677,16.739   C463.079,416.023,370.185,508.917,256,508.917z"/>
</g>
<g>
</g>
<g>
</g>
<g>
</g>
<g>
</g>
<g>
</g>
<g>
</g>
<g>
</g>
<g>
</g>
<g>
</g>
<g>
</g>
<g>
</g>
<g>
</g>
<g>
</g>
<g>
</g>
<g>
</g>
</svg>
