<?xml version="1.0" encoding="iso-8859-1"?>
<!-- Generator: Adobe Illustrator 19.0.0, SVG Export Plug-In . SVG Version: 6.00 Build 0)  -->
<svg xmlns="http://www.w3.org/2000/svg" xmlns:xlink="http://www.w3.org/1999/xlink" version="1.1" id="Capa_1" x="0px" y="0px" viewBox="0 0 512 512" style="enable-background:new 0 0 512 512;" xml:space="preserve">
<circle style="fill:#202020;" cx="256" cy="255.6" r="255.6"/>
<path style="fill:#F2F2F2;" d="M495.269,305.057c0,20.542-2.639,40.479-7.585,59.466C446.945,451.647,358.527,512,256.005,512  c-87.071,0-163.971-43.536-210.125-110.023c-13.385-29.545-20.845-62.367-20.845-96.92c0-86.07,46.259-161.331,115.261-202.301  v202.301c0,66.081,53.77,119.851,119.861,119.851c66.081,0,119.851-53.77,119.851-119.851c0-66.091-53.77-119.861-119.851-119.861  c-25.362,0-48.898,7.918-68.282,21.408V80.023c21.606-6.552,44.527-10.088,68.282-10.088  C390.003,69.935,495.269,175.201,495.269,305.057z"/>
<path style="fill:#FFFFFF;" d="M328.435,304.254c0-37.651-30.63-68.282-68.282-68.282s-68.283,30.631-68.283,68.282  s30.633,68.282,68.283,68.282S328.435,341.905,328.435,304.254z"/>
<g>
</g>
<g>
</g>
<g>
</g>
<g>
</g>
<g>
</g>
<g>
</g>
<g>
</g>
<g>
</g>
<g>
</g>
<g>
</g>
<g>
</g>
<g>
</g>
<g>
</g>
<g>
</g>
<g>
</g>
</svg>
