<?xml version="1.0" encoding="iso-8859-1"?>
<!-- Generator: Adobe Illustrator 19.0.0, SVG Export Plug-In . SVG Version: 6.00 Build 0)  -->
<svg xmlns="http://www.w3.org/2000/svg" xmlns:xlink="http://www.w3.org/1999/xlink" version="1.1" id="Capa_1" x="0px" y="0px" viewBox="0 0 512 512" style="enable-background:new 0 0 512 512;" xml:space="preserve">
<circle style="fill:#202020;" cx="256" cy="256" r="256"/>
<path style="fill:#7D848A;" d="M498.796,313.092c0,9.937-0.596,19.738-1.766,29.362v0.01  c-16.165,45.056-44.607,84.271-81.293,113.591l-0.01,0.01c-4.566,3.657-9.268,7.158-14.096,10.501  c-5.611,3.897-11.4,7.565-17.335,11.013c-0.01,0-0.01,0-0.021,0.01c-20.585,11.943-42.987,21.107-66.696,26.948  c-19.728,4.88-40.344,7.461-61.576,7.461c-19.31,0-38.128-2.142-56.216-6.196c-22.392-5.016-43.666-12.957-63.415-23.416  c-2.915-1.546-5.799-3.145-8.652-4.807c-11.034-6.395-21.535-13.594-31.441-21.514l-0.01-0.01  c-36.697-29.33-65.139-68.545-81.304-113.612c0-0.01,0-0.01,0-0.021c-0.125-0.982-0.24-1.985-0.345-2.967  c-0.93-8.652-1.421-17.45-1.421-26.363c0-29.226,5.162-57.239,14.618-83.174c16.081-44.095,44.554-82.202,81.23-110.132  c23.479-17.878,50.322-31.566,79.391-39.967c21.452-6.207,44.116-9.529,67.563-9.529c21.41,0,42.183,2.779,61.952,7.973h0.021  c31.974,8.422,61.367,23.186,86.747,42.904c20.323,15.757,38.066,34.68,52.517,56.038c24.66,36.446,39.675,79.935,41.399,126.83  C498.743,307.042,498.796,310.062,498.796,313.092z"/>
<g>
	<path style="fill:#B9BABE;" d="M404.72,121.161L256,313.088l61.96-234.821h0.011C349.951,86.684,379.342,101.448,404.72,121.161z"/>
	<path style="fill:#B9BABE;" d="M498.637,304.035L256,313.088l201.245-135.886C481.895,213.644,496.914,257.14,498.637,304.035z"/>
	<path style="fill:#B9BABE;" d="M401.631,466.567c-5.611,3.897-11.4,7.565-17.335,11.013c-0.01,0-0.01,0-0.021,0.01   c-20.585,11.943-42.987,21.107-66.696,26.948l-6.531-20.281l-1.766-5.517l-9.206-28.609l-1.766-5.507l-9.624-29.915l-2.832-8.798   l-7.973-24.775l-1.766-5.507l-17.283-53.739L256,313.092l6.363,6.698l38.839,40.939l3.971,4.18l17.91,18.881l6.353,6.698   l21.619,22.779l3.971,4.19l20.679,21.797l3.992,4.2l19.874,20.95L401.631,466.567z"/>
	<path style="fill:#B9BABE;" d="M256,313.088L109.05,119.786c23.482-17.874,50.317-31.564,79.396-39.969L256,313.088z"/>
	<path style="fill:#B9BABE;" d="M256,313.088L14.624,339.46c-0.936-8.66-1.422-17.458-1.422-26.372   c0-29.216,5.157-57.231,14.614-83.164L256,313.088z"/>
	<path style="fill:#B9BABE;" d="M256.003,313.092l-2.591,8.871l-15.809,54.199l-1.609,5.548l-7.293,24.984l-2.591,8.882   l-8.798,30.156l-1.62,5.559l-8.411,28.85l-1.62,5.559l-5.872,20.104c-22.392-5.015-43.666-12.957-63.415-23.416l15.914-22.518   l3.333-4.723l17.345-24.545l3.333-4.723l18.129-25.642l5.329-7.555l15.015-21.243l3.333-4.712l32.559-46.08L256.003,313.092z"/>
</g>
<path style="fill:#51504F;" d="M362.666,309.111c-0.752-20.595-7.367-39.717-18.223-55.735  c-6.353-9.383-14.148-17.701-23.082-24.628c-11.16-8.673-24.085-15.182-38.128-18.892c-8.694-2.299-17.826-3.521-27.23-3.521  c-10.303,0-20.261,1.463-29.696,4.211h-0.01c-12.769,3.699-24.555,9.728-34.868,17.596c-16.123,12.267-28.651,29.027-35.736,48.389  c-4.169,11.41-6.447,23.719-6.447,36.561c0,3.918,0.209,7.785,0.627,11.588c3.375,31.148,20.208,58.326,44.554,75.557  c9.529,6.76,20.208,11.995,31.681,15.339c9.488,2.779,19.519,4.263,29.895,4.263c11.4,0,22.382-1.797,32.684-5.13  c15.402-4.953,29.278-13.333,40.751-24.221c20.511-19.456,33.311-46.958,33.311-77.396  C362.75,311.755,362.729,310.428,362.666,309.111z M323.086,383.79c-10.48,9.947-23.165,17.596-37.23,22.12  c-9.415,3.041-19.446,4.681-29.853,4.681c-9.477,0-18.631-1.358-27.303-3.897c-10.48-3.051-20.24-7.837-28.944-14.012  c-22.225-15.747-37.595-40.563-40.678-69.005c-0.376-3.479-0.575-7.011-0.575-10.585c0-11.724,2.079-22.967,5.883-33.395  c6.468-17.68,17.91-32.987,32.632-44.189c9.425-7.189,20.198-12.695,31.859-16.081c8.61-2.508,17.711-3.845,27.126-3.845  c8.6,0,16.938,1.118,24.879,3.218c12.821,3.385,24.618,9.331,34.816,17.251c8.161,6.332,15.287,13.928,21.086,22.497  c9.916,14.639,15.956,32.099,16.645,50.907c0.052,1.212,0.073,2.424,0.073,3.636C353.503,340.886,341.81,366.006,323.086,383.79z"/>
<g>
	<path style="fill:#605F5E;" d="M327.422,310.428c-0.502-13.793-4.932-26.593-12.204-37.324c-4.253-6.28-9.477-11.849-15.454-16.488   c-7.471-5.81-16.123-10.167-25.527-12.643c-5.82-1.546-11.933-2.361-18.233-2.361c-6.896,0-13.563,0.982-19.884,2.821   c-8.547,2.466-16.447,6.51-23.353,11.786c-10.794,8.213-19.184,19.435-23.928,32.392c-2.79,7.638-4.315,15.882-4.315,24.482   c0,2.623,0.146,5.214,0.418,7.764c2.267,20.846,13.531,39.037,29.832,50.584c6.384,4.524,13.531,8.025,21.222,10.271   c6.353,1.86,13.072,2.853,20.01,2.853c7.628,0,14.984-1.202,21.88-3.427c10.313-3.323,19.613-8.934,27.293-16.227   c13.73-13.03,22.298-31.441,22.298-51.816C327.474,312.204,327.453,311.316,327.422,310.428z M301.205,360.729   c-7.064,6.698-15.611,11.849-25.088,14.9c-6.343,2.048-13.103,3.156-20.114,3.156c-6.384,0-12.56-0.92-18.401-2.623   c-7.064-2.058-13.636-5.277-19.498-9.435c-14.973-10.616-25.339-27.335-27.408-46.498c-0.272-2.341-0.397-4.723-0.397-7.137   c0-7.899,1.4-15.475,3.971-22.497c4.357-11.922,12.069-22.225,21.985-29.78c6.353-4.848,13.615-8.568,21.473-10.836   c5.799-1.693,11.933-2.591,18.275-2.591c5.789,0,11.41,0.752,16.76,2.163c8.641,2.288,16.593,6.29,23.458,11.63   c5.496,4.263,10.303,9.383,14.211,15.161c6.677,9.864,10.752,21.629,11.212,34.294c0.042,0.815,0.052,1.63,0.052,2.456   C321.696,331.817,313.817,348.744,301.205,360.729z"/>
	<path style="fill:#605F5E;" d="M399.854,307.721c-1.024-27.763-9.947-53.551-24.586-75.159   c-8.568-12.643-19.09-23.855-31.128-33.207c-15.047-11.692-32.465-20.459-51.409-25.464h-0.01   c-11.724-3.093-24.033-4.744-36.718-4.744c-13.897,0-27.335,1.975-40.051,5.663c-17.22,4.995-33.113,13.134-47.031,23.73   c-21.734,16.562-38.63,39.152-48.17,65.254c-5.622,15.391-8.694,31.995-8.694,49.298c0,5.277,0.282,10.501,0.846,15.632   c4.556,41.994,27.24,78.629,60.061,101.878c12.852,9.112,27.251,16.175,42.726,20.689c12.8,3.741,26.321,5.747,40.312,5.747   c15.37,0,30.177-2.424,44.074-6.907c20.773-6.687,39.487-17.983,54.951-32.674c27.658-26.237,44.92-63.321,44.92-104.364   C399.948,311.295,399.917,309.508,399.854,307.721z M351.057,413.267c-14.848,14.096-32.82,24.931-52.746,31.357   c-13.343,4.305-27.554,6.625-42.308,6.625c-13.427,0-26.415-1.923-38.693-5.517c-14.848-4.336-28.672-11.107-41.012-19.853   c-31.493-22.309-53.279-57.469-57.657-97.782c-0.533-4.932-0.805-9.937-0.805-15.005c0-16.614,2.947-32.549,8.349-47.323   c9.164-25.046,25.381-46.738,46.237-62.631c13.354-10.177,28.609-17.983,45.14-22.768c12.204-3.542,25.109-5.444,38.442-5.444   c12.173,0,23.991,1.578,35.244,4.556c18.181,4.796,34.91,13.218,49.351,24.44c11.557,8.976,21.65,19.749,29.874,31.88   c14.043,20.741,22.612,45.495,23.594,72.14c0.063,1.703,0.094,3.427,0.094,5.151C394.16,352.485,377.587,388.074,351.057,413.267z"/>
	<path style="fill:#605F5E;" d="M435.663,306.384c-1.275-34.68-12.424-66.884-30.71-93.874c-10.689-15.788-23.834-29.8-38.87-41.472   c-18.798-14.608-40.552-25.569-64.209-31.807c-14.649-3.877-30.02-5.935-45.871-5.935c-17.356,0-34.137,2.466-50.019,7.084   c-21.514,6.238-41.368,16.394-58.744,29.644c-27.136,20.668-48.243,48.891-60.155,81.492   c-7.032,19.216-10.867,39.957-10.867,61.576c0,6.593,0.355,13.103,1.055,19.519c5.684,52.454,34.032,98.21,75.013,127.258   c16.05,11.379,34.043,20.187,53.373,25.83c15.976,4.671,32.872,7.178,50.343,7.178c19.195,0,37.689-3.02,55.045-8.62   c25.945-8.359,49.33-22.465,68.65-40.803c34.534-32.789,56.09-79.109,56.09-130.361   C435.788,310.846,435.746,308.61,435.663,306.384z M375.707,439.253c-18.704,17.763-41.326,31.399-66.424,39.487   c-16.792,5.423-34.701,8.349-53.279,8.349c-16.906,0-33.259-2.424-48.724-6.949c-18.714-5.454-36.122-13.981-51.66-24.994   c-39.664-28.108-67.093-72.391-72.6-123.162c-0.679-6.207-1.024-12.507-1.024-18.892c0-20.919,3.709-40.991,10.512-59.591   c11.536-31.556,31.963-58.87,58.232-78.879c16.823-12.821,36.039-22.653,56.853-28.682c15.37-4.462,31.619-6.855,48.41-6.855   c15.329,0,30.208,1.996,44.387,5.736c22.894,6.05,43.959,16.656,62.151,30.783c14.555,11.295,27.272,24.858,37.627,40.135   c17.69,26.133,28.484,57.302,29.727,90.864c0.073,2.152,0.115,4.315,0.115,6.489C430.01,362.704,409.133,407.54,375.707,439.253z"/>
	<path style="fill:#605F5E;" d="M470.322,305.088c-1.526-41.368-14.827-79.788-36.634-111.982   c-12.758-18.84-28.432-35.547-46.373-49.476c-22.424-17.418-48.379-30.49-76.591-37.94c-17.481-4.618-35.819-7.074-54.721-7.074   c-20.699,0-40.72,2.947-59.674,8.453c-25.652,7.44-49.34,19.55-70.071,35.349c-32.371,24.67-57.553,58.326-71.764,97.217v0.01   c-8.391,22.925-12.967,47.658-12.967,73.446c0,7.868,0.428,15.642,1.254,23.291c4.963,45.704,24.336,87.155,53.488,119.672   l0.01,0.01c9.906,7.92,20.407,15.12,31.441,21.514c-43.311-33.834-72.955-84.365-79.193-141.824   c-0.805-7.44-1.223-15.005-1.223-22.664c0-25.088,4.451-49.162,12.612-71.471c13.824-37.836,38.327-70.593,69.831-94.605   c20.177-15.37,43.227-27.157,68.19-34.398c18.442-5.35,37.919-8.223,58.065-8.223c18.39,0,36.237,2.393,53.238,6.886   c27.46,7.241,52.715,19.968,74.533,36.916c17.46,13.552,32.705,29.811,45.119,48.149c21.232,31.326,34.168,68.702,35.652,108.962   c0.094,2.581,0.146,5.183,0.146,7.784c0,59.496-25.036,113.267-65.118,151.312c-4.869,4.629-9.979,9.028-15.276,13.176   c5.935-3.448,11.724-7.116,17.335-11.013c4.827-3.344,9.529-6.844,14.096-10.501l0.01-0.01   c34.011-37.961,54.732-88.085,54.732-142.963C470.468,310.407,470.416,307.742,470.322,305.088z"/>
</g>
<g>
	<path style="fill:#6D6D6C;" d="M401.631,466.567c-5.611,3.897-11.4,7.565-17.335,11.013c5.298-4.148,10.407-8.547,15.276-13.176   L401.631,466.567z"/>
	<path style="fill:#6D6D6C;" d="M256.003,241.611c-6.896,0-13.563,0.982-19.884,2.821h-0.01l1.609,5.548h0.01   c5.799-1.693,11.933-2.591,18.275-2.591c5.789,0,11.41,0.752,16.76,2.163l1.463-5.58   C268.406,242.426,262.304,241.611,256.003,241.611z M276.117,375.629c-6.343,2.048-13.103,3.156-20.114,3.156   c-6.384,0-12.56-0.92-18.401-2.623l-1.609,5.548c6.353,1.86,13.072,2.853,20.01,2.853c7.628,0,14.984-1.202,21.88-3.427   L276.117,375.629z M190.697,320.229l-5.757,0.627c2.267,20.846,13.531,39.037,29.832,50.584l3.333-4.712   C203.131,356.111,192.766,339.392,190.697,320.229z M327.422,310.428l-5.778,0.209c0.042,0.815,0.052,1.63,0.052,2.456   c0,18.725-7.879,35.652-20.49,47.637l3.971,4.18c13.73-13.03,22.298-31.441,22.298-51.816   C327.474,312.204,327.453,311.316,327.422,310.428z M299.763,256.615l-3.542,4.566c5.496,4.263,10.292,9.373,14.211,15.151   l4.786-3.229C310.965,266.824,305.74,261.255,299.763,256.615z M212.765,256.218c-10.794,8.213-19.184,19.435-23.928,32.392   l5.433,1.985c4.357-11.922,12.069-22.225,21.985-29.78L212.765,256.218z"/>
	<path style="fill:#6D6D6C;" d="M256.003,169.147c-13.897,0-27.335,1.975-40.051,5.663l1.609,5.559   c12.204-3.542,25.109-5.444,38.442-5.444c12.173,0,23.991,1.578,35.244,4.556l1.473-5.59   C280.997,170.798,268.688,169.147,256.003,169.147z M298.311,444.624c-13.343,4.305-27.554,6.625-42.308,6.625   c-13.427,0-26.415-1.923-38.693-5.517l-1.62,5.559c12.8,3.741,26.321,5.747,40.312,5.747c15.37,0,30.177-2.424,44.074-6.907   L298.311,444.624z M118.641,328.097l-5.736,0.627c4.556,41.994,27.24,78.629,60.061,101.878l3.333-4.723   C144.805,403.57,123.019,368.409,118.641,328.097z M399.854,307.721l-5.789,0.219c0.063,1.703,0.094,3.427,0.094,5.151   c0,39.393-16.572,74.982-43.102,100.174l3.971,4.19c27.658-26.237,44.92-63.321,44.92-104.364   C399.948,311.295,399.917,309.508,399.854,307.721z M344.14,199.355l-0.01-0.01l-3.542,4.566l0.01,0.01   c11.557,8.976,21.64,19.738,29.874,31.869l4.796-3.229v-0.01C366.689,219.908,356.177,208.707,344.14,199.355z M168.921,198.54   c-21.734,16.562-38.63,39.152-48.17,65.254l5.433,1.985v-0.01c9.164-25.046,25.37-46.728,46.226-62.621L168.921,198.54z"/>
	<path style="fill:#6D6D6C;" d="M256.003,133.297c-17.356,0-34.137,2.466-50.019,7.084l1.609,5.559   c15.37-4.462,31.619-6.855,48.41-6.855c15.329,0,30.208,1.996,44.387,5.736l1.473-5.59   C287.214,135.355,271.854,133.297,256.003,133.297z M309.282,478.74c-16.792,5.423-34.701,8.349-53.279,8.349   c-16.906,0-33.259-2.424-48.724-6.949l-1.62,5.559c15.976,4.671,32.872,7.178,50.343,7.178c19.195,0,37.689-3.02,55.045-8.62   L309.282,478.74z M83.02,331.984l-5.747,0.627c5.684,52.454,34.032,98.21,75.013,127.258l3.333-4.723   C115.955,427.038,88.527,382.755,83.02,331.984z M435.663,306.384l-5.768,0.219c0.073,2.152,0.115,4.315,0.115,6.489   c0,49.612-20.877,94.448-54.303,126.161l3.992,4.2c34.534-32.789,56.09-79.109,56.09-130.361   C435.788,310.846,435.746,308.61,435.663,306.384z M366.083,171.038l-0.01-0.01l-3.542,4.566l0.01,0.01   c14.555,11.295,27.272,24.858,37.627,40.135l4.786-3.229C394.264,196.722,381.119,182.71,366.083,171.038z M147.24,170.025   c-27.136,20.668-48.243,48.891-60.155,81.492v0.01l5.423,1.975c11.536-31.556,31.963-58.87,58.232-78.879L147.24,170.025z"/>
	<path style="fill:#6D6D6C;" d="M48.528,335.756l-5.747,0.627c4.963,45.704,24.336,87.155,53.488,119.672l0.01,0.01   c9.906,7.92,20.407,15.12,31.441,21.514C84.41,443.746,54.766,393.215,48.528,335.756z M256.003,98.616   c-20.699,0-40.72,2.947-59.674,8.453l1.609,5.548c18.442-5.35,37.919-8.223,58.065-8.223c18.39,0,36.237,2.393,53.238,6.886   l1.473-5.59C293.233,101.072,274.905,98.616,256.003,98.616z M470.322,305.088l-5.778,0.219c0.094,2.581,0.146,5.183,0.146,7.784   c0,59.496-25.036,113.267-65.118,151.312c-4.869,4.629-9.979,9.028-15.276,13.176c5.935-3.448,11.724-7.116,17.335-11.013   c4.827-3.344,9.529-6.844,14.096-10.501l0.01-0.01c34.011-37.961,54.732-88.085,54.732-142.963   C470.468,310.407,470.416,307.742,470.322,305.088z M387.315,143.631h-0.01l-3.532,4.566c17.46,13.552,32.705,29.811,45.119,48.149   l4.796-3.239C420.93,174.267,405.256,157.559,387.315,143.631z M126.258,142.419c-32.371,24.67-57.553,58.326-71.764,97.217v0.01   l5.423,1.975c13.824-37.836,38.327-70.593,69.831-94.605L126.258,142.419z"/>
</g>
<circle style="fill:#222222;" cx="256" cy="313.08" r="9.249"/>
<g>
</g>
<g>
</g>
<g>
</g>
<g>
</g>
<g>
</g>
<g>
</g>
<g>
</g>
<g>
</g>
<g>
</g>
<g>
</g>
<g>
</g>
<g>
</g>
<g>
</g>
<g>
</g>
<g>
</g>
</svg>
