<?xml version="1.0" encoding="iso-8859-1"?>
<!-- Generator: Adobe Illustrator 19.0.0, SVG Export Plug-In . SVG Version: 6.00 Build 0)  -->
<svg xmlns="http://www.w3.org/2000/svg" xmlns:xlink="http://www.w3.org/1999/xlink" version="1.1" id="Capa_1" x="0px" y="0px" viewBox="0 0 512 512" style="enable-background:new 0 0 512 512;" xml:space="preserve">
<path style="fill:#F2F2F2;" d="M512,256c0,48.985-13.761,94.762-37.627,133.663c-21.431,34.952-51.022,64.355-86.12,85.567  C349.654,498.573,304.4,512,256,512c-48.421,0-93.696-13.437-132.305-36.801c-35.077-21.211-64.658-50.615-86.079-85.556  C13.751,350.741,0,304.974,0,256C0,114.615,114.615,0,256,0S512,114.615,512,256z"/>
<path style="fill:#F46430;" d="M256,67.229c-129.672,0-235.165,105.503-235.165,235.165c0,30.814,5.956,60.27,16.781,87.249  c21.42,34.941,51.001,64.345,86.079,85.556c-7.534-5.778-14.733-12.1-21.567-18.934C61.032,415.159,38.4,360.521,38.4,302.393  c0-58.117,22.632-112.765,63.728-153.861C143.235,107.436,197.872,84.793,256,84.793c58.117,0,112.765,22.643,153.861,63.739  S473.6,244.276,473.6,302.393c0,58.128-22.643,112.765-63.739,153.872c-6.844,6.844-14.064,13.176-21.608,18.965  c35.098-21.211,64.69-50.615,86.12-85.567c10.836-27,16.792-56.445,16.792-87.27C491.165,172.732,385.661,67.229,256,67.229z"/>
<g>
	<path style="fill:#F98A25;" d="M209.121,370.588c0.51-1.835,0.565-3.795,0.138-5.712c-0.883-3.837,0.276-7.866,3.05-10.639   l98.005-98.005c1.38-1.38,3.091-2.374,4.913-2.898c1.848-0.525,3.809-0.579,5.727-0.152c3.837,0.883,7.852-0.262,10.639-3.05   l71.469-71.469c-8.183-9.729-17.333-18.629-27.254-26.564l-29.724,29.724c-2.787,2.787-3.933,6.803-3.05,10.639   c0.883,3.837-0.276,7.866-3.05,10.639L159.18,383.905c-1.38,1.38-3.091,2.374-4.912,2.897c-1.849,0.525-3.809,0.58-5.727,0.152   c-3.837-0.883-7.852,0.262-10.639,3.05l-32.209,32.209c7.935,9.922,16.835,19.072,26.564,27.254l73.953-73.953   C207.602,374.12,208.583,372.424,209.121,370.588z"/>
	<path style="fill:#F98A25;" d="M133.913,378.178c0.51-1.835,0.565-3.795,0.138-5.712c-0.883-3.837,0.276-7.866,3.05-10.639   l180.803-180.803c1.38-1.38,3.091-2.374,4.913-2.897c1.849-0.525,3.809-0.58,5.727-0.152c3.837,0.883,7.852-0.262,10.639-3.05   l28.772-28.772c-10.654-7.644-22.121-14.227-34.237-19.581l-62.843,62.843c-2.787,2.787-3.933,6.803-3.05,10.639   c0.883,3.837-0.276,7.866-3.05,10.639l-98.005,98.005c-1.38,1.38-3.091,2.374-4.912,2.898c-1.849,0.525-3.809,0.58-5.727,0.151   c-3.836-0.883-7.852,0.262-10.639,3.05l-65.329,65.327c5.354,12.116,11.937,23.583,19.581,34.237L131,383.105   C132.395,381.711,133.375,380.014,133.913,378.178z"/>
	<path style="fill:#F98A25;" d="M135.292,241.562c0.51-1.835,0.565-3.795,0.138-5.712c-0.883-3.837,0.276-7.866,3.05-10.639   l42.806-42.806c1.38-1.38,3.091-2.374,4.913-2.897c1.848-0.525,3.809-0.579,5.727-0.152c3.837,0.883,7.852-0.262,10.639-3.05   l65.7-65.7c-4.057-0.276-8.155-0.4-12.268-0.4c-106.147,0-192.202,86.055-192.202,192.202c0,4.113,0.124,8.211,0.4,12.267   l68.184-68.184C133.775,245.094,134.754,243.396,135.292,241.562z"/>
	<path style="fill:#F98A25;" d="M141.502,302.969c0.51-1.835,0.565-3.795,0.138-5.712c-0.883-3.837,0.276-7.866,3.05-10.639   l98.005-98.005c1.38-1.38,3.091-2.374,4.913-2.897c1.849-0.525,3.809-0.579,5.727-0.152c3.837,0.883,7.852-0.262,10.639-3.05   l59.959-59.959c-13.676-5.175-28.11-8.818-43.069-10.75l-71.4,71.4c-2.787,2.787-3.933,6.803-3.05,10.639   c0.883,3.837-0.276,7.866-3.05,10.639l-42.806,42.806c-1.38,1.38-3.091,2.374-4.912,2.898c-1.849,0.525-3.809,0.58-5.727,0.152   c-3.836-0.883-7.852,0.262-10.639,3.05l-73.884,73.884c1.932,14.959,5.575,29.394,10.75,43.069l62.443-62.443   C139.985,306.502,140.964,304.805,141.502,302.969z"/>
	<path style="fill:#F98A25;" d="M448.2,302.404c0-6.376-0.303-12.695-0.925-18.919l-75.664,75.664   c-2.787,2.787-3.933,6.803-3.05,10.639c0.883,3.837-0.276,7.866-3.05,10.639l-29.007,29.007c-1.38,1.38-3.091,2.374-4.912,2.897   c-1.849,0.525-3.809,0.58-5.727,0.152c-3.836-0.883-7.852,0.262-10.639,3.05l-78.148,78.148c6.223,0.621,12.544,0.925,18.919,0.925   C362.145,494.606,448.201,408.551,448.2,302.404z"/>
	<path style="fill:#F98A25;" d="M270.529,376.797c0.51-1.835,0.565-3.795,0.138-5.712c-0.883-3.836,0.276-7.866,3.05-10.639   l42.806-42.806c1.38-1.38,3.091-2.374,4.913-2.898c1.848-0.525,3.809-0.58,5.727-0.151c3.837,0.883,7.852-0.262,10.639-3.05   l91.782-91.782c-5.658-11.868-12.502-23.073-20.382-33.437l-70.709,70.709c-2.787,2.787-3.933,6.803-3.05,10.639   c0.883,3.837-0.276,7.866-3.05,10.639l-98.005,98.005c-1.38,1.38-3.091,2.374-4.912,2.897c-1.849,0.525-3.809,0.58-5.727,0.152   c-3.836-0.883-7.852,0.262-10.639,3.05l-73.193,73.193c10.363,7.88,21.569,14.725,33.437,20.382l94.265-94.265   C269.011,380.33,269.991,378.633,270.529,376.797z"/>
	<path style="fill:#F98A25;" d="M311.238,403.708c0.51-1.835,0.565-3.795,0.138-5.712c-0.883-3.837,0.276-7.866,3.05-10.639   l29.007-29.007c1.38-1.38,3.091-2.374,4.913-2.898c1.849-0.525,3.809-0.579,5.727-0.151c3.837,0.883,7.852-0.262,10.639-3.05   l80.963-80.963c-2.359-14.614-6.39-28.662-11.854-41.964l-89.118,89.118c-2.787,2.787-3.933,6.803-3.05,10.639   c0.883,3.837-0.276,7.866-3.05,10.639l-42.806,42.806c-1.38,1.38-3.091,2.374-4.912,2.897c-1.849,0.525-3.809,0.58-5.727,0.152   c-3.837-0.883-7.852,0.262-10.639,3.05l-91.602,91.602c13.303,5.465,27.351,9.494,41.965,11.853l83.447-83.447   C309.72,407.24,310.7,405.543,311.238,403.708z"/>
</g>
<g>
</g>
<g>
</g>
<g>
</g>
<g>
</g>
<g>
</g>
<g>
</g>
<g>
</g>
<g>
</g>
<g>
</g>
<g>
</g>
<g>
</g>
<g>
</g>
<g>
</g>
<g>
</g>
<g>
</g>
</svg>
