<?xml version="1.0" encoding="iso-8859-1"?>
<!-- Generator: Adobe Illustrator 19.0.0, SVG Export Plug-In . SVG Version: 6.00 Build 0)  -->
<svg xmlns="http://www.w3.org/2000/svg" xmlns:xlink="http://www.w3.org/1999/xlink" version="1.1" id="Capa_1" x="0px" y="0px" viewBox="0 0 512 512" style="enable-background:new 0 0 512 512;" xml:space="preserve">
<circle style="fill:#019DFA;" cx="256" cy="256" r="256"/>
<g>
	<path style="fill:#FFFFFF;" d="M316.323,219.212H194.164c-7.077,0-12.814-5.736-12.814-12.814l0,0   c0-7.077,5.736-12.814,12.814-12.814h122.159c7.077,0,12.814,5.736,12.814,12.814l0,0   C329.137,213.475,323.4,219.212,316.323,219.212z"/>
	<path style="fill:#FFFFFF;" d="M258.233,228.609h60.817c1.796,0,3.252,1.456,3.252,3.252v10.926c0,0.229-0.024,0.458-0.072,0.681   l-15.182,70.851c-1.381,6.448,3.534,12.529,10.129,12.529l0,0v14.032c0,2.63-2.132,4.762-4.762,4.762h-54.182h-54.182   c-2.63,0-4.762-2.132-4.762-4.762v-14.032l0,0c6.595,0,11.511-6.081,10.129-12.529l-15.182-70.851   c-0.048-0.224-0.072-0.452-0.072-0.681v-10.926c0-1.796,1.456-3.252,3.252-3.252L258.233,228.609L258.233,228.609z"/>
	<path style="fill:#FFFFFF;" d="M299.238,185.418c-2.516,0-4.557-2.04-4.557-4.557v-61.933c0-2.905-2.364-5.268-5.267-5.268   c-2.904,0-5.267,2.364-5.267,5.268v61.933c0,2.516-2.04,4.557-4.557,4.557c-2.516,0-4.557-2.04-4.557-4.557v-61.933   c0-7.93,6.451-14.381,14.38-14.381c7.929,0,14.38,6.451,14.38,14.381v61.933C303.794,183.379,301.754,185.418,299.238,185.418z"/>
	<path style="fill:#FFFFFF;" d="M230.043,185.418c-2.516,0-4.557-2.04-4.557-4.557v-61.933c0-2.905-2.364-5.268-5.267-5.268   c-2.905,0-5.268,2.364-5.268,5.268v61.933c0,2.516-2.04,4.557-4.557,4.557c-2.516,0-4.557-2.04-4.557-4.557v-61.933   c0-7.93,6.451-14.381,14.381-14.381c7.929,0,14.38,6.451,14.38,14.381v61.933C234.599,183.379,232.559,185.418,230.043,185.418z"/>
	<path style="fill:#FFFFFF;" d="M300.455,489.85c-12.157,0-24.039-3.95-33.996-11.503c-14.286-10.838-22.419-27.946-22.419-45.877   v-79.424h23.921v80.177c0,10.155,4.598,19.561,12.614,25.803c7.982,6.216,18.176,8.362,27.967,5.888   c45.266-11.441,86.224-38.05,115.327-74.928c14.562-18.452,25.898-38.992,33.695-61.052c8.067-22.823,12.156-46.789,12.156-71.234   c0-28.877-5.656-56.882-16.812-83.238c-10.778-25.462-26.209-48.329-45.864-67.963c-19.653-19.634-42.536-35.041-68.008-45.792   c-26.297-11.099-54.234-16.727-83.032-16.727c-0.077,0-0.153,0-0.23,0c-57.087,0.06-110.717,22.306-151.009,62.642   s-62.481,93.989-62.481,151.077c0,23.972,3.936,47.5,11.7,69.931c7.504,21.685,18.434,41.945,32.485,60.219   c13.908,18.088,30.514,33.769,49.357,46.606c19.12,13.027,40.065,22.791,62.252,29.023l0,0c6.359,1.787,10.067,8.389,8.28,14.749   l0,0c-1.786,6.359-8.389,10.067-14.749,8.281l0,0c-24.687-6.934-47.986-17.796-69.252-32.284   c-20.941-14.267-39.396-31.693-54.851-51.795c-15.623-20.319-27.779-42.852-36.127-66.975   c-8.636-24.953-13.015-51.113-13.015-77.754c0-32.075,6.271-63.189,18.64-92.478c11.946-28.29,29.051-53.693,50.838-75.504   s47.173-38.943,75.449-50.92c29.276-12.4,60.383-18.704,92.459-18.737c0.084,0,0.172,0,0.256,0c32.013,0,63.073,6.26,92.332,18.609   c28.326,11.956,53.766,29.083,75.613,50.906c21.847,21.824,39.001,47.247,50.986,75.563c12.411,29.322,18.705,60.464,18.705,92.561   c0,27.167-4.549,53.815-13.523,79.205c-8.673,24.539-21.279,47.385-37.47,67.901c-16.032,20.314-35.132,37.787-56.768,51.932   c-22.011,14.39-46.058,24.944-71.475,31.368C309.774,489.275,305.095,489.849,300.455,489.85z"/>
</g>
<g>
</g>
<g>
</g>
<g>
</g>
<g>
</g>
<g>
</g>
<g>
</g>
<g>
</g>
<g>
</g>
<g>
</g>
<g>
</g>
<g>
</g>
<g>
</g>
<g>
</g>
<g>
</g>
<g>
</g>
</svg>
