<?xml version="1.0" encoding="iso-8859-1"?>
<!-- Generator: Adobe Illustrator 19.0.0, SVG Export Plug-In . SVG Version: 6.00 Build 0)  -->
<svg xmlns="http://www.w3.org/2000/svg" xmlns:xlink="http://www.w3.org/1999/xlink" version="1.1" id="Capa_1" x="0px" y="0px" viewBox="0 0 511.999 511.999" style="enable-background:new 0 0 511.999 511.999;" xml:space="preserve">
<circle style="fill:#FE8600;" cx="256" cy="255.999" r="255.39"/>
<g>
	<path style="fill:#F2F2F2;" d="M126.836,353.201L126.836,353.201c-9.64,0-17.454,7.815-17.454,17.454v62.836h34.909v-62.836   C144.291,361.016,136.476,353.201,126.836,353.201z"/>
	<path style="fill:#F2F2F2;" d="M121.018,259.231c-13.391,12.79-39.102,41.25-44.219,75.353c0,0,17.91-3.695,44.219-2.679V259.231z"/>
	<path style="fill:#F2F2F2;" d="M382.836,251.965L256,300.838c0,0-116.742-44.984-123.346-47.527v79.332   c36.205,3.2,83.809,15.931,123.346,55.468c75.055-75.055,179.2-53.527,179.2-53.527   C428.218,288.037,382.836,251.965,382.836,251.965z"/>
	<path style="fill:#F2F2F2;" d="M255.999,83.238L0,185.486l121.211,48.412l109.384-43.689c-0.805-1.491-1.245-3.076-1.245-4.724   c0-8.634,11.932-15.633,26.65-15.633s26.65,6.999,26.65,15.633s-11.932,15.633-26.65,15.633c-5.466,0-10.545-0.968-14.774-2.625   l-104.329,41.669L256,287.732l255.999-102.247L255.999,83.238z"/>
</g>
<g>
</g>
<g>
</g>
<g>
</g>
<g>
</g>
<g>
</g>
<g>
</g>
<g>
</g>
<g>
</g>
<g>
</g>
<g>
</g>
<g>
</g>
<g>
</g>
<g>
</g>
<g>
</g>
<g>
</g>
</svg>
