<?xml version="1.0" encoding="iso-8859-1"?>
<!-- Generator: Adobe Illustrator 19.0.0, SVG Export Plug-In . SVG Version: 6.00 Build 0)  -->
<svg xmlns="http://www.w3.org/2000/svg" xmlns:xlink="http://www.w3.org/1999/xlink" version="1.1" id="Capa_1" x="0px" y="0px" viewBox="0 0 512 512" style="enable-background:new 0 0 512 512;" xml:space="preserve">
<circle style="fill:#29DE2F;" cx="256" cy="256" r="256"/>
<g>
	<path style="fill:#F2F2F2;" d="M495.473,142.889v203.818c-5.559,14.66-12.424,28.672-20.449,41.9   c-0.261,0.021-0.512,0.021-0.773,0.021h-67.479c-11.713,0-21.222-9.498-21.222-21.222V142.889c0-11.713,9.509-21.211,21.222-21.211   h67.48C485.975,121.677,495.473,131.175,495.473,142.889z"/>
	<path style="fill:#F2F2F2;" d="M350.483,11.749H283c-11.72,0-21.221,9.5-21.221,21.221v334.44c0,11.72,9.5,21.221,21.221,21.221   h67.483c11.72,0,21.221-9.5,21.221-21.221V32.97C371.703,21.25,362.202,11.749,350.483,11.749z"/>
	<path style="fill:#F2F2F2;" d="M226.709,215.893h-67.483c-11.72,0-21.221,9.5-21.221,21.221V367.41   c0,11.72,9.5,21.221,21.221,21.221h67.483c11.72,0,21.221-9.5,21.221-21.221V237.113   C247.929,225.394,238.429,215.893,226.709,215.893z"/>
	<path style="fill:#F2F2F2;" d="M124.158,336.571v30.835c0,11.724-9.498,21.222-21.222,21.222H36.993   c-9.185-15.13-16.833-31.284-22.758-48.253v-3.803c0-11.724,9.498-21.222,21.222-21.222h67.48   C114.66,315.349,124.158,324.847,124.158,336.571z"/>
	<path style="fill:#F2F2F2;" d="M462.788,406.955c-5.684,7.764-11.786,15.182-18.275,22.246H67.493   c-6.489-7.064-12.591-14.482-18.275-22.246H462.788z"/>
</g>
<g>
</g>
<g>
</g>
<g>
</g>
<g>
</g>
<g>
</g>
<g>
</g>
<g>
</g>
<g>
</g>
<g>
</g>
<g>
</g>
<g>
</g>
<g>
</g>
<g>
</g>
<g>
</g>
<g>
</g>
</svg>
