<?xml version="1.0" encoding="iso-8859-1"?>
<!-- Generator: Adobe Illustrator 19.0.0, SVG Export Plug-In . SVG Version: 6.00 Build 0)  -->
<svg xmlns="http://www.w3.org/2000/svg" xmlns:xlink="http://www.w3.org/1999/xlink" version="1.1" id="Capa_1" x="0px" y="0px" viewBox="0 0 512 512" style="enable-background:new 0 0 512 512;" xml:space="preserve">
<circle style="fill:#EDEDED;" cx="256" cy="256" r="256"/>
<g>
	<path style="fill:#FE0000;" d="M129.676,98.632c-1,1.749-2.249,2.624-2.873,2.624c-1.25,0-1.999-0.75-2.875-2.624l-22.114-42.607   v74.467c0,1.875-1.499,2.749-3.123,2.749c-1.499,0-3.123-0.875-3.123-2.749V44.904c0-2.249,1.499-2.999,3.123-2.999   c2.124,0,4.123,2.999,5.247,5.123l22.866,44.73l22.99-44.73c1.124-2.124,2.999-5.123,5.247-5.123c1.624,0,3.123,0.749,3.123,2.999   v85.588c0,1.875-1.625,2.749-3.123,2.749c-1.625,0-3.124-0.875-3.124-2.749V56.151L129.676,98.632z"/>
	<path style="fill:#FE0000;" d="M219.76,96.382v14.494c0,12.12-10.745,23.115-22.99,23.115c-12.245,0-22.864-10.87-22.864-23.115   V96.382c0-12.244,10.371-22.864,22.864-22.864C209.014,73.518,219.76,83.763,219.76,96.382z M213.638,96.382   c0-8.621-7.497-17.118-16.868-17.118s-16.742,8.496-16.742,17.118v14.494c0,8.871,7.372,17.367,16.742,17.367   c9.246,0,16.868-8.496,16.868-17.367V96.382z"/>
	<path style="fill:#FE0000;" d="M239.999,130.493c0,1.374-1.374,2.749-3.123,2.749s-2.999-1.374-2.999-2.749V76.767   c0-1.499,1.25-2.498,2.999-2.498c1.625,0,2.999,1,2.999,2.498v6.247c2.624-4.872,8.372-9.496,16.742-9.496   c12.12,0,22.365,10.245,22.365,22.864v34.11c0,1.875-1.625,2.749-3.124,2.749s-2.999-0.875-2.999-2.749v-34.11   c0-8.621-7.621-17.118-16.742-17.118c-7.997,0-16.118,6.372-16.118,17.118L239.999,130.493L239.999,130.493z"/>
	<path style="fill:#FE0000;" d="M337.829,40.158v90.336c0,1.374-1.249,2.749-2.999,2.749c-1.625,0-2.999-1.374-2.999-2.749v-5.998   c-2.749,5.123-9.371,9.496-16.992,9.496c-11.87,0-22.241-10.995-22.241-23.115V96.382c0-12.619,10.246-22.864,22.49-22.864   c8.246,0,13.869,4.623,16.618,9.496V40.158c0-1.499,1.374-2.624,3.123-2.624C336.58,37.534,337.829,38.658,337.829,40.158z    M298.722,110.876c0,8.871,7.621,17.367,16.618,17.367c9.371,0,16.368-9.121,16.368-13.119V96.382   c0-10.745-8.246-17.118-16.243-17.118c-9.246,0-16.742,8.496-16.742,17.118v14.494   C298.723,110.876,298.722,110.876,298.722,110.876z"/>
	<path style="fill:#FE0000;" d="M392.179,97.507v32.985c0,1.499-1.249,2.749-2.999,2.749c-1.624,0-2.999-1.25-2.999-2.749v-5.998   c-4.249,4.873-10.495,9.496-18.741,9.496c-9.621,0-17.243-5.247-17.243-16.493c0-13.369,11.745-16.742,29.112-16.742h6.747v-3.249   c0-8.746-4.373-18.367-15.743-18.367c-7.997,0-11.37,3.498-13.12,3.498c-1.749,0-2.749-2.124-2.749-3.373   c0-2.749,8.372-5.747,16.118-5.747C386.557,73.518,392.179,85.137,392.179,97.507z M386.057,105.754h-6.122   c-12.245,0-23.615,1.124-23.615,11.495c0,7.747,5.247,11.245,11.994,11.245c8.746,0,17.742-7.997,17.742-13.494v-9.246H386.057z"/>
	<path style="fill:#FE0000;" d="M401.426,77.391c-0.125-0.375-0.25-0.625-0.25-1c0-1.624,1.875-2.999,3.624-2.999   c0.999,0,2.124,0.625,2.374,1.624l17.617,48.104l17.117-48.104c0.499-0.999,1.374-1.624,2.374-1.624   c1.499,0,3.498,1.25,3.498,2.999c0,0.375,0,0.625-0.125,1l-19.741,53.851c-4.748,12.869-11.245,31.362-23.739,31.362   c-1.499,0-2.875-0.875-2.875-2.873c0-1.499,0.625-2.873,2.25-2.873c8.372,0,14.368-13.244,18.116-25.614L401.426,77.391z"/>
</g>
<path d="M162.983,223.022c-5.381,0-7.868,2.905-9.937,6.635l-30.668,50.542c-1.651,2.069-4.963,7.879-4.963,10.773  c0,4.974,3.72,9.529,9.112,9.529c2.487,0,5.381-1.243,7.461-5.381l17.398-29.832v224.423c6.76,3.041,13.667,5.778,20.72,8.223  V231.726C172.105,225.509,167.539,223.022,162.983,223.022z"/>
<path d="M310.888,223.022c-47.229,0-83.278,23.615-83.278,87.009v131.344c0,34.388,10.616,57.072,27.867,70.625H256  c15.423,0,30.511-1.358,45.181-3.981c-33.437-3.312-52.851-24.576-52.851-66.644V310.031c0-45.986,23.197-67.114,62.558-67.114  s62.976,21.128,62.976,67.114v131.344c0,21.932-5.371,38.212-15.266,49.236c11.118-4.869,21.817-10.501,32.047-16.844  c2.56-9.394,3.939-20.146,3.939-32.392V310.031C394.585,246.637,357.71,223.022,310.888,223.022z"/>
<g>
</g>
<g>
</g>
<g>
</g>
<g>
</g>
<g>
</g>
<g>
</g>
<g>
</g>
<g>
</g>
<g>
</g>
<g>
</g>
<g>
</g>
<g>
</g>
<g>
</g>
<g>
</g>
<g>
</g>
</svg>
