<?xml version="1.0" encoding="iso-8859-1"?>
<!-- Generator: Adobe Illustrator 19.0.0, SVG Export Plug-In . SVG Version: 6.00 Build 0)  -->
<svg xmlns="http://www.w3.org/2000/svg" xmlns:xlink="http://www.w3.org/1999/xlink" version="1.1" id="Capa_1" x="0px" y="0px" viewBox="0 0 512 512" style="enable-background:new 0 0 512 512;" xml:space="preserve">
<path style="fill:#FFA403;" d="M512,256c0,63.666-23.239,121.908-61.701,166.693c-6.134,7.147-12.664,13.949-19.54,20.365  C385.003,485.836,323.563,512,256,512C114.615,512,0,397.385,0,256S114.615,0,256,0S512,114.615,512,256z"/>
<g>
	<path style="fill:#F2F2F2;" d="M96.751,406.659c-1.039,1.856-0.709,4.18,0.795,5.683c1.504,1.504,3.827,1.834,5.683,0.795   c13.212-7.395,26.146-15.247,38.781-23.545l-21.715-21.715C111.998,380.513,104.146,393.448,96.751,406.659z"/>
	<path style="fill:#F2F2F2;" d="M191.982,277.517c-24.623,25.88-47.02,53.744-66.974,83.294l24.069,24.069   c6.844-4.615,13.6-9.363,20.257-14.246c22.094-16.199,43.154-33.808,63.037-52.728l91.025-86.602l-44.813-44.813L191.982,277.517z"/>
	<path style="fill:#F2F2F2;" d="M365.922,226.69v-7.252c6.162-9.814,74.527-79.728,105.951-111.673   c9.08-9.232,10.382-23.59,3.112-34.304l6.857-7.151c10.191-10.629,10.014-27.454-0.398-37.866l0,0   c-10.412-10.412-27.237-10.589-37.866-0.398l-159.1,152.552l44.81,44.81l131.93-137.591l0.486,0.716   c2.014,2.969,1.654,6.942-0.864,9.496c-17.339,17.588-83.519,84.882-104.934,109.342c-4.036,4.61-6.26,10.524-6.26,16.65v2.667   c0,3.69,2.482,6.917,6.047,7.865C360.859,235.927,365.922,232.034,365.922,226.69z"/>
	<path style="fill:#F2F2F2;" d="M450.299,422.693c-6.134,7.147-12.664,13.949-19.54,20.365H102.243   c-5.632,0-10.188-4.556-10.188-10.188c0-2.811,1.139-5.35,2.978-7.199c1.849-1.839,4.399-2.978,7.21-2.978H450.299L450.299,422.693   z"/>
</g>
<g>
</g>
<g>
</g>
<g>
</g>
<g>
</g>
<g>
</g>
<g>
</g>
<g>
</g>
<g>
</g>
<g>
</g>
<g>
</g>
<g>
</g>
<g>
</g>
<g>
</g>
<g>
</g>
<g>
</g>
</svg>
