<?xml version="1.0" encoding="iso-8859-1"?>
<!-- Generator: Adobe Illustrator 19.0.0, SVG Export Plug-In . SVG Version: 6.00 Build 0)  -->
<svg xmlns="http://www.w3.org/2000/svg" xmlns:xlink="http://www.w3.org/1999/xlink" version="1.1" id="Capa_1" x="0px" y="0px" viewBox="0 0 512 512" style="enable-background:new 0 0 512 512;" xml:space="preserve">
<circle style="fill:#1E1E1E;" cx="256" cy="256" r="256"/>
<g>
	<path style="fill:#8F8E94;" d="M180.802,301.808c-11.139,25.443-27.209,47.125-43.06,59.591   c-28.526,22.413-40.751-6.113-67.229-6.113c-18.004,0-29.424,13.197-43.865,14.576C9.595,335.558,0.003,296.897,0.003,255.999   c0-36.112,7.481-70.489,20.971-101.648c23.573,1.055,29.435,12.831,49.539,12.831c21.055,0,26.478-12.904,52.966-12.904   c17.189,0,38.421,10.564,53.363,29.111c-22.329,9.968-37.888,32.36-37.888,58.399C138.954,269.343,156.372,292.822,180.802,301.808   z"/>
	<path style="fill:#8F8E94;" d="M61.473,151.875c0,1.708,0.088,3.395,0.226,5.068c32.802-1.084,59.066-27.999,59.066-61.065   c0-1.708-0.088-3.395-0.226-5.068C87.737,91.895,61.473,118.81,61.473,151.875z"/>
	<path style="fill:#8F8E94;" d="M321.614,214.464c6.895,0,11.108-7.278,11.108-14.939s-4.212-14.941-11.108-14.941H274.88v-70.1   c0-7.661-10.341-13.024-20.301-13.024c-9.576,0-19.921,5.362-19.921,13.024v70.1h-20.545c-6.895,0-11.108,7.28-11.108,14.941   s4.212,14.939,11.108,14.939h20.545v91.935c0,41.754,23.368,59.758,67.036,59.758h13.408c11.492,0,17.237-8.427,17.237-17.239   c0-8.811-5.746-17.238-17.237-17.238h-13.409c-19.918,0-26.814-6.894-26.814-25.281v-91.935L321.614,214.464L321.614,214.464z"/>
	<path style="fill:#8F8E94;" d="M485.567,183.053c-6.51,0-10.341,2.681-12.258,8.044L427.725,311.38L382.14,190.331   c-1.914-5.363-6.895-7.278-12.258-7.278c-10.725,0-26.431,7.66-26.431,17.238c0,1.915,1.147,4.98,1.914,6.513l63.972,155.141   c2.3,5.362,9.96,8.045,18.387,8.045c8.046,0,16.089-2.682,18.387-8.045l64.355-155.141c0.767-1.915,1.534-4.213,1.534-6.513   C512,190.713,493.996,183.053,485.567,183.053z"/>
</g>
<g>
</g>
<g>
</g>
<g>
</g>
<g>
</g>
<g>
</g>
<g>
</g>
<g>
</g>
<g>
</g>
<g>
</g>
<g>
</g>
<g>
</g>
<g>
</g>
<g>
</g>
<g>
</g>
<g>
</g>
</svg>
