<?xml version="1.0" encoding="iso-8859-1"?>
<!-- Generator: Adobe Illustrator 19.0.0, SVG Export Plug-In . SVG Version: 6.00 Build 0)  -->
<svg xmlns="http://www.w3.org/2000/svg" xmlns:xlink="http://www.w3.org/1999/xlink" version="1.1" id="Capa_1" x="0px" y="0px" viewBox="0 0 512 512" style="enable-background:new 0 0 512 512;" xml:space="preserve">
<circle style="fill:#F2F2F2;" cx="256" cy="256" r="256"/>
<g>
	<path style="fill:#5C5E70;" d="M463.238,406.339c-7.471,10.271-15.684,19.968-24.565,29.017   c-32.423,33.019-73.728,57.281-120.048,68.921c-20.041,5.047-41.012,7.722-62.621,7.722c-18.651,0-36.833-1.996-54.345-5.789   c-34.868-7.523-67.093-22.173-95.086-42.329c-25.851-18.62-48.097-41.942-65.463-68.723   c-11.985-33.677-19.299-69.684-19.299-105.179c0-100.049,83.832-163.61,143.328-163.61c52.736,0,63.551,25.694,105.472,25.694   c41.911,0,52.725-25.694,105.461-25.694c34.22,0,76.507,21.034,106.245,57.96c-44.46,19.853-75.441,64.439-75.441,116.297   C406.876,344.669,429.247,383.487,463.238,406.339z"/>
	<path style="fill:#5C5E70;" d="M252.602,121.589c0,3.401,0.176,6.76,0.449,10.091c65.314-2.158,117.609-55.749,117.609-121.589   c0-3.401-0.176-6.76-0.449-10.091C304.897,2.158,252.602,55.749,252.602,121.589z"/>
</g>
<g>
</g>
<g>
</g>
<g>
</g>
<g>
</g>
<g>
</g>
<g>
</g>
<g>
</g>
<g>
</g>
<g>
</g>
<g>
</g>
<g>
</g>
<g>
</g>
<g>
</g>
<g>
</g>
<g>
</g>
</svg>
