<?xml version="1.0" encoding="iso-8859-1"?>
<!-- Generator: Adobe Illustrator 19.0.0, SVG Export Plug-In . SVG Version: 6.00 Build 0)  -->
<svg xmlns="http://www.w3.org/2000/svg" xmlns:xlink="http://www.w3.org/1999/xlink" version="1.1" id="Capa_1" x="0px" y="0px" viewBox="0 0 511.99 511.99" style="enable-background:new 0 0 511.99 511.99;" xml:space="preserve">
<circle style="fill:#8A60CC;" cx="255.995" cy="256.01" r="255.98"/>
<path style="fill:#F2F2F2;" d="M367.613,343.551l38.857,119.581c-16.999,12.371-35.587,22.694-55.387,30.624l-95.09-69.095  l-95.101,69.084c-19.8-7.92-38.377-18.253-55.376-30.624l38.847-119.571L0.563,239.078c0.585-9.059,1.651-17.982,3.166-26.748  h183.274l68.98-212.299L255.993,0l0.01,0.031l68.98,212.299h183.274c1.515,8.766,2.581,17.689,3.166,26.748L367.613,343.551z"/>
<g>
	<path style="fill:#8A60CC;" d="M270.177,256.397h-70.653c-8.4,0-15.212,6.81-15.212,15.212v55.155c0,8.4,6.81,15.212,15.212,15.212   h70.653c8.4,0,15.212-6.81,15.212-15.212v-55.155C285.389,263.207,278.579,256.397,270.177,256.397z"/>
	<path style="fill:#8A60CC;" d="M180.944,288.066h-3.523c-2.52,0-4.563-2.043-4.563-4.563V271.74c0-2.52,2.043-4.563,4.563-4.563   h3.523V288.066z"/>
	<polygon style="fill:#8A60CC;" points="289.432,312.998 322.45,334.561 322.45,265.156 289.432,286.719  "/>
	<rect x="327.505" y="265.16" style="fill:#8A60CC;" width="11.626" height="69.41"/>
</g>
<g>
</g>
<g>
</g>
<g>
</g>
<g>
</g>
<g>
</g>
<g>
</g>
<g>
</g>
<g>
</g>
<g>
</g>
<g>
</g>
<g>
</g>
<g>
</g>
<g>
</g>
<g>
</g>
<g>
</g>
</svg>
