<?xml version="1.0" encoding="iso-8859-1"?>
<!-- Generator: Adobe Illustrator 19.0.0, SVG Export Plug-In . SVG Version: 6.00 Build 0)  -->
<svg xmlns="http://www.w3.org/2000/svg" xmlns:xlink="http://www.w3.org/1999/xlink" version="1.1" id="Capa_1" x="0px" y="0px" viewBox="0 0 512 512" style="enable-background:new 0 0 512 512;" xml:space="preserve">
<circle style="fill:#1076F7;" cx="256" cy="256" r="256"/>
<g>
	<path style="fill:#F2F2F2;" d="M249.9,128.651l2.15-3.587c8.289-13.803,3.819-31.713-9.985-40.002l0,0   c-13.803-8.289-31.713-3.819-40.002,9.985l-2.15,3.587L249.9,128.651z"/>
	<polygon style="fill:#F2F2F2;" points="191.711,112.313 169.142,149.952 219.129,179.969 241.698,142.33  "/>
	<polygon style="fill:#F2F2F2;" points="112.23,358.251 210.927,193.649 160.94,163.632 62.243,328.234  "/>
	<path style="fill:#F2F2F2;" d="M104.023,371.931L53.492,412.62c-4.127-5.319-8.046-10.815-11.745-16.457l12.288-54.251   L104.023,371.931z"/>
	<path style="fill:#F2F2F2;" d="M353.674,261.244l35.485-21.309L305.275,84.799c-16.054-29.691-35.892-57.174-59.017-81.76   L245.657,2.4c-5.267-5.6-14.549-0.613-12.789,6.869l0,0c7.895,33.556,20.202,65.918,36.599,96.241L353.674,261.244z"/>
	<polygon style="fill:#F2F2F2;" points="361.269,275.289 387.431,323.675 423.758,303.923 396.753,253.98  "/>
	<path style="fill:#F2F2F2;" d="M476.979,385.327c-9.644,16.447-21.076,31.723-34.022,45.558c-7.043-2.55-13.134-7.764-16.603-15.13   c-11.985-25.464-22.068-51.775-30.198-78.712l32.037-19.237C446.06,339.101,462.392,361.67,476.979,385.327z"/>
	<polygon style="fill:#F2F2F2;" points="112.738,213.163 27.246,213.163 27.246,303.81 58.305,303.81  "/>
	<polygon style="fill:#F2F2F2;" points="307.804,213.163 217.96,213.163 163.527,303.81 360.139,303.81  "/>
	<polygon style="fill:#F2F2F2;" points="389.989,213.163 442.325,303.81 484.755,303.81 484.755,213.163  "/>
</g>
<g>
</g>
<g>
</g>
<g>
</g>
<g>
</g>
<g>
</g>
<g>
</g>
<g>
</g>
<g>
</g>
<g>
</g>
<g>
</g>
<g>
</g>
<g>
</g>
<g>
</g>
<g>
</g>
<g>
</g>
</svg>
