<?xml version="1.0" encoding="iso-8859-1"?>
<!-- Generator: Adobe Illustrator 19.0.0, SVG Export Plug-In . SVG Version: 6.00 Build 0)  -->
<svg xmlns="http://www.w3.org/2000/svg" xmlns:xlink="http://www.w3.org/1999/xlink" version="1.1" id="Capa_1" x="0px" y="0px" viewBox="0 0 512 512" style="enable-background:new 0 0 512 512;" xml:space="preserve">
<circle style="fill:#A479E2;" cx="256" cy="256.65" r="255.35"/>
<path style="fill:#F2F2F2;" d="M428.914,27.401v356.4c0,34.238-23.909,63.817-57.376,70.988l-18.511,3.961  c-37.521,8.046-72.948-20.126-73.708-58.283c-0.604-29.548,20.856-55.01,49.716-61.243l46.464-9.964  c10.433-2.23,17.906-11.454,17.906-22.148V135.004c0-7.452-6.837-13.018-14.133-11.517l-192.453,39.689  c-5.461,1.126-9.38,5.941-9.38,11.517v260.981c0,21.502-9.432,41.148-24.733,54.562c-41.774-18.5-77.659-47.871-104.059-84.538  c8.036-7.108,17.948-12.247,28.944-14.602l46.422-9.974c10.464-2.23,17.916-11.486,17.916-22.138V75.272  c0-12.997,9.13-24.201,21.856-26.828l170.076-35.062L396,0.574C412.989-2.928,428.914,10.048,428.914,27.401z"/>
<g>
</g>
<g>
</g>
<g>
</g>
<g>
</g>
<g>
</g>
<g>
</g>
<g>
</g>
<g>
</g>
<g>
</g>
<g>
</g>
<g>
</g>
<g>
</g>
<g>
</g>
<g>
</g>
<g>
</g>
</svg>
