<?xml version="1.0" encoding="iso-8859-1"?>
<!-- Generator: Adobe Illustrator 19.0.0, SVG Export Plug-In . SVG Version: 6.00 Build 0)  -->
<svg xmlns="http://www.w3.org/2000/svg" xmlns:xlink="http://www.w3.org/1999/xlink" version="1.1" id="Capa_1" x="0px" y="0px" viewBox="0 0 512 512" style="enable-background:new 0 0 512 512;" xml:space="preserve">
<circle style="fill:#43DF5F;" cx="256" cy="256" r="256"/>
<path style="fill:#F2F2F2;" d="M512,256c0,39.257-8.84,76.445-24.628,109.693c-43.06,47.877-111.867,78.879-189.398,78.879  c-23.541,0-46.258-2.894-67.709-8.213c-0.083-0.021-0.178,0-0.24,0.062c-34.063,31.117-61.628,45.547-81.294,52.088  c-7.314-3.386-14.44-7.095-21.358-11.128c20.563-30.334,20.939-63.958,20.03-77.803c-52.265-35.924-85.567-90.175-85.567-150.873  c0-108.178,105.723-195.866,236.136-195.866c67.062,0,127.593,23.186,170.579,60.426C495.991,154.039,512,203.16,512,256z"/>
<g>
</g>
<g>
</g>
<g>
</g>
<g>
</g>
<g>
</g>
<g>
</g>
<g>
</g>
<g>
</g>
<g>
</g>
<g>
</g>
<g>
</g>
<g>
</g>
<g>
</g>
<g>
</g>
<g>
</g>
</svg>
