<svg id="Layer_1" enable-background="new 0 0 512 512" height="512" viewBox="0 0 512 512" width="512" xmlns="http://www.w3.org/2000/svg"><g><g><path d="m256 512c93.011 0 169.083-73.855 172.686-166l-172.686-15.333-10.667 85.333z" fill="#e20000"/><path d="m83.314 346c3.602 92.145 79.675 166 172.686 166v-181.333z" fill="#ff3838"/></g><g><path d="m402.368 247.231v-34.547c0-32.088-12.812-62.867-35.368-85.484v-16.2c0-61.206-49.794-111-111-111l-21.333 202.666 21.333 143.334h172.686c.089-2.268.147-4.544.147-6.833 0-32.723-9.137-64.408-26.465-91.936z" fill="#ff3838"/><path d="m145 111v16.2c-22.557 22.617-35.368 53.396-35.368 85.484v34.547c-17.328 27.528-26.465 59.213-26.465 91.935 0 2.29.059 4.565.147 6.833h172.686v-345.999c-61.206 0-111 49.794-111 111z" fill="#ff5c5c"/></g><g><path d="m256 187.667-10.667 57.666 10.667 47c28.856 0 52.333-23.477 52.333-52.333s-23.477-52.333-52.333-52.333z" fill="#262b2f"/><path d="m203.667 240c0 28.857 23.477 52.333 52.333 52.333v-104.666c-28.856 0-52.333 23.477-52.333 52.333z" fill="#32393f"/></g><g><path d="m301.017 390.432-45.017-.049-10.667 14.95 10.667 15.05 44.983.049z" fill="#ff3838"/><path d="m211.017 390.333-.034 30 45.017.05v-30z" fill="#ff5c5c"/></g></g></svg>